<?xml version="1.0" encoding="utf-8"?>
<!-- Generator: Adobe Illustrator 16.0.0, SVG Export Plug-In . SVG Version: 6.00 Build 0)  -->
<!DOCTYPE svg PUBLIC "-//W3C//DTD SVG 1.1//EN" "http://www.w3.org/Graphics/SVG/1.1/DTD/svg11.dtd">
<svg version="1.1" id="Capa_1" xmlns="http://www.w3.org/2000/svg" xmlns:xlink="http://www.w3.org/1999/xlink" x="0px" y="0px"
	 width="188px" height="188px" viewBox="0 0 188 188" enable-background="new 0 0 188 188" xml:space="preserve">
<path fill="#007E94" d="M48.907,112.141l65.275-30.381l-22.357-9.22c0,0,16.492-20.63,43.739-14.563c0,0,37.882,4.976,52.184,49.083
	c0,0-13.545-71.245-84.559-79.548c0,0-34.087-5.123-57.131,28.466l-23.114-9.112L48.907,112.141z"/>
<path fill="#007E94" d="M138.88,103.09l-65.275,30.384l22.354,9.223c0,0-16.491,20.625-43.735,14.561
	c0,0-37.882-4.974-52.188-49.083c0,0,13.545,71.243,84.559,79.546c0,0,34.091,5.128,57.135-28.462l23.114,9.111L138.88,103.09z"/>
</svg>
