<?xml version="1.0" encoding="utf-8"?>
<!-- Generator: Adobe Illustrator 16.0.0, SVG Export Plug-In . SVG Version: 6.00 Build 0)  -->
<!DOCTYPE svg PUBLIC "-//W3C//DTD SVG 1.1//EN" "http://www.w3.org/Graphics/SVG/1.1/DTD/svg11.dtd">
<svg version="1.1" id="Capa_1" xmlns="http://www.w3.org/2000/svg" xmlns:xlink="http://www.w3.org/1999/xlink" x="0px" y="0px"
	 width="188px" height="188px" viewBox="0 0 188 188" enable-background="new 0 0 188 188" xml:space="preserve">
<path fill="#C6C6C6" d="M49.146,112.271l65.163-30.33L91.99,72.737c0,0,16.463-20.594,43.664-14.538c0,0,37.817,4.967,52.094,48.998
	c0,0-13.521-71.122-84.413-79.411c0,0-34.028-5.114-57.033,28.417l-23.074-9.097L49.146,112.271z"/>
<path fill="#C6C6C6" d="M138.964,103.235l-65.163,30.331l22.315,9.207c0,0-16.463,20.59-43.66,14.536
	c0,0-37.816-4.966-52.098-48.999c0,0,13.521,71.12,84.414,79.409c0,0,34.032,5.118,57.037-28.413l23.075,9.096L138.964,103.235z"/>
</svg>
