<?xml version="1.0" encoding="UTF-8"?>
<svg width="60px" height="76px" viewBox="0 0 60 76" version="1.1" xmlns="http://www.w3.org/2000/svg" xmlns:xlink="http://www.w3.org/1999/xlink">
    <!-- Generator: Sketch 51.3 (57544) - http://www.bohemiancoding.com/sketch -->
    <title>bolsa_doc</title>
    <desc>Created with Sketch.</desc>
    <defs></defs>
    <g id="Page-1" stroke="none" stroke-width="1" fill="none" fill-rule="evenodd">
        <g id="3" transform="translate(-1166.000000, -806.000000)">
            <rect fill="#F2F2F2" x="0" y="0" width="2353" height="1323"></rect>
            <polygon id="Fill-1" fill="#1A1A1A" points="0 1323 2353 1323 2353 0 0 0"></polygon>
            <g id="Page-1" transform="translate(542.000000, 79.000000)">
                <polygon id="Fill-1" fill="#FFFFFF" points="0 1183 1775 1183 1775 -5.68434189e-13 0 -5.68434189e-13"></polygon>
                <path d="M0,1185 L1775,1185 L1775,-5.68434189e-13 L0,-5.68434189e-13 L0,1185 Z M2,1183.929 L1773.85527,1183.929 L1773.85527,1 L2,1 L2,1183.929 Z" id="Fill-2"></path>
            </g>
            <g id="Group-7" transform="translate(1105.000000, 754.000000)" stroke="#D8D9DD">
                <rect id="Rectangle-15" x="0.5" y="0.5" width="180" height="206.470085"></rect>
            </g>
            <g id="bolsa_doc" transform="translate(1166.000000, 806.000000)" fill="#9C9A9A">
                <path d="M1.81772727,1.80952381 L1.81772727,66.8781905 C1.81772727,71.2219524 5.36863636,74.7559524 9.73318182,74.7559524 L50.565,74.7559524 C54.9295455,74.7559524 58.4804545,71.2219524 58.4804545,66.8781905 L58.4804545,1.80952381 L1.81772727,1.80952381 Z M50.565,75.6607143 L9.73318182,75.6607143 C4.86681818,75.6607143 0.908636364,71.7204762 0.908636364,66.8781905 L0.908636364,0.904761905 L59.3895455,0.904761905 L59.3895455,66.8781905 C59.3895455,71.7204762 55.4313636,75.6607143 50.565,75.6607143 Z" id="Fill-1"></path>
                <path d="M1.81818182,7.27111905 L58.4809091,7.27111905 L58.4809091,1.80907143 L1.81818182,1.80907143 L1.81818182,7.27111905 Z M0.909090909,8.17588095 L59.39,8.17588095 L59.39,0.904309524 L0.909090909,0.904309524 L0.909090909,8.17588095 Z" id="Fill-4"></path>
                <polygon id="Fill-6" points="4.40363636 11.8293095 4.85818182 11.8293095 4.85818182 10.9245476 4.40363636 10.9245476"></polygon>
                <path d="M5.76363636,11.8293095 L6.66727273,11.8293095 L6.66727273,10.9245476 L5.76363636,10.9245476 L5.76363636,11.8293095 Z M7.57181818,11.8293095 L8.47545455,11.8293095 L8.47545455,10.9245476 L7.57181818,10.9245476 L7.57181818,11.8293095 Z M9.38,11.8293095 L10.2836364,11.8293095 L10.2836364,10.9245476 L9.38,10.9245476 L9.38,11.8293095 Z M11.1881818,11.8293095 L12.0918182,11.8293095 L12.0918182,10.9245476 L11.1881818,10.9245476 L11.1881818,11.8293095 Z M12.9972727,11.8293095 L13.9009091,11.8293095 L13.9009091,10.9245476 L12.9972727,10.9245476 L12.9972727,11.8293095 Z M14.8045455,11.8293095 L15.7090909,11.8293095 L15.7090909,10.9245476 L14.8045455,10.9245476 L14.8045455,11.8293095 Z M16.6127273,11.8293095 L17.5172727,11.8293095 L17.5172727,10.9245476 L16.6127273,10.9245476 L16.6127273,11.8293095 Z M18.4209091,11.8293095 L19.3254545,11.8293095 L19.3254545,10.9245476 L18.4209091,10.9245476 L18.4209091,11.8293095 Z M20.23,11.8293095 L21.1336364,11.8293095 L21.1336364,10.9245476 L20.23,10.9245476 L20.23,11.8293095 Z M22.0381818,11.8293095 L22.9418182,11.8293095 L22.9418182,10.9245476 L22.0381818,10.9245476 L22.0381818,11.8293095 Z M23.8463636,11.8293095 L24.75,11.8293095 L24.75,10.9245476 L23.8463636,10.9245476 L23.8463636,11.8293095 Z M25.6545455,11.8293095 L26.5581818,11.8293095 L26.5581818,10.9245476 L25.6545455,10.9245476 L25.6545455,11.8293095 Z M27.4636364,11.8293095 L28.3672727,11.8293095 L28.3672727,10.9245476 L27.4636364,10.9245476 L27.4636364,11.8293095 Z M29.2709091,11.8293095 L30.1754545,11.8293095 L30.1754545,10.9245476 L29.2709091,10.9245476 L29.2709091,11.8293095 Z M31.0790909,11.8293095 L31.9836364,11.8293095 L31.9836364,10.9245476 L31.0790909,10.9245476 L31.0790909,11.8293095 Z M32.8872727,11.8293095 L33.7918182,11.8293095 L33.7918182,10.9245476 L32.8872727,10.9245476 L32.8872727,11.8293095 Z M34.6963636,11.8293095 L35.6009091,11.8293095 L35.6009091,10.9245476 L34.6963636,10.9245476 L34.6963636,11.8293095 Z M36.5045455,11.8293095 L37.4081818,11.8293095 L37.4081818,10.9245476 L36.5045455,10.9245476 L36.5045455,11.8293095 Z M38.3127273,11.8293095 L39.2163636,11.8293095 L39.2163636,10.9245476 L38.3127273,10.9245476 L38.3127273,11.8293095 Z M40.1209091,11.8293095 L41.0245455,11.8293095 L41.0245455,10.9245476 L40.1209091,10.9245476 L40.1209091,11.8293095 Z M41.93,11.8293095 L42.8336364,11.8293095 L42.8336364,10.9245476 L41.93,10.9245476 L41.93,11.8293095 Z M43.7381818,11.8293095 L44.6418182,11.8293095 L44.6418182,10.9245476 L43.7381818,10.9245476 L43.7381818,11.8293095 Z M45.5454545,11.8293095 L46.45,11.8293095 L46.45,10.9245476 L45.5454545,10.9245476 L45.5454545,11.8293095 Z M47.3536364,11.8293095 L48.2581818,11.8293095 L48.2581818,10.9245476 L47.3536364,10.9245476 L47.3536364,11.8293095 Z M49.1627273,11.8293095 L50.0672727,11.8293095 L50.0672727,10.9245476 L49.1627273,10.9245476 L49.1627273,11.8293095 Z M50.9709091,11.8293095 L51.8745455,11.8293095 L51.8745455,10.9245476 L50.9709091,10.9245476 L50.9709091,11.8293095 Z M52.7790909,11.8293095 L53.6827273,11.8293095 L53.6827273,10.9245476 L52.7790909,10.9245476 L52.7790909,11.8293095 Z" id="Fill-7"></path>
                <polygon id="Fill-8" points="54.5872727 11.8293095 55.0418182 11.8293095 55.0418182 10.9245476 54.5872727 10.9245476"></polygon>
                <path d="M50.7932727,72.9571048 L50.4096364,72.1364857 C55.7732727,69.6583429 54.6114545,64.2759143 54.5996364,64.2216286 L55.4850909,64.0216762 C55.4996364,64.0822952 56.8150909,70.1740571 50.7932727,72.9571048" id="Fill-9"></path>
                <path d="M9.52545455,72.9571048 C3.50454545,70.1740571 4.82,64.0822952 4.83454545,64.0216762 L5.72,64.2207238 C5.67090909,64.4423905 4.56454545,69.6664857 9.90909091,72.1364857 L9.52545455,72.9571048 Z" id="Fill-10"></path>
                <path d="M39.9019091,41.617781 C39.9019091,41.9652095 39.4755455,42.2493048 38.9500909,42.2493048 L25.1428182,42.2493048 C24.6155455,42.2493048 24.1882727,41.9652095 24.1882727,41.617781 C24.1882727,41.2667333 24.6155455,40.9853524 25.1428182,40.9853524 L38.9500909,40.9853524 C39.4755455,40.9853524 39.9019091,41.2667333 39.9019091,41.617781" id="Fill-11"></path>
                <path d="M39.9019091,38.7616286 C39.9019091,39.1099619 39.4755455,39.3940571 38.9500909,39.3940571 L25.1428182,39.3940571 C24.6155455,39.3940571 24.1882727,39.1099619 24.1882727,38.7616286 C24.1882727,38.4114857 24.6155455,38.1282952 25.1428182,38.1282952 L38.9500909,38.1282952 C39.4755455,38.1282952 39.9019091,38.4114857 39.9019091,38.7616286" id="Fill-12"></path>
                <path d="M39.9019091,44.4632571 C39.9019091,44.8124952 39.4755455,45.094781 38.9500909,45.094781 L25.1428182,45.094781 C24.6155455,45.094781 24.1882727,44.8124952 24.1882727,44.4632571 C24.1882727,44.114019 24.6155455,43.8317333 25.1428182,43.8317333 L38.9500909,43.8317333 C39.4755455,43.8317333 39.9019091,44.114019 39.9019091,44.4632571" id="Fill-13"></path>
                <path d="M39.9019091,47.1536571 C39.9019091,47.5028952 39.4755455,47.7842762 38.9500909,47.7842762 L25.1428182,47.7842762 C24.6155455,47.7842762 24.1882727,47.5028952 24.1882727,47.1536571 C24.1882727,46.8026095 24.6155455,46.5212286 25.1428182,46.5212286 L38.9500909,46.5212286 C39.4755455,46.5212286 39.9019091,46.8026095 39.9019091,47.1536571" id="Fill-14"></path>
                <path d="M39.9019091,49.9727143 C39.9019091,50.3201429 39.4755455,50.6042381 38.9500909,50.6042381 L25.1428182,50.6042381 C24.6155455,50.6042381 24.1882727,50.3201429 24.1882727,49.9727143 C24.1882727,49.6234762 24.6155455,49.339381 25.1428182,49.339381 L38.9500909,49.339381 C39.4755455,49.339381 39.9019091,49.6234762 39.9019091,49.9727143" id="Fill-15"></path>
                <path d="M41.4111818,53.5815381 L21.5639091,53.5815381 L21.2548182,35.014919 L27.2457273,35.014919 L27.2457273,27.9840143 L41.4111818,27.8917286 L41.4111818,53.5815381 Z M21.1984545,31.5885857 L23.743,27.889919 L24.703,27.9161571 L24.703,27.889919 L25.6084545,27.889919 L25.6084545,33.050681 L25.1648182,33.050681 L24.703,33.050681 L21.223,33.050681 L21.1984545,31.5885857 Z M43.1184545,26.1998238 L43.0857273,26.1998238 L41.6220909,26.1998238 L41.4111818,26.1998238 L23.0266364,26.1998238 L19.8411818,30.7109667 L19.8411818,53.5815381 L19.8411818,53.6475857 L19.8411818,55.0508714 L19.8411818,55.1522048 L41.6220909,55.1522048 L43.1184545,55.1522048 L43.2348182,55.1522048 L43.2348182,26.1998238 L43.1184545,26.1998238 Z" id="Fill-16"></path>
            </g>
        </g>
    </g>
</svg>