<?xml version="1.0" encoding="UTF-8"?>
<svg width="20px" height="23px" viewBox="0 0 20 23" version="1.1" xmlns="http://www.w3.org/2000/svg" xmlns:xlink="http://www.w3.org/1999/xlink">
    <!-- Generator: Sketch 52.6 (67491) - http://www.bohemiancoding.com/sketch -->
    <title>locked 10 copy 3</title>
    <desc>Created with Sketch.</desc>
    <g id="Page-1" stroke="none" stroke-width="1" fill="none" fill-rule="evenodd">
        <g id="3_consola_candado" transform="translate(-285.000000, -1064.000000)" fill="#660E80" fill-rule="nonzero" stroke="#660E80" stroke-width="0.3">
            <g id="locked-10-copy-3" transform="translate(286.000000, 1064.000000)">
                <g id="locked-9">
                    <g id="locked-8">
                        <g id="locked-7">
                            <g id="locked-6">
                                <g id="locked-5">
                                    <g id="locked-4">
                                        <g id="locked-3">
                                            <g id="locked-2">
                                                <g id="locked" transform="translate(0.000000, 0.204545)">
                                                    <path d="M15.5454545,8.22804545 L15.5454545,5.93181818 C15.5454545,2.66113636 12.609,0 9,0 C5.391,0 2.45454545,2.66113636 2.45454545,5.93181818 L2.45454545,8.22804545 C1.06322727,8.46777273 0,9.68031818 0,11.1395455 L0,19.134 C0,20.7642273 1.32668182,22.0909091 2.95731818,22.0909091 L15.0426818,22.0909091 C16.6733182,22.0909091 18,20.7642273 18,19.1335909 L18,11.1391364 C18,9.68031818 16.9367727,8.46777273 15.5454545,8.22804545 Z M3.27272727,5.93181818 C3.27272727,3.11195455 5.84181818,0.818181818 9,0.818181818 C12.1581818,0.818181818 14.7272727,3.11195455 14.7272727,5.93181818 L14.7272727,8.18181818 L3.27272727,8.18181818 L3.27272727,5.93181818 Z M17.1818182,19.1335909 C17.1818182,20.313 16.2220909,21.2727273 15.0426818,21.2727273 L2.95731818,21.2727273 C1.77790909,21.2727273 0.818181818,20.313 0.818181818,19.1335909 L0.818181818,11.1391364 C0.818181818,9.95972727 1.77790909,9 2.95731818,9 L15.0426818,9 C16.2220909,9 17.1818182,9.95972727 17.1818182,11.1391364 L17.1818182,19.1335909 Z" id="Shape"></path>
                                                    <path d="M9,11.4545455 C8.09754545,11.4545455 7.36363636,12.1884545 7.36363636,13.0909091 L7.36363636,15.5454545 C7.36363636,16.4479091 8.09754545,17.1818182 9,17.1818182 C9.90245455,17.1818182 10.6363636,16.4479091 10.6363636,15.5454545 L10.6363636,13.0909091 C10.6363636,12.1884545 9.90245455,11.4545455 9,11.4545455 Z M9.81818182,15.5454545 C9.81818182,15.9966818 9.45122727,16.3636364 9,16.3636364 C8.54877273,16.3636364 8.18181818,15.9966818 8.18181818,15.5454545 L8.18181818,13.0909091 C8.18181818,12.6396818 8.54877273,12.2727273 9,12.2727273 C9.45122727,12.2727273 9.81818182,12.6396818 9.81818182,13.0909091 L9.81818182,15.5454545 Z" id="Shape"></path>
                                                </g>
                                            </g>
                                        </g>
                                    </g>
                                </g>
                            </g>
                        </g>
                    </g>
                </g>
            </g>
        </g>
    </g>
</svg>