<?xml version="1.0" encoding="UTF-8"?>
<svg width="31px" height="28px" viewBox="0 0 31 28" version="1.1" xmlns="http://www.w3.org/2000/svg" xmlns:xlink="http://www.w3.org/1999/xlink">
    <!-- Generator: Sketch 52.6 (67491) - http://www.bohemiancoding.com/sketch -->
    <title>Group 43</title>
    <desc>Created with Sketch.</desc>
    <g id="Page-1" stroke="none" stroke-width="1" fill="none" fill-rule="evenodd">
        <g id="Group-43" transform="translate(2.000000, 2.000000)">
            <g id="Group-42">
                <g id="Group-39">
                    <rect id="Rectangle" fill="#FFFFFF" fill-rule="nonzero" x="11" y="12" width="16" height="12.5"></rect>
                    <g id="Group-36-Copy-3">
                        <g id="Group-36-Copy">
                            <g id="Group-18" transform="translate(10.000000, 3.000000)" fill="#4BA92B" fill-rule="nonzero" stroke="#4BA92B" stroke-width="0.3">
                                <g id="locked-10">
                                    <g id="locked-9">
                                        <g id="locked-8">
                                            <g id="locked-7">
                                                <g id="locked-6">
                                                    <g id="locked-5">
                                                        <g id="locked-4">
                                                            <g id="locked-3">
                                                                <g id="locked-2">
                                                                    <g id="locked" transform="translate(0.000000, 0.204545)">
                                                                        <path d="M15.5454545,8.22804545 L15.5454545,5.93181818 C15.5454545,2.66113636 12.609,0 9,0 C5.391,0 2.45454545,2.66113636 2.45454545,5.93181818 L2.45454545,8.22804545 C1.06322727,8.46777273 0,9.68031818 0,11.1395455 L0,19.134 C0,20.7642273 1.32668182,22.0909091 2.95731818,22.0909091 L15.0426818,22.0909091 C16.6733182,22.0909091 18,20.7642273 18,19.1335909 L18,11.1391364 C18,9.68031818 16.9367727,8.46777273 15.5454545,8.22804545 Z M3.27272727,5.93181818 C3.27272727,3.11195455 5.84181818,0.818181818 9,0.818181818 C12.1581818,0.818181818 14.7272727,3.11195455 14.7272727,5.93181818 L14.7272727,8.18181818 L3.27272727,8.18181818 L3.27272727,5.93181818 Z M17.1818182,19.1335909 C17.1818182,20.313 16.2220909,21.2727273 15.0426818,21.2727273 L2.95731818,21.2727273 C1.77790909,21.2727273 0.818181818,20.313 0.818181818,19.1335909 L0.818181818,11.1391364 C0.818181818,9.95972727 1.77790909,9 2.95731818,9 L15.0426818,9 C16.2220909,9 17.1818182,9.95972727 17.1818182,11.1391364 L17.1818182,19.1335909 Z" id="Shape"></path>
                                                                        <path d="M9,11.4545455 C8.09754545,11.4545455 7.36363636,12.1884545 7.36363636,13.0909091 L7.36363636,15.5454545 C7.36363636,16.4479091 8.09754545,17.1818182 9,17.1818182 C9.90245455,17.1818182 10.6363636,16.4479091 10.6363636,15.5454545 L10.6363636,13.0909091 C10.6363636,12.1884545 9.90245455,11.4545455 9,11.4545455 Z M9.81818182,15.5454545 C9.81818182,15.9966818 9.45122727,16.3636364 9,16.3636364 C8.54877273,16.3636364 8.18181818,15.9966818 8.18181818,15.5454545 L8.18181818,13.0909091 C8.18181818,12.6396818 8.54877273,12.2727273 9,12.2727273 C9.45122727,12.2727273 9.81818182,12.6396818 9.81818182,13.0909091 L9.81818182,15.5454545 Z" id="Shape"></path>
                                                                    </g>
                                                                </g>
                                                            </g>
                                                        </g>
                                                    </g>
                                                </g>
                                            </g>
                                        </g>
                                    </g>
                                </g>
                            </g>
                            <g id="Group-35">
                                <g id="Group-27" fill="#FFFFFF" fill-rule="nonzero">
                                    <circle id="Oval" stroke="#FFFFFF" stroke-width="3" cx="8.5" cy="8.5" r="8.5"></circle>
                                    <circle id="Oval" stroke="#4BA92B" cx="8.5" cy="8.5" r="8.5"></circle>
                                </g>
                                <path d="M7.49609375,9.58984375 L7.49609375,13 L5.78515625,13 L5.78515625,4.46875 L8.73828125,4.46875 C9.71094236,4.46875 10.4716769,4.69042747 11.0205078,5.13378906 C11.5693387,5.57715065 11.84375,6.19530854 11.84375,6.98828125 C11.84375,7.42578344 11.7275402,7.80370935 11.4951172,8.12207031 C11.2626942,8.44043128 10.9238304,8.69726465 10.4785156,8.89257812 C10.9824244,9.04101637 11.3447255,9.28906076 11.5654297,9.63671875 C11.7861339,9.98437674 11.8964844,10.4140599 11.8964844,10.9257812 L11.8964844,11.5527344 C11.8964844,11.7910168 11.9287106,12.0400378 11.9931641,12.2998047 C12.0576175,12.5595716 12.167968,12.7519525 12.3242188,12.8769531 L12.3242188,13 L10.5605469,13 C10.4042961,12.8749994 10.3037112,12.6679702 10.2587891,12.3789062 C10.213867,12.0898423 10.1914062,11.8105482 10.1914062,11.5410156 L10.1914062,10.9375 C10.1914062,10.5117166 10.0751965,10.1806652 9.84277344,9.94433594 C9.6103504,9.70800663 9.28125213,9.58984375 8.85546875,9.58984375 L7.49609375,9.58984375 Z M7.49609375,8.27148438 L8.70898438,8.27148438 C9.18945553,8.27148438 9.54687383,8.16992289 9.78125,7.96679688 C10.0156262,7.76367086 10.1328125,7.46289262 10.1328125,7.06445312 C10.1328125,6.67382617 10.0146496,6.3632824 9.77832031,6.1328125 C9.54199101,5.9023426 9.19531479,5.78710938 8.73828125,5.78710938 L7.49609375,5.78710938 L7.49609375,8.27148438 Z" id="R" fill="#4BA92B"></path>
                            </g>
                        </g>
                    </g>
                </g>
            </g>
        </g>
    </g>
</svg>