<?xml version="1.0" encoding="UTF-8"?>
<svg width="229px" height="51px" viewBox="0 0 229 51" version="1.1" xmlns="http://www.w3.org/2000/svg" xmlns:xlink="http://www.w3.org/1999/xlink">
    <!-- Generator: Sketch 52.6 (67491) - http://www.bohemiancoding.com/sketch -->
    <title>Group 22</title>
    <desc>Created with Sketch.</desc>
    <defs>
        <polygon id="path-1" points="0 0.00475862069 44.4072414 0.00475862069 44.4072414 22.7442241 0 22.7442241"></polygon>
        <polygon id="path-3" points="0 0.41859375 44.4146897 0.41859375 44.4146897 24.9998437 0 24.9998437"></polygon>
    </defs>
    <g id="Page-1" stroke="none" stroke-width="1" fill="none" fill-rule="evenodd">
        <g id="Group-22">
            <g id="Group-55-Copy-2">
                <g id="Group-3">
                    <mask id="mask-2" fill="white">
                        <use xlink:href="#path-1"></use>
                    </mask>
                    <g id="Clip-2"></g>
                    <path d="M0,20.6536034 L0,22.7442241 L6.50327586,22.7442241 C6.50327586,22.6442931 6.50793103,22.0280517 6.51413793,21.9368448 C6.93155172,13.4799828 13.7878448,6.73860345 22.1601724,6.73860345 C30.5014655,6.73860345 37.3476724,13.4387414 37.8046552,21.8527759 C37.8108621,21.9709483 37.8225,22.6189138 37.8225,22.7442241 L44.4072414,22.7442241 C44.4049138,22.6189138 44.4025862,21.9757069 44.3987069,21.8599138 C43.937069,9.73018966 34.1363793,0.00436206897 22.1601724,0.00436206897 C10.5796552,0.00436206897 1.03965517,9.09253448 0,20.6536034" id="Fill-1" fill="#424242" mask="url(#mask-2)"></path>
                </g>
                <g id="Group-6" transform="translate(0.000000, 24.000000)">
                    <mask id="mask-4" fill="white">
                        <use xlink:href="#path-3"></use>
                    </mask>
                    <g id="Clip-5"></g>
                    <polygon id="Fill-4" fill="#09828E" mask="url(#mask-4)" points="37.8377069 7.87015625 22.1715 17.581875 6.52934483 7.84828125 6.53167241 0.41859375 -0.000310344828 0.42171875 -0.000310344828 12.1396875 22.0652069 24.9998437 22.2777931 24.9998437 44.4077069 12.1420312 44.4146897 0.42171875 37.8470172 0.41859375"></polygon>
                </g>
            </g>
            <path d="M59.2890611,18.959893 C62.3781212,18.959893 64.1427468,17.4291249 64.1427468,14.9440779 C64.1427468,12.4237356 62.2996076,10.9727086 59.2890611,10.9727086 L55.2243729,10.9727086 L55.2243729,18.959893 L59.2890611,18.959893 Z M59.4036138,6 C65.7194545,6 69.5601859,9.36742833 69.5601859,14.9440779 C69.5601859,20.5560227 65.7194545,23.9208365 59.4036138,23.9208365 L55.2243729,23.9208365 L55.2243729,32.7511853 L50,32.7511853 L50,6 L59.4036138,6 Z" id="Fill-7-Copy" fill="#414044"></path>
            <path d="M77.2295213,18.8801519 L81.8901407,18.8801519 C84.7887088,18.8801519 86.1375984,16.9689795 86.1375984,14.9440779 C86.1375984,12.8525075 84.7500955,10.9727086 81.8901407,10.9727086 L77.2295213,10.9727086 L77.2295213,18.8801519 Z M86.7476877,32.7511853 L81.5181664,23.6201733 L77.2295213,23.6201733 L77.2295213,32.7511853 L72,32.7511853 L72,6 L81.2195573,6 C87.6872768,6 91.5576117,9.55566966 91.5576117,14.9440779 C91.5576117,18.6108622 89.7942732,21.2841506 86.5945218,22.6240629 L92.6169019,32.7511853 L86.7476877,32.7511853 Z" id="Fill-9-Copy" fill="#414044"></path>
            <path d="M107.657507,27.5745807 C112.50746,27.5745807 115.895001,24.0254472 115.895001,18.9037142 C115.895001,13.7532221 112.50746,10.2315404 107.657507,10.2315404 C102.838702,10.2315404 99.4547653,13.7532221 99.4547653,18.9037142 C99.4547653,24.0254472 102.838702,27.5745807 107.657507,27.5745807 M107.657507,5 C115.216694,5 121.348479,10.8459392 121.348479,18.9037142 C121.348479,26.9614891 115.216694,32.8165789 107.657507,32.8165789 C100.098319,32.8165789 94,26.9706397 94,18.9037142 C94,10.8367886 100.093171,5 107.657507,5" id="Fill-11-Copy" fill="#414044"></path>
            <path d="M176.71875,6 L176.71875,21.1364335 C176.71875,29.0046598 172.2808,33.2871502 165.358731,33.2871502 C158.399336,33.2871502 154,29.0046598 154,21.1364335 L154,6 L159.230808,6 L159.230808,21.0593068 C159.230808,26.0267865 161.332656,28.3157488 165.358731,28.3157488 C169.348767,28.3157488 171.451902,26.0254792 171.451902,21.0593068 L171.451902,6 L176.71875,6 Z" id="Fill-13-Copy" fill="#414044"></path>
            <polygon id="Fill-15-Copy" fill="#414044" points="180 32.7511853 185.22965 32.7511853 185.22965 6 180 6"></polygon>
            <polygon id="Fill-17-Copy" fill="#414044" points="194.230937 10.9727086 194.230937 17.5088661 204.961431 17.5088661 203.030768 22.2854899 194.230937 22.2854899 194.230937 32.755107 189 32.755107 189 6 209.608021 6 207.637329 10.9674797"></polygon>
            <path d="M219.197055,22.9247261 L216.600957,16.1663393 C216.037075,14.6760954 215.356195,12.4551091 215.321572,12.4551091 L215.288107,12.4551091 C215.242929,12.4551091 214.572346,14.6774027 214.008592,16.1663393 L211.411336,22.9247261 L219.197055,22.9247261 Z M220.999007,27.6307595 L209.600246,27.6307595 L207.64899,32.7511853 L202,32.7511853 L212.83475,6 L217.756781,6 L228.598095,32.7511853 L222.955283,32.7511853 L220.999007,27.6307595 Z" id="Fill-18-Copy" fill="#414044"></path>
            <path d="M129.136127,18.9144839 C129.139602,14.1156371 132.972997,10.2283228 137.697972,10.2318523 C142.422947,10.2355126 146.25055,14.1287094 146.246946,18.9275562 C146.243342,23.7244422 142.413165,27.6109721 137.690249,27.6101878 C132.964502,27.6087499 129.134711,23.7167295 129.136127,18.9170984 L129.136127,18.9144839 Z M151.965568,29.0442208 L149.244492,26.340866 C153.290646,19.8575207 151.395765,11.2705785 145.012351,7.16116556 C138.628809,3.05188336 130.173922,4.97638956 126.127897,11.4597349 C122.081872,17.9429495 123.976753,26.5300224 130.360296,30.6393046 C135.076261,33.6753498 141.135581,33.4966512 145.670321,30.1880483 L148.320477,32.8273487 L151.965568,29.0442208 Z" id="Fill-19-Copy" fill="#414044"></path>
            <path d="M155.205,42.095 L154.035,42.41 C153.81,41.135 152.715,40.37 151.41,40.37 C150.03,40.37 149.055,41.03 149.055,42.08 C149.055,43.235 150.51,43.595 151.905,44.015 C153.375,44.45 155.37,45.11 155.37,47.15 C155.37,48.92 153.84,50.21 151.53,50.21 C149.28,50.21 147.855,48.89 147.525,47.12 L148.71,46.805 C148.86,48.02 149.865,49.1 151.575,49.1 C153.135,49.1 154.08,48.275 154.08,47.18 C154.08,45.65 152.265,45.335 150.78,44.87 C149.58,44.495 147.81,43.955 147.81,42.14 C147.81,40.505 149.355,39.29 151.455,39.29 C153.36,39.29 154.86,40.415 155.205,42.095 Z M159.085,48.845 L164.95,48.845 L164.95,50 L157.855,50 L157.855,39.5 L164.86,39.5 L164.86,40.655 L159.085,40.655 L159.085,43.895 L163.72,43.895 L163.72,44.99 L159.085,44.99 L159.085,48.845 Z M175.295,50 L173.915,50 L171.545,46.07 C171.38,46.085 171.185,46.085 171.005,46.085 L169.04,46.085 L169.04,50 L167.81,50 L167.81,39.5 L171.005,39.5 C173.465,39.5 174.935,40.79 174.935,42.815 C174.935,44.315 174.14,45.38 172.745,45.83 L175.295,50 Z M169.04,44.99 L171.125,44.99 C172.805,44.99 173.675,44.075 173.675,42.815 C173.675,41.48 172.73,40.655 171.125,40.655 L169.04,40.655 L169.04,44.99 Z M185.295,39.5 L186.615,39.5 L182.13,50 L180.885,50 L176.4,39.5 L177.735,39.5 L180.9,47.015 C181.2,47.765 181.485,48.62 181.5,48.62 L181.515,48.62 C181.53,48.62 181.83,47.765 182.115,47.015 L185.295,39.5 Z M189.805,50 L188.575,50 L188.575,39.5 L189.805,39.5 L189.805,50 Z M202.505,42.05 L201.26,42.365 C200.54,41.21 199.205,40.49 197.735,40.49 C195.335,40.49 193.55,42.215 193.55,44.75 C193.55,47.285 195.38,48.995 197.735,48.995 C199.34,48.995 200.75,48.14 201.44,46.82 L202.655,47.15 C201.785,49.01 199.925,50.21 197.735,50.21 C194.72,50.21 192.29,47.915 192.29,44.75 C192.29,41.585 194.72,39.29 197.735,39.29 C199.79,39.29 201.56,40.37 202.505,42.05 Z M206.04,50 L204.81,50 L204.81,39.5 L206.04,39.5 L206.04,50 Z M208.525,44.75 C208.525,41.585 210.955,39.29 213.97,39.29 C216.985,39.29 219.43,41.585 219.43,44.75 C219.43,47.915 216.985,50.21 213.97,50.21 C210.955,50.21 208.525,47.915 208.525,44.75 Z M209.785,44.75 C209.785,47.27 211.585,49.01 213.97,49.01 C216.34,49.01 218.155,47.27 218.155,44.75 C218.155,42.2 216.34,40.49 213.97,40.49 C211.585,40.49 209.785,42.2 209.785,44.75 Z M228.8,42.095 L227.63,42.41 C227.405,41.135 226.31,40.37 225.005,40.37 C223.625,40.37 222.65,41.03 222.65,42.08 C222.65,43.235 224.105,43.595 225.5,44.015 C226.97,44.45 228.965,45.11 228.965,47.15 C228.965,48.92 227.435,50.21 225.125,50.21 C222.875,50.21 221.45,48.89 221.12,47.12 L222.305,46.805 C222.455,48.02 223.46,49.1 225.17,49.1 C226.73,49.1 227.675,48.275 227.675,47.18 C227.675,45.65 225.86,45.335 224.375,44.87 C223.175,44.495 221.405,43.955 221.405,42.14 C221.405,40.505 222.95,39.29 225.05,39.29 C226.955,39.29 228.455,40.415 228.8,42.095 Z" id="Servicios-Copy" fill="#008894"></path>
        </g>
    </g>
</svg>