<?xml version="1.0" encoding="UTF-8"?>
<svg width="175px" height="50px" viewBox="0 0 175 50" version="1.1" xmlns="http://www.w3.org/2000/svg" xmlns:xlink="http://www.w3.org/1999/xlink">
    <!-- Generator: Sketch 52.6 (67491) - http://www.bohemiancoding.com/sketch -->
    <title>LOGO_RYNDEM Copy 3</title>
    <desc>Created with Sketch.</desc>
    <defs>
        <polygon id="path-1" points="0 49.2413793 174.278848 49.2413793 174.278848 0.573310345 0 0.573310345"></polygon>
    </defs>
    <g id="Page-1" stroke="none" stroke-width="1" fill="none" fill-rule="evenodd">
        <g id="Angular_1" transform="translate(-2240.000000, -200.000000)">
            <g id="LOGO_RYNDEM" transform="translate(2240.000000, 199.000000)">
                <g id="Group-30">
                    <polygon id="Fill-1" fill="#C31C13" points="1.53185455 14.6821966 1.53185455 37.2769552 21.4255818 48.5760931 41.3175212 37.2769552 41.3175212 14.6821966 21.4255818 3.38833448"></polygon>
                    <polygon id="Fill-2" fill="#831417" points="1.53185455 37.2776586 21.4255818 26.0646931 1.53185455 14.6829"></polygon>
                    <polygon id="Fill-3" fill="#353535" points="1.53185455 37.2776586 21.4255818 48.5750379 21.4255818 26.0646931"></polygon>
                    <polygon id="Fill-4" fill="#5B5B5B" points="21.4257606 26.0641655 41.3177 14.6823724 41.3177 37.277131 21.4257606 48.576269"></polygon>
                    <path d="M21.4250455,1.75897241 L0.00268181818,13.9251103 L-0.000893939394,38.2626621 L21.4250455,50.4270414 L42.849197,38.2626621 L42.849197,13.9251103 L21.4250455,1.75897241 Z M2.02298485,37.1142828 L2.02298485,15.0752483 L21.4250455,4.05045517 L40.8306818,15.0752483 L40.8306818,37.1142828 L21.4250455,48.1338 L2.02298485,37.1142828 Z" id="Fill-5" fill="#252424"></path>
                    <g id="Group-29" transform="translate(0.000000, 1.185838)">
                        <path d="M157.487091,30.2975172 L157.494242,17.2168966 C158.075303,17.9273793 160.351273,20.7218276 162.866818,23.8275517 C159.98297,27.3096207 157.503182,30.2975172 157.487091,30.2975172 Z M171.657818,13.2142759 C171.657818,13.2142759 168.076697,17.544 164.51703,21.8385517 C161.488364,18.1155517 158.415,14.3415517 157.494242,13.2142759 L154.730182,13.2142759 L154.730182,34.4953448 L157.351212,34.4953448 C157.351212,34.4953448 171.455788,17.3206552 171.48797,17.3206552 L171.48797,34.4953448 L174.278848,34.4953448 L174.278848,13.2142759 L171.657818,13.2142759 Z" id="Fill-6" fill="#353535"></path>
                        <path d="M64.9834939,23.4468103 C67.3363424,23.4468103 68.8077667,21.9660517 68.8077667,19.5919138 C68.8077667,18.0285 68.1963121,16.9170517 67.0967667,16.3068103 C66.5121303,16.0113621 65.8094939,15.8337414 64.1271,15.8337414 L60.6335848,15.8337414 L60.6335848,23.4468103 L64.9834939,23.4468103 Z M57.6049182,13.2397759 L64.2200697,13.2397759 C66.4835242,13.2397759 67.4293121,13.4209138 68.2553121,13.7216379 C70.4597667,14.5341207 71.8990091,16.6708448 71.8990091,19.470569 C71.8990091,22.1823621 70.3739485,24.4703276 68.0139485,25.2230172 L68.0139485,25.2810517 C68.0139485,25.2810517 68.2553121,25.5536379 68.6540091,26.2430172 L73.2452818,34.4944655 L69.8232818,34.4944655 L65.2588273,26.0372586 L60.6335848,26.0372586 L60.6335848,34.4944655 L57.6049182,34.4944655 L57.6049182,13.2397759 Z" id="Fill-8" fill="#353535"></path>
                        <path d="M80.8369727,25.4957793 L73.5781848,13.2399517 L77.0055485,13.2399517 L81.0175485,20.2251931 C81.6951545,21.3981931 82.3334273,22.9070897 82.3334273,22.9070897 L82.3977909,22.9070897 C82.3977909,22.9070897 83.0360636,21.426331 83.7118818,20.2251931 L87.6577303,13.2399517 L91.0833061,13.2399517 L83.8674273,25.4957793 L83.8674273,34.4946414 L80.8369727,34.4946414 L80.8369727,25.4957793 Z" id="Fill-10" fill="#353535"></path>
                        <path d="M94.114297,13.2394241 L97.1125697,13.2394241 L106.722418,27.0586655 C107.518024,28.2000103 108.528176,30.1274586 108.528176,30.1274586 L108.588964,30.1274586 C108.588964,30.1274586 108.374418,28.2316655 108.374418,27.0586655 L108.374418,13.2394241 L111.401297,13.2394241 L111.401297,34.4941138 L108.44057,34.4941138 L98.7985394,20.7065276 C98.0029333,19.531769 96.9927818,17.6060793 96.9927818,17.6060793 L96.9284182,17.6060793 C96.9284182,17.6060793 97.1411758,19.5001138 97.1411758,20.7065276 L97.1411758,34.4941138 L94.114297,34.4941138 L94.114297,13.2394241 Z" id="Fill-12" fill="#353535"></path>
                        <path d="M122.848548,31.9101724 C127.713367,31.9101724 130.899367,29.0770345 130.899367,23.8381034 C130.899367,18.6273103 127.686548,15.8346207 122.848548,15.8346207 L118.933094,15.8346207 L118.933094,31.9101724 L122.848548,31.9101724 Z M115.902639,13.2388966 L123.064882,13.2388966 C129.67467,13.2388966 134.021003,17.1236897 134.021003,23.8381034 C134.021003,30.5824138 129.67467,34.4953448 123.064882,34.4953448 L115.902639,34.4953448 L115.902639,13.2388966 Z" id="Fill-14" fill="#353535"></path>
                        <polygon id="Fill-16" fill="#353535" points="137.1691 13.2394241 149.718221 13.2394241 149.718221 15.8351483 140.194191 15.8351483 140.194191 22.4809759 147.94107 22.4809759 147.94107 25.0696655 140.194191 25.0696655 140.194191 31.9107 150.238494 31.9107 150.238494 34.4941138 137.1691 34.4941138"></polygon>
                        <path d="M81.9726333,42.3829345 C81.7866939,41.3664517 80.8999061,40.7544517 79.8414818,40.7544517 C78.7204818,40.7544517 77.9302394,41.2820379 77.9302394,42.1209 C77.9302394,43.0424172 79.1120273,43.330831 80.2437545,43.6667276 C81.4326939,44.0131759 83.0543,44.5407621 83.0543,46.1674862 C83.0543,47.5814172 81.8135121,48.611969 79.9398152,48.611969 C78.112603,48.611969 76.9558455,47.5585552 76.6894515,46.1446241 L77.6495424,45.8931414 C77.7711182,46.8621414 78.5881788,47.7256241 79.9755727,47.7256241 C81.239603,47.7256241 82.006603,47.0679 82.006603,46.1938655 C82.006603,44.9698655 80.5351788,44.7201414 79.3283606,44.3490724 C78.3557545,44.0501069 76.9200879,43.6210034 76.9200879,42.1701414 C76.9200879,40.8634862 78.1733909,39.8944862 79.8772394,39.8944862 C81.4219667,39.8944862 82.6395121,40.7913828 82.9202091,42.1332103 L81.9726333,42.3829345 Z" id="Fill-18" fill="#353535"></path>
                        <polygon id="Fill-20" fill="#353535" points="96.4669667 40.0627862 96.4669667 40.9843034 93.6081485 40.9843034 93.6081485 48.4426138 92.6212394 48.4426138 92.6212394 40.9843034 89.7713606 40.9843034 89.7713606 40.0627862"></polygon>
                        <path d="M110.841512,40.0627862 L110.841512,44.9693379 C110.841512,47.3417172 109.563179,48.6237517 107.339058,48.6237517 C105.111361,48.6237517 103.843755,47.3417172 103.843755,44.9693379 L103.843755,40.0627862 L104.839603,40.0627862 L104.839603,44.9851655 C104.839603,46.8035793 105.694209,47.7004759 107.339058,47.7004759 C108.992845,47.7004759 109.843876,46.8035793 109.843876,44.9851655 L109.843876,40.0627862 L110.841512,40.0627862 Z" id="Fill-22" fill="#353535"></path>
                        <path d="M122.598961,47.5214483 C124.376112,47.5214483 125.9119,46.3027241 125.9119,44.3014138 C125.9119,42.2666897 124.376112,40.9846552 122.52387,40.9846552 L119.935021,40.9846552 L119.935021,47.5214483 L122.598961,47.5214483 Z M122.52387,40.0631379 C124.958961,40.0631379 126.932779,41.7865862 126.932779,44.3014138 C126.932779,46.7793103 124.983991,48.4429655 122.598961,48.4429655 L118.937385,48.4429655 L118.937385,40.0631379 L122.52387,40.0631379 Z" id="Fill-24" fill="#353535"></path>
                        <mask id="mask-2" fill="white">
                            <use xlink:href="#path-1"></use>
                        </mask>
                        <g id="Clip-27"></g>
                        <polygon id="Fill-26" fill="#353535" mask="url(#mask-2)" points="134.697 48.4429655 135.694636 48.4429655 135.694636 40.0631379 134.697 40.0631379"></polygon>
                        <path d="M147.915503,47.6528172 C149.839261,47.6528172 151.310685,46.2652655 151.310685,44.2516448 C151.310685,42.2186793 149.839261,40.852231 147.915503,40.852231 C145.97923,40.852231 144.522109,42.2186793 144.522109,44.2516448 C144.522109,46.2652655 145.97923,47.6528172 147.915503,47.6528172 M147.915503,39.8937828 C150.361321,39.8937828 152.347655,41.7262655 152.347655,44.2516448 C152.347655,46.7787828 150.361321,48.6112655 147.915503,48.6112655 C145.467897,48.6112655 143.497655,46.7787828 143.497655,44.2516448 C143.497655,41.7262655 145.467897,39.8937828 147.915503,39.8937828" id="Fill-28" fill="#353535" mask="url(#mask-2)"></path>
                    </g>
                </g>
            </g>
        </g>
    </g>
</svg>