<?xml version="1.0" encoding="UTF-8"?>
<svg width="13px" height="13px" viewBox="0 0 13 13" version="1.1" xmlns="http://www.w3.org/2000/svg" xmlns:xlink="http://www.w3.org/1999/xlink">
    <!-- Generator: Sketch 52.6 (67491) - http://www.bohemiancoding.com/sketch -->
    <title>Group 3 Copy 23</title>
    <desc>Created with Sketch.</desc>
    <defs>
        <polygon id="path-1" points="0.000129594764 0.000346666667 12.9930667 0.000346666667 12.9930667 13 0.000129594764 13"></polygon>
    </defs>
    <g id="Page-1" stroke="none" stroke-width="1" fill="none" fill-rule="evenodd">
        <g id="Group-3-Copy-23">
            <mask id="mask-2" fill="white">
                <use xlink:href="#path-1"></use>
            </mask>
            <g id="Clip-2"></g>
            <path d="M8.59706825,6.51161333 L12.7400039,2.36894667 C13.0868382,2.02054667 13.0868382,1.45548 12.7400039,1.10448 L11.8937282,0.260346667 C11.547761,-0.08632 10.9824211,-0.08632 10.6312514,0.260346667 L6.48831575,4.40301333 L2.36965853,0.286346667 C2.02282424,-0.0611866667 1.45661726,-0.06032 1.10371336,0.28548 L0.260906034,1.12874667 C-0.0876624301,1.47628 -0.0859282586,2.04221333 0.260906034,2.39494667 L4.37956326,6.51161333 L0.266108548,10.62048 C-0.0824599157,10.9680133 -0.0824599157,11.53308 0.266108548,11.8858133 L1.10804879,12.7282133 C1.45661726,13.07488 2.02109007,13.07488 2.37486105,12.7282133 L6.48831575,8.61848 L10.6113084,12.7403467 C10.9581427,13.0870133 11.5234826,13.0870133 11.8763865,12.7403467 L12.7191938,11.8962133 C13.0668952,11.54868 13.0668952,10.9827467 12.7191938,10.63088 L8.59706825,6.51161333 Z" id="Fill-1" fill="#ACABB1" mask="url(#mask-2)"></path>
        </g>
    </g>
</svg>