<?xml version="1.0" encoding="UTF-8"?>
<svg width="23px" height="23px" viewBox="0 0 23 23" version="1.1" xmlns="http://www.w3.org/2000/svg" xmlns:xlink="http://www.w3.org/1999/xlink">
    <!-- Generator: Sketch 52.6 (67491) - http://www.bohemiancoding.com/sketch -->
    <title>Group 5</title>
    <desc>Created with Sketch.</desc>
    <defs>
        <polygon id="path-1" points="0 0.00023 15.7389 0.00023 15.7389 15.0581719 0 15.0581719"></polygon>
    </defs>
    <g id="Page-1" stroke="none" stroke-width="1" fill="none" fill-rule="evenodd">
        <g id="2" transform="translate(-1227.000000, -790.000000)">
            <g id="Group-5" transform="translate(1227.000000, 790.000000)">
                <rect id="Rectangle-7-Copy" stroke="#424242" stroke-width="0.5" fill-rule="nonzero" x="0.25" y="0.25" width="22.5" height="22.5"></rect>
                <g id="Group-3" transform="translate(3.680000, 3.680000)">
                    <mask id="mask-2" fill="white">
                        <use xlink:href="#path-1"></use>
                    </mask>
                    <g id="Clip-2"></g>
                    <path d="M15.34238,0.325795 C15.14918,0.169395 14.11878,-0.234255 13.44028,0.184345 C13.44028,0.184345 12.83998,0.744395 11.95563,1.621845 L11.63823,2.057695 L11.57383,2.007095 C10.83438,2.743095 9.95348,3.643545 9.05533,4.614145 C7.56378,6.218395 6.05268,8.203295 4.95903,9.716695 L2.88788,6.765795 C2.53713,5.836595 1.77123,5.362795 0.83743,5.714695 C-0.09982,6.065445 -0.15157,7.169445 0.20148,8.100945 L2.94423,13.770445 C2.94423,13.770445 2.94883,13.781945 2.94883,13.786545 C3.04083,14.084395 3.19723,14.356945 3.44218,14.582345 C4.17703,15.255095 5.32013,15.207945 5.99863,14.482295 C5.99863,14.482295 8.69193,9.917945 11.56923,6.818695 C13.68293,4.534795 15.52868,2.141645 15.52868,2.141645 C16.00248,1.343545 15.55973,0.506345 15.34238,0.325795" id="Fill-1" fill="#008996" mask="url(#mask-2)"></path>
                </g>
            </g>
        </g>
    </g>
</svg>