<?xml version="1.0" encoding="UTF-8"?>
<svg width="293px" height="217px" viewBox="0 0 293 217" version="1.1" xmlns="http://www.w3.org/2000/svg" xmlns:xlink="http://www.w3.org/1999/xlink">
    <!-- Generator: Sketch 51.2 (57519) - http://www.bohemiancoding.com/sketch -->
    <title>Codigo_de_barras_correcto</title>
    <desc>Created with Sketch.</desc>
    <defs></defs>
    <g id="Symbols" stroke="none" stroke-width="1" fill="none" fill-rule="evenodd">
        <g id="Codigo_de_barras_correcto">
            <polygon id="Fill-1" fill="#008693" points="77.298 216.577 87.434 216.577 87.434 1 77.298 1"></polygon>
            <polygon id="Fill-2" fill="#008693" points="56.686 216.577 61.755 216.577 61.755 1 56.686 1"></polygon>
            <polygon id="Fill-3" fill="#008693" points="113.27 216.577 118.345 216.577 118.345 1 113.27 1"></polygon>
            <polygon id="Fill-4" fill="#008693" points="102.967 216.577 108.043 216.577 108.043 1 102.967 1"></polygon>
            <polygon id="Fill-5" fill="#008693" points="15.481 216.577 20.705 216.577 20.705 1 15.481 1"></polygon>
            <polygon id="Fill-6" fill="#008693" points="31.015 216.577 36.084 216.577 36.084 1 31.015 1"></polygon>
            <polygon id="Fill-7" fill="#008693" points="0.103 216.733 10.403 216.733 10.403 0.999 0.103 0.999"></polygon>
            <polygon id="Fill-8" fill="#008693" points="123.578 216.577 128.648 216.577 128.648 1 123.578 1"></polygon>
            <polygon id="Fill-9" fill="#008693" points="225 216.577 235.31 216.577 235.31 1 225 1"></polygon>
            <polygon id="Fill-10" fill="#008693" points="251 216.577 266.369 216.577 266.369 1 251 1"></polygon>
            <polygon id="Fill-11" fill="#008693" points="271 216.577 276.234 216.577 276.234 1 271 1"></polygon>
            <polygon id="Fill-12" fill="#008693" points="282 216.734 292.299 216.734 292.299 1 282 1"></polygon>
            <polygon id="Fill-13" fill="#008693" points="189 216.577 199.302 216.577 199.302 1 189 1"></polygon>
            <polygon id="Fill-14" fill="#008693" points="210 216.577 220.301 216.577 220.301 1 210 1"></polygon>
            <polygon id="Fill-15" fill="#008693" points="169 216.577 179.301 216.577 179.301 1 169 1"></polygon>
            <polygon id="Fill-16" fill="#008693" points="143 216.577 153.31 216.577 153.31 1 143 1"></polygon>
            <g id="Group-21" transform="translate(57.000000, 13.000000)">
                <path d="M187.7126,4.9625 C185.3506,3.0335 172.7426,-1.9115 164.4476,3.2325 C164.4476,3.2325 157.1106,10.0685 146.2886,20.8135 L142.4126,26.1425 L141.6156,25.5145 C132.5816,34.5245 121.8126,45.5375 110.8236,57.4055 C92.5816,77.0185 74.0926,101.3005 60.7156,119.8155 L35.3896,83.7195 C31.1046,72.3475 21.7316,66.5465 10.3056,70.8635 C-1.1454,75.1485 -1.7814,88.6645 2.5356,100.0365 L36.0746,169.3985 L36.1276,169.5935 C37.2566,173.2205 39.1816,176.5705 42.1716,179.3175 C51.1566,187.5585 65.1356,186.9815 73.4336,178.0785 C73.4336,178.0785 106.3746,122.2605 141.5616,84.3515 C167.4136,56.4385 189.9936,27.1625 189.9936,27.1625 C195.7886,17.4055 190.3826,7.1605 187.7126,4.9625" id="Fill-17" fill="#FFFFFF"></path>
                <path d="M190.640144,4.99843097 C188.278144,3.06943097 175.670144,-1.87556903 167.375144,3.26843097 C167.375144,3.26843097 160.038144,10.104431 149.216144,20.849431 L145.340144,26.178431 L144.543144,25.550431 C135.509144,34.560431 124.740144,45.573431 113.751144,57.441431 C95.5091445,77.054431 77.0201445,101.336431 63.6431445,119.851431 L38.3171445,83.755431 C34.0321445,72.383431 24.6591445,66.582431 13.2331445,70.899431 C1.78214449,75.184431 1.14614449,88.700431 5.46314449,100.072431 L39.0021445,169.434431 L39.0551445,169.629431 C40.1841445,173.256431 42.1091445,176.606431 45.0991445,179.353431 C54.0841445,187.594431 68.0631445,187.017431 76.3611445,178.114431 C76.3611445,178.114431 109.302144,122.296431 144.489144,84.387431 C170.341144,56.474431 192.921144,27.198431 192.921144,27.198431 C198.716144,17.441431 193.310144,7.19643097 190.640144,4.99843097 Z" id="Stroke-19" stroke="#008693"></path>
            </g>
        </g>
    </g>
</svg>