<?xml version="1.0" encoding="UTF-8"?>
<svg width="294px" height="217px" viewBox="0 0 294 217" version="1.1" xmlns="http://www.w3.org/2000/svg" xmlns:xlink="http://www.w3.org/1999/xlink">
    <!-- Generator: Sketch 51.2 (57519) - http://www.bohemiancoding.com/sketch -->
    <title>Codigo_de_barras_incorrecto</title>
    <desc>Created with Sketch.</desc>
    <defs></defs>
    <g id="Symbols" stroke="none" stroke-width="1" fill="none" fill-rule="evenodd">
        <g id="Codigo_de_barras_incorrecto">
            <polygon id="Fill-1" fill="#008693" points="77.298 216.577 87.434 216.577 87.434 1 77.298 1"></polygon>
            <polygon id="Fill-2" fill="#008693" points="56.686 216.577 61.755 216.577 61.755 1 56.686 1"></polygon>
            <polygon id="Fill-3" fill="#008693" points="113.27 216.577 118.345 216.577 118.345 1 113.27 1"></polygon>
            <polygon id="Fill-4" fill="#008693" points="102.967 216.577 108.043 216.577 108.043 1 102.967 1"></polygon>
            <polygon id="Fill-5" fill="#008693" points="15.481 216.577 20.705 216.577 20.705 1 15.481 1"></polygon>
            <polygon id="Fill-6" fill="#008693" points="31.015 216.577 36.084 216.577 36.084 1 31.015 1"></polygon>
            <polygon id="Fill-7" fill="#008693" points="0.103 216.733 10.403 216.733 10.403 0.999 0.103 0.999"></polygon>
            <polygon id="Fill-8" fill="#008693" points="123.578 216.577 128.648 216.577 128.648 1 123.578 1"></polygon>
            <polygon id="Fill-9" fill="#008693" points="226.276 216.577 236.586 216.577 236.586 1 226.276 1"></polygon>
            <polygon id="Fill-10" fill="#008693" points="252.122 216.577 267.491 216.577 267.491 1 252.122 1"></polygon>
            <polygon id="Fill-11" fill="#008693" points="272.558 216.577 277.792 216.577 277.792 1 272.558 1"></polygon>
            <polygon id="Fill-12" fill="#008693" points="282.868 216.733 293.167 216.733 293.167 0.999 282.868 0.999"></polygon>
            <polygon id="Fill-13" fill="#008693" points="190.305 216.577 200.607 216.577 200.607 1 190.305 1"></polygon>
            <polygon id="Fill-14" fill="#008693" points="210.908 216.577 221.209 216.577 221.209 1 210.908 1"></polygon>
            <polygon id="Fill-15" fill="#008693" points="169.693 216.577 179.994 216.577 179.994 1 169.693 1"></polygon>
            <polygon id="Fill-16" fill="#008693" points="144.013 216.577 154.323 216.577 154.323 1 144.013 1"></polygon>
            <g id="Page-1" transform="translate(67.000000, 28.000000)">
                <path d="M108.9635,82.6849 L161.2345,30.4039 C165.6015,26.0119 165.6015,18.8729 161.2345,14.4409 L150.5555,3.7869 C146.1895,-0.5951 139.0555,-0.5951 134.6185,3.7869 L82.3565,56.0779 L30.4005,4.1209 C26.0235,-0.2711 18.8695,-0.2611 14.4315,4.1109 L3.7835,14.7539 C-0.6045,19.1469 -0.5835,26.2749 3.7835,30.7279 L55.7505,82.6849 L3.8545,134.5609 C-0.5435,138.9429 -0.5435,146.0809 3.8545,150.5239 L14.4825,161.1629 C18.8695,165.5449 26.0025,165.5449 30.4605,161.1629 L82.3565,109.2869 L134.3755,161.3099 C138.7525,165.6869 145.8845,165.6869 150.3435,161.3099 L160.9715,150.6609 C165.3585,146.2679 165.3585,139.1259 160.9715,134.6879 L108.9635,82.6849 Z" id="Fill-1" fill="#FFFFFF"></path>
                <path d="M108.9635,82.6849 L161.2345,30.4039 C165.6015,26.0119 165.6015,18.8729 161.2345,14.4409 L150.5555,3.7869 C146.1895,-0.5951 139.0555,-0.5951 134.6185,3.7869 L82.3565,56.0779 L30.4005,4.1209 C26.0235,-0.2711 18.8695,-0.2611 14.4315,4.1109 L3.7835,14.7539 C-0.6045,19.1469 -0.5835,26.2749 3.7835,30.7279 L55.7505,82.6849 L3.8545,134.5609 C-0.5435,138.9429 -0.5435,146.0809 3.8545,150.5239 L14.4825,161.1629 C18.8695,165.5449 26.0025,165.5449 30.4605,161.1629 L82.3565,109.2869 L134.3755,161.3099 C138.7525,165.6869 145.8845,165.6869 150.3435,161.3099 L160.9715,150.6609 C165.3585,146.2679 165.3585,139.1259 160.9715,134.6879 L108.9635,82.6849 Z" id="Stroke-3" stroke="#008693"></path>
            </g>
        </g>
    </g>
</svg>