<?xml version="1.0" encoding="UTF-8"?>
<svg width="15px" height="24px" viewBox="0 0 15 24" version="1.1" xmlns="http://www.w3.org/2000/svg" xmlns:xlink="http://www.w3.org/1999/xlink">
    <!-- Generator: Sketch 52.6 (67491) - http://www.bohemiancoding.com/sketch -->
    <title>Group 17 Copy 15</title>
    <desc>Created with Sketch.</desc>
    <defs>
        <polygon id="path-1" points="0.5818 0.6011 13.9558 0.6011 13.9558 14 0.5818 14"></polygon>
        <polygon id="path-3" points="0.2859 0 6.2499 0 6.2499 2.2146 0.2859 2.2146"></polygon>
        <polygon id="path-5" points="0 0.147 14.5359 0.147 14.5359 2.669 0 2.669"></polygon>
    </defs>
    <g id="Page-1" stroke="none" stroke-width="1" fill="none" fill-rule="evenodd">
        <g id="Group-17-Copy-15" transform="translate(8.000000, 10.500000) scale(-1, 1) translate(-8.000000, -10.500000) translate(0.000000, -3.000000)">
            <g id="Group-3" transform="translate(2.000000, 13.000000)">
                <g id="Fill-1-Clipped">
                    <mask id="mask-2" fill="white">
                        <use xlink:href="#path-1"></use>
                    </mask>
                    <g id="path-1"></g>
                    <path d="M3.0448,3.1091 C3.0448,2.6891 3.3858,2.3461 3.8078,2.3461 L3.8218,2.3461 C4.2418,2.3461 4.5848,2.6871 4.5848,3.1091 L4.5848,11.4941 C4.5848,11.9141 4.2438,12.2561 3.8218,12.2561 L3.8078,12.2561 C3.3868,12.2561 3.0448,11.9161 3.0448,11.4941 L3.0448,3.1091 Z M6.4988,3.1091 C6.4988,2.6891 6.8398,2.3461 7.2618,2.3461 L7.2758,2.3461 C7.6968,2.3461 8.0388,2.6871 8.0388,3.1091 L8.0388,11.4941 C8.0388,11.9141 7.6978,12.2561 7.2758,12.2561 L7.2618,12.2561 C6.8408,12.2561 6.4988,11.9161 6.4988,11.4941 L6.4988,3.1091 Z M9.9528,3.1091 C9.9528,2.6891 10.2938,2.3461 10.7158,2.3461 L10.7318,2.3461 C11.1508,2.3461 11.4928,2.6871 11.4928,3.1091 L11.4928,11.4941 C11.4928,11.9141 11.1528,12.2561 10.7318,12.2561 L10.7158,12.2561 C10.2958,12.2561 9.9528,11.9161 9.9528,11.4941 L9.9528,3.1091 Z M1.0488,14.0001 L13.4888,14.0001 C13.7458,14.0001 13.9558,13.7901 13.9558,13.5321 L13.9558,0.6011 L0.5818,0.6011 L0.5818,13.5321 C0.5818,13.7921 0.7898,14.0001 1.0488,14.0001 Z" id="Fill-1" fill="#008996" fill-rule="nonzero" mask="url(#mask-2)"></path>
                </g>
            </g>
            <g id="Group-16" transform="translate(7.923946, 6.600804) rotate(-33.000000) translate(-7.923946, -6.600804) translate(0.423946, 3.600804)">
                <g id="Group-6" transform="translate(4.000000, 0.000000)">
                    <g id="Fill-4-Clipped">
                        <mask id="mask-4" fill="white">
                            <use xlink:href="#path-3"></use>
                        </mask>
                        <g id="path-3"></g>
                        <path d="M6.2499,2.2146 L6.2499,1.1656 C6.2499,0.5226 5.7279,-0.0004 5.0839,-0.0004 L1.4519,-0.0004 C0.8089,-0.0004 0.2859,0.5226 0.2859,1.1656 L0.2859,2.2146 L1.2199,2.2146 L1.2199,1.3986 C1.2199,1.1436 1.4299,0.9336 1.6849,0.9336 L4.8489,0.9336 C5.1039,0.9336 5.3149,1.1436 5.3149,1.3986 L5.3149,2.2146 L6.2499,2.2146 Z" id="Fill-4" fill="#008996" mask="url(#mask-4)"></path>
                    </g>
                </g>
                <g id="Group-9" transform="translate(0.000000, 3.000000)">
                    <g id="Fill-7-Clipped">
                        <mask id="mask-6" fill="white">
                            <use xlink:href="#path-5"></use>
                        </mask>
                        <g id="path-5"></g>
                        <path d="M-0.0001,0.613 L-0.0001,2.203 C-0.0001,2.459 0.2089,2.669 0.4659,2.669 L14.0689,2.669 C14.3269,2.669 14.5359,2.459 14.5359,2.203 L14.5359,0.613 C14.5359,0.356 14.3269,0.147 14.0689,0.147 L0.4659,0.147 C0.2089,0.147 -0.0001,0.353 -0.0001,0.613" id="Fill-7" fill="#008996" mask="url(#mask-6)"></path>
                    </g>
                </g>
            </g>
        </g>
    </g>
</svg>