<?xml version="1.0" encoding="UTF-8"?>
<svg width="48px" height="48px" viewBox="0 0 48 48" version="1.1" xmlns="http://www.w3.org/2000/svg" xmlns:xlink="http://www.w3.org/1999/xlink">
    <!-- Generator: Sketch 51.2 (57519) - http://www.bohemiancoding.com/sketch -->
    <title>doc_verde</title>
    <desc>Created with Sketch.</desc>
    <defs></defs>
    <g id="Symbols" stroke="none" stroke-width="1" fill="none" fill-rule="evenodd">
        <g id="doc_verde" fill="#248893">
            <path d="M28.4004,10.2001 L35.5994,10.2001 L26.4004,1.0001 L26.4004,8.2001 C26.4004,9.3001 27.2994,10.2001 28.4004,10.2001" id="Fill-1"></path>
            <polygon id="Fill-3" points="5.5 19.1 21.2 19.1 21.2 17.1 5.5 17.1"></polygon>
            <polygon id="Fill-5" points="5.5 24.4 31.2 24.4 31.2 22.4 5.5 22.4"></polygon>
            <path d="M44.4004,33.9999 L36.2004,42.1999 C36.0004,42.3999 35.7004,42.4999 35.5004,42.4999 C35.2004,42.4999 35.0004,42.3999 34.7994,42.1999 L30.5004,37.8999 C30.0994,37.4999 30.0994,36.8999 30.5004,36.4999 C30.9004,36.0999 31.5004,36.0999 31.9004,36.4999 L35.5004,40.0999 L43.0004,32.5999 C43.4004,32.1999 44.0004,32.1999 44.4004,32.5999 C44.7994,32.9999 44.7994,33.5999 44.4004,33.9999 Z M3.0004,45.9999 C2.4004,45.9999 2.0004,45.5999 2.0004,44.9999 L2.0004,2.9999 C2.0004,2.3999 2.4004,1.9999 3.0004,1.9999 L22.4004,1.9999 L22.4004,9.1999 C22.4004,11.9999 24.5994,14.1999 27.4004,14.1999 L34.5994,14.1999 L34.5994,27.0999 C33.2994,27.3999 32.2004,27.9999 31.0994,28.7999 L31.0994,27.6999 L5.5004,27.6999 L5.5004,29.6999 L30.2004,29.6999 C29.2004,30.5999 28.4004,31.7999 27.7994,32.9999 L5.5004,32.9999 L5.5004,34.9999 L27.0994,34.9999 C26.9004,35.7999 26.7994,36.5999 26.7994,37.3999 L26.7994,38.2999 L5.5004,38.2999 L5.5004,40.2999 L27.2004,40.2999 C27.9004,42.5999 29.2994,44.5999 31.2004,45.9999 L3.0004,45.9999 Z M37.4004,26.7999 L36.7004,26.7999 L36.7004,12.1999 L27.5004,12.1999 C25.7994,12.1999 24.5004,10.8999 24.5004,9.1999 L24.5004,-0.0001 L3.0004,-0.0001 C1.2994,-0.0001 0.0004,1.2999 0.0004,2.9999 L0.0004,44.9999 C0.0004,46.5999 1.2994,47.9999 3.0004,47.9999 L33.7004,47.9999 C34.2004,47.9999 34.5994,47.8999 35.0004,47.6999 C35.7994,47.8999 36.5994,47.9999 37.5004,47.9999 C43.2994,47.9999 48.0004,43.2999 48.0004,37.3999 C48.0004,31.4999 43.2994,26.7999 37.4004,26.7999 Z" id="Fill-6"></path>
        </g>
    </g>
</svg>