<?xml version="1.0" encoding="UTF-8"?>
<svg width="16px" height="21px" viewBox="0 0 16 21" version="1.1" xmlns="http://www.w3.org/2000/svg" xmlns:xlink="http://www.w3.org/1999/xlink">
    <!-- Generator: Sketch 52.6 (67491) - http://www.bohemiancoding.com/sketch -->
    <title>Group 3 Copy 31</title>
    <desc>Created with Sketch.</desc>
    <g id="Page-1" stroke="none" stroke-width="1" fill="none" fill-rule="evenodd">
        <g id="2" transform="translate(-2412.000000, -669.000000)" fill="#008894">
            <g id="Group-3-Copy-31" transform="translate(2412.000000, 669.000000)">
                <path d="M12.8444,7.2401 L7.4624,4.0481 L8.8654,1.6751 L14.2474,4.8671 L12.8444,7.2401 Z M6.7884,17.4801 L5.5084,17.8271 L1.7864,15.5181 L1.4634,14.1761 L6.7374,5.2591 L12.1304,8.4481 L6.7884,17.4801 Z M15.5854,3.9991 L8.9704,0.0871 C8.6294,-0.0959 8.2034,0.0181 8.0004,0.3481 L0.0994,13.7091 C0.0094,13.8671 -0.0206,14.0521 0.0144,14.2311 L1.3234,19.6651 C1.3674,19.8471 1.4884,20.0021 1.6534,20.0911 C1.8154,20.1801 2.0044,20.2001 2.1814,20.1511 L2.1934,20.1481 L7.4334,18.7541 C7.6134,18.7141 7.7694,18.6041 7.8664,18.4481 L15.8354,4.9721 C16.0304,4.6331 15.9184,4.2021 15.5854,3.9991 Z" id="Fill-1"></path>
            </g>
        </g>
    </g>
</svg>