<?xml version="1.0" encoding="UTF-8"?>
<svg width="15px" height="15px" viewBox="0 0 15 15" version="1.1" xmlns="http://www.w3.org/2000/svg" xmlns:xlink="http://www.w3.org/1999/xlink">
    <!-- Generator: Sketch 52.6 (67491) - http://www.bohemiancoding.com/sketch -->
    <title>Fill 2 Copy 5</title>
    <desc>Created with Sketch.</desc>
    <g id="Page-1" stroke="none" stroke-width="1" fill="none" fill-rule="evenodd">
        <g id="2" transform="translate(-2471.000000, -672.000000)" fill="#008894">
            <path d="M2480.9205,679.511431 L2485.70076,674.732179 C2486.09975,674.333408 2486.09975,673.678285 2485.70076,673.275017 L2484.72281,672.299078 C2484.32533,671.900307 2483.67137,671.900307 2483.26639,672.299078 L2478.48613,677.081328 L2473.73436,672.332059 C2473.33538,671.928791 2472.67992,671.93029 2472.27494,672.329061 L2471.30149,673.3035 C2470.89801,673.705269 2470.90101,674.357394 2471.30149,674.762162 L2476.05325,679.511431 L2471.30899,684.254704 C2470.90401,684.654973 2470.90401,685.305599 2471.30899,685.713365 L2472.27794,686.684806 C2472.67992,687.086575 2473.33238,687.086575 2473.74036,686.684806 L2478.48613,681.944532 L2483.24389,686.699798 C2483.64437,687.100067 2484.29684,687.100067 2484.70331,686.699798 L2485.67677,685.726857 C2486.07725,685.323589 2486.07725,684.671464 2485.67677,684.266697 L2480.9205,679.511431 Z" id="Fill-2-Copy-5"></path>
        </g>
    </g>
</svg>