<?xml version="1.0" encoding="UTF-8"?>
<svg width="117px" height="95px" viewBox="0 0 117 95" version="1.1" xmlns="http://www.w3.org/2000/svg" xmlns:xlink="http://www.w3.org/1999/xlink">
    <!-- Generator: Sketch 51.2 (57519) - http://www.bohemiancoding.com/sketch -->
    <title>escanea</title>
    <desc>Created with Sketch.</desc>
    <defs>
        <polygon id="path-1" points="0.8285 0.6851 47.937 0.6851 47.937 32.3371 0.8285 32.3371"></polygon>
    </defs>
    <g id="Symbols" stroke="none" stroke-width="1" fill="none" fill-rule="evenodd">
        <g id="escanea">
            <g id="Group-7">
                <g id="Group-10">
                    <path d="M38.1016173,0 L78,9.91005823 L38.622031,21.5475855 C37.8141507,21.7759696 37.1668552,22.5063962 37.0260957,23.3464874 L32.4811495,42.7068174 L30.0872465,40.9793484 L29.3943528,45.1405668 L29.1861874,45.1405668 C29.0335327,45.1516338 28.8818693,45.1717558 28.7351622,45.2109936 L18.7432194,47.4676698 C17.8689244,47.6739197 17.1601705,48.4677305 17.0432013,49.3722119 L15.9329855,58.3999228 C15.863597,58.8959288 15.9637146,59.4130628 16.2105394,59.8456846 C17.9541731,62.7995863 19.6056192,64.9465979 22.0391727,66.0885183 C23.1969693,66.6318108 24.4390233,66.9054693 25.78516,66.9698595 C22.895625,76.67568 34.7719609,74.5699184 34.7719609,81.2524165 C30.3301062,92.5378097 25.890234,95.9233271 9.23699601,94.7944859 C0.355269077,92.5378097 -0.754946789,80.1235754 0.355269077,71.0958644 C2.44088888,56.2519051 10.4185829,41.4180068 8.61249959,25.638377 L5.90634841,23.6986215 C3.68591668,22.5697803 2.57570081,19.184263 2.57570081,16.9980136 L2.57570081,10.1565521 C2.57570081,6.77103471 3.68591668,5.64219356 7.01656428,4.51335241 L38.1016173,0 Z" id="Stroke-1" stroke="#268A95" stroke-width="2"></path>
                    <g id="Group-5" transform="translate(36.000000, 12.000000)">
                        <mask id="mask-2" fill="white">
                            <use xlink:href="#path-1"></use>
                        </mask>
                        <g id="Clip-4"></g>
                        <path d="M47.9375,0.6851 L43.8765,18.9821 C29.5275,25.6161 15.1775,30.0621 0.8285,32.3371 L5.5525,12.9181 L47.9375,0.6851 Z" id="Fill-3" fill="#268A95" mask="url(#mask-2)"></path>
                    </g>
                    <path d="M30.5298411,47 L38,55.2344987 C32.9880017,57.880434 29.8537943,58.5183747 27.6227349,57.6120938 C25.47053,56.7382162 23.2047746,53.6609115 21,49.0586247 L30.5298411,47 Z" id="Fill-6" fill="#268A95"></path>
                    <path d="M18.8691714,51 C20.8349889,54.904897 22.7302793,57.5473225 25.5096412,58.6484885 C28.1121889,59.6778596 31.1329321,59.135202 35,57.4055975 L30.2369405,62.6354368 C23.5626972,63.6815912 21.336625,62.6354368 18,57.4055975 L18.8691714,51 Z" id="Fill-8" fill="#268A95"></path>
                </g>
                <g id="Group-47" transform="translate(67.000000, 42.000000)" fill="#268A95">
                    <polygon id="Fill-1" points="16 2 20 2 20 0 16 0"></polygon>
                    <polygon id="Fill-2" points="24 0 24 4 30 4 30 1.99927246 25.9980597 1.99927246 25.9980597 0"></polygon>
                    <polygon id="Fill-3" points="32.0001617 0 32.0001617 7.9998677 30.0017789 7.9998677 30.0017789 9.99947079 32.0001617 9.99947079 32.0001617 15.9997354 30.0017789 15.9997354 30.0017789 12.0005292 27.9990297 12.0005292 27.9990297 14.0001323 25.9991914 14.0001323 25.9991914 7.9998677 30.0017789 7.9998677 30.0017789 6.0002646 24.0008086 6.0002646 24.0008086 4.00066151 21.9995148 4.00066151 21.9995148 1.9996031 19.9982211 1.9996031 19.9982211 4.00066151 16 4.00066151 16 6.0002646 21.9995148 6.0002646 21.9995148 9.99947079 24.0008086 9.99947079 24.0008086 15.9997354 25.9991914 15.9997354 25.9991914 18.0007938 27.9990297 18.0007938 27.9990297 19.9989416 30.0017789 19.9989416 30.0017789 18.0007938 32.0001617 18.0007938 32.0001617 22 34 22 34 0"></polygon>
                    <path d="M0,14 L14,14 L14,0 L0,0 L0,14 Z M1.9995842,12.0004158 L11.9989605,12.0004158 L11.9989605,1.9995842 L1.9995842,1.9995842 L1.9995842,12.0004158 Z" id="Fill-4"></path>
                    <path d="M36,14 L50,14 L50,0 L36,0 L36,14 Z M38.0010395,12.0004158 L48.0018711,12.0004158 L48.0018711,1.9995842 L38.0010395,1.9995842 L38.0010395,12.0004158 Z" id="Fill-5"></path>
                    <polygon id="Fill-6" points="4 10 10 10 10 4 4 4"></polygon>
                    <polygon id="Fill-7" points="40 10 46 10 46 4 40 4"></polygon>
                    <polygon id="Fill-8" points="16 8 20 8 20 12 18 12 18 10 16 10"></polygon>
                    <polygon id="Fill-9" points="16 12 17.9997089 12 17.9997089 14.0008731 19.9994178 14.0008731 19.9994178 12 22.0005822 12 22.0005822 16.000291 24.0002911 16.000291 24.0002911 17.999709 26 17.999709 26 19.9991269 24.0002911 19.9991269 24.0002911 22 22.0005822 22 22.0005822 17.999709 19.9994178 17.999709 19.9994178 16.000291 16 16.000291"></polygon>
                    <polygon id="Fill-10" points="10 18 14 18 14 16 10 16"></polygon>
                    <polygon id="Fill-11" points="40 18 42 18 42 16 40 16"></polygon>
                    <polygon id="Fill-12" points="44 16 44 22.0005822 45.9980597 22.0005822 45.9980597 26 50 26 50 19.9994178 45.9980597 19.9994178 45.9980597 16"></polygon>
                    <polygon id="Fill-13" points="48 18 50 18 50 16 48 16"></polygon>
                    <polygon id="Fill-14" points="2 20 6 20 6 18 2 18"></polygon>
                    <polygon id="Fill-15" points="8 20 10 20 10 18 8 18"></polygon>
                    <polygon id="Fill-16" points="0 22 2 22 2 20 0 20"></polygon>
                    <polygon id="Fill-17" points="12 22 14 22 14 20 12 20"></polygon>
                    <polygon id="Fill-18" points="3.99951492 22 8 22 8 26 6.00048508 26 6.00048508 28 3.99951492 28 3.99951492 26 2 26 2 24 3.99951492 24"></polygon>
                    <polygon id="Fill-19" points="10 24 12 24 12 22 10 22"></polygon>
                    <polygon id="Fill-20" points="30 24 32 24 32 22 30 22"></polygon>
                    <polygon id="Fill-21" points="12 26 14 26 14 24 12 24"></polygon>
                    <polygon id="Fill-22" points="0 34 2 34 2 26 0 26"></polygon>
                    <polygon id="Fill-23" points="8 28 10 28 10 26 8 26"></polygon>
                    <polygon id="Fill-24" points="6 30 8 30 8 28 6 28"></polygon>
                    <polygon id="Fill-25" points="12 30 14 30 14 28 12 28"></polygon>
                    <polygon id="Fill-26" points="16 28 18 28 18 30.0010915 20 30.0010915 20 34.0003638 18 34.0003638 18 36 16 36"></polygon>
                    <polygon id="Fill-27" points="38 30 42 30 42 28 38 28"></polygon>
                    <polygon id="Fill-28" points="46 30 50 30 50 28 46 28"></polygon>
                    <polygon id="Fill-29" points="8 32 10 32 10 30 8 30"></polygon>
                    <polygon id="Fill-30" points="4 34 6 34 6 32 4 32"></polygon>
                    <polygon id="Fill-31" points="10 34 14 34 14 32 10 32"></polygon>
                    <polygon id="Fill-32" points="20 36 22 36 22 34 20 34"></polygon>
                    <path d="M36.0000856,16 L36.0000856,22.000428 L34.0005136,22.000428 L34.0005136,27.9994007 L30.0013697,27.9994007 L30.0013697,24.0000856 L28.0003424,24.0000856 L28.0003424,27.9994007 L26.0007704,27.9994007 L26.0007704,22.000428 L23.9997432,22.000428 L23.9997432,25.9997432 L22.0001712,25.9997432 L22.0001712,22.000428 L16,22.000428 L16,24.0000856 L17.999572,24.0000856 L17.999572,27.9994007 L20.0005992,27.9994007 L20.0005992,30.0005137 L22.0016265,30.0005137 L22.0016265,27.9994007 L24.0011985,27.9994007 L24.0011985,30.0005137 L22.0016265,30.0005137 L22.0016265,33.9998288 L24.0011985,33.9998288 L24.0011985,35.9994863 L26.0007704,35.9994863 L26.0007704,32.0001712 L28.0003424,32.0001712 L28.0003424,35.9994863 L30.0013697,35.9994863 L30.0013697,33.9998288 L31.9994864,33.9998288 L31.9994864,35.9994863 L30.0013697,35.9994863 L30.0013697,37.9991439 L28.0003424,37.9991439 L28.0003424,43.999572 L24.0011985,43.999572 L24.0011985,46.0006849 L28.0003424,46.0006849 L28.0003424,48.0003424 L24.0011985,48.0003424 L24.0011985,50 L34.0005136,50 L34.0005136,48.0003424 L31.9994864,48.0003424 L31.9994864,46.0006849 L30.0013697,46.0006849 L30.0013697,40.0017122 L31.9994864,40.0017122 L31.9994864,41.9999144 L34.0005136,41.9999144 L34.0005136,43.999572 L36.0000856,43.999572 L36.0000856,41.9999144 L42.0002568,41.9999144 L42.0002568,43.999572 L43.9998288,43.999572 L43.9998288,41.9999144 L45.9994008,41.9999144 L45.9994008,40.0017122 L43.9998288,40.0017122 L43.9998288,35.9994863 L42.0002568,35.9994863 L42.0002568,33.9998288 L50,33.9998288 L50,32.0001712 L45.9994008,32.0001712 L45.9994008,30.0005137 L42.0002568,30.0005137 L42.0002568,32.0001712 L34.0005136,32.0001712 L34.0005136,30.0005137 L36.0000856,30.0005137 L36.0000856,27.9994007 L37.9996576,27.9994007 L37.9996576,25.9997432 L42.0002568,25.9997432 L42.0002568,27.9994007 L43.9998288,27.9994007 L43.9998288,22.000428 L42.0002568,22.000428 L42.0002568,19.9993151 L40.0006848,19.9993151 L40.0006848,22.000428 L37.9996576,22.000428 L37.9996576,19.9993151 L40.0006848,19.9993151 L40.0006848,17.9996576 L37.9996576,17.9996576 L37.9996576,16 L36.0000856,16 Z M30.0013697,32.0001712 L31.9994864,32.0001712 L31.9994864,30.0005137 L30.0013697,30.0005137 L30.0013697,32.0001712 Z M34.0005136,40.0017122 L40.0006848,40.0017122 L40.0006848,33.9998288 L34.0005136,33.9998288 L34.0005136,40.0017122 Z" id="Fill-33"></path>
                    <polygon id="Fill-34" points="22 40 24 40 24 36 22 36"></polygon>
                    <polygon id="Fill-35" points="36 38 38 38 38 36 36 36"></polygon>
                    <polygon id="Fill-36" points="48 40 50 40 50 36 48 36"></polygon>
                    <path d="M0,50 L14,50 L14,36 L0,36 L0,50 Z M1.9995842,48.0004158 L11.9989605,48.0004158 L11.9989605,37.9995842 L1.9995842,37.9995842 L1.9995842,48.0004158 Z" id="Fill-37"></path>
                    <polygon id="Fill-38" points="16 38 19.9990298 38 19.9990298 42.0007277 22 42.0007277 22 44.0003638 19.9990298 44.0003638 19.9990298 46 17.9995149 46 17.9995149 40.0010915 16 40.0010915"></polygon>
                    <polygon id="Fill-39" points="4 46 10 46 10 40 4 40"></polygon>
                    <polygon id="Fill-40" points="24 42 26 42 26 40 24 40"></polygon>
                    <polygon id="Fill-41" points="48 50 50 50 50 42 48 42"></polygon>
                    <polygon id="Fill-42" points="32 46 34 46 34 44 32 44"></polygon>
                    <polygon id="Fill-43" points="36 44 36 50 37.9996362 50 37.9996362 48.0004851 42.0003638 48.0004851 42.0003638 50 44 50 44 45.9995149 40.0007277 45.9995149 40.0007277 44"></polygon>
                    <polygon id="Fill-44" points="44 46 46 46 46 44 44 44"></polygon>
                    <polygon id="Fill-45" points="22 48 24 48 24 46 22 46"></polygon>
                    <polygon id="Fill-46" points="18 50 20 50 20 48 18 48"></polygon>
                </g>
            </g>
        </g>
    </g>
</svg>