<?xml version="1.0" encoding="UTF-8"?>
<svg width="68px" height="75px" viewBox="0 0 68 75" version="1.1" xmlns="http://www.w3.org/2000/svg" xmlns:xlink="http://www.w3.org/1999/xlink">
    <!-- Generator: Sketch 51.3 (57544) - http://www.bohemiancoding.com/sketch -->
    <title>hielera_congelador</title>
    <desc>Created with Sketch.</desc>
    <defs></defs>
    <g id="Page-1" stroke="none" stroke-width="1" fill="none" fill-rule="evenodd">
        <g id="3" transform="translate(-907.000000, -470.000000)">
            <rect fill="#F2F2F2" x="0" y="0" width="2353" height="1323"></rect>
            <polygon id="Fill-1" fill="#1A1A1A" points="0 1323 2353 1323 2353 0 0 0"></polygon>
            <g id="Page-1" transform="translate(542.000000, 79.000000)">
                <polygon id="Fill-1" fill="#FFFFFF" points="0 1183 1775 1183 1775 -5.68434189e-13 0 -5.68434189e-13"></polygon>
                <path d="M0,1185 L1775,1185 L1775,-5.68434189e-13 L0,-5.68434189e-13 L0,1185 Z M2,1183.929 L1773.85527,1183.929 L1773.85527,1 L2,1 L2,1183.929 Z" id="Fill-2"></path>
            </g>
            <g id="Group-5" transform="translate(850.000000, 417.000000)" stroke="#D8D9DD">
                <rect id="Rectangle-15" x="0.5" y="0.5" width="180" height="206.470085"></rect>
            </g>
            <g id="hielera_congelador" transform="translate(907.000000, 470.000000)" fill="#9A9999">
                <g id="Recurso-232">
                    <path d="M12.2891566,45.9395604 L11.8877108,45.8406593 C11.8877108,45.8406593 9.51180723,45.3296703 7.61927711,44.8104396 C6.95899055,44.6351516 6.46208292,44.0868974 6.34939759,43.4093407 C5.90409306,43.0192576 5.61326872,42.4809412 5.53012048,41.8928571 L5.53012048,34.978022 C5.5301205,34.3862883 6.00696421,33.9065934 6.59518072,33.9065934 C7.18339724,33.9065934 7.66024095,34.3862883 7.66024096,34.978022 L7.66024096,41.4395604 C7.91652411,41.3820021 8.18227107,41.3820021 8.43855422,41.4395604 C10.306506,41.9175824 12.6250602,42.4615385 12.6250602,42.4615385 L13.026506,42.5521978 L12.8708434,43.2445055 L13.1084337,43.3021978 C13.1901712,43.310141 13.2724794,43.310141 13.3542169,43.3021978 L13.3542169,37.7967033 C13.3542169,37.2049696 13.8310606,36.7252747 14.4192771,36.7252747 C14.6999548,36.7224763 14.9694718,36.8356948 15.1648193,37.0384615 C15.3660352,37.2386035 15.4783106,37.5120534 15.4761446,37.7967033 L15.4761446,43.3516484 C15.4996168,43.9867634 15.2268826,44.5964633 14.7387952,45 C14.3253337,45.3093478 13.8200999,45.469085 13.3050602,45.4532967 C13.0791818,45.4519289 12.8540491,45.4270715 12.633253,45.3791209 L12.4038554,45.3296703 L12.2891566,45.9395604 Z M6.38216867,41.8681319 C6.46577504,42.2753628 6.68908359,42.6400443 7.01301205,42.8983516 L7.14409639,43.0137363 L7.14409639,43.1868132 C7.16690606,43.5789346 7.43813258,43.9116764 7.81590361,44.010989 C9.22506024,44.3653846 10.8963855,44.7692308 11.6501205,44.9505495 L11.7812048,44.3653846 L12.8298795,44.5961538 C13.3117164,44.7377045 13.8311831,44.6561469 14.2472289,44.3736264 C14.5448667,44.1220952 14.7035185,43.7415095 14.673253,43.3516484 L14.673253,37.7884615 C14.6724438,37.7272487 14.6490897,37.6685143 14.6077108,37.6236264 C14.5374905,37.554366 14.4329907,37.5338797 14.3420565,37.571547 C14.2511224,37.6092144 14.1912608,37.6977836 14.1898795,37.7967033 L14.1898795,43.3598901 C14.2123135,43.596218 14.1209445,43.8290702 13.9440964,43.9862637 C13.6402877,44.1582206 13.2821901,44.2054651 12.9445783,44.1181319 L11.8959036,43.8873626 L12.059759,43.1868132 C11.3142169,43.0054945 9.65927711,42.6098901 8.25831325,42.2554945 C8.02760591,42.1959137 7.78279803,42.2315192 7.57831325,42.3543956 L7.25879518,42.543956 L7.03759036,42.239011 C6.99284233,42.1726867 6.95181449,42.1038981 6.9146988,42.032967 L7.27518072,41.8516484 L6.86554217,41.8516484 L6.86554217,34.978022 C6.86554217,34.8414681 6.75550131,34.7307692 6.61975904,34.7307692 C6.48581893,34.7350499 6.37823115,34.843281 6.3739759,34.978022 L6.3739759,41.8681319 L6.38216867,41.8681319 Z" id="Shape" fill-rule="nonzero"></path>
                    <path d="M24.3325301,74.9423077 C22.577588,74.9835382 20.8318494,74.675437 19.1956627,74.0357143 L5.26795181,67.9450549 C4.73542169,67.6730769 2.20385542,65.9835165 2.13012048,58.467033 C1.73116308,57.8013809 1.55860299,57.0231106 1.63855422,56.25 L1.63855422,30.9313187 C1.6250831,30.8411658 1.6250831,30.7494936 1.63855422,30.6593407 C1.62887121,30.582726 1.62887121,30.5051861 1.63855422,30.4285714 C1.63535565,29.8832352 1.83059917,29.355564 2.18746988,28.9450549 C1.78887945,28.7018268 1.42505738,28.405147 1.1060241,28.0631868 C-0.835662651,26.1098901 0.327710843,23.3406593 1.22072289,22.1538462 C1.26987952,22.0714286 10.6096386,7.98626374 12.9281928,4.72252747 C14.4223735,2.53444447 16.8057037,1.12730006 19.433253,0.881868132 L19.5889157,0.881868132 C26.5445783,0.881868132 34.3359036,0.881868132 35.5074699,0.774725275 C36.6190017,0.630883212 37.7156656,0.388174547 38.7845783,0.0494505495 C38.8906988,0.0163814489 39.0011942,-0.000291966544 39.1122892,-3.65298332e-15 L44.9455422,-3.65298332e-15 C45.8670766,0.0261004596 46.7722976,0.250948271 47.6,0.659340659 L56.8168675,0.659340659 C59.0207229,0.659340659 59.5450602,0.725274725 61.1836145,2.62087912 C62.394239,3.81603778 62.4485296,5.76033859 61.306506,7.02197802 L45.6501205,24.5274725 C45.5641693,24.6456903 45.471146,24.7585362 45.3715663,24.8653846 C46.4030396,24.7912563 47.439586,24.8382766 48.460241,25.0054945 L66.820241,29.0521978 C66.981619,29.0875055 67.1311915,29.1641584 67.2544578,29.2747253 C67.3351716,29.309218 67.409857,29.3565233 67.4756627,29.4148352 C67.7033382,29.6266487 67.8288101,29.9271778 67.819759,30.239011 L67.0578313,56.1346154 C67.0251392,56.6773224 66.8082301,57.1922888 66.4433735,57.5934066 C66.3122892,65.728022 63.3219277,66.4368132 62.7156627,66.4945055 C62.6337349,66.4945055 32.9677108,73.532967 28.0848193,74.5467033 C26.8507444,74.8069824 25.5934327,74.9395409 24.3325301,74.9423077 Z M19.4168675,1.6978022 C17.0482043,1.94455779 14.9080841,3.22907111 13.5672289,5.20879121 C11.273253,8.43131868 1.94168675,22.5164835 1.86795181,22.6236264 C1.1060241,23.6373626 0.114698795,25.9203297 1.67951807,27.4945055 C2.06166136,27.906149 2.51748436,28.2416723 3.02313253,28.4835165 L3.61301205,28.7637363 L3.09686747,29.1758242 C2.68838593,29.4618535 2.44147192,29.9279688 2.43325301,30.4285714 L2.45783133,30.4945055 L2.45783133,30.6593407 C2.44607888,30.7219744 2.44607888,30.7862673 2.45783133,30.8489011 L2.45783133,56.2335165 C2.37541415,56.8572539 2.52098396,57.4898756 2.86746988,58.0137363 L2.98216867,58.1291209 L2.98216867,58.293956 C3.02313253,65.7115385 5.5546988,67.1291209 5.66120482,67.1868132 L19.5315663,73.260989 C21.0637613,73.8562555 22.6990287,74.1365016 24.3407229,74.0851648 C25.546429,74.0792471 26.7485356,73.9522436 27.9291566,73.706044 C32.8448193,72.6758242 62.3961446,65.7032967 62.5845783,65.6538462 C62.773012,65.6043956 65.5503614,65.2664835 65.6404819,57.4120879 L65.6404819,57.2225275 L65.7879518,57.0989011 C66.0633461,56.835285 66.2275845,56.4753405 66.246747,56.0934066 L67.0086747,30.2142857 C67.0146058,30.1454201 66.9871503,30.0779053 66.9349398,30.032967 L66.7628916,29.9258242 C66.7354684,29.8927718 66.6980743,29.8696224 66.6563855,29.8598901 L48.2554217,25.8049451 C46.936183,25.6181626 45.5994946,25.5904943 44.2737349,25.7225275 L42.9628916,25.771978 L44.019759,24.9478022 C44.3954046,24.673787 44.7293547,24.3461694 45.0110843,23.9752747 L60.7084337,6.46153846 C61.5465525,5.50084238 61.4814702,4.04591993 60.5609639,3.16483516 C59.1190361,1.51648352 58.8568675,1.51648352 56.8168675,1.51648352 L47.4033735,1.51648352 L47.3214458,1.47527473 C46.5846855,1.08279506 45.7702572,0.86037395 44.9373494,0.824175824 L39.0303614,0.824175824 C37.8915758,1.17848187 36.7235373,1.42948435 35.540241,1.57417582 C34.0819277,1.72252747 22.9233735,1.6978022 19.5315663,1.68956044 L19.4168675,1.6978022 Z" id="Shape" fill-rule="nonzero"></path>
                    <path d="M60.5773494,3.92307692 L48.2390361,3.92307692 L48.1407229,3.6510989 C48.0171614,3.28950246 47.8749607,2.93462608 47.7146988,2.58791209 L47.4361446,1.97802198 L56.8168675,1.97802198 C58.6848193,1.97802198 58.9306024,2.02747253 59.9792771,3.23901099 L60.5773494,3.92307692 Z M48.8125301,3.0989011 L58.7093976,3.0989011 C58.3325301,2.81043956 57.9474699,2.8021978 56.8168675,2.8021978 L48.7060241,2.8021978 L48.8125301,3.0989011 Z" id="Shape" fill-rule="nonzero"></path>
                    <path d="M47.7310843,3.89835165 L36.4987952,3.89835165 L39.2024096,1.31868132 L44.9373494,1.31868132 C45.454796,1.34171301 45.9645686,1.45319577 46.4448193,1.64835165 L46.5431325,1.64835165 L46.6578313,1.78021978 C47.0207964,2.2379295 47.310993,2.74950514 47.5180723,3.2967033 L47.7310843,3.89835165 Z M38.5551807,3.07417582 L46.5021687,3.07417582 C46.3910132,2.80929192 46.2419679,2.56217445 46.059759,2.34065934 C45.6982412,2.21595081 45.3194793,2.14920163 44.9373494,2.14285714 L39.5301205,2.14285714 L38.5551807,3.07417582 Z" id="Shape" fill-rule="nonzero"></path>
                    <path d="M1.75325301,27.0659341 L1.4746988,26.3076923 C0.917590361,24.8076923 2.06457831,23.1510989 2.22843373,22.9285714 C2.49879518,22.5164835 11.6419277,8.72802198 13.9440964,5.49725275 C15.1943172,3.65056002 17.1847343,2.44615795 19.3922892,2.20054945 C19.5561446,2.20054945 33.8853012,2.25 35.5812048,2.08516484 C35.9826506,2.08516484 36.4004819,1.98626374 36.7773494,1.91208791 L38.1373494,1.64835165 L35.7860241,3.89835165 L21.1537349,3.89835165 C21.0226506,3.89835165 17.0163855,4.33516484 14.0342169,8.71978022 C11.5354217,12.4038462 4.34216867,23.1758242 2.19566265,26.3736264 L1.75325301,27.0659341 Z M19.4086747,3.02472527 C17.4578032,3.25860375 15.7049975,4.33583324 14.6077108,5.97527473 C12.2891566,9.23076923 2.99036145,23.2582418 2.90024096,23.3901099 C2.57459573,23.8435643 2.33821636,24.3555181 2.20385542,24.8983516 C4.91566265,20.8681319 11.0766265,11.6126374 13.3542169,8.24175824 C15.0970098,5.48571525 17.9193357,3.60189907 21.1209639,3.05769231 L35.466506,3.05769231 L35.6385542,2.89285714 C33.7542169,3.07417582 19.5561446,3.02472527 19.4086747,3.02472527 Z" id="Shape" fill-rule="nonzero"></path>
                    <path d="M24.3489157,73.6236264 C22.7672564,73.6555113 21.1946967,73.3755179 19.72,72.7994505 L5.88240964,66.7582418 C5.82506024,66.7582418 3.64578313,65.4395604 3.48192771,58.9368132 L3.48192771,58.3104396 L4.05542169,58.5412088 C7.04578313,59.7445055 14.4520482,62.7115385 18.7368675,64.228022 C20.8210603,64.9851395 23.017885,65.3808701 25.2337349,65.3983516 C26.1594941,65.4133643 27.0836971,65.3165175 27.986506,65.1098901 C28.3224096,65.043956 59.1190361,58.6318681 64.6409639,57.4368132 L65.1489157,57.3296703 L65.1489157,57.8489011 C64.9768675,64.5082418 62.8057831,65.1263736 62.56,65.1758242 L62.4780723,64.771978 L62.5763855,65.1758242 L62.4780723,64.771978 L62.5190361,65.1840659 C59.446747,65.9340659 32.5416867,72.271978 27.8554217,73.2527473 C26.7027019,73.499433 25.5274298,73.6237402 24.3489157,73.6236264 Z M4.31759036,59.5549451 C4.57975904,64.8379121 6.25108434,66.032967 6.26746988,66.0412088 L20.0559036,72.0741758 C22.5014995,72.9334029 25.142033,73.0622117 27.6587952,72.4450549 C32.3614458,71.4725275 59.2583133,65.1263736 62.3142169,64.4010989 L62.3715663,64.4010989 C62.3715663,64.4010989 64.0592771,63.8736264 64.2968675,58.3846154 C57.5951807,59.8021978 28.4780723,65.8681319 28.1749398,65.9340659 C27.2061431,66.1628128 26.2121303,66.2653014 25.2173494,66.239011 C22.9065292,66.2210885 20.6155041,65.8086349 18.4419277,65.0192308 C14.4028916,63.5851648 7.61108434,60.8736264 4.31759036,59.5549451 Z" id="Shape" fill-rule="nonzero"></path>
                    <path d="M24.193253,64.5 C23.18363,64.5326365 22.1733453,64.4608309 21.1783133,64.2857143 L3.48192771,57.6923077 L3.0313253,30.0989011 L21.3012048,34.6153846 L66.3614458,30.1483516 L65.2718072,57.1895604 L28.7238554,64.2857143 C28.56,64.2857143 26.3479518,64.5 24.193253,64.5 Z M4.29301205,57.1401099 L21.4077108,63.4615385 C23.5378313,63.9395604 28.5518072,63.4615385 28.6091566,63.4615385 L64.4771084,56.5054945 L65.4848193,31.0384615 L21.2438554,35.4395604 L21.1783133,35.4395604 L3.86698795,31.1538462 L4.29301205,57.1401099 Z" id="Shape" fill-rule="nonzero"></path>
                    <path d="M2.67903614,29.2747253 L2.55614458,29.1675824 C2.1883051,28.7363161 2.03733373,28.1591946 2.14650602,27.6016484 L2.14650602,27.4945055 L15.1893976,7.54120879 C15.3204819,7.36813187 18.0486747,3.90659341 21.7436145,4.35989011 L60.700241,3.85714286 L60.8231325,3.97252747 C61.1073182,4.25576967 61.2671947,4.64151808 61.2671947,5.04395604 C61.2671947,5.446394 61.1073182,5.83214242 60.8231325,6.11538462 L43.8640964,25.978022 L43.700241,25.978022 L2.67903614,29.2747253 Z M2.95759036,27.7664835 C2.9412401,27.9868469 2.96910148,28.2082679 3.03951807,28.4175824 L43.4626506,25.1868132 L60.2086747,5.57142857 C60.467501,5.34945595 60.5234934,4.96924787 60.339759,4.68131868 L21.6780723,5.18406593 C18.4009639,4.78021978 15.8775904,7.99450549 15.853012,8.02747253 L2.95759036,27.7664835 Z" id="Shape" fill-rule="nonzero"></path>
                    <path d="M44.8144578,55.3269231 C44.3031619,55.3269231 43.8886747,54.9099575 43.8886747,54.3956044 L43.8886747,53.5714286 L43.2086747,53.967033 C42.7655838,54.2088303 42.2119105,54.0605424 41.946988,53.6291209 C41.6934916,53.1804922 41.8471157,52.6101565 42.2910843,52.3516484 L43.9296386,51.4203297 L43.9296386,48.6263736 L41.4718072,50.0686813 L41.4718072,51.9230769 C41.4718073,52.2558051 41.295354,52.5632585 41.0089157,52.7296226 C40.7224774,52.8959867 40.3695708,52.8959867 40.0831325,52.7296226 C39.7966942,52.5632585 39.6202409,52.2558051 39.620241,51.9230769 L39.620241,51.0989011 L38.940241,51.4945055 C38.7278677,51.6122481 38.4790269,51.6446436 38.2438554,51.5851648 C38.0037553,51.5239011 37.7993065,51.3659218 37.6785542,51.1483516 C37.5562992,50.9366413 37.5210246,50.6852852 37.580241,50.4478022 C37.6456659,50.2106021 37.8017806,50.0091063 38.0144578,49.8873626 L38.6944578,49.4917582 L38.0144578,49.0961538 C37.7865785,48.9822984 37.6153244,48.7791131 37.5409337,48.5343386 C37.466543,48.2895641 37.4955737,48.0247791 37.6212048,47.8021978 C37.8807266,47.3641684 38.4382412,47.2112098 38.8828916,47.456044 L40.5214458,48.3873626 L42.9792771,46.9450549 L40.5214458,45.510989 L38.8828916,46.4423077 C38.6702131,46.5597213 38.4204652,46.5892791 38.186506,46.5247253 C37.9432816,46.4753543 37.7354035,46.3177557 37.6212048,46.0961538 C37.3717992,45.6515349 37.5209573,45.0879323 37.9571084,44.8269231 L38.6371084,44.4313187 L37.9571084,44.0357143 C37.7450698,43.9151618 37.5911779,43.7127152 37.5310843,43.4752747 C37.4653161,43.236421 37.4977926,42.9809951 37.6212048,42.7664835 C37.8806627,42.3277245 38.4409153,42.1776745 38.8828916,42.4285714 L39.5628916,42.8241758 L39.5628916,42.032967 C39.5628916,41.5186139 39.9773788,41.1016484 40.4886747,41.1016484 C40.9999706,41.1016484 41.4144578,41.5186139 41.4144578,42.032967 L41.4144578,43.8873626 L43.8722892,45.3296703 L43.8722892,42.478022 L42.2337349,41.5467033 C42.023055,41.420718 41.8700455,41.2164721 41.8077108,40.978022 C41.7419426,40.7391682 41.7744191,40.4837424 41.8978313,40.2692308 C42.1600708,39.8341907 42.7169666,39.6850397 43.1595181,39.9313187 L43.8395181,40.3269231 L43.8395181,39.5604396 C43.8395181,39.0460865 44.2540053,38.6291209 44.7653012,38.6291209 C45.2765971,38.6291209 45.6910843,39.0460865 45.6910843,39.5604396 L45.6910843,40.3846154 L46.3710843,39.989011 C46.8235586,39.7318345 47.397605,39.8923478 47.653253,40.3475275 C47.9089009,40.8027072 47.7493417,41.3801861 47.2968675,41.6373626 L45.6583133,42.5686813 L45.6583133,45.3296703 L48.1161446,43.8873626 L48.1161446,42.032967 C48.0831063,41.6808394 48.2511988,41.3402751 48.5500215,41.1539089 C48.8488443,40.9675427 49.2268184,40.9675427 49.5256411,41.1539089 C49.8244639,41.3402751 49.9925563,41.6808394 49.9595181,42.032967 L49.9595181,42.8571429 L50.6395181,42.4615385 C51.0866188,42.2158759 51.646751,42.3685612 51.9093976,42.8076923 C52.0256585,43.021592 52.0578222,43.2716162 51.9995181,43.5082418 C51.9368755,43.7489227 51.7803077,43.953975 51.5653012,44.0769231 L50.8853012,44.4725275 L51.5653012,44.8598901 C51.7784662,44.9830644 51.9323615,45.1884926 51.9913253,45.4285714 C52.0570936,45.6674252 52.024617,45.9228511 51.9012048,46.1373626 C51.6420628,46.5706519 51.0904338,46.7229849 50.6477108,46.4835165 L49.0091566,45.543956 L46.6987952,46.978022 L49.1566265,48.4120879 L50.7951807,47.4807692 C51.2422814,47.2351067 51.8024137,47.387792 52.0650602,47.8269231 C52.1805537,48.0410733 52.2126794,48.2908013 52.1551807,48.5274725 C52.0925381,48.7681535 51.9359703,48.9732058 51.7209639,49.0961538 L51.0409639,49.4917582 L51.7209639,49.8873626 C51.933641,50.0091063 52.0897558,50.2106021 52.1551807,50.4478022 C52.2140015,50.6880054 52.1788039,50.9417629 52.0568675,51.1565934 C51.8004843,51.5935287 51.2455747,51.7467677 50.8033735,51.5027473 L50.0660241,51.0989011 L50.0660241,51.9230769 C50.0990623,52.2752045 49.9309699,52.6157688 49.6321472,52.802135 C49.3333244,52.9885013 48.9553503,52.9885013 48.6565275,52.802135 C48.3577048,52.6157688 48.1896124,52.2752045 48.2226506,51.9230769 L48.2226506,50.0192308 L45.7648193,48.5851648 L45.7648193,51.4615385 L47.4033735,52.3928571 C47.6117823,52.5175585 47.7643729,52.7182931 47.8293976,52.9532967 C47.8951658,53.1921505 47.8626893,53.4475763 47.7392771,53.6620879 C47.4766744,54.101926 46.913835,54.2516963 46.4693976,54 L45.7975904,53.6126374 L45.7975904,54.4368132 C45.7870716,54.686916 45.6769113,54.9222292 45.491951,55.0896888 C45.3069907,55.2571484 45.0628047,55.3426538 44.8144578,55.3269231 Z M44.5768675,52.4093407 L44.5768675,54.3956044 C44.5768675,54.5298824 44.6850743,54.6387363 44.8185542,54.6387363 C44.9520341,54.6387363 45.060241,54.5298824 45.060241,54.3956044 L45.060241,52.4093407 L46.7725301,53.4065934 C46.8278657,53.4282155 46.8892428,53.4282155 46.9445783,53.4065934 C47.0063122,53.3928499 47.05967,53.3540833 47.0920482,53.2994505 C47.1166398,53.2415424 47.1166398,53.17604 47.0920482,53.1181319 C47.0742049,53.0601907 47.0364517,53.0105259 46.9855422,52.978022 L45.060241,51.8653846 L45.060241,47.3818681 L48.9108434,49.6236264 L48.9108434,51.9230769 C48.9108434,52.055079 49.0172162,52.1620879 49.1484337,52.1620879 C49.2796513,52.1620879 49.3860241,52.055079 49.3860241,51.9230769 L49.3860241,49.8956044 L51.0983133,50.8928571 C51.2120808,50.9504958 51.3507701,50.9111444 51.4178313,50.8021978 C51.4456874,50.7450064 51.4456874,50.6780705 51.4178313,50.6208791 C51.4021191,50.5593887 51.3601104,50.5080731 51.3031325,50.4807692 L49.6236145,49.4505495 L51.3277108,48.4532967 C51.3851355,48.4224571 51.4268319,48.3685269 51.4424096,48.3049451 C51.4666002,48.2498189 51.4666002,48.1869942 51.4424096,48.1318681 C51.4086835,48.0784951 51.3559087,48.040152 51.2949398,48.0247253 C51.2367476,48.0032962 51.172891,48.0032962 51.1146988,48.0247253 L49.1566265,49.2032967 L45.2896386,46.978022 L49.1566265,44.728022 L51.106506,45.8653846 C51.2202735,45.9230233 51.3589629,45.8836719 51.4260241,45.7747253 C51.4496978,45.7166317 51.4496978,45.6515002 51.4260241,45.5934066 C51.413312,45.5308797 51.3745248,45.4768531 51.3195181,45.4450549 L49.6154217,44.456044 L51.3195181,43.4587912 C51.3769428,43.4279516 51.4186392,43.3740214 51.4342169,43.3104396 C51.4584074,43.2553135 51.4584074,43.1924887 51.4342169,43.1373626 C51.4026077,43.0820271 51.3489023,43.0430079 51.286747,43.0302198 C51.2285548,43.0087908 51.1646982,43.0087908 51.106506,43.0302198 L49.3942169,44.0192308 L49.3942169,42.032967 C49.3942169,41.9009649 49.287844,41.793956 49.1566265,41.793956 C49.025409,41.793956 48.9190361,41.9009649 48.9190361,42.032967 L48.9190361,44.2912088 L45.060241,46.5494505 L45.060241,42.0741758 L47.0101205,40.9450549 C47.1115453,40.8739914 47.1418671,40.7365683 47.0798543,40.6290103 C47.0178415,40.5214524 46.8842103,40.4796907 46.7725301,40.532967 L45.060241,41.521978 L45.060241,39.5604396 C45.0559944,39.430248 44.9520683,39.3257006 44.8226506,39.3214286 C44.6914331,39.3214286 44.5850602,39.4284374 44.5850602,39.5604396 L44.5850602,41.5467033 L42.8727711,40.5576923 C42.7606097,40.5023833 42.6251202,40.5373319 42.553253,40.6401099 C42.52909,40.700959 42.52909,40.7688212 42.553253,40.8296703 C42.5710963,40.8876115 42.6088495,40.9372763 42.659759,40.9697802 L44.6096386,42.0989011 L44.6096386,46.5741758 L40.7590361,44.3406593 L40.7590361,42.032967 C40.7590361,41.9009649 40.6526633,41.793956 40.5214458,41.793956 C40.3902282,41.793956 40.2838554,41.9009649 40.2838554,42.032967 L40.2838554,44.010989 L38.5060241,43.0467033 C38.3942859,42.9875258 38.2561519,43.0231566 38.186506,43.1291209 C38.1628324,43.1872144 38.1628324,43.252346 38.186506,43.3104396 C38.1992181,43.3729665 38.2380054,43.426993 38.293012,43.4587912 L40.0053012,44.4478022 L38.293012,45.4450549 C38.2380054,45.4768531 38.1992181,45.5308797 38.186506,45.5934066 C38.1623155,45.6485327 38.1623155,45.7113574 38.186506,45.7664835 C38.2146214,45.8213929 38.2657405,45.8607177 38.3257831,45.8736264 C38.3833471,45.898365 38.4484602,45.898365 38.5060241,45.8736264 L40.4559036,44.7445055 L44.3392771,46.978022 L40.4886747,49.2197802 L38.5060241,48.0741758 C38.3922566,48.0165371 38.2535672,48.0558885 38.186506,48.1648352 C38.1539339,48.2181237 38.1442628,48.2824318 38.159708,48.3430282 C38.1751532,48.4036246 38.2143912,48.4553168 38.2684337,48.4862637 L40.013494,49.4505495 L38.3012048,50.4395604 C38.2461981,50.4713586 38.2074109,50.5253852 38.1946988,50.5879121 C38.1747239,50.6466815 38.1747239,50.7104614 38.1946988,50.7692308 C38.232464,50.8206227 38.288004,50.8559104 38.3503614,50.8681319 C38.4058379,50.8889836 38.4669332,50.8889836 38.5224096,50.8681319 L40.2346988,49.8708791 L40.2346988,51.9230769 C40.2346988,52.055079 40.3410716,52.1620879 40.4722892,52.1620879 C40.6035067,52.1620879 40.7098795,52.055079 40.7098795,51.9230769 L40.7098795,49.6236264 L44.5604819,47.3818681 L44.5604819,51.8653846 L42.6024096,52.9945055 C42.4924687,53.0651168 42.4565065,53.2098254 42.5204819,53.3241758 C42.5952245,53.4282164 42.7335742,53.4630106 42.8481928,53.4065934 L44.5768675,52.4093407 Z" id="Shape" fill-rule="nonzero"></path>
                </g>
            </g>
        </g>
    </g>
</svg>