<?xml version="1.0" encoding="UTF-8"?>
<svg width="31px" height="31px" viewBox="0 0 31 31" version="1.1" xmlns="http://www.w3.org/2000/svg" xmlns:xlink="http://www.w3.org/1999/xlink">
    <!-- Generator: Sketch 52.6 (67491) - http://www.bohemiancoding.com/sketch -->
    <title>export</title>
    <desc>Created with Sketch.</desc>
    <g id="Page-1" stroke="none" stroke-width="1" fill="none" fill-rule="evenodd">
        <g id="1_polizas" transform="translate(-2489.000000, -151.000000)">
            <g id="export" transform="translate(2489.000000, 151.000000)">
                <rect id="Rectangle" fill="#008894" x="0" y="0" width="30.15" height="30.04"></rect>
                <path d="M14.45,18.21 C14.4529886,18.4786645 14.6161845,18.7195592 14.8645829,18.8219691 C15.1129813,18.924379 15.3985336,18.8684944 15.59,18.68 L18.65,15.62 C18.7758113,15.4959669 18.8466427,15.3266711 18.8466427,15.15 C18.8466427,14.9733289 18.7758113,14.8040331 18.65,14.68 L15.59,11.62 C15.3985336,11.4315056 15.1129813,11.375621 14.8645829,11.4780309 C14.6161845,11.5804408 14.4529886,11.8213355 14.45,12.09 L14.45,12.66 L8,12.66 C7.63773874,12.6653677 7.34536771,12.9577387 7.34,13.32 L7.34,17 C7.33995921,17.3661605 7.63388033,17.6645349 8,17.67 L14.47,17.67 L14.45,18.21 Z" id="Path" fill="#FFFFFF"></path>
                <path d="M22.83,10.06 C22.8296172,9.95916375 22.790193,9.86239505 22.72,9.79 L19.72,6.79 C19.647605,6.71980704 19.5508362,6.68038275 19.45,6.68 L11.15,6.68 C10.6971265,6.68 10.33,7.04712651 10.33,7.5 L10.33,22.5 C10.33,22.9528735 10.6971265,23.32 11.15,23.32 L22,23.32 C22.4528735,23.32 22.82,22.9528735 22.82,22.5 L22.82,10.06 L22.83,10.06 Z M22,22.57 L11.16,22.57 L11.16,7.57 L19.07,7.57 L19.07,9.63 C19.0672879,9.84829765 19.1528093,10.0584473 19.307181,10.212819 C19.4615527,10.3671907 19.6717024,10.4527121 19.89,10.45 L22.05,10.45 L22.05,22.53 L22,22.57 Z" id="Shape" fill="#FFFFFF" fill-rule="nonzero"></path>
            </g>
        </g>
    </g>
</svg>