<svg xmlns="http://www.w3.org/2000/svg" width="27.21301mm" height="26.44679mm" viewBox="0 0 77.13923 74.96727"><title>Recurso 116</title><g id="Capa_2" data-name="Capa 2"><g id="Capa_1-2" data-name="Capa 1"><path d="M75.8,33.26727c-2.5-5.4-12.8-3.7-17.2-3.9-4.3-.2-4.8-1.9-3.5-4.1,1.2-2.3,5.4-9.1,6.6-13.4s-1.9-11-6-11.8-4.5,5.8-4.5,5.8c-1,7.9-8.9,14.5-11.2,16.8s-3.3,7.1-5.4,10.4a35.1924,35.1924,0,0,1-5,6H26v30.7a24.7448,24.7448,0,0,0,5.5,4.3H67.7c6.2-1,4.3-9,4.3-9,4.8-4.3,1.2-10,1.2-10,6.6-6.4,1.4-11.6,1.4-11.6C79.5,39.26727,75.8,33.26727,75.8,33.26727Z" style="fill:#fff"/><path d="M2.5,34.96727a2.47571,2.47571,0,0,0-2.5,2.5v35a2.47572,2.47572,0,0,0,2.5,2.5h18a2.47572,2.47572,0,0,0,2.5-2.5v-35a2.47571,2.47571,0,0,0-2.5-2.5Zm8.3,35.2a3.3,3.3,0,1,1,3.3-3.3A3.26522,3.26522,0,0,1,10.8,70.16726Z" style="fill:#fff"/></g></g></svg>