<?xml version="1.0" encoding="UTF-8"?>
<svg width="45px" height="58px" viewBox="0 0 45 58" version="1.1" xmlns="http://www.w3.org/2000/svg" xmlns:xlink="http://www.w3.org/1999/xlink">
    <!-- Generator: Sketch 51.2 (57519) - http://www.bohemiancoding.com/sketch -->
    <title>packinglist</title>
    <desc>Created with Sketch.</desc>
    <defs></defs>
    <g id="Symbols" stroke="none" stroke-width="1" fill="none" fill-rule="evenodd">
        <g id="packinglist" fill="#268A95">
            <path d="M0,-0.0002 L0,57.4468 L45,57.4468 L45,13.9648 L31.035,-0.0002 L0,-0.0002 Z M1.915,1.9148 L29.68,1.9148 L29.68,15.3188 L43.085,15.3188 L43.085,55.5318 L1.915,55.5318 L1.915,1.9148 Z M31.595,3.2688 L41.731,13.4048 L31.595,13.4048 L31.595,3.2688 Z" id="Fill-1"></path>
            <g id="Group-14" transform="translate(8.000000, 16.446800)">
                <path d="M26.4677,3.6593 L11.1497,3.6593 C10.6197,3.6593 10.1917,4.0883 10.1917,4.6173 C10.1917,5.1463 10.6197,5.5743 11.1497,5.5743 L26.4677,5.5743 C26.9967,5.5743 27.4257,5.1463 27.4257,4.6173 C27.4257,4.0883 26.9967,3.6593 26.4677,3.6593" id="Fill-2"></path>
                <path d="M7.6787,0.9972 L3.5607,4.2912 L2.2507,2.9822 C1.8767,2.6082 1.2717,2.6082 0.8977,2.9822 C0.5237,3.3562 0.5237,3.9622 0.8977,4.3362 L2.8127,6.2512 C2.9977,6.4362 3.2427,6.5322 3.4897,6.5322 C3.6997,6.5322 3.9117,6.4632 4.0867,6.3222 L8.8737,2.4922 C9.2877,2.1612 9.3537,1.5592 9.0237,1.1462 C8.6947,0.7322 8.0907,0.6662 7.6787,0.9972" id="Fill-4"></path>
                <path d="M26.4677,14.1915 L11.1497,14.1915 C10.6197,14.1915 10.1917,14.6195 10.1917,15.1485 C10.1917,15.6785 10.6197,16.1065 11.1497,16.1065 L26.4677,16.1065 C26.9967,16.1065 27.4257,15.6785 27.4257,15.1485 C27.4257,14.6195 26.9967,14.1915 26.4677,14.1915" id="Fill-6"></path>
                <path d="M7.6787,11.5285 L3.5607,14.8235 L2.2507,13.5145 C1.8767,13.1395 1.2717,13.1395 0.8977,13.5145 C0.5237,13.8885 0.5237,14.4945 0.8977,14.8685 L2.8127,16.7835 C2.9977,16.9685 3.2427,17.0635 3.4897,17.0635 C3.6997,17.0635 3.9117,16.9955 4.0867,16.8535 L8.8737,13.0245 C9.2877,12.6935 9.3537,12.0905 9.0237,11.6775 C8.6947,11.2645 8.0907,11.1985 7.6787,11.5285" id="Fill-8"></path>
                <path d="M26.4677,24.7238 L11.1497,24.7238 C10.6197,24.7238 10.1917,25.1518 10.1917,25.6808 C10.1917,26.2098 10.6197,26.6378 11.1497,26.6378 L26.4677,26.6378 C26.9967,26.6378 27.4257,26.2098 27.4257,25.6808 C27.4257,25.1518 26.9967,24.7238 26.4677,24.7238" id="Fill-10"></path>
                <path d="M7.6787,22.0607 L3.5607,25.3557 L2.2507,24.0457 C1.8767,23.6717 1.2717,23.6717 0.8977,24.0457 C0.5237,24.4207 0.5237,25.0257 0.8977,25.4007 L2.8127,27.3157 C2.9977,27.5007 3.2427,27.5957 3.4897,27.5957 C3.6997,27.5957 3.9117,27.5267 4.0867,27.3857 L8.8737,23.5557 C9.2877,23.2247 9.3537,22.6227 9.0237,22.2097 C8.6947,21.7957 8.0907,21.7307 7.6787,22.0607" id="Fill-12"></path>
            </g>
        </g>
    </g>
</svg>