<?xml version="1.0" encoding="UTF-8"?>
<svg width="62px" height="19px" viewBox="0 0 62 19" version="1.1" xmlns="http://www.w3.org/2000/svg" xmlns:xlink="http://www.w3.org/1999/xlink">
    <!-- Generator: Sketch 52.6 (67491) - http://www.bohemiancoding.com/sketch -->
    <title>Group 3</title>
    <desc>Created with Sketch.</desc>
    <g id="Page-1" stroke="none" stroke-width="1" fill="none" fill-rule="evenodd">
        <g id="1_consola_envio-copy-2" transform="translate(-296.000000, -561.000000)">
            <g id="Group-3" transform="translate(296.000000, 561.000000)">
                <rect id="Rectangle-Copy-18" stroke="#008894" fill="#FFFFFF" fill-rule="nonzero" x="0.5" y="0.5" width="61" height="18" rx="5"></rect>
                <path d="M14.1503906,10.578125 L14.1503906,14 L12.9960938,14 L12.9960938,5.46875 L16.2597656,5.46875 C17.1699264,5.46875 17.8779272,5.70312266 18.3837891,6.171875 C18.889651,6.64062734 19.1425781,7.25780867 19.1425781,8.0234375 C19.1425781,8.79687887 18.889651,9.4160133 18.3837891,9.88085938 C17.8779272,10.3457054 17.1699264,10.578125 16.2597656,10.578125 L14.1503906,10.578125 Z M14.1503906,9.67578125 L16.2597656,9.67578125 C16.8378935,9.67578125 17.2695298,9.52050937 17.5546875,9.20996094 C17.8398452,8.89941251 17.9824219,8.50781486 17.9824219,8.03515625 C17.9824219,7.56249764 17.8388686,7.16797033 17.5517578,6.8515625 C17.264647,6.53515467 16.8339872,6.37695312 16.2597656,6.37695312 L14.1503906,6.37695312 L14.1503906,9.67578125 Z M24.2988281,14 C24.2597654,13.8085928 24.2294923,13.6396492 24.2080078,13.4931641 C24.1865233,13.346679 24.1738281,13.1992195 24.1699219,13.0507812 C23.9550771,13.3554703 23.6748064,13.6103505 23.3291016,13.8154297 C22.9833967,14.0205088 22.6113301,14.1230469 22.2128906,14.1230469 C21.5527311,14.1230469 21.0498064,13.9541033 20.7041016,13.6162109 C20.3583967,13.2783186 20.1855469,12.812503 20.1855469,12.21875 C20.1855469,11.6132782 20.4306616,11.1396501 20.9208984,10.7978516 C21.4111353,10.456053 22.0761677,10.2851562 22.9160156,10.2851562 L24.1699219,10.2851562 L24.1699219,9.65820312 C24.1699219,9.28710752 24.0566418,8.99316515 23.8300781,8.77636719 C23.6035145,8.55956923 23.2832052,8.45117188 22.8691406,8.45117188 C22.4941387,8.45117188 22.1914074,8.54492094 21.9609375,8.73242188 C21.7304676,8.91992281 21.6152344,9.14452994 21.6152344,9.40625 L20.5195312,9.41796875 L20.5078125,9.3828125 C20.4804686,8.9218727 20.6962868,8.50000191 21.1552734,8.1171875 C21.6142601,7.73437309 22.2070276,7.54296875 22.9335938,7.54296875 C23.6523473,7.54296875 24.2304666,7.72558411 24.6679688,8.09082031 C25.1054709,8.45605651 25.3242188,8.98241844 25.3242188,9.66992188 L25.3242188,12.7226562 C25.3242188,12.9492199 25.3359374,13.1679677 25.359375,13.3789062 C25.3828126,13.5898448 25.4257809,13.796874 25.4882812,14 L24.2988281,14 Z M22.3828125,13.15625 C22.8007833,13.15625 23.1777327,13.0488292 23.5136719,12.8339844 C23.8496111,12.6191396 24.0683589,12.3730483 24.1699219,12.0957031 L24.1699219,11.0644531 L22.875,11.0644531 C22.4101539,11.0644531 22.0380873,11.1816395 21.7587891,11.4160156 C21.4794908,11.6503918 21.3398438,11.9257797 21.3398438,12.2421875 C21.3398438,12.5234389 21.4277335,12.7460929 21.6035156,12.9101562 C21.7792978,13.0742196 22.0390608,13.15625 22.3828125,13.15625 Z M31.0253906,13.0625 C30.8261709,13.4023454 30.5703141,13.6640616 30.2578125,13.8476562 C29.9453109,14.0312509 29.5839864,14.1230469 29.1738281,14.1230469 C28.4824184,14.1230469 27.9433613,13.902346 27.5566406,13.4609375 C27.1699199,13.019529 26.9765625,12.3320359 26.9765625,11.3984375 L26.9765625,7.66015625 L28.1308594,7.66015625 L28.1308594,11.4101562 C28.1308594,12.0859409 28.2304678,12.55078 28.4296875,12.8046875 C28.6289072,13.058595 28.939451,13.1855469 29.3613281,13.1855469 C29.7714864,13.1855469 30.1103502,13.1025399 30.3779297,12.9365234 C30.6455092,12.770507 30.8476556,12.5351578 30.984375,12.2304688 L30.984375,7.66015625 L32.1386719,7.66015625 L32.1386719,14 L31.1015625,14 L31.0253906,13.0625 Z M37.5058594,12.2949219 C37.5058594,12.0410144 37.4091807,11.8339852 37.2158203,11.6738281 C37.02246,11.5136711 36.6562527,11.3730475 36.1171875,11.2519531 C35.37109,11.0917961 34.7978536,10.8671889 34.3974609,10.578125 C33.9970683,10.2890611 33.796875,9.90234617 33.796875,9.41796875 C33.796875,8.90234117 34.0165994,8.46093934 34.4560547,8.09375 C34.89551,7.72656066 35.4648403,7.54296875 36.1640625,7.54296875 C36.8828161,7.54296875 37.4648415,7.7382793 37.9101562,8.12890625 C38.355471,8.5195332 38.5683595,8.97460678 38.5488281,9.49414062 L38.5371094,9.52929688 L37.4355469,9.52929688 C37.4355469,9.25585801 37.3154309,9.00781361 37.0751953,8.78515625 C36.8349597,8.56249889 36.5312518,8.45117188 36.1640625,8.45117188 C35.7578105,8.45117188 35.4541026,8.54296783 35.2529297,8.7265625 C35.0517568,8.91015717 34.9511719,9.12890498 34.9511719,9.3828125 C34.9511719,9.63281375 35.0380851,9.82617119 35.2119141,9.96289062 C35.3857431,10.0996101 35.7441379,10.2246088 36.2871094,10.3378906 C37.064457,10.5019539 37.6542949,10.7343735 38.0566406,11.0351562 C38.4589864,11.335939 38.6601562,11.7285132 38.6601562,12.2128906 C38.6601562,12.7753934 38.4326195,13.2343732 37.9775391,13.5898438 C37.5224587,13.9453143 36.927738,14.1230469 36.1933594,14.1230469 C35.3847616,14.1230469 34.7480492,13.9179708 34.2832031,13.5078125 C33.8183571,13.0976542 33.5976561,12.6191434 33.6210938,12.0722656 L33.6328125,12.0371094 L34.734375,12.0371094 C34.7539063,12.4472677 34.9062486,12.7470694 35.1914062,12.9365234 C35.4765639,13.1259775 35.810545,13.2207031 36.1933594,13.2207031 C36.6035177,13.2207031 36.9248035,13.1337899 37.1572266,12.9599609 C37.3896496,12.7861319 37.5058594,12.5644545 37.5058594,12.2949219 Z M43.9921875,14 C43.9531248,13.8085928 43.9228517,13.6396492 43.9013672,13.4931641 C43.8798827,13.346679 43.8671875,13.1992195 43.8632812,13.0507812 C43.6484364,13.3554703 43.3681658,13.6103505 43.0224609,13.8154297 C42.6767561,14.0205088 42.3046895,14.1230469 41.90625,14.1230469 C41.2460904,14.1230469 40.7431658,13.9541033 40.3974609,13.6162109 C40.0517561,13.2783186 39.8789062,12.812503 39.8789062,12.21875 C39.8789062,11.6132782 40.124021,11.1396501 40.6142578,10.7978516 C41.1044946,10.456053 41.7695271,10.2851562 42.609375,10.2851562 L43.8632812,10.2851562 L43.8632812,9.65820312 C43.8632812,9.28710752 43.7500011,8.99316515 43.5234375,8.77636719 C43.2968739,8.55956923 42.9765646,8.45117188 42.5625,8.45117188 C42.1874981,8.45117188 41.8847668,8.54492094 41.6542969,8.73242188 C41.423827,8.91992281 41.3085938,9.14452994 41.3085938,9.40625 L40.2128906,9.41796875 L40.2011719,9.3828125 C40.173828,8.9218727 40.3896461,8.50000191 40.8486328,8.1171875 C41.3076195,7.73437309 41.900387,7.54296875 42.6269531,7.54296875 C43.3457067,7.54296875 43.9238259,7.72558411 44.3613281,8.09082031 C44.7988303,8.45605651 45.0175781,8.98241844 45.0175781,9.66992188 L45.0175781,12.7226562 C45.0175781,12.9492199 45.0292968,13.1679677 45.0527344,13.3789062 C45.076172,13.5898448 45.1191403,13.796874 45.1816406,14 L43.9921875,14 Z M42.0761719,13.15625 C42.4941427,13.15625 42.8710921,13.0488292 43.2070312,12.8339844 C43.5429704,12.6191396 43.7617182,12.3730483 43.8632812,12.0957031 L43.8632812,11.0644531 L42.5683594,11.0644531 C42.1035133,11.0644531 41.7314467,11.1816395 41.4521484,11.4160156 C41.1728502,11.6503918 41.0332031,11.9257797 41.0332031,12.2421875 C41.0332031,12.5234389 41.1210929,12.7460929 41.296875,12.9101562 C41.4726571,13.0742196 41.7324202,13.15625 42.0761719,13.15625 Z M49.6933594,8.6796875 L49.1015625,8.64453125 C48.7968735,8.64453125 48.5400401,8.71679615 48.3310547,8.86132812 C48.1220693,9.0058601 47.9609381,9.20898307 47.8476562,9.47070312 L47.8476562,14 L46.6933594,14 L46.6933594,7.66015625 L47.7246094,7.66015625 L47.8359375,8.5859375 C48.0156259,8.25781086 48.2373034,8.00195404 48.5009766,7.81835938 C48.7646498,7.63476471 49.0683577,7.54296875 49.4121094,7.54296875 C49.4980473,7.54296875 49.5800777,7.54980462 49.6582031,7.56347656 C49.7363285,7.57714851 49.800781,7.5917968 49.8515625,7.60742188 L49.6933594,8.6796875 Z" id="Pausar-Copy-2" fill="#008894"></path>
            </g>
        </g>
    </g>
</svg>