<?xml version="1.0" encoding="UTF-8"?>
<svg width="20px" height="20px" viewBox="0 0 20 20" version="1.1" xmlns="http://www.w3.org/2000/svg" xmlns:xlink="http://www.w3.org/1999/xlink">
    <!-- Generator: Sketch 52.6 (67491) - http://www.bohemiancoding.com/sketch -->
    <title>set-alarm 2 copy 5</title>
    <desc>Created with Sketch.</desc>
    <g id="Page-1" stroke="none" stroke-width="1" fill="none" fill-rule="evenodd">
        <g id="1_consola" transform="translate(-1674.000000, -1354.000000)" fill="#D08F29" fill-rule="nonzero">
            <g id="set-alarm-2-copy-5" transform="translate(1674.000000, 1354.000000)">
                <g id="set-alarm">
                    <path d="M20,3.86138614 L15.4,0 L14.1,1.48514851 L18.7,5.34653465 L20,3.86138614 Z M5.9,1.58415842 L4.6,0.099009901 L0,3.86138614 L1.3,5.34653465 L5.9,1.58415842 Z M10.5,6.13861386 L9,6.13861386 L9,12.0792079 L13.7,14.9505339 L14.5,13.7623374 L10.5,11.3861386 L10.5,6.13861386 Z M10,2.17821782 C5,2.17821782 1,6.13861386 1,11.0891089 C1,16.039604 5,20 10,20 C15,20 19,16.039604 19,11.0891089 C19,6.13861386 15,2.17821782 10,2.17821782 Z M10,18.019802 C6.1,18.019802 3,14.9505339 3,11.0891089 C3,7.22772277 6.1,4.15841584 10,4.15841584 C13.9,4.15841584 17,7.22772277 17,11.0891089 C17,14.9505339 13.9,18.019802 10,18.019802 Z" id="Shape"></path>
                </g>
            </g>
        </g>
    </g>
</svg>