<?xml version="1.0" encoding="UTF-8"?>
<svg width="37px" height="37px" viewBox="0 0 37 37" version="1.1" xmlns="http://www.w3.org/2000/svg" xmlns:xlink="http://www.w3.org/1999/xlink">
    <!-- Generator: Sketch 50.2 (55047) - http://www.bohemiancoding.com/sketch -->
    <title>reloj</title>
    <desc>Created with Sketch.</desc>
    <defs></defs>
    <g id="Page-1" stroke="none" stroke-width="1" fill="none" fill-rule="evenodd">
        <g id="8" transform="translate(-1664.000000, -246.000000)">
            <polygon id="Fill-1" fill="#1A1A1A" points="0 1323 2353 1323 2353 0 0 0"></polygon>
            <g id="Page-1" transform="translate(541.000000, 81.000000)">
                <polygon id="Fill-1" fill="#FFFFFF" points="0 1183 1775 1183 1775 -5.68434189e-13 0 -5.68434189e-13"></polygon>
                <path d="M0,1185 L1775,1185 L1775,-5.68434189e-13 L0,-5.68434189e-13 L0,1185 Z M2,1183.929 L1773.85527,1183.929 L1773.85527,1 L2,1 L2,1183.929 Z" id="Fill-2"></path>
            </g>
            <g id="Group" transform="translate(1664.000000, 246.000000)">
                <g id="reloj">
                    <path d="M18.5,0 C8.27661538,0 0,8.27708974 0,18.5 C0,28.7229103 8.27661538,37 18.5,37 C28.7229103,37 37,28.7229103 37,18.5 C37,8.27708974 28.7229103,0 18.5,0" id="Fill-1" fill="#434242"></path>
                    <path d="M18.5625003,1.00334462 C18.8024793,1.03373969 19.001462,1.26045705 18.9999621,1.50162453 L18.9999621,3.49474417 C19.0034618,3.75783596 18.7639827,4 18.5000057,4 C18.2360287,4 17.9960496,3.75783596 18.0000493,3.49474417 L18.0000493,1.50162453 C17.9975495,1.21860154 18.2810248,0.967966744 18.5625003,1.00334462" id="Fill-4" fill="#FEFEFE"></path>
                    <path d="M18.8769244,6 C19.3460382,6 19.3460382,6.4865502 19.3460382,6.4865502 C19.4745754,9.97365545 19.6092111,13.4364332 19.7419703,16.9235385 C20.3419669,17.2480674 20.7533797,17.8903137 20.7533797,18.6415472 C20.7533797,18.8536831 20.7111595,19.0580342 20.6506438,19.2497349 C22.0598617,20.8898956 23.4587591,22.5407605 24.8721991,24.1760557 C25.0453021,24.3589985 25.0420183,24.6888796 24.8656315,24.8679301 C24.6887756,25.0469805 24.3707164,25.0435747 24.1980825,24.8601452 L19.4483051,20.4811935 C19.2676962,20.5410392 19.0767669,20.587748 18.8764553,20.587748 C17.8401829,20.587748 17,19.7163366 17,18.6415472 C17,17.8951792 17.4024997,17.2500136 17.9968669,16.9235385 C18.1324408,13.4364332 18.2759896,9.97365545 18.4078106,6.4865502 C18.4078106,6.4865502 18.4078106,6 18.8769244,6" id="Fill-6" fill="#FEFEFE"></path>
                    <path d="M29.8730243,6.10538525 C30.0228516,6.26520451 30.0548979,6.55163382 29.8884232,6.70688681 L28.704788,7.88747372 C28.5478856,8.04023602 28.2665433,8.0369151 28.1129704,7.88083188 C27.9598137,7.72433355 27.962727,7.44330073 28.1196294,7.29053843 L29.2903628,6.12282008 C29.6174856,5.91941376 29.5929306,6.00866347 29.8730243,6.10538525 Z" id="Fill-8" fill="#FEFEFE"></path>
                    <path d="M6.70575584,6.1201036 L7.8806286,7.28967496 C8.03725046,7.44267968 8.04017407,7.72415846 7.88689348,7.88048936 C7.73319523,8.03723604 7.45002291,8.04014646 7.29298339,7.88714174 L6.10558088,6.70509717 C5.94478244,6.55583441 5.98278934,6.29680741 6.11811063,6.13382413 C6.40420655,5.94423133 6.45307257,5.97125662 6.70575584,6.1201036" id="Fill-10" fill="#FEFEFE"></path>
                    <path d="M35.5278853,18.0000379 C35.7867114,18.012032 36.0118852,18.261409 35.999513,18.5232799 C35.9871409,18.784651 35.7406869,19.0115391 35.4813659,18.9995451 L33.5018159,18.9995451 C33.2405153,19.0045426 33,18.7636614 33,18.4997915 C33,18.2359216 33.2405153,17.9965396 33.5018159,18.0000379 L35.5278853,18.0000379 Z" id="Fill-12" fill="#FEFEFE"></path>
                    <path d="M3.52788528,18.0000379 C3.78671143,18.012032 4.01188524,18.261409 3.99951305,18.5232799 C3.98714086,18.784651 3.74068689,19.0115391 3.48136585,18.9995451 L1.50181591,18.9995451 C1.24051532,19.0045426 1,18.7636614 1,18.4997915 C1,18.2359216 1.24051532,17.9965396 1.50181591,18.0000379 L3.52788528,18.0000379 Z" id="Fill-14" fill="#FEFEFE"></path>
                    <path d="M28.6938972,28.1147845 L29.8863434,29.2965053 C30.0406402,29.4527384 30.0372859,29.7340411 29.8796348,29.8873657 C29.7215644,30.0402747 29.4377086,30.0369506 29.2834117,29.8807174 L28.1043827,28.6989967 C27.9475701,28.5494118 27.9811129,28.2913778 28.1144455,28.1293275 C28.3848842,27.9286344 28.4381334,27.9917925 28.6938972,28.1147845 Z" id="Fill-16" fill="#FEFEFE"></path>
                    <path d="M7.85949043,28.0946376 C8.01994874,28.2485621 8.0580733,28.5394007 7.89426338,28.7007932 L6.7161726,29.8807431 C6.5615796,30.037157 6.27794964,30.0400612 6.12042399,29.8873814 C5.96247939,29.7347015 5.95954673,29.4534054 6.11372077,29.2974064 L7.30521799,28.1178714 C7.59764593,27.9203834 7.59261851,28.012904 7.85949043,28.0946376 Z" id="Fill-18" fill="#FEFEFE"></path>
                    <path d="M18.5625003,33.0033446 C18.8024794,33.0337397 19.001462,33.2604571 18.9999621,33.5016245 L18.9999621,35.4947442 C19.0034618,35.757836 18.7639827,36 18.5000058,36 C18.2355288,36 17.9960497,35.757836 18.0000494,35.4947442 L18.0000494,33.5016245 C17.9975496,33.2186015 18.2805249,32.9679667 18.5625003,33.0033446" id="Fill-20" fill="#FEFEFE"></path>
                </g>
            </g>
        </g>
    </g>
</svg>