<svg xmlns="http://www.w3.org/2000/svg" width="16.63446mm" height="21.26645mm" viewBox="0 0 47.15281 60.28284"><title>Recurso 185</title><g id="Capa_2" data-name="Capa 2"><g id="Capa_1-2" data-name="Capa 1"><path d="M6.6764,45.74142a.90944.90944,0,0,0,1.1.1l3.8-2.8a.85443.85443,0,0,0,.1-1.3,17.17985,17.17985,0,0,1-5.3-11.2,16.10332,16.10332,0,0,1,1.3-7.3,16.6288,16.6288,0,0,1,15.1-10.3v5.8a.67521.67521,0,0,0,.4.6c.2.1.5.1.6-.1l11.8-8.7a1.04083,1.04083,0,0,0,0-1.6l-11.8-8.8a.66125.66125,0,0,0-.6-.1.67521.67521,0,0,0-.4.6v5.8a23.18862,23.18862,0,0,0-21.9,16.7,23.49516,23.49516,0,0,0-.7,9.2A23.26467,23.26467,0,0,0,6.6764,45.74142Z" style="fill:#fff"/><path d="M35.47641,18.64142a17.17985,17.17985,0,0,1,5.3,11.2,16.10332,16.10332,0,0,1-1.3,7.3,16.6288,16.6288,0,0,1-15.1,10.3v-5.8a.67521.67521,0,0,0-.4-.6c-.2-.1-.5-.1-.6.1l-11.8,8.7a1.04083,1.04083,0,0,0,0,1.6l11.8,8.7a.66126.66126,0,0,0,.6.1.67521.67521,0,0,0,.4-.6v-5.8a23.1886,23.1886,0,0,0,21.9-16.7,23.49478,23.49478,0,0,0,.7-9.2,22.68758,22.68758,0,0,0-6.5-13.4.90944.90944,0,0,0-1.1-.1l-3.8,2.9A.85443.85443,0,0,0,35.47641,18.64142Z" style="fill:#fff"/></g></g></svg>