<svg xmlns="http://www.w3.org/2000/svg" width="22.62717mm" height="31.74965mm" viewBox="0 0 64.14001 89.99901"><title>Recurso 118</title><g id="Capa_2" data-name="Capa 2"><g id="Capa_1-2" data-name="Capa 1"><path d="M29.711,5.185a2.95669,2.95669,0,0,1,5.906,0h2.376a5.331,5.331,0,0,0-10.658,0Z" style="fill:#fff"/><path d="M6.734,11.606H57.406A6.734,6.734,0,0,1,64.14,18.34V83.265a6.734,6.734,0,0,1-6.734,6.734H6.733A6.733,6.733,0,0,1,0,83.266V18.34A6.734,6.734,0,0,1,6.734,11.606Z" style="fill:#fff"/><circle cx="13.459" cy="73.631" r="2.495" style="fill:#010101"/><circle cx="13.459" cy="58.413" r="2.495" style="fill:#010101"/><circle cx="13.459" cy="43.194" r="2.495" style="fill:#010101"/><circle cx="13.459" cy="27.976" r="2.495" style="fill:#010101"/><rect x="22.144" y="71.924" width="31.032" height="3.415" style="fill:#010101"/><rect x="22.144" y="56.705" width="31.032" height="3.415" style="fill:#010101"/><rect x="22.144" y="41.486" width="31.032" height="3.415" style="fill:#010101"/><rect x="22.144" y="26.268" width="31.032" height="3.415" style="fill:#010101"/><path d="M50.426,9.23c-.378-2.661-3.229-4.751-6.68-4.751H21.581c-3.449,0-6.301,2.09-6.679,4.751Z" style="fill:#fff"/></g></g></svg>