<?xml version="1.0" encoding="UTF-8"?>
<svg width="14px" height="14px" viewBox="0 0 14 14" version="1.1" xmlns="http://www.w3.org/2000/svg" xmlns:xlink="http://www.w3.org/1999/xlink">
    <!-- Generator: Sketch 52.6 (67491) - http://www.bohemiancoding.com/sketch -->
    <title>Group 12</title>
    <desc>Created with Sketch.</desc>
    <defs>
        <polygon id="path-1" points="0.41024055 0.0171329081 13.512291 0.0171329081 13.512291 13 0.41024055 13"></polygon>
    </defs>
    <g id="Page-1" stroke="none" stroke-width="1" fill="none" fill-rule="evenodd">
        <g id="3" transform="translate(-549.000000, -234.000000)">
            <g id="Group-12" transform="translate(549.000000, 234.769600)">
                <mask id="mask-2" fill="white">
                    <use xlink:href="#path-1"></use>
                </mask>
                <g id="Clip-11"></g>
                <path d="M13.2724,10.1552 C12.7414,9.5892 11.1784,8.2262 10.7124,7.9942 C10.2464,7.7612 9.7154,7.4942 9.2174,8.0602 C8.9504,8.3592 8.8504,8.9912 8.1204,8.5922 C7.3874,8.1932 5.5594,7.0302 4.7944,5.2682 C4.5604,4.8342 5.0594,4.5702 5.2274,4.4032 C5.3924,4.2362 6.1904,3.8042 5.5254,2.8402 C4.8614,1.8742 3.8964,0.7782 3.4624,0.3132 C3.1304,0.0132 2.6664,-0.1518 2.2674,0.2792 C1.8684,0.7112 0.1724,2.4732 0.4384,3.2042 C0.4384,3.2042 3.6974,9.5222 10.3454,12.9812 C10.7124,13.0802 11.5714,12.8052 12.6084,11.8192 C13.3914,11.0702 13.8054,10.7192 13.2724,10.1552" id="Fill-10" fill="#008894" mask="url(#mask-2)"></path>
            </g>
        </g>
    </g>
</svg>