<svg xmlns="http://www.w3.org/2000/svg" width="7.05556mm" height="4.40902mm" viewBox="0 0 20 12.498"><title>ojito</title><g id="Capa_2" data-name="Capa 2"><g id="Capa_1-2" data-name="Capa 1"><path d="M10,0C3.752,0,0,6.209,0,6.209s3.752,6.289,10,6.289c6.25,0,10-6.248,10-6.248S16.25,0,10,0Zm0,11.248c-5.4687,0-8.4355-4.998-8.4355-4.998S4.5313,1.252,10,1.252,18.4375,6.25,18.4375,6.25,15.4688,11.248,10,11.248Z" style="fill:#fff"/><path d="M12.6602,6.25A2.6592,2.6592,0,1,1,10,3.5918,2.65985,2.65985,0,0,1,12.6602,6.25Z" style="fill:#fff"/></g></g></svg>