<?xml version="1.0" encoding="UTF-8"?>
<svg width="20px" height="19px" viewBox="0 0 20 19" version="1.1" xmlns="http://www.w3.org/2000/svg" xmlns:xlink="http://www.w3.org/1999/xlink">
    <!-- Generator: Sketch 52.5 (67469) - http://www.bohemiancoding.com/sketch -->
    <title>Group 3 Copy 2</title>
    <desc>Created with Sketch.</desc>
    <g id="Page-1" stroke="none" stroke-width="1" fill="none" fill-rule="evenodd">
        <g id="3_Inter" transform="translate(-1018.000000, -444.000000)" fill="#DF030E">
            <g id="Group-3-Copy-2" transform="translate(1017.000000, 444.000000)">
                <path d="M12.4479,4.8279 L11.7469,10.9409 C11.6999,11.3829 11.4089,11.6559 10.9989,11.6559 C10.5929,11.6559 10.2999,11.3789 10.2509,10.9409 L9.5519,4.8259 C9.5049,4.3529 9.7599,3.9959 10.2019,3.9959 L11.7919,3.9959 C12.2329,3.9999 12.4939,4.3549 12.4479,4.8279 Z M12.4149,14.1459 C12.4149,14.9299 11.8089,15.5289 10.9989,15.5289 C10.1869,15.5289 9.5829,14.9299 9.5829,14.1459 L9.5829,14.1149 C9.5829,13.3359 10.1869,12.7319 10.9989,12.7319 C11.8089,12.7319 12.4149,13.3319 12.4149,14.1149 L12.4149,14.1459 Z M20.4319,13.0389 L13.8659,1.6559 C13.2729,0.6329 12.1799,-0.0001 10.9949,-0.0001 C9.8119,-0.0001 8.7189,0.6329 8.1269,1.6559 L1.4419,13.2339 C0.8519,14.2599 0.8519,15.5209 1.4419,16.5469 C2.0339,17.5719 3.1279,18.2029 4.3129,18.2029 L17.6839,18.2029 C19.5159,18.2029 20.9989,16.7209 20.9989,14.8909 C20.9989,14.2049 20.7879,13.5659 20.4319,13.0389 Z" id="Fill-1"></path>
            </g>
        </g>
    </g>
</svg>