<?xml version="1.0" encoding="UTF-8"?>
<svg width="60px" height="60px" viewBox="0 0 60 60" version="1.1" xmlns="http://www.w3.org/2000/svg" xmlns:xlink="http://www.w3.org/1999/xlink">
    <!-- Generator: Sketch 52.6 (67491) - http://www.bohemiancoding.com/sketch -->
    <title>Group 3 Copy 2</title>
    <desc>Created with Sketch.</desc>
    <defs>
        <polygon id="path-1" points="0 0 60 0 60 60 0 60"></polygon>
    </defs>
    <g id="Page-1" stroke="none" stroke-width="1" fill="none" fill-rule="evenodd">
        <g id="Angular_5" transform="translate(-1250.000000, -442.000000)">
            <g id="Group-3-Copy-2" transform="translate(1250.000000, 442.000000)">
                <mask id="mask-2" fill="white">
                    <use xlink:href="#path-1"></use>
                </mask>
                <g id="Clip-2"></g>
                <path d="M34.9272783,35.2722063 C34.9012287,35.5326908 34.757956,35.7593123 34.5209048,35.9520709 C34.2708288,36.1474342 33.9608388,36.2464183 33.5935397,36.2464183 L26.3673859,36.2464183 C26.0026918,36.2464183 25.6927018,36.1474342 25.4348109,35.9520709 C25.1717102,35.7593123 25.0362523,35.5326908 25.0362523,35.2722063 L24.3771979,11.0106799 C24.3771979,10.7007033 24.499631,10.4636624 24.7705466,10.3073717 C25.0258325,10.0989841 25.3436374,9.99218546 25.7083315,9.99218546 L34.2994833,9.99218546 C34.6641775,9.99218546 34.9715625,10.0963793 35.2372683,10.3073717 C35.505579,10.4636624 35.628012,10.7007033 35.628012,11.0106799 L34.9272783,35.2722063 Z M35.0002171,48.705392 C35.0002171,49.0700703 34.880389,49.377442 34.6433378,49.6275072 C34.4219164,49.8749674 34.1275561,49.9921855 33.7889116,49.9921855 L26.2970521,49.9921855 C25.9531976,49.9921855 25.6510224,49.8645481 25.3983415,49.6040636 C25.1352407,49.3409742 24.9997829,49.0440219 24.9997829,48.705392 L24.9997829,41.2841886 C24.9997829,40.9481636 25.1352407,40.6460016 25.3983415,40.3881219 C25.6484175,40.1224277 25.9531976,39.9921855 26.2918421,39.9921855 L33.7889116,39.9921855 C34.1275561,39.9921855 34.4219164,40.1224277 34.6433378,40.3646783 C34.880389,40.6147434 34.9950072,40.9221151 34.9950072,41.2841886 L34.9950072,48.705392 L35.0002171,48.705392 Z M55.9779447,14.9335765 C53.3000478,10.3412347 49.6661312,6.70487106 45.0579603,4.0218807 C40.4680241,1.33889034 35.4456649,0 30.0039074,0 C24.559545,0 19.5397907,1.33889034 14.9446446,4.0218807 C10.3416837,6.69966137 6.70776712,10.3412347 4.02726523,14.9335765 C1.33634351,19.5389424 0,24.5506642 0,29.9973952 C0,35.4363115 1.33634351,40.4584527 4.02726523,45.058609 C6.70776712,49.6561605 10.3416837,53.2899192 14.9420397,55.9729096 C19.5397907,58.6611097 24.559545,60 30.0039074,60 C35.4456649,60 40.4680241,58.6585048 45.0579603,55.9729096 C49.6609213,53.2899192 53.3000478,49.6561605 55.9779447,45.058609 C58.6610515,40.4584527 60,35.4363115 60,29.9973952 C60,24.5506642 58.6610515,19.5285231 55.9779447,14.9335765 Z" id="Fill-1" fill="#008894" mask="url(#mask-2)"></path>
            </g>
        </g>
    </g>
</svg>