<?xml version="1.0" encoding="UTF-8"?>
<svg width="33px" height="33px" viewBox="0 0 33 33" version="1.1" xmlns="http://www.w3.org/2000/svg" xmlns:xlink="http://www.w3.org/1999/xlink">
    <!-- Generator: Sketch 51.2 (57519) - http://www.bohemiancoding.com/sketch -->
    <title>AMBIENTE2</title>
    <desc>Created with Sketch.</desc>
    <defs></defs>
    <g id="Page-1" stroke="none" stroke-width="1" fill="none" fill-rule="evenodd" opacity="0.498102679">
        <g id="16" transform="translate(-569.000000, -627.000000)" fill-rule="nonzero">
            <g id="AMBIENTE2" transform="translate(569.000000, 627.000000)">
                <g>
                    <circle id="Oval" fill="#338A9C" cx="16.5" cy="16.5" r="16.5"></circle>
                    <path d="M16.5,23.793 C14.5482471,23.775574 12.6833644,22.9834904 11.3156447,21.5910157 C9.94792501,20.1985409 9.189417,18.3197515 9.207,16.368 C9.36310561,12.4285622 12.5583683,9.29113237 16.5,9.207 C20.5415666,9.29640174 23.7761013,12.5894801 23.793,16.632 C23.6697103,20.5858944 20.4554867,23.7419421 16.5,23.793 Z M16.5,11.286 C13.6203873,11.286 11.286,13.6203873 11.286,16.5 C11.286,19.3796127 13.6203873,21.714 16.5,21.714 C19.3796127,21.714 21.714,19.3796127 21.714,16.5 C21.714,15.1171612 21.1646694,13.7909599 20.1868548,12.8131452 C19.2090401,11.8353306 17.8828388,11.286 16.5,11.286 Z" id="Shape" fill="#FFFFFF"></path>
                    <path d="M10.197,23.958 C10.1581437,24.1523508 10.0532007,24.3272558 9.9,24.453 L8.25,26.103 C8.00835258,26.3680475 7.64224821,26.4816661 7.293,26.4 C6.94963174,26.3174456 6.66761539,26.0735112 6.53645769,25.7456169 C6.40529999,25.4177227 6.44128807,25.0465865 6.633,24.75 L6.864,24.486 L8.448,23.1 L8.745,22.869 C8.89607996,22.77315 9.08892004,22.77315 9.24,22.869 C9.49238318,22.9705984 9.71815225,23.1286367 9.9,23.331 C10.035315,23.5428179 10.1565758,23.7632921 10.263,23.991 L10.197,23.958 Z" id="Shape" fill="#FFFFFF"></path>
                    <path d="M17.523,5.082 L17.523,6.105 C17.5274539,6.60410442 17.1596704,7.02846997 16.665,7.095 C16.3555634,7.15647908 16.0350699,7.07174673 15.7964488,6.86537173 C15.5578277,6.65899674 15.4277748,6.35406731 15.444,6.039 L15.444,3.993 C15.4438558,3.71586792 15.5561539,3.45053505 15.7552014,3.25770785 C15.9542488,3.06488065 16.2230121,2.96106022 16.5,2.97 C16.8064486,2.95347852 17.1032322,3.08001206 17.3034873,3.31256647 C17.5037425,3.54512087 17.5848238,3.85739809 17.523,4.158 L17.523,5.148 L17.523,5.082 Z" id="Shape" fill="#FFFFFF"></path>
                    <path d="M27.951,15.477 L29.172,15.477 C29.6543488,15.5417445 30.0181034,15.9474707 30.03,16.434 C30.0480805,16.7054528 29.9572904,16.9729271 29.7777034,17.1772848 C29.5981164,17.3816424 29.3445257,17.5060496 29.073,17.523 L26.796,17.523 C26.2310127,17.4774365 25.8099365,16.9824873 25.8555,16.4175 C25.9010635,15.8525127 26.3960127,15.4314365 26.961,15.477 L27.951,15.477 Z" id="Shape" fill="#FFFFFF"></path>
                    <path d="M17.523,27.951 L17.523,29.04 C17.5274539,29.5391044 17.1596704,29.96347 16.665,30.03 C16.3555634,30.0914791 16.0350699,30.0067467 15.7964488,29.8003717 C15.5578277,29.5939967 15.4277748,29.2890673 15.444,28.974 L15.444,26.928 C15.4351053,26.6566448 15.5344437,26.3928834 15.7201343,26.1948134 C15.9058249,25.9967434 16.1626357,25.8806124 16.434,25.872 C16.7146529,25.8705928 16.9827144,25.9883726 17.1715044,26.1960415 C17.3602943,26.4037104 17.4520692,26.6817507 17.424,26.961 L17.424,27.951 L17.523,27.951 Z" id="Shape" fill="#FFFFFF"></path>
                    <path d="M5.049,15.477 L6.27,15.477 C6.59431791,15.5194158 6.8788013,15.714354 7.03542417,16.0014959 C7.19204704,16.2886378 7.20192442,16.6333611 7.062,16.929 C6.91679743,17.3266682 6.52756868,17.5816801 6.105,17.556 L3.861,17.556 C3.32686143,17.5037015 2.93166626,17.035322 2.97,16.5 C2.9322362,16.2482901 2.99629947,15.9919059 3.14802299,15.7875436 C3.29974651,15.5831813 3.52662967,15.4476785 3.7785,15.411 L5.049,15.411 L5.049,15.477 Z" id="Shape" fill="#FFFFFF"></path>
                    <path d="M26.4,7.755 C26.369014,8.02298825 26.2396602,8.26993631 26.037,8.448 L24.486,9.933 L24.189,10.131 C24.0358465,10.2194232 23.8471535,10.2194232 23.694,10.131 L23.298,9.9 C23.0744588,9.76881598 22.9221998,9.54361061 22.8837513,9.28728731 C22.8453028,9.03096401 22.924786,8.7709973 23.1,8.58 C23.5701561,7.99807073 24.0771996,7.4469365 24.618,6.93 C24.8479508,6.64647772 25.2191695,6.51847126 25.575,6.6 C26.0566341,6.7848538 26.381344,7.23944755 26.4,7.755 Z" id="Shape" fill="#FFFFFF"></path>
                    <path d="M10.197,9.174 C10.1948849,9.44515669 10.088541,9.70510845 9.9,9.9 L9.603,10.131 C9.44822147,10.2131351 9.26277853,10.2131351 9.108,10.131 C8.73815689,9.96290676 8.40253055,9.72796832 8.118,9.438 L7.128,8.481 C6.88233036,8.26312692 6.75617732,7.94056845 6.78885066,7.61383507 C6.82152399,7.28710168 7.00905192,6.99591131 7.293,6.831 C7.64702628,6.50394641 8.19297372,6.50394641 8.547,6.831 L9.9,8.547 C10.0828529,8.70486958 10.1906819,8.93250866 10.197,9.174 Z" id="Shape" fill="#FFFFFF"></path>
                    <path d="M26.4,25.344 C26.3841139,25.6090753 26.2657754,25.8575863 26.07,26.037 C25.9087441,26.2349145 25.6750955,26.3601954 25.4210106,26.3849842 C25.1669258,26.4097729 24.9134685,26.3320145 24.717,26.169 L24.585,26.037 L23.1,24.387 C22.9438171,24.2320926 22.8559664,24.021226 22.8559664,23.80125 C22.8559664,23.581274 22.9438171,23.3704074 23.1,23.2155 C23.2609715,22.9974863 23.4954103,22.8451011 23.76,22.7865 L23.958,22.7865 C24.3566951,22.952361 24.7163689,23.1996368 25.014,23.5125 L26.037,24.5025 C26.2688682,24.7209388 26.4002231,25.0254434 26.4,25.344 Z" id="Shape" fill="#FFFFFF"></path>
                </g>
            </g>
        </g>
    </g>
</svg>