<?xml version="1.0" encoding="UTF-8"?>
<svg width="60px" height="77px" viewBox="0 0 60 77" version="1.1" xmlns="http://www.w3.org/2000/svg" xmlns:xlink="http://www.w3.org/1999/xlink">
    <!-- Generator: Sketch 51.3 (57544) - http://www.bohemiancoding.com/sketch -->
    <title>bolza ambiente</title>
    <desc>Created with Sketch.</desc>
    <defs></defs>
    <g id="Page-1" stroke="none" stroke-width="1" fill="none" fill-rule="evenodd">
        <g id="3" transform="translate(-911.000000, -806.000000)">
            <rect fill="#F2F2F2" x="0" y="0" width="2353" height="1323"></rect>
            <polygon id="Fill-1" fill="#1A1A1A" points="0 1323 2353 1323 2353 0 0 0"></polygon>
            <g id="Page-1" transform="translate(542.000000, 79.000000)">s
                <polygon id="Fill-1" fill="#FFFFFF" points="0 1183 1775 1183 1775 -5.68434189e-13 0 -5.68434189e-13"></polygon>
                <path d="M0,1185 L1775,1185 L1775,-5.68434189e-13 L0,-5.68434189e-13 L0,1185 Z M2,1183.929 L1773.85527,1183.929 L1773.85527,1 L2,1 L2,1183.929 Z" id="Fill-2"></path>
            </g>
            <g id="Group-5-Copy" transform="translate(850.000000, 754.000000)" stroke="#D8D9DD">
                <rect id="Rectangle-15" x="0.5" y="0.5" width="180" height="206.470085"></rect>
            </g>
            <g id="bolza-ambiente" transform="translate(911.000000, 806.000000)" fill="#9A9999">
                <g id="Recurso-230">
                    <path d="M30.5076923,33.3975904 C28.1455534,33.3886334 26.106568,35.0590802 25.6391605,37.3861542 C25.1717529,39.7132281 26.4063043,42.0478036 28.5869268,42.9604731 C30.7675493,43.8731425 33.2859692,43.1093215 34.6002152,41.1366801 C35.9144613,39.1640387 35.6579311,36.5328355 33.9876923,34.8540964 C33.0655274,33.9243724 31.8138901,33.4005169 30.5076923,33.3975904 Z M30.5076923,45.2815663 C28.662602,45.2668708 26.8990384,44.5154681 25.6056247,43.1929391 C24.312211,41.8704101 23.595097,40.0852943 23.6123077,38.2309639 C23.7578805,34.4859158 26.7793696,31.5021054 30.5076923,31.4215663 C34.3283288,31.5118928 37.3841512,34.6406142 37.4030769,38.4814458 C37.2655907,42.2225368 34.2323424,45.1975551 30.5076923,45.2444578 L30.5076923,45.2815663 Z" id="Shape" fill-rule="nonzero"></path>
                    <path d="M24.5446154,45.4021687 C24.5101437,45.5875519 24.4121661,45.75495 24.2676923,45.8753012 L22.7076923,47.4431325 C22.4764314,47.7027791 22.1198972,47.8102763 21.7846154,47.7214458 C21.458572,47.6437649 21.1902092,47.412091 21.0646154,47.0998795 C20.9521954,46.7927792 20.9862211,46.4508146 21.1569231,46.1721687 L21.3784615,45.9216867 L22.8738462,44.6043373 L23.16,44.3909639 C23.2996903,44.2971608 23.4818482,44.2971608 23.6215385,44.3909639 C23.8620788,44.4844774 24.0771749,44.6338931 24.2492308,44.826988 C24.3755255,45.0270169 24.4895828,45.2345898 24.5907692,45.4485542 L24.5446154,45.4021687 Z" id="Shape" fill-rule="nonzero"></path>
                    <path d="M31.4769231,27.4695181 L31.4769231,28.4436145 C31.4803143,28.915472 31.130737,29.3147132 30.6646154,29.3713253 C30.3726942,29.4308531 30.0697505,29.3521713 29.8430769,29.1579518 C29.6110008,28.965279 29.4869796,28.670981 29.5107692,28.3693976 L29.5107692,26.4212048 C29.5063997,26.1576332 29.6138048,25.9046387 29.8061538,25.7254217 C29.9915035,25.5398875 30.2464788,25.4421059 30.5076923,25.4563855 C30.7967035,25.4393354 31.0769322,25.5595456 31.2646154,25.7810843 C31.4557608,25.9989586 31.5343351,26.2942331 31.4769231,26.5789157 L31.4769231,27.460241 L31.4769231,27.4695181 Z" id="Shape" fill-rule="nonzero"></path>
                    <path d="M41.3353846,37.3496386 L42.4615385,37.3496386 C42.9276601,37.4062506 43.2772374,37.8054918 43.2738462,38.2773494 C43.2833373,38.5341086 43.1978338,38.7852964 43.0338462,38.9824096 C42.8596169,39.1743574 42.618009,39.2907783 42.36,39.3071084 L40.2369231,39.3071084 C39.7041807,39.2635578 39.3074361,38.794212 39.3507693,38.2587952 C39.3941024,37.7233784 39.8611038,37.3246421 40.3938462,37.3681928 L41.3353846,37.3496386 Z" id="Shape" fill-rule="nonzero"></path>
                    <path d="M31.4769231,49.1686747 L31.4769231,50.2077108 C31.4631871,50.5896007 31.232548,50.9296579 30.8838813,51.0820992 C30.5352146,51.2345405 30.1304368,51.1722953 29.8430769,50.9220482 C29.6137757,50.7313258 29.49005,50.4411831 29.5107692,50.1427711 L29.5107692,48.2409639 C29.4967618,47.9829836 29.590433,47.730819 29.7692308,47.5451807 C29.9466853,47.3471341 30.1965237,47.2299576 30.4615385,47.2204819 C30.7232195,47.2191633 30.9731603,47.3295325 31.1491882,47.5241353 C31.3252161,47.718738 31.4107871,47.9792845 31.3846154,48.2409639 L31.3846154,49.1686747 L31.4769231,49.1686747 Z" id="Shape" fill-rule="nonzero"></path>
                    <path d="M19.68,37.3496386 L20.8338462,37.3496386 C21.1400375,37.3899508 21.4098463,37.5718704 21.5630769,37.8413253 C21.7279687,38.12836 21.7279687,38.4820014 21.5630769,38.7690361 C21.4182235,39.1489697 21.0439495,39.3897075 20.64,39.3627711 L18.5538462,39.3627711 C18.2090099,39.2745466 17.9266368,39.0264683 17.7935408,38.6948064 C17.6604448,38.3631445 17.6925552,37.9875935 17.88,37.6836145 C18.0266639,37.4920315 18.2419395,37.3655462 18.48,37.3310843 L19.68,37.3310843 L19.68,37.3496386 Z" id="Shape" fill-rule="nonzero"></path>
                    <path d="M39.8676923,30.0114458 C39.8344604,30.2645381 39.7135294,30.4977598 39.5261538,30.6701205 L38.0584615,32.080241 L37.7723077,32.2657831 C37.6295072,32.3486429 37.4535697,32.3486429 37.3107692,32.2657831 L36.9230769,32.0431325 C36.7132116,31.9209871 36.5704124,31.7091301 36.5353846,31.4679518 C36.4972084,31.2229264 36.5719289,30.9737455 36.7384615,30.7907229 C37.1835409,30.2396377 37.6613339,29.7160739 38.1692308,29.2228916 C38.3920722,28.9496954 38.749957,28.8274037 39.0923077,28.9074699 C39.5476847,29.085865 39.8529302,29.520467 39.8676923,30.0114458 Z" id="Shape" fill-rule="nonzero"></path>
                    <path d="M24.5446154,31.3566265 C24.5439076,31.6128014 24.4446836,31.8587826 24.2676923,32.0431325 L23.9815385,32.2657831 C23.836584,32.3401262 23.6649544,32.3401262 23.52,32.2657831 C23.1752282,32.1040952 22.8624788,31.8809284 22.5969231,31.6071084 L21.6738462,30.6793976 C21.4417198,30.4714136 21.3217893,30.1649166 21.3507692,29.8537349 C21.3874647,29.5448742 21.5648137,29.2706599 21.8307692,29.1115663 C22.1730287,28.8250581 22.6700483,28.8250581 23.0123077,29.1115663 L24.2953846,30.7443373 C24.4659099,30.9003397 24.5574531,31.1252354 24.5446154,31.3566265 Z" id="Shape" fill-rule="nonzero"></path>
                    <path d="M39.8676923,46.7195181 C39.8510832,46.9714252 39.7387108,47.2072632 39.5538462,47.3781928 C39.2321335,47.7643332 38.6626382,47.8219804 38.2707692,47.5080723 L38.1507692,47.3781928 L36.7476923,45.8103614 C36.5995633,45.6634603 36.5164067,45.4628826 36.5169231,45.2537349 C36.5184303,45.0449966 36.6012773,44.8451654 36.7476923,44.6971084 C36.897884,44.490289 37.1176316,44.3452527 37.3661538,44.2889157 L37.56,44.2889157 C37.9345919,44.4485411 38.2735693,44.6819694 38.5569231,44.9754217 L39.48,45.9031325 C39.7193255,46.1071145 39.8604209,46.4042271 39.8676923,46.7195181 Z" id="Shape" fill-rule="nonzero"></path>
                    <path d="M50.4184615,76.6474699 L8.96307692,76.6474699 C4.01650883,76.6474725 0.00509430288,72.6200723 0,67.6486747 L0,0 L59.3815385,0 L59.3815385,67.6486747 C59.3713673,72.6179527 55.3629258,76.642368 50.4184615,76.6474699 Z M0.923076923,0.927710843 L0.923076923,67.6486747 C0.9281708,72.1077117 4.52630988,75.719762 8.96307692,75.719759 L50.4184615,75.719759 C54.8552286,75.719762 58.4533677,72.1077117 58.4584615,67.6486747 L58.4584615,0.927710843 L0.923076923,0.927710843 Z" id="Shape" fill-rule="nonzero"></path>
                    <path d="M59.3815385,7.42168675 L0,7.42168675 L0,0 L59.3815385,0 L59.3815385,7.42168675 Z M0.923076923,6.4939759 L58.4584615,6.4939759 L58.4584615,0.927710843 L0.923076923,0.927710843 L0.923076923,6.4939759 Z" id="Shape" fill-rule="nonzero"></path>
                    <path d="M53.5846154,11.1974699 L52.6615385,11.1974699 L52.6615385,10.269759 L53.5846154,10.269759 L53.5846154,11.1974699 Z M51.7384615,11.1974699 L50.8153846,11.1974699 L50.8153846,10.269759 L51.7384615,10.269759 L51.7384615,11.1974699 Z M49.8923077,11.1974699 L48.9692308,11.1974699 L48.9692308,10.269759 L49.8923077,10.269759 L49.8923077,11.1974699 Z M48.0461538,11.1974699 L47.1230769,11.1974699 L47.1230769,10.269759 L48.0461538,10.269759 L48.0461538,11.1974699 Z M46.2,11.1974699 L45.2769231,11.1974699 L45.2769231,10.269759 L46.2,10.269759 L46.2,11.1974699 Z M44.3538462,11.1974699 L43.4307692,11.1974699 L43.4307692,10.269759 L44.3538462,10.269759 L44.3538462,11.1974699 Z M42.5076923,11.1974699 L41.5846154,11.1974699 L41.5846154,10.269759 L42.5076923,10.269759 L42.5076923,11.1974699 Z M40.6615385,11.1974699 L39.7384615,11.1974699 L39.7384615,10.269759 L40.6615385,10.269759 L40.6615385,11.1974699 Z M38.8153846,11.1974699 L37.8923077,11.1974699 L37.8923077,10.269759 L38.8153846,10.269759 L38.8153846,11.1974699 Z M36.9692308,11.1974699 L36.0461538,11.1974699 L36.0461538,10.269759 L36.9692308,10.269759 L36.9692308,11.1974699 Z M35.1230769,11.1974699 L34.2,11.1974699 L34.2,10.269759 L35.1230769,10.269759 L35.1230769,11.1974699 Z M33.2769231,11.1974699 L32.3538462,11.1974699 L32.3538462,10.269759 L33.2769231,10.269759 L33.2769231,11.1974699 Z M31.4307692,11.1974699 L30.5076923,11.1974699 L30.5076923,10.269759 L31.4307692,10.269759 L31.4307692,11.1974699 Z M29.5846154,11.1974699 L28.6615385,11.1974699 L28.6615385,10.269759 L29.5846154,10.269759 L29.5846154,11.1974699 Z M27.7384615,11.1974699 L26.8153846,11.1974699 L26.8153846,10.269759 L27.7384615,10.269759 L27.7384615,11.1974699 Z M25.8923077,11.1974699 L24.9692308,11.1974699 L24.9692308,10.269759 L25.8923077,10.269759 L25.8923077,11.1974699 Z M24.0461538,11.1974699 L23.1230769,11.1974699 L23.1230769,10.269759 L24.0461538,10.269759 L24.0461538,11.1974699 Z M22.2,11.1974699 L21.2769231,11.1974699 L21.2769231,10.269759 L22.2,10.269759 L22.2,11.1974699 Z M20.3538462,11.1974699 L19.4307692,11.1974699 L19.4307692,10.269759 L20.3538462,10.269759 L20.3538462,11.1974699 Z M18.5076923,11.1974699 L17.5846154,11.1974699 L17.5846154,10.269759 L18.5076923,10.269759 L18.5076923,11.1974699 Z M16.6615385,11.1974699 L15.7384615,11.1974699 L15.7384615,10.269759 L16.6615385,10.269759 L16.6615385,11.1974699 Z M14.8153846,11.1974699 L13.8923077,11.1974699 L13.8923077,10.269759 L14.8153846,10.269759 L14.8153846,11.1974699 Z M12.9692308,11.1974699 L12.0461538,11.1974699 L12.0461538,10.269759 L12.9692308,10.269759 L12.9692308,11.1974699 Z M11.1230769,11.1974699 L10.2,11.1974699 L10.2,10.269759 L11.1230769,10.269759 L11.1230769,11.1974699 Z M9.27692308,11.1974699 L8.35384615,11.1974699 L8.35384615,10.269759 L9.27692308,10.269759 L9.27692308,11.1974699 Z M7.43076923,11.1974699 L6.50769231,11.1974699 L6.50769231,10.269759 L7.43076923,10.269759 L7.43076923,11.1974699 Z M5.58461538,11.1974699 L4.66153846,11.1974699 L4.66153846,10.269759 L5.58461538,10.269759 L5.58461538,11.1974699 Z" id="Shape" fill-rule="nonzero"></path>
                    <path d="M50.6492308,73.8828916 L50.2615385,73.0386747 C53.3805212,71.6611351 55.1437803,68.3052723 54.5169231,64.939759 L55.44,64.7356627 C56.1638018,68.5348958 54.1751939,72.3318333 50.6492308,73.8828916 Z" id="Shape" fill-rule="nonzero"></path>
                    <path d="M8.75076923,73.8828916 C5.24512084,72.3022276 3.27536312,68.5117425 3.98769231,64.7171084 L4.91076923,64.9212048 C4.23027905,68.2916868 5.99488954,71.6798644 9.13846154,73.0386747 L8.75076923,73.8828916 Z" id="Shape" fill-rule="nonzero"></path>
                    <rect id="Rectangle-path" fill-rule="nonzero" x="41.3261538" y="4.03554217" width="14.9815385" height="1"></rect>
                </g>
            </g>
        </g>
    </g>
</svg>   