<?xml version="1.0" encoding="UTF-8"?>
<svg width="204px" height="265px" viewBox="0 0 204 265" version="1.1" xmlns="http://www.w3.org/2000/svg" xmlns:xlink="http://www.w3.org/1999/xlink">
    <!-- Generator: Sketch 52.6 (67491) - http://www.bohemiancoding.com/sketch -->
    <title>Group 14</title>
    <desc>Created with Sketch.</desc>
    <g id="Page-1" stroke="none" stroke-width="1" fill="none" fill-rule="evenodd" opacity="0.295875186">
        <g id="2_Gestionar_Carga2" transform="translate(-1431.000000, -642.000000)" fill="#C2C3C9">
            <g id="Group-14" transform="translate(1431.000000, 642.000000)">
                <path d="M48.8584,97.5313 L157.0394,97.5313 C171.2574,97.5313 171.2574,82.8973 157.0394,82.8973 L48.8584,82.8973 C34.6294,82.8973 34.6294,97.5313 48.8584,97.5313" id="Fill-4"></path>
                <path d="M157.0391,123.3838 L48.8581,123.3838 C34.6301,123.3838 34.6301,138.0168 48.8581,138.0168 L157.0391,138.0168 C171.2581,138.0168 171.2581,123.3838 157.0391,123.3838" id="Fill-6"></path>
                <path d="M157.0391,161.3271 L48.8581,161.3271 C34.6301,161.3271 34.6301,175.9591 48.8581,175.9591 L157.0391,175.9591 C171.2581,175.9591 171.2581,161.3271 157.0391,161.3271" id="Fill-8"></path>
                <path d="M157.0391,201.8057 L48.8581,201.8057 C34.6301,201.8057 34.6301,216.4397 48.8581,216.4397 L157.0391,216.4397 C171.2581,216.4397 171.2581,201.8057 157.0391,201.8057" id="Fill-10"></path>
                <path d="M185.7949,246.5957 L17.8159,246.5957 L17.8159,17.9987 L156.5759,17.9987 L156.5759,45.8587 L185.7949,45.8587 L185.7949,246.5957 Z M165.6179,0.4397 L0.2569,0.4397 L0.2569,264.1607 L203.3549,264.1607 L203.3549,37.0267 L165.6179,0.4397 Z" id="Fill-12"></path>
            </g>
        </g>
    </g>
</svg>