<?xml version="1.0" encoding="UTF-8"?>
<svg width="127px" height="53px" viewBox="0 0 127 53" version="1.1" xmlns="http://www.w3.org/2000/svg" xmlns:xlink="http://www.w3.org/1999/xlink">
    <!-- Generator: Sketch 52.6 (67491) - http://www.bohemiancoding.com/sketch -->
    <title>Group</title>
    <desc>Created with Sketch.</desc>
    <defs>
        <polygon id="path-1" points="0 0.4333875 11.4393396 0.4333875 11.4393396 13 0 13"></polygon>
        <path d="M6.85730769,0.186847458 C5.18807692,0.188644068 2.81166667,0.783322034 1.78320513,2.23498305 C0.550128205,3.97859322 0.0116666667,5.61261017 0,7.12355932 L0,7.22057627 C0.0170512821,9.57772881 1.3174359,11.6348475 3.25858974,13.3533051 C3.07910256,13.7467627 2.91128205,14.1447119 2.76230769,14.5534407 C0.909102564,19.6252712 1.74910256,25.5370169 5.51025641,29.4859661 C9.43474359,33.6055932 15.8801282,34.7311695 21.259359,33.6567966 C23.0685897,33.2965763 24.7925641,32.7270508 26.3792308,31.9455254 C26.4842308,34.2451864 26.515641,36.5430508 26.18,38.8310339 C25.6433333,42.4763559 23.3557692,47.0361525 19.5138462,48.006322 C16.8358974,48.6809492 13.4803846,46.9939322 11.5365385,45.3123051 C8.78589744,42.9326949 8.25551282,39.4284068 9.25615385,36.0759322 C10.0082051,33.5588814 2.31358974,34.6664915 1.57948718,37.1242542 C-1.27794872,46.693 7.54833333,52.0693559 15.8953846,52.1016949 L16.0398718,52.1016949 C16.9875641,52.0981017 17.9253846,52.0262373 18.8398718,51.8834068 C24.5951282,50.986 29.9357692,47.5068644 32.4575641,42.1457797 C33.8126923,39.2658136 34.1653846,36.2169661 34.1725641,33.1223051 L34.1725641,32.9264746 C34.1662821,29.8955932 33.8423077,26.8242881 33.8180769,23.8266441 C33.7983333,21.179339 26.8351282,23.7754407 26.1324359,25.3825085 C22.3183333,34.0933729 11.7169231,28.5625085 9.88525641,21.370678 C9.53346154,19.992678 9.46166667,18.5607797 9.60346154,17.1414576 C11.9574359,18.1188136 14.3652564,18.7844576 16.3396154,19.1015593 C21.5698718,19.9369831 27.6571795,18.794339 31.6848718,15.1759661 C35.300641,11.9285932 33.4258974,7.70116949 30.0416667,5.20477966 C23.050641,0.0458135593 13.9030769,1.70857627 7.91987179,7.049 C7.47384615,5.59015254 7.68564103,3.97679661 8.91064103,2.2430678 C9.95884615,0.765355932 8.02935897,0.187745763 6.88064103,0.186847458 L6.85730769,0.186847458 Z M20.02,14.9442034 C17.6130769,14.501339 14.0798718,13.217661 11.4117949,11.3114576 C11.669359,10.8263729 11.9466667,10.3583559 12.2428205,9.911 C14.3248718,6.77501695 16.7685897,5.59644068 20.3287179,6.85586441 C22.665641,7.68320339 26.2455128,9.21391525 25.9915385,12.1414915 C25.7887179,14.4743898 23.7048718,15.1067966 21.7753846,15.1067966 C21.1516667,15.1067966 20.5432051,15.040322 20.02,14.9442034 Z" id="path-3"></path>
        <linearGradient x1="0.557039498%" y1="86.2358214%" x2="88.0517267%" y2="9.73366902%" id="linearGradient-5">
            <stop stop-color="#E46000" offset="0%"></stop>
            <stop stop-color="#F6BA00" offset="100%"></stop>
        </linearGradient>
        <path d="M0.132820513,5.4769661 C1.715,8.22398305 8.79307692,10.6988136 8.79307692,10.6988136 C7.44961538,8.34525424 7.80858974,4.56518644 7.80858974,4.56518644 C4.32205128,3.03716949 1.47717949,0.786915254 1.47717949,0.786915254 C0.463974359,2.7739661 0.132820513,5.4769661 0.132820513,5.4769661" id="path-6"></path>
        <linearGradient x1="76.5493005%" y1="29.6079781%" x2="34.3683295%" y2="75.4016576%" id="linearGradient-8">
            <stop stop-color="#D65B00" offset="0%"></stop>
            <stop stop-color="#ED8C00" offset="100%"></stop>
        </linearGradient>
        <path d="M0.741282051,3.45577966 C3.07910256,1.31511864 6.09089744,0.0332372881 6.09089744,0.0332372881 C9.45807692,0.464423729 8.25910256,3.26983051 8.25910256,3.26983051 C5.92935897,4.3109661 4.23051282,7.72811864 4.23051282,7.72811864" id="path-9"></path>
        <path d="M10.6238462,2.56735593 C10.6238462,2.56735593 8.16307692,12.5340508 0.551923077,10.0484407 C0.551923077,10.0484407 13.1348718,15.3466441 18.2197436,1.58281356 C18.4575641,0.939627119 17.8769231,0.53359322 16.7326923,0.53359322 C15.3614103,0.53359322 13.180641,1.11479661 10.6238462,2.56735593" id="path-11"></path>
        <linearGradient x1="52.5174769%" y1="97.3320878%" x2="47.7910274%" y2="6.22072714%" id="linearGradient-13">
            <stop stop-color="#B84F00" offset="0%"></stop>
            <stop stop-color="#ED8C00" offset="100%"></stop>
        </linearGradient>
        <path d="M2.46525641,3.90942373 C1.61,4.4690678 0.0888461538,4.64783051 0.0888461538,4.64783051 L1.96089744,8.19254237 C3.15269231,7.91316949 5.73820513,6.79298305 5.73820513,6.79298305 C5.04448718,1.06538983 5.60089744,0.0431186441 5.61525641,0.0179661017 C4.91615385,1.219 4.54102564,2.55208475 2.46525641,3.90942373" id="path-14"></path>
        <linearGradient x1="100.001349%" y1="50.0031227%" x2="0.00293884035%" y2="50.0031227%" id="linearGradient-16">
            <stop stop-color="#E17200" offset="0%"></stop>
            <stop stop-color="#ED8C00" offset="100%"></stop>
        </linearGradient>
        <polygon id="path-17" points="0.20582126 0.0856666667 3.26125433 0.0856666667 3.26125433 2.99593333 0.20582126 2.99593333"></polygon>
        <polygon id="path-19" points="0.0869326772 0.0856666667 2.28460197 0.0856666667 2.28460197 2.99616667 0.0869326772 2.99616667"></polygon>
    </defs>
    <g id="Page-1" stroke="none" stroke-width="1" fill="none" fill-rule="evenodd">
        <g id="Angular_2" transform="translate(-1500.000000, -198.000000)">
            <g id="Group" transform="translate(1500.000000, 198.000000)">
                <g id="Group-19" transform="translate(36.000000, 14.000000)">
                    <g id="Group-18" transform="translate(0.478638, 0.000000)">
                        <path d="M84.3982642,6.46026875 C85.7949623,6.46026875 86.8376038,5.60958125 86.8376038,4.23726875 C86.8376038,3.33214375 86.3035472,2.68864375 85.6506226,2.34251875 C85.3033585,2.16783125 84.8873208,2.06383125 83.8871321,2.06383125 L81.6685472,2.06383125 L81.6685472,6.46026875 L84.3982642,6.46026875 Z M80.076566,0.56964375 L83.9440189,0.56964375 C85.2872264,0.56964375 85.8493019,0.67364375 86.3400566,0.84751875 C87.6467547,1.31551875 88.5009057,2.55051875 88.5009057,4.16739375 C88.5009057,5.73064375 87.5941132,7.05176875 86.1940189,7.48645625 L86.1940189,7.52058125 C86.1940189,7.52058125 86.3400566,7.67739375 86.5752453,8.07714375 L89.2998679,12.8383937 L87.530434,12.8383937 L84.6886415,7.95526875 L81.6685472,7.95526875 L81.6685472,12.8383937 L80.076566,12.8383937 L80.076566,0.56964375 Z" id="Fill-1" fill="#444444"></path>
                        <g id="Group-5">
                            <mask id="mask-2" fill="white">
                                <use xlink:href="#path-1"></use>
                            </mask>
                            <g id="Clip-4"></g>
                            <path d="M11.2516981,11.1908875 C9.93650943,12.3966375 8.40735849,13.000325 6.66679245,13.000325 C4.79716981,13.000325 3.2204717,12.3852625 1.93330189,11.1535125 C0.645283019,9.92095 0,8.4422 0,6.7172625 C0,5.0102 0.645283019,3.5347 1.93330189,2.294825 C3.2204717,1.053325 4.79716981,0.4333875 6.66679245,0.4333875 C8.40311321,0.4333875 9.99339623,1.0655125 11.4393396,2.32895 L10.3143396,3.2852625 C9.13754717,2.288325 7.92,1.7902625 6.66679245,1.7902625 C5.29641509,1.7902625 4.11622642,2.2680125 3.11943396,3.2202625 C2.12264151,4.173325 1.62509434,5.340075 1.62509434,6.7172625 C1.62509434,8.1066375 2.12264151,9.2766375 3.11943396,10.22645 C4.11622642,11.1762625 5.29641509,11.651575 6.66679245,11.651575 C7.83764151,11.651575 8.83018868,11.339575 9.64613208,10.7147625 L9.64613208,6.4686375 L11.2516981,6.4686375 L11.2516981,11.1908875 Z" id="Fill-3" fill="#444444" mask="url(#mask-2)"></path>
                        </g>
                        <path d="M18.9694528,1.7571125 C17.6016226,1.7571125 16.4171887,2.235675 15.417,3.1952375 C14.4193585,4.1539875 13.9201132,5.3223625 13.9201132,6.7003625 C13.9201132,8.0881125 14.4193585,9.2613625 15.417,10.2184875 C16.4171887,11.173175 17.6016226,11.6517375 18.9694528,11.6517375 C20.3423774,11.6517375 21.5302075,11.173175 22.5278491,10.2184875 C23.5280377,9.2613625 24.027283,8.0881125 24.027283,6.7003625 C24.027283,5.3223625 23.5280377,4.1539875 22.5278491,3.1952375 C21.5302075,2.235675 20.3423774,1.7571125 18.9694528,1.7571125 M23.712283,2.2698 C25.0053962,3.509675 25.6523774,4.9859875 25.6523774,6.7003625 C25.6523774,8.4253 25.0053962,9.905675 23.712283,11.1431125 C22.4183208,12.382175 20.8365283,12.999675 18.9694528,12.999675 C17.1074717,12.999675 15.5299245,12.382175 14.2368113,11.1431125 C12.9428491,9.905675 12.2950189,8.4253 12.2950189,6.7003625 C12.2950189,4.9859875 12.9428491,3.509675 14.2368113,2.2698 C15.5299245,1.0283 17.1074717,0.40755 18.9694528,0.40755 C20.8365283,0.40755 22.4183208,1.0283 23.712283,2.2698" id="Fill-6" fill="#444444"></path>
                        <polygon id="Fill-8" fill="#444444" points="26.8398679 12.8643125 26.8398679 0.5776875 28.4530755 0.5776875 28.4530755 11.5236875 32.5276981 11.5236875 32.5276981 12.8643125"></polygon>
                        <path d="M39.195934,1.7571125 C37.8281038,1.7571125 36.6453679,2.235675 35.6451792,3.1952375 C34.6458396,4.1539875 34.1465943,5.3223625 34.1465943,6.7003625 C34.1465943,8.0881125 34.6458396,9.2613625 35.6451792,10.2184875 C36.6453679,11.173175 37.8281038,11.6517375 39.195934,11.6517375 C40.5705566,11.6517375 41.7566887,11.173175 42.7560283,10.2184875 C43.756217,9.2613625 44.2554623,8.0881125 44.2554623,6.7003625 C44.2554623,5.3223625 43.756217,4.1539875 42.7560283,3.1952375 C41.7566887,2.235675 40.5705566,1.7571125 39.195934,1.7571125 M43.9387642,2.2698 C45.2301792,3.509675 45.8788585,4.9859875 45.8788585,6.7003625 C45.8788585,8.4253 45.2301792,9.905675 43.9387642,11.1431125 C42.6439528,12.382175 41.0647075,12.999675 39.195934,12.999675 C37.3356509,12.999675 35.7564057,12.382175 34.4632925,11.1431125 C33.1693302,9.905675 32.5231981,8.4253 32.5231981,6.7003625 C32.5231981,4.9859875 33.1693302,3.509675 34.4632925,2.2698 C35.7564057,1.0283 37.3356509,0.40755 39.195934,0.40755 C41.0647075,0.40755 42.6439528,1.0283 43.9387642,2.2698" id="Fill-10" fill="#444444"></path>
                        <path d="M57.041066,10.1577937 L58.165217,11.1149187 C56.7192736,12.3718562 55.1289906,12.9999187 53.3909717,12.9999187 C51.5238962,12.9999187 49.9471981,12.3848562 48.6583302,11.1531063 C47.3711604,9.92054375 46.7267264,8.44260625 46.7267264,6.71766875 C46.7267264,5.00979375 47.3711604,3.53510625 48.6583302,2.29441875 C49.9471981,1.05373125 51.5238962,0.43298125 53.3909717,0.43298125 C55.1289906,0.43298125 56.7192736,1.06591875 58.165217,2.32854375 L57.041066,3.28566875 C55.8617264,2.28791875 54.6467264,1.78985625 53.3909717,1.78985625 C52.0231415,1.78985625 50.8421038,2.26760625 49.8453113,3.22066875 C48.8476698,4.17373125 48.3501226,5.33966875 48.3501226,6.71766875 C48.3501226,8.10704375 48.8476698,9.27623125 49.8453113,10.2260437 C50.8421038,11.1766687 52.0231415,11.6519812 53.3909717,11.6519812 C54.6467264,11.6519812 55.8617264,11.1547312 57.041066,10.1577937" id="Fill-12" fill="#444444"></path>
                        <path d="M65.5332453,6.4686375 L64.2664528,3.1650125 L63.0140943,6.4686375 L65.5332453,6.4686375 Z M64.9711698,0.5780125 L69.6189057,12.8646375 L67.9428679,12.8646375 L66.083434,7.927075 L62.4673019,7.927075 L60.5450377,12.8646375 L58.8588113,12.8646375 L63.5693774,0.5780125 L64.9711698,0.5780125 Z" id="Fill-14" fill="#444444"></path>
                        <polygon id="Fill-16" fill="#444444" points="77.9971415 0.5780125 77.9971415 1.91945 72.6260094 1.91945 72.6260094 6.4686375 77.9971415 6.4686375 77.9971415 7.80845 72.6260094 7.80845 72.6260094 11.5232 77.9971415 11.5232 77.9971415 12.8646375 71.0102547 12.8646375 71.0102547 0.5780125"></polygon>
                    </g>
                </g>
                <g id="Group-17">
                    <g id="Group-16">
                        <g id="Group-3" transform="translate(0.000000, 0.711458)">
                            <mask id="mask-4" fill="white">
                                <use xlink:href="#path-3"></use>
                            </mask>
                            <g id="Clip-2"></g>
                            <path d="M6.85730769,0.186847458 C5.18807692,0.188644068 2.81166667,0.783322034 1.78320513,2.23498305 C0.550128205,3.97859322 0.0116666667,5.61261017 0,7.12355932 L0,7.22057627 C0.0170512821,9.57772881 1.3174359,11.6348475 3.25858974,13.3533051 C3.07910256,13.7467627 2.91128205,14.1447119 2.76230769,14.5534407 C0.909102564,19.6252712 1.74910256,25.5370169 5.51025641,29.4859661 C9.43474359,33.6055932 15.8801282,34.7311695 21.259359,33.6567966 C23.0685897,33.2965763 24.7925641,32.7270508 26.3792308,31.9455254 C26.4842308,34.2451864 26.515641,36.5430508 26.18,38.8310339 C25.6433333,42.4763559 23.3557692,47.0361525 19.5138462,48.006322 C16.8358974,48.6809492 13.4803846,46.9939322 11.5365385,45.3123051 C8.78589744,42.9326949 8.25551282,39.4284068 9.25615385,36.0759322 C10.0082051,33.5588814 2.31358974,34.6664915 1.57948718,37.1242542 C-1.27794872,46.693 7.54833333,52.0693559 15.8953846,52.1016949 L16.0398718,52.1016949 C16.9875641,52.0981017 17.9253846,52.0262373 18.8398718,51.8834068 C24.5951282,50.986 29.9357692,47.5068644 32.4575641,42.1457797 C33.8126923,39.2658136 34.1653846,36.2169661 34.1725641,33.1223051 L34.1725641,32.9264746 C34.1662821,29.8955932 33.8423077,26.8242881 33.8180769,23.8266441 C33.7983333,21.179339 26.8351282,23.7754407 26.1324359,25.3825085 C22.3183333,34.0933729 11.7169231,28.5625085 9.88525641,21.370678 C9.53346154,19.992678 9.46166667,18.5607797 9.60346154,17.1414576 C11.9574359,18.1188136 14.3652564,18.7844576 16.3396154,19.1015593 C21.5698718,19.9369831 27.6571795,18.794339 31.6848718,15.1759661 C35.300641,11.9285932 33.4258974,7.70116949 30.0416667,5.20477966 C23.050641,0.0458135593 13.9030769,1.70857627 7.91987179,7.049 C7.47384615,5.59015254 7.68564103,3.97679661 8.91064103,2.2430678 C9.95884615,0.765355932 8.02935897,0.187745763 6.88064103,0.186847458 L6.85730769,0.186847458 Z M20.02,14.9442034 C17.6130769,14.501339 14.0798718,13.217661 11.4117949,11.3114576 C11.669359,10.8263729 11.9466667,10.3583559 12.2428205,9.911 C14.3248718,6.77501695 16.7685897,5.59644068 20.3287179,6.85586441 C22.665641,7.68320339 26.2455128,9.21391525 25.9915385,12.1414915 C25.7887179,14.4743898 23.7048718,15.1067966 21.7753846,15.1067966 C21.1516667,15.1067966 20.5432051,15.040322 20.02,14.9442034 Z" id="Fill-1" fill="url(#linearGradient-5)" mask="url(#mask-4)"></path>
                        </g>
                        <g id="Group-6" transform="translate(1.794872, 13.287729)">
                            <mask id="mask-7" fill="white">
                                <use xlink:href="#path-6"></use>
                            </mask>
                            <g id="Clip-5"></g>
                            <path d="M0.132820513,5.4769661 C1.715,8.22398305 8.79307692,10.6988136 8.79307692,10.6988136 C7.44961538,8.34525424 7.80858974,4.56518644 7.80858974,4.56518644 C4.32205128,3.03716949 1.47717949,0.786915254 1.47717949,0.786915254 C0.463974359,2.7739661 0.132820513,5.4769661 0.132820513,5.4769661" id="Fill-4" fill="url(#linearGradient-8)" mask="url(#mask-7)"></path>
                        </g>
                        <g id="Group-9" transform="translate(7.179487, 4.304678)">
                            <mask id="mask-10" fill="white">
                                <use xlink:href="#path-9"></use>
                            </mask>
                            <g id="Clip-8"></g>
                            <path d="M0.741282051,3.45577966 C0.741282051,3.45577966 1.89089744,5.76172881 4.23051282,7.72811864 C4.23051282,7.72811864 5.92935897,4.3109661 8.25910256,3.26983051 C8.25910256,3.26983051 9.45807692,0.464423729 6.09089744,0.0332372881 C6.09089744,0.0332372881 3.07910256,1.31511864 0.741282051,3.45577966" id="Fill-7" mask="url(#mask-10)"></path>
                        </g>
                        <g id="Group-12" transform="translate(15.256410, 38.440271)">
                            <mask id="mask-12" fill="white">
                                <use xlink:href="#path-11"></use>
                            </mask>
                            <g id="Clip-11"></g>
                            <path d="M10.6238462,2.56735593 C10.6238462,2.56735593 8.16307692,12.5340508 0.551923077,10.0484407 C0.551923077,10.0484407 13.1348718,15.3466441 18.2197436,1.58281356 C18.4575641,0.939627119 17.8769231,0.53359322 16.7326923,0.53359322 C15.3614103,0.53359322 13.180641,1.11479661 10.6238462,2.56735593" id="Fill-10" fill="url(#linearGradient-13)" mask="url(#mask-12)"></path>
                        </g>
                        <g id="Group-15" transform="translate(20.641026, 25.864000)">
                            <mask id="mask-15" fill="white">
                                <use xlink:href="#path-14"></use>
                            </mask>
                            <g id="Clip-14"></g>
                            <path d="M2.46525641,3.90942373 C1.61,4.4690678 0.0888461538,4.64783051 0.0888461538,4.64783051 L1.96089744,8.19254237 C3.15269231,7.91316949 5.73820513,6.79298305 5.73820513,6.79298305 C5.04448718,1.06538983 5.60089744,0.0431186441 5.61525641,0.0179661017 C4.91615385,1.219 4.54102564,2.55208475 2.46525641,3.90942373" id="Fill-13" fill="url(#linearGradient-16)" mask="url(#mask-15)"></path>
                        </g>
                    </g>
                </g>
                <g id="Group-48" transform="translate(38.000000, 30.000000)">
                    <polygon id="Fill-1" fill="#424242" points="0 0 0 3 2 3 2 2.67016081 0.359058566 2.67016081 0.359058566 0"></polygon>
                    <polygon id="Fill-2" fill="#424242" points="2.8277815 3 3.1722185 3 3.1722185 0 2.8277815 0"></polygon>
                    <g id="Group-47" transform="translate(3.000000, 0.000000)">
                        <path d="M1.67488268,2.65623333 C2.03613858,2.65623333 2.30979606,2.44823333 2.30979606,2.11256667 C2.30979606,1.7929 2.01126063,1.5649 1.65385906,1.5649 L0.867925984,1.5649 L0.867925984,2.65623333 L1.67488268,2.65623333 Z M1.56170551,1.3049 C1.9015874,1.3049 2.13319764,1.1009 2.13319764,0.861233333 C2.13319764,0.597233333 1.9015874,0.425566667 1.56170551,0.425566667 L0.867925984,0.425566667 L0.867925984,1.3049 L1.56170551,1.3049 Z M1.62863071,0.141566667 C2.13319764,0.141566667 2.47763465,0.425566667 2.47763465,0.829233333 C2.47763465,1.11323333 2.22535118,1.3569 1.98988661,1.4009 L1.98988661,1.4049 C2.27580787,1.4409 2.66684724,1.7169 2.66684724,2.11656667 C2.66684724,2.60023333 2.31365039,2.94023333 1.69625669,2.94023333 L0.523488976,2.94023333 L0.523488976,0.141566667 L1.62863071,0.141566667 Z" id="Fill-3" fill="#424242"></path>
                        <path d="M4.17245394,1.60483333 C4.64338307,1.60483333 4.88690669,1.36116667 4.88690669,1.02516667 C4.88690669,0.669166667 4.62200906,0.4495 4.17245394,0.4495 L3.58834764,0.4495 L3.58834764,1.60483333 L4.17245394,1.60483333 Z M4.95418228,2.94016667 L4.29018622,1.89283333 C4.24393425,1.8965 4.18927283,1.8965 4.13881614,1.8965 L3.58834764,1.8965 L3.58834764,2.94016667 L3.24391063,2.94016667 L3.24391063,0.1415 L4.13881614,0.1415 C4.82804055,0.1415 5.24010354,0.4855 5.24010354,1.02516667 C5.24010354,1.42483333 5.01725315,1.70883333 4.62656417,1.82883333 L5.34101693,2.94016667 L4.95418228,2.94016667 Z" id="Fill-5" fill="#424242"></path>
                        <g id="Group-9" transform="translate(5.409449, 0.000000)">
                            <mask id="mask-18" fill="white">
                                <use xlink:href="#path-17"></use>
                            </mask>
                            <g id="Clip-8"></g>
                            <path d="M1.73143543,2.67626667 C2.39578189,2.67626667 2.90420315,2.2126 2.90420315,1.54093333 C2.90420315,0.861266667 2.39578189,0.4056 1.73143543,0.4056 C1.06358504,0.4056 0.55901811,0.861266667 0.55901811,1.54093333 C0.55901811,2.2126 1.06358504,2.67626667 1.73143543,2.67626667 M1.73143543,0.0856 C2.57623465,0.0856 3.26125433,0.697266667 3.26125433,1.54093333 C3.26125433,2.3846 2.57623465,2.99593333 1.73143543,2.99593333 C0.886986614,2.99593333 0.20582126,2.3846 0.20582126,1.54093333 C0.20582126,0.697266667 0.886986614,0.0856 1.73143543,0.0856" id="Fill-7" fill="#424242" mask="url(#mask-18)"></path>
                        </g>
                        <g id="Group-12" transform="translate(8.913386, 0.000000)">
                            <mask id="mask-20" fill="white">
                                <use xlink:href="#path-19"></use>
                            </mask>
                            <g id="Clip-11"></g>
                            <path d="M1.91073189,0.917166667 C1.84766102,0.5775 1.54071614,0.3735 1.17525551,0.3735 C0.78877126,0.3735 0.515814567,0.5495 0.515814567,0.829166667 C0.515814567,1.13716667 0.923322441,1.23316667 1.31401142,1.34516667 C1.72607441,1.46083333 2.28460197,1.63683333 2.28460197,2.1805 C2.28460197,2.6525 1.85607047,2.99616667 1.20889331,2.99616667 C0.578535039,2.99616667 0.179436614,2.64416667 0.0869326772,2.1725 L0.418755512,2.0885 C0.460802756,2.4125 0.742519291,2.70016667 1.22150748,2.70016667 C1.65844843,2.70016667 1.92334606,2.48016667 1.92334606,2.1885 C1.92334606,1.78083333 1.4149248,1.69683333 0.998657087,1.57283333 C0.662279134,1.47283333 0.166472047,1.32883333 0.166472047,0.845166667 C0.166472047,0.4095 0.599558661,0.0855 1.18786969,0.0855 C1.72151929,0.0855 2.14164134,0.3855 2.23870039,0.8335 L1.91073189,0.917166667 Z" id="Fill-10" fill="#424242" mask="url(#mask-20)"></path>
                        </g>
                        <path d="M15.1000421,0.1416 L13.9570579,1.56493333 L13.9570579,2.94026667 L13.6168256,2.94026667 L13.6168256,1.56493333 L12.4776957,0.1416 L12.868735,0.1416 L13.6080657,1.05726667 C13.6837508,1.14893333 13.7846642,1.27693333 13.7888689,1.27693333 L13.793424,1.27693333 C13.7972783,1.27693333 13.8981917,1.14893333 13.9693217,1.05726667 L14.7051484,0.1416 L15.1000421,0.1416 Z" id="Fill-13" fill="#424242"></path>
                        <path d="M17.5059154,1.62076667 C17.9891083,1.62076667 18.2540059,1.3971 18.2540059,1.0331 C18.2540059,0.657433333 17.9680846,0.449433333 17.5059154,0.449433333 L16.9554469,0.449433333 L16.9554469,1.62076667 L17.5059154,1.62076667 Z M17.5143248,0.141766667 C18.1951398,0.141766667 18.6072028,0.477433333 18.6072028,1.0331 C18.6072028,1.58876667 18.1951398,1.92876667 17.5143248,1.92876667 L16.9554469,1.92876667 L16.9554469,2.9401 L16.6106594,2.9401 L16.6106594,0.141766667 L17.5143248,0.141766667 Z" id="Fill-15" fill="#424242"></path>
                        <path d="M21.4324272,0.1416 L21.4324272,1.7806 C21.4324272,2.57226667 20.9909311,2.99993333 20.2221673,2.99993333 C19.4530531,2.99993333 19.0161122,2.57226667 19.0161122,1.7806 L19.0161122,0.1416 L19.3605492,0.1416 L19.3605492,1.7846 C19.3605492,2.39226667 19.6548799,2.69226667 20.2221673,2.69226667 C20.7936594,2.69226667 21.0876398,2.39226667 21.0876398,1.7846 L21.0876398,0.1416 L21.4324272,0.1416 Z" id="Fill-17" fill="#424242"></path>
                        <path d="M23.2367445,2.65623333 C23.5980004,2.65623333 23.8716579,2.44823333 23.8716579,2.11256667 C23.8716579,1.7929 23.5731224,1.5649 23.2157209,1.5649 L22.4297878,1.5649 L22.4297878,2.65623333 L23.2367445,2.65623333 Z M23.1235673,1.3049 C23.4634492,1.3049 23.6950594,1.1009 23.6950594,0.861233333 C23.6950594,0.597233333 23.4634492,0.425566667 23.1235673,0.425566667 L22.4297878,0.425566667 L22.4297878,1.3049 L23.1235673,1.3049 Z M23.1904925,0.141566667 C23.6950594,0.141566667 24.0394965,0.425566667 24.0394965,0.829233333 C24.0394965,1.11323333 23.787213,1.3569 23.5517484,1.4009 L23.5517484,1.4049 C23.8376697,1.4409 24.2287091,1.7169 24.2287091,2.11656667 C24.2287091,2.60023333 23.8755122,2.94023333 23.2581185,2.94023333 L22.0853508,2.94023333 L22.0853508,0.141566667 L23.1904925,0.141566667 Z" id="Fill-19" fill="#424242"></path>
                        <polygon id="Fill-21" fill="#424242" points="26.7263154 2.63233333 26.7263154 2.94 24.8058075 2.94 24.8058075 0.141666667 25.1502445 0.141666667 25.1502445 2.63233333"></polygon>
                        <polygon id="Fill-23" fill="#424242" points="27.202185 2.94033333 27.546622 2.94033333 27.546622 0.141666667 27.202185 0.141666667"></polygon>
                        <path d="M30.6110953,0.905266667 C30.4092685,0.597266667 30.035048,0.405266667 29.6233354,0.405266667 C28.9509299,0.405266667 28.4509181,0.865266667 28.4509181,1.54093333 C28.4509181,2.2166 28.9635441,2.67226667 29.6233354,2.67226667 C30.0732409,2.67226667 30.4681346,2.44426667 30.661552,2.0926 L31.0017843,2.1806 C30.7579102,2.67626667 30.2372252,2.99593333 29.6233354,2.99593333 C28.7788866,2.99593333 28.0977213,2.38426667 28.0977213,1.54093333 C28.0977213,0.697266667 28.7788866,0.0856 29.6233354,0.0856 C30.1990323,0.0856 30.6948394,0.3736 30.959737,0.821266667 L30.6110953,0.905266667 Z" id="Fill-25" fill="#424242"></path>
                        <path d="M33.1175665,1.91666667 L32.6511925,0.877333333 C32.5877713,0.733333333 32.5166413,0.537333333 32.5120862,0.537333333 L32.5082319,0.537333333 C32.5040272,0.537333333 32.4325469,0.733333333 32.369476,0.877333333 L31.9027516,1.91666667 L33.1175665,1.91666667 Z M33.2475626,2.20833333 L31.7727555,2.20833333 L31.4451374,2.94 L31.0751217,2.94 L32.3526571,0.141666667 L32.6680114,0.141666667 L33.9451965,2.94 L33.5755311,2.94 L33.2475626,2.20833333 Z" id="Fill-26" fill="#424242"></path>
                        <path d="M36.5483063,0.905266667 C36.3464795,0.597266667 35.9722591,0.405266667 35.5605465,0.405266667 C34.8881409,0.405266667 34.3881291,0.865266667 34.3881291,1.54093333 C34.3881291,2.2166 34.9007551,2.67226667 35.5605465,2.67226667 C36.010452,2.67226667 36.4053457,2.44426667 36.598763,2.0926 L36.9389953,2.1806 C36.6951213,2.67626667 36.1744362,2.99593333 35.5605465,2.99593333 C34.7160976,2.99593333 34.0349323,2.38426667 34.0349323,1.54093333 C34.0349323,0.697266667 34.7160976,0.0856 35.5605465,0.0856 C36.1362433,0.0856 36.6320504,0.3736 36.896948,0.821266667 L36.5483063,0.905266667 Z" id="Fill-27" fill="#424242"></path>
                        <polygon id="Fill-28" fill="#424242" points="37.3986417 2.94033333 37.7430787 2.94033333 37.7430787 0.141666667 37.3986417 0.141666667"></polygon>
                        <path d="M39.8198972,2.67626667 C40.4842437,2.67626667 40.992665,2.2126 40.992665,1.54093333 C40.992665,0.861266667 40.4842437,0.4056 39.8198972,0.4056 C39.1520469,0.4056 38.6474799,0.861266667 38.6474799,1.54093333 C38.6474799,2.2126 39.1520469,2.67626667 39.8198972,2.67626667 M39.8198972,0.0856 C40.6646965,0.0856 41.3497161,0.697266667 41.3497161,1.54093333 C41.3497161,2.3846 40.6646965,2.99593333 39.8198972,2.99593333 C38.9754484,2.99593333 38.2942831,2.3846 38.2942831,1.54093333 C38.2942831,0.697266667 38.9754484,0.0856 39.8198972,0.0856" id="Fill-29" fill="#424242"></path>
                        <path d="M44.2976835,0.1416 L44.2976835,2.94026667 L43.9739197,2.94026667 L42.6669512,1.26493333 C42.4150181,0.933266667 42.2300102,0.677266667 42.2258055,0.677266667 L42.2216008,0.677266667 C42.2173961,0.677266667 42.2300102,1.02526667 42.2300102,1.47293333 L42.2300102,2.94026667 L41.8852228,2.94026667 L41.8852228,0.1416 L42.2089866,0.1416 L43.5159551,1.8126 C43.7384551,2.0966 43.9532465,2.38826667 43.9571008,2.38826667 L43.9613055,2.38826667 C43.9655102,2.38826667 43.9532465,2.0126 43.9532465,1.61293333 L43.9532465,0.1416 L44.2976835,0.1416 Z" id="Fill-30" fill="#424242"></path>
                        <polygon id="Fill-31" fill="#424242" points="47.0683165 2.63233333 47.0683165 2.94 45.0805331 2.94 45.0805331 0.141666667 47.0434386 0.141666667 47.0434386 0.449666667 45.4253205 0.449666667 45.4253205 1.313 46.7238795 1.313 46.7238795 1.60466667 45.4253205 1.60466667 45.4253205 2.63233333"></polygon>
                        <path d="M49.192228,0.917166667 C49.1291571,0.5775 48.8222122,0.3735 48.4567516,0.3735 C48.0702673,0.3735 47.7973106,0.5495 47.7973106,0.829166667 C47.7973106,1.13716667 48.2048185,1.23316667 48.5955075,1.34516667 C49.0075705,1.46083333 49.566098,1.63683333 49.566098,2.1805 C49.566098,2.6525 49.1375665,2.99616667 48.4903894,2.99616667 C47.8600311,2.99616667 47.4609327,2.64416667 47.3684287,2.1725 L47.7002516,2.0885 C47.7422988,2.4125 48.0240154,2.70016667 48.5030035,2.70016667 C48.9399445,2.70016667 49.2048421,2.48016667 49.2048421,2.1885 C49.2048421,1.78083333 48.6964209,1.69683333 48.2801531,1.57283333 C47.9437752,1.47283333 47.4479681,1.32883333 47.4479681,0.845166667 C47.4479681,0.4095 47.8810547,0.0855 48.4693657,0.0855 C49.0030154,0.0855 49.4231374,0.3855 49.5201965,0.8335 L49.192228,0.917166667 Z" id="Fill-32" fill="#424242"></path>
                        <polygon id="Fill-33" fill="#424242" points="53.1567575 2.63233333 53.1567575 2.94 51.168974 2.94 51.168974 0.141666667 53.1315291 0.141666667 53.1315291 0.449666667 51.5137614 0.449666667 51.5137614 1.313 52.8123205 1.313 52.8123205 1.60466667 51.5137614 1.60466667 51.5137614 2.63233333"></polygon>
                        <path d="M55.2806689,0.917166667 C55.217598,0.5775 54.9106531,0.3735 54.5451925,0.3735 C54.1587083,0.3735 53.8857516,0.5495 53.8857516,0.829166667 C53.8857516,1.13716667 54.2932594,1.23316667 54.6839484,1.34516667 C55.0960114,1.46083333 55.654539,1.63683333 55.654539,2.1805 C55.654539,2.6525 55.2260075,2.99616667 54.5788303,2.99616667 C53.948472,2.99616667 53.5493736,2.64416667 53.4568697,2.1725 L53.7886925,2.0885 C53.8307398,2.4125 54.1124563,2.70016667 54.5914445,2.70016667 C55.0283854,2.70016667 55.2932831,2.48016667 55.2932831,2.1885 C55.2932831,1.78083333 54.7848618,1.69683333 54.3685941,1.57283333 C54.0322161,1.47283333 53.5364091,1.32883333 53.5364091,0.845166667 C53.5364091,0.4095 53.9694957,0.0855 54.5578067,0.0855 C55.0914563,0.0855 55.5115783,0.3855 55.6086374,0.8335 L55.2806689,0.917166667 Z" id="Fill-34" fill="#424242"></path>
                        <path d="M57.1014197,1.62076667 C57.5846126,1.62076667 57.8495102,1.3971 57.8495102,1.0331 C57.8495102,0.657433333 57.563589,0.449433333 57.1014197,0.449433333 L56.5509512,0.449433333 L56.5509512,1.62076667 L57.1014197,1.62076667 Z M57.1098291,0.141766667 C57.7906441,0.141766667 58.2027071,0.477433333 58.2027071,1.0331 C58.2027071,1.58876667 57.7906441,1.92876667 57.1098291,1.92876667 L56.5509512,1.92876667 L56.5509512,2.9401 L56.2061638,2.9401 L56.2061638,0.141766667 L57.1098291,0.141766667 Z" id="Fill-35" fill="#424242"></path>
                        <polygon id="Fill-36" fill="#424242" points="60.687489 2.63233333 60.687489 2.94 58.6997055 2.94 58.6997055 0.141666667 60.6622606 0.141666667 60.6622606 0.449666667 59.0444929 0.449666667 59.0444929 1.313 60.343052 1.313 60.343052 1.60466667 59.0444929 1.60466667 59.0444929 2.63233333"></polygon>
                        <path d="M63.4964551,0.905266667 C63.2946283,0.597266667 62.9204079,0.405266667 62.5086953,0.405266667 C61.8362898,0.405266667 61.336278,0.865266667 61.336278,1.54093333 C61.336278,2.2166 61.8489039,2.67226667 62.5086953,2.67226667 C62.9586008,2.67226667 63.3534945,2.44426667 63.5469118,2.0926 L63.8871441,2.1806 C63.6432701,2.67626667 63.122585,2.99593333 62.5086953,2.99593333 C61.6642465,2.99593333 60.9830811,2.38426667 60.9830811,1.54093333 C60.9830811,0.697266667 61.6642465,0.0856 62.5086953,0.0856 C63.0843921,0.0856 63.5801992,0.3736 63.8450969,0.821266667 L63.4964551,0.905266667 Z" id="Fill-37" fill="#424242"></path>
                        <polygon id="Fill-38" fill="#424242" points="64.3467205 2.94033333 64.6911575 2.94033333 64.6911575 0.141666667 64.3467205 0.141666667"></polygon>
                        <path d="M67.1547055,1.91666667 L66.6883315,0.877333333 C66.6249102,0.733333333 66.5537803,0.537333333 66.5492252,0.537333333 L66.5453709,0.537333333 C66.5411661,0.537333333 66.4696858,0.733333333 66.406615,0.877333333 L65.9398906,1.91666667 L67.1547055,1.91666667 Z M67.2847016,2.20833333 L65.8098945,2.20833333 L65.4822764,2.94 L65.1122606,2.94 L66.3897961,0.141666667 L66.7051504,0.141666667 L67.9823354,2.94 L67.6126701,2.94 L67.2847016,2.20833333 Z" id="Fill-39" fill="#424242"></path>
                        <polygon id="Fill-40" fill="#424242" points="70.3249976 2.63233333 70.3249976 2.94 68.4044898 2.94 68.4044898 0.141666667 68.7489268 0.141666667 68.7489268 2.63233333"></polygon>
                        <polygon id="Fill-41" fill="#424242" points="70.8009724 2.94033333 71.1454094 2.94033333 71.1454094 0.141666667 70.8009724 0.141666667"></polygon>
                        <path d="M74.1844791,0.445466667 L72.4615933,2.40846667 C72.3396563,2.54413333 72.2429476,2.63613333 72.2429476,2.64013333 L72.2475028,2.64413333 C72.2513571,2.64413333 72.4111366,2.63246667 72.6255776,2.63246667 L74.1844791,2.63246667 L74.1844791,2.94013333 L71.7891878,2.94013333 L71.7891878,2.63613333 L73.537302,0.661133333 C73.6213965,0.565466667 73.7601524,0.449466667 73.7601524,0.445466667 L73.7559476,0.441466667 C73.7517429,0.441466667 73.5923138,0.449466667 73.3736681,0.449466667 L71.831235,0.449466667 L71.831235,0.141466667 L74.1844791,0.141466667 L74.1844791,0.445466667 Z" id="Fill-42" fill="#424242"></path>
                        <path d="M76.514387,1.91666667 L76.048013,0.877333333 C75.9845917,0.733333333 75.9134618,0.537333333 75.9089067,0.537333333 L75.9050524,0.537333333 C75.9008476,0.537333333 75.8293673,0.733333333 75.7662965,0.877333333 L75.299572,1.91666667 L76.514387,1.91666667 Z M76.6443831,2.20833333 L75.169576,2.20833333 L74.8419579,2.94 L74.4719421,2.94 L75.7494776,0.141666667 L76.0648319,0.141666667 L77.3420169,2.94 L76.9723516,2.94 L76.6443831,2.20833333 Z" id="Fill-43" fill="#424242"></path>
                        <path d="M79.0290925,2.63233333 C79.6426319,2.63233333 80.1720768,2.22433333 80.1720768,1.55666667 C80.1720768,0.877333333 79.6426319,0.449666667 79.0038642,0.449666667 L78.1086083,0.449666667 L78.1086083,2.63233333 L79.0290925,2.63233333 Z M79.0038642,0.141666667 C79.8441083,0.141666667 80.5252736,0.717333333 80.5252736,1.55666667 C80.5252736,2.38433333 79.8528681,2.94 79.0290925,2.94 L77.7641713,2.94 L77.7641713,0.141666667 L79.0038642,0.141666667 Z" id="Fill-44" fill="#424242"></path>
                        <path d="M82.6575594,1.91666667 L82.1911854,0.877333333 C82.1277642,0.733333333 82.0566343,0.537333333 82.0520791,0.537333333 L82.0482248,0.537333333 C82.0440201,0.537333333 81.9725398,0.733333333 81.9094689,0.877333333 L81.4427445,1.91666667 L82.6575594,1.91666667 Z M82.7875555,2.20833333 L81.3127484,2.20833333 L80.9851303,2.94 L80.6151146,2.94 L81.89265,0.141666667 L82.2080043,0.141666667 L83.4851894,2.94 L83.115524,2.94 L82.7875555,2.20833333 Z" id="Fill-45" fill="#424242"></path>
                        <path d="M85.4412272,0.917166667 C85.3781563,0.5775 85.0712114,0.3735 84.7057508,0.3735 C84.3192665,0.3735 84.0463098,0.5495 84.0463098,0.829166667 C84.0463098,1.13716667 84.4538177,1.23316667 84.8445067,1.34516667 C85.2565697,1.46083333 85.8150972,1.63683333 85.8150972,2.1805 C85.8150972,2.6525 85.3865657,2.99616667 84.7393886,2.99616667 C84.1090303,2.99616667 83.7099319,2.64416667 83.617428,2.1725 L83.9492508,2.0885 C83.991298,2.4125 84.2730146,2.70016667 84.7520028,2.70016667 C85.1889437,2.70016667 85.4538413,2.48016667 85.4538413,2.1885 C85.4538413,1.78083333 84.9454201,1.69683333 84.5291524,1.57283333 C84.1927744,1.47283333 83.6969673,1.32883333 83.6969673,0.845166667 C83.6969673,0.4095 84.1300539,0.0855 84.718365,0.0855 C85.2520146,0.0855 85.6721366,0.3855 85.7691957,0.8335 L85.4412272,0.917166667 Z" id="Fill-46" fill="#424242"></path>
                    </g>
                </g>
            </g>
        </g>
    </g>
</svg>