<?xml version="1.0" encoding="UTF-8"?>
<svg width="158px" height="51px" viewBox="0 0 158 51" version="1.1" xmlns="http://www.w3.org/2000/svg" xmlns:xlink="http://www.w3.org/1999/xlink">
    <!-- Generator: Sketch 52.6 (67491) - http://www.bohemiancoding.com/sketch -->
    <title>Group 4</title>
    <desc>Created with Sketch.</desc>
    <defs>
        <polygon id="path-1" points="7.68690297e-05 0.867910714 156.824284 0.867910714 156.824284 50.0892857 7.68690297e-05 50.0892857"></polygon>
    </defs>
    <g id="Page-1" stroke="none" stroke-width="1" fill="none" fill-rule="evenodd">
        <g id="Angular_1" transform="translate(-1868.000000, -199.000000)">
            <g id="Group-4" transform="translate(1868.000000, 199.000000)">
                <path d="M157.912193,21.7255523 C157.688812,21.1642913 157.014308,20.9414686 156.396467,21.01294 C154.819719,20.9456728 154.366418,22.6599362 156.152382,22.9605367 C156.983797,23.1150411 158.361136,22.8386148 157.912193,21.7255523" id="Fill-1" fill="#1D9543"></path>
                <g id="Group-5">
                    <mask id="mask-2" fill="white">
                        <use xlink:href="#path-1"></use>
                    </mask>
                    <g id="Clip-4"></g>
                    <path d="M105.912656,17.0491179 C106.172802,17.6082964 103.031889,18.5864036 103.031889,18.5864036 C104.395598,16.6984929 105.654337,16.4899393 105.912656,17.0491179 M81.0856622,35.1614036 C76.2095343,45.1410107 63.938889,50.973225 62.6281215,47.67735 C61.5674587,45.0025821 73.729482,36.7879393 82.4475459,32.3309036 C82.0787785,33.1132071 81.6305983,34.0430464 81.0856622,35.1614036 M156.724063,16.4735464 C156.178215,15.5273143 155.184185,16.0327607 153.510127,17.6155821 C151.570447,19.4506714 144.191447,23.8712786 139.821005,21.56535 C136.775023,19.9570286 135.61943,17.7649393 135.351982,17.2403679 C135.08636,16.7167071 135.314558,15.4362429 131.93997,17.4981 C128.566296,19.5581357 120.055435,25.1016536 122.438732,21.4068857 C124.821116,17.7130286 125.713825,16.8806357 124.596569,16.2394929 C123.478401,15.59835 122.52636,17.8596536 120.223389,19.0299214 C117.923156,20.1992786 105.996633,26.6762786 103.174284,19.671975 C103.174284,19.671975 108.972331,17.7412607 106.651104,16.1985107 C104.329877,14.6557607 102.263319,18.1702071 101.892726,19.0226357 C101.892726,19.0226357 97.5177203,22.7775107 85.1147203,29.8519393 C85.6423134,28.5851357 88.1716564,19.9615821 87.4304703,19.4388321 C86.581575,18.8004214 86.3716331,20.5872429 84.9668483,20.6901536 C83.8076041,20.7857786 83.2745343,20.1446357 83.8039529,18.8295643 C84.3890517,17.3787964 87.405825,16.9216179 85.3246622,16.2312964 C84.636418,16.0017964 82.5671215,18.0108321 81.8168076,18.5144571 C81.0655808,19.0180821 70.9965866,26.926725 65.3181157,17.912475 C64.2775343,15.974475 64.2163773,15.8642786 61.8668541,17.2686 C59.5191564,18.6729214 50.1721797,24.5324571 51.7157087,21.9132429 C53.2592378,19.2931179 55.198918,17.0764393 54.3043831,16.3241893 C53.4089355,15.5719393 51.5641855,17.56185 49.9503715,18.5262964 C48.3356448,19.4907429 39.7426331,24.8821714 40.0219471,19.1228143 C40.0584587,17.2403679 39.267982,17.43435 38.8353192,18.0053679 C38.4017436,18.5782071 34.6328308,23.3039036 31.361389,22.4405464 C29.1350924,21.7602429 31.862511,18.2549036 32.0907087,17.9115643 C32.3189064,17.5664036 33.005325,15.7049036 31.4225459,16.2713679 C29.8370285,16.8360107 26.917011,21.3659036 24.7098831,22.07535 C22.5009297,22.782975 21.7633948,22.9642071 22.0646157,16.9134214 C22.3658366,10.861725 24.2680924,8.42829643 22.1321622,8.90186786 C20.9373192,9.16688571 18.5576738,13.6904036 13.1393483,20.1346179 C13.1393483,20.1346179 18.1222727,0.776475 15.0790285,0.867546429 C12.0357843,0.959528571 -0.746936628,22.1372786 0.0344122093,23.3348679 C0.0344122093,23.3348679 0.496284302,24.4486714 1.50491802,23.063475 C2.51629012,21.6801 6.87851686,13.2141 8.71505174,10.29435 C10.5524994,7.37551071 14.5267901,1.43765357 14.9813599,2.344725 C15.303575,2.98951071 15.1064122,4.10149286 14.0484878,9.98288571 C12.9467494,16.0965107 10.8363773,22.2638679 11.0070692,22.8895286 C11.1768483,23.5151893 11.8112378,24.0907607 12.5533366,23.1991714 C13.2945227,22.30485 19.5288831,14.2204393 20.3029297,13.0009929 C20.9574006,11.9673321 21.9569064,10.2551893 21.4813424,12.4509214 C21.0231215,14.5601357 19.4275634,22.7620286 22.5958599,23.700975 C25.7632436,24.6399214 29.3021331,20.3313321 29.3021331,20.3313321 C29.3021331,20.3313321 28.1401506,24.2628857 32.9432552,23.700975 C36.651011,23.2665643 38.613511,20.3613857 38.613511,20.3613857 C38.613511,20.3613857 39.1465808,24.7054929 44.741075,22.5070286 C50.3337436,20.3067429 51.963075,18.4880464 51.4683424,19.3696179 C50.9726971,20.2511893 48.4314878,24.083475 51.9046564,23.8904036 C55.377825,23.6982429 62.8809645,16.7021357 63.9334122,18.32685 C64.9849471,19.9542964 69.1171506,27.7545643 81.8286738,20.1027429 C81.8286738,20.1027429 82.3745227,23.6390464 86.1233541,21.6910286 C86.1233541,21.6910286 86.0804529,25.2173143 83.4561797,30.738975 C80.2258134,32.4684214 76.0169355,34.8235286 71.923982,37.1303679 C64.8635459,41.1111 54.8840052,51.5378679 65.0798773,49.9204393 C75.1488715,48.3221357 81.9838483,36.9391179 84.6044703,31.0340464 C88.958482,28.8765643 95.3945692,25.0743321 102.199424,20.1664929 C102.199424,20.1664929 104.443976,29.145225 121.755965,19.6674214 C121.755965,19.6674214 119.486767,22.9195821 121.306872,23.7528857 C123.126976,24.5861893 130.996145,19.1064214 134.102372,17.7558321 C134.102372,17.7558321 137.653127,27.1462071 149.066662,21.7748143 C154.386406,19.2038679 157.426912,17.6993679 156.724063,16.4735464" id="Fill-3" fill="#313232" mask="url(#mask-2)"></path>
                </g>
            </g>
        </g>
    </g>
</svg>