<?xml version="1.0" encoding="UTF-8"?>
<svg width="229px" height="49px" viewBox="0 0 229 49" version="1.1" xmlns="http://www.w3.org/2000/svg" xmlns:xlink="http://www.w3.org/1999/xlink">
    <!-- Generator: Sketch 52.6 (67491) - http://www.bohemiancoding.com/sketch -->
    <title>Group 20</title>
    <desc>Created with Sketch.</desc>
    <defs>
        <polygon id="path-1" points="0 0.00475862069 44.4072414 0.00475862069 44.4072414 22.7442241 0 22.7442241"></polygon>
        <polygon id="path-3" points="0 0.41859375 44.4146897 0.41859375 44.4146897 24.9998437 0 24.9998437"></polygon>
    </defs>
    <g id="Page-1" stroke="none" stroke-width="1" fill="none" fill-rule="evenodd">
        <g id="Group-20">
            <g id="Group-55-Copy-4">
                <g id="Group-3">
                    <mask id="mask-2" fill="white">
                        <use xlink:href="#path-1"></use>
                    </mask>
                    <g id="Clip-2"></g>
                    <path d="M0,20.6536034 L0,22.7442241 L6.50327586,22.7442241 C6.50327586,22.6442931 6.50793103,22.0280517 6.51413793,21.9368448 C6.93155172,13.4799828 13.7878448,6.73860345 22.1601724,6.73860345 C30.5014655,6.73860345 37.3476724,13.4387414 37.8046552,21.8527759 C37.8108621,21.9709483 37.8225,22.6189138 37.8225,22.7442241 L44.4072414,22.7442241 C44.4049138,22.6189138 44.4025862,21.9757069 44.3987069,21.8599138 C43.937069,9.73018966 34.1363793,0.00436206897 22.1601724,0.00436206897 C10.5796552,0.00436206897 1.03965517,9.09253448 0,20.6536034" id="Fill-1" fill="#424242" mask="url(#mask-2)"></path>
                </g>
                <g id="Group-6" transform="translate(0.000000, 24.000000)">
                    <mask id="mask-4" fill="white">
                        <use xlink:href="#path-3"></use>
                    </mask>
                    <g id="Clip-5"></g>
                    <polygon id="Fill-4" fill="#008894" mask="url(#mask-4)" points="37.8377069 7.87015625 22.1715 17.581875 6.52934483 7.84828125 6.53167241 0.41859375 -0.000310344828 0.42171875 -0.000310344828 12.1396875 22.0652069 24.9998437 22.2777931 24.9998437 44.4077069 12.1420312 44.4146897 0.42171875 37.8470172 0.41859375"></polygon>
                </g>
            </g>
            <path d="M59.2890611,18.959893 C62.3781212,18.959893 64.1427468,17.4291249 64.1427468,14.9440779 C64.1427468,12.4237356 62.2996076,10.9727086 59.2890611,10.9727086 L55.2243729,10.9727086 L55.2243729,18.959893 L59.2890611,18.959893 Z M59.4036138,6 C65.7194545,6 69.5601859,9.36742833 69.5601859,14.9440779 C69.5601859,20.5560227 65.7194545,23.9208365 59.4036138,23.9208365 L55.2243729,23.9208365 L55.2243729,32.7511853 L50,32.7511853 L50,6 L59.4036138,6 Z" id="Fill-7-Copy-3" fill="#414044"></path>
            <path d="M77.2295213,18.8801519 L81.8901407,18.8801519 C84.7887088,18.8801519 86.1375984,16.9689795 86.1375984,14.9440779 C86.1375984,12.8525075 84.7500955,10.9727086 81.8901407,10.9727086 L77.2295213,10.9727086 L77.2295213,18.8801519 Z M86.7476877,32.7511853 L81.5181664,23.6201733 L77.2295213,23.6201733 L77.2295213,32.7511853 L72,32.7511853 L72,6 L81.2195573,6 C87.6872768,6 91.5576117,9.55566966 91.5576117,14.9440779 C91.5576117,18.6108622 89.7942732,21.2841506 86.5945218,22.6240629 L92.6169019,32.7511853 L86.7476877,32.7511853 Z" id="Fill-9-Copy-3" fill="#414044"></path>
            <path d="M107.657507,27.5745807 C112.50746,27.5745807 115.895001,24.0254472 115.895001,18.9037142 C115.895001,13.7532221 112.50746,10.2315404 107.657507,10.2315404 C102.838702,10.2315404 99.4547653,13.7532221 99.4547653,18.9037142 C99.4547653,24.0254472 102.838702,27.5745807 107.657507,27.5745807 M107.657507,5 C115.216694,5 121.348479,10.8459392 121.348479,18.9037142 C121.348479,26.9614891 115.216694,32.8165789 107.657507,32.8165789 C100.098319,32.8165789 94,26.9706397 94,18.9037142 C94,10.8367886 100.093171,5 107.657507,5" id="Fill-11-Copy-3" fill="#414044"></path>
            <path d="M176.71875,6 L176.71875,21.1364335 C176.71875,29.0046598 172.2808,33.2871502 165.358731,33.2871502 C158.399336,33.2871502 154,29.0046598 154,21.1364335 L154,6 L159.230808,6 L159.230808,21.0593068 C159.230808,26.0267865 161.332656,28.3157488 165.358731,28.3157488 C169.348767,28.3157488 171.451902,26.0254792 171.451902,21.0593068 L171.451902,6 L176.71875,6 Z" id="Fill-13-Copy-3" fill="#414044"></path>
            <polygon id="Fill-15-Copy-3" fill="#414044" points="180 32.7511853 185.22965 32.7511853 185.22965 6 180 6"></polygon>
            <polygon id="Fill-17-Copy-3" fill="#414044" points="194.230937 10.9727086 194.230937 17.5088661 204.961431 17.5088661 203.030768 22.2854899 194.230937 22.2854899 194.230937 32.755107 189 32.755107 189 6 209.608021 6 207.637329 10.9674797"></polygon>
            <path d="M219.197055,22.9247261 L216.600957,16.1663393 C216.037075,14.6760954 215.356195,12.4551091 215.321572,12.4551091 L215.288107,12.4551091 C215.242929,12.4551091 214.572346,14.6774027 214.008592,16.1663393 L211.411336,22.9247261 L219.197055,22.9247261 Z M220.999007,27.6307595 L209.600246,27.6307595 L207.64899,32.7511853 L202,32.7511853 L212.83475,6 L217.756781,6 L228.598095,32.7511853 L222.955283,32.7511853 L220.999007,27.6307595 Z" id="Fill-18-Copy-3" fill="#414044"></path>
            <path d="M129.136127,18.9144839 C129.139602,14.1156371 132.972997,10.2283228 137.697972,10.2318523 C142.422947,10.2355126 146.25055,14.1287094 146.246946,18.9275562 C146.243342,23.7244422 142.413165,27.6109721 137.690249,27.6101878 C132.964502,27.6087499 129.134711,23.7167295 129.136127,18.9170984 L129.136127,18.9144839 Z M151.965568,29.0442208 L149.244492,26.340866 C153.290646,19.8575207 151.395765,11.2705785 145.012351,7.16116556 C138.628809,3.05188336 130.173922,4.97638956 126.127897,11.4597349 C122.081872,17.9429495 123.976753,26.5300224 130.360296,30.6393046 C135.076261,33.6753498 141.135581,33.4966512 145.670321,30.1880483 L148.320477,32.8273487 L151.965568,29.0442208 Z" id="Fill-19-Copy-3" fill="#414044"></path>
        </g>
    </g>
</svg>