<svg xmlns="http://www.w3.org/2000/svg" width="479.42" height="109.01" viewBox="0 0 479.42 109.01"><defs><style>.cls-1{fill:#548993;}</style></defs><title>pedimento</title><g id="Capa_2" data-name="Capa 2"><g id="Capa_1-2" data-name="Capa 1"><path class="cls-1" d="M239.7,96.44v11.8c4.31-.14,5.07-3.24,3.29-11.65h-3.43c-1-4.31,3.1-10.08-3.91-13.08,0-2.14,0-4.61,0-7.08-.06-4-.08-4-4.19-3V84.3l-8.32.54c2.26,4.32-3.18,10.27,4.69,12.61v10.76h8V96.68Z"/><path class="cls-1" d="M0,.75V108.12H31.38V.75Z"/><path class="cls-1" d="M435.3,108.3V.93H407.91V108.3Z"/><path class="cls-1" d="M478.14,109l1.28-1.23V1c-4.6-1.47-3.75,1.75-3.76,4q0,47.47,0,95a30.54,30.54,0,0,0,.11,6C476,107.07,477.31,108,478.14,109Z"/><path class="cls-1" d="M463.76,107.72l1.46,1.21c.81-1.14,2.16-2.21,2.32-3.43a70.45,70.45,0,0,0,.11-8.48q0-46,0-92c0-2.41.77-5.81-3.87-3.89Z"/><path class="cls-1" d="M459.53,1.37,458.12.13c-.82,1.12-2.36,2.23-2.37,3.35-.12,34-.08,68-.13,102,0,3.18,1.28,3.57,3.91,2.57Z"/><path class="cls-1" d="M443.54,1.32,442.05.13c-.8,1.14-2.2,2.23-2.29,3.42-.29,4-.11,8-.11,12q0,44.24,0,88.48c0,2.43-.73,5.79,3.88,3.86Z"/><path class="cls-1" d="M35.76,107.72l1.46,1.21c.81-1.14,2.16-2.21,2.32-3.43A70.47,70.47,0,0,0,39.65,97q0-46,0-92c0-2.41.77-5.81-3.87-3.89Z"/><path class="cls-1" d="M47.54,1.33,46.07.12c-.8,1.14-2.18,2.21-2.31,3.43A90.73,90.73,0,0,0,43.65,13q0,45.5,0,91c0,2.42-.76,5.81,3.88,3.88Z"/><path class="cls-1" d="M51.76,107.73l1.49,1.19c.8-1.14,2.21-2.24,2.29-3.43.27-4.31.11-8.65.11-13q0-43.72,0-87.47c0-2.44.71-5.79-3.88-3.87Z"/><path class="cls-1" d="M127.43.79H107.65V12.31l8,.48c0,2.9,0,5.37,0,7.84.06,4,.07,4,4.2,2.93V12.74l7.57-.48Z"/><path class="cls-1" d="M195.67,37.94c1.62-1.4,3.76-2.37,3.81-3.44.29-7.22.15-14.47.15-21.6h-8c0,11.15,0,21.92,0,32.69,0,3.38,1.46,3.43,4,2.23Z"/><path class="cls-1" d="M151.38,108.3V96.84H144V108.3Z"/><path class="cls-1" d="M335.4,36.17V24.59c-6.34-.07-3.15,4.61-3.6,7C331.43,33.56,330.24,37.48,335.4,36.17Z"/><path class="cls-1" d="M375.56,36.58a47.63,47.63,0,0,1,.18-7.47c.35-2,1.52-3.81,2.33-5.71l1.7.39V.76h19.52V12.47h-15.4V24.28l7.7.45V36.4h11.24c2.05,8.32,1.3,11.41-3.07,13V71.69c7.6,2.3,2.14,8.23,4.37,12.53l-8.35.55v23.16c-2.86,1.08-4.31.71-4.15-2.47a23.8,23.8,0,0,0-.09-6c-.26-1.23-1.55-2.25-2.38-3.36l-1.41.82v11.21h-12V96.77h-7.44c-.57,3.85-1.13,7.75-1.84,11.63a14.51,14.51,0,0,1-2.64,0v-11c-4.08-.89-4.09-.89-4.15,3.13,0,2.46,0,4.93,0,7.69H339.89V.92h19.68V12.59l.15-.14-4.14.27V24.59l.14-.14-3.79.25V36.77l-4.33-.17V24.81c-4.32.14-5.08,3.24-3.3,11.65h3.44V48.19l1.52.76c.79-1.14,2.12-2.22,2.28-3.44a79.36,79.36,0,0,0,.24-8.87l3.94,0-.14-.14.15,36.13h-4.07c0,7.45-.12,14.41.12,21.35,0,1,1.79,1.94,2.74,2.91l1.07-1V72.44l4,.21v11.6h8.09c0-11.21.08-22.16-.12-33.11,0-1-1.78-2-2.73-2.94l-1.22,1v23c-1.6.23-2.88.42-4.15.59l.3-36.34-.14.15,16.12-.16v11.3c7.89,2,1.53,8.95,4.92,12.7h7.08v11.8C392,72.1,392.77,69,391,60.59h-3.43V49.23l-1.33.42c-.86-1.73-2.16-3.38-2.47-5.2-.43-2.5-.11-5.14-.11-7.87ZM381.14,72l-1.26,1.24V96.11L381,97c.86-1,2.45-1.91,2.48-2.91.23-6.32.23-12.66,0-19C383.49,74,382,73.06,381.14,72Zm-33.61,12c-1.67.67-3.61,1-3.64,1.53A76.44,76.44,0,0,0,344.17,96c0,.22,2.11.27,3.36.41Z"/><path class="cls-1" d="M87.57,60.46c0,6.48-.12,13,.19,19.46.09,1.92,1.48,3.79,2.27,5.69l1.39-.37v23H68V.91H87.57V12.59l.15-.14-4,.26V24.59H79.52V36.41l-3.92.19V24.81c-4.32.14-5.08,3.24-3.3,11.65h3.44V60.14l1.46.8c.82-1.13,2.31-2.24,2.33-3.38.13-7.09-.07-14.19-.16-21.28l4.36.18V60.37l4,.22ZM83.52,72c-1.67.7-3.6,1.1-3.63,1.59A76.3,76.3,0,0,0,80.18,84c0,.21,2.12.24,3.34.37Z"/><path class="cls-1" d="M303.57,96.46v11.72H291.71V96.77h-7.47c-.54,3.82-1.06,7.73-1.73,11.61a16.9,16.9,0,0,1-2.95,0V84.47h4.08c0-7.45.12-14.41-.13-21.36,0-1-1.78-1.93-2.74-2.9l-1.07,1V84.61h-4.05c0,6.87,0,13.65,0,20.43,0,3.13-.1,3.13-3.75,3.07V.93h11.45V11.71c-7.22,2.22-2.07,8.12-4.33,12.89h8.72l-.14-.15.15,12.13H280V48.16h7.62V36.44l4.2.32V48.37l3.93.22-.14-.14v11.8c-5.13-.5-3.82,3.12-3.92,5.87-.12,3,1.39,6.91-3.74,6.87V84.21h7.86V72.68l3.94-.23V96.37l4,.22Z"/><path class="cls-1" d="M231.72,48.45h-7.9v12h-4.24l.14.14V24.53c-1.71,0-2.83,0-3.94,0-1.27,0-2.54.16-3.74.24-1.11,10.39-.92,11,3.54,12.56V60.59l.14-.14-4.14.27V72.59l.14-.14L208,72.7V84.38l3.77.21-.15-.13v23.72h-7.64V.87h7.61V12.18h8.08V.79h12.11V12.58H228c-1.11,11.35-.92,12,3.56,11.2V12.44l4.13.16-.14-.15V24.53c5-1.36,4,2,4.06,4.6s0,5-.06,7.46l.14-.14h-8.14V48.59Z"/><path class="cls-1" d="M111.58,36.6h19.74V48.34l-6.89.31c-2,7.63-1.2,11.22,3.16,12.65V72c6.49.42,3.83,5.24,3.9,8.47,0,1.72-1.57,3.48-2.43,5.22l-1.36-.41V107.6c-4,1-4,1-4-3,0-2.47,0-4.95,0-8.15h-8.07l.14.14V84.72l-4.14-.27.14.14V72.79L110.07,72c-.8,1-2.18,2-2.31,3.15a92.52,92.52,0,0,0-.18,9.43l.14-.14H100c-1.17,8.12.55,16.46-1,24.23l-3.3-.5V72.46l-.15.13,4.14-.26V60.45l-.14.14h16.07c0,3,0,5.52,0,8,0,4,.07,4,3.71,3.12v-23l-7.65-.49V36.45Z"/><path class="cls-1" d="M147.7,60.45h-8V79.62c0,8.49-.06,17,0,25.48,0,2.7-.53,4.23-3.81,2.94V.91h7.56V23.54c7.77,2.4,2.6,8.3,4.68,12.66l-8.2.56V48.27l7.65.47V60.59Z"/><path class="cls-1" d="M315.59,84.44h15.74v23.83H307.86V96.73l-4.29-.27.15.13V85.21l1.56.37c.79-1.89,2-3.71,2.27-5.68a45.06,45.06,0,0,0,0-7.44l8.15.13-.15-.13q.09,6.06.16,12.12H312c-1.11,11.35-.92,12,3.56,11.2Z"/><path class="cls-1" d="M255.57,48.47V60.4h11.8v12h-7c-1.94,8.45-1.21,11.39,3.23,13V95.66c7.73,2.31,2.24,8.26,4.5,12.55H251.91V97.31l1.26.41c.83-1.9,2.27-3.77,2.36-5.71.31-6.27.12-12.57.12-19.19l-7.74-.55v-11c7.51-2,1.68-8.47,4.62-12.7h3.18Z"/><path class="cls-1" d="M159.73,36.59V12.74l-4.14-.3.15.15V.9h7.78V12.61h12.19l-.14-.14V23.71c3.34,1.09,3.34,1.09,4.43,12.62l3.7.28-.14-.14V48.59l.14-.15h-8.12l.14.14V36.45H159.58Z"/><path class="cls-1" d="M95.58,12.6H99.7l-.14-.14V24.36h12V36.6l.14-.15h-7.08c-3,4.38,2.7,10.81-5.06,12.88V60.59l.14-.14-4.14.27V72.59l.15-.13H91.79V60.72l-4.22-.26.15.13-.15-24.13h8.15v-24Z"/><path class="cls-1" d="M307.58,24.6h12V.8h11.73V12.25l-7.47.53V36.25l-8.23.5V60.59l.15-.14H312c-1.11-11.65-1.11-11.65-4.3-12.73V24.45Z"/><path class="cls-1" d="M175.58,72.6h7.75v35.62H171.79V96.79l-8.06-.47V84.46l-.15.13h12.14V72.45Z"/><path class="cls-1" d="M315.57,60.59h8V48.8h11.72V72.46H315.57l.15.13V60.45Z"/><path class="cls-1" d="M187.41,60.8h11.47c2,7.34,1.17,11.08-3.07,12.45-.05.6-.15,1.25-.15,1.91,0,2.82,0,5.65,0,8.43,7.64,2.25,2,8.32,4.91,12.58h-8.91c0-6.58.14-13.19-.1-19.78-.06-1.63-1.39-3.2-2.14-4.8l-1.86.44V60.64A2,2,0,0,1,187.41,60.8Z"/><path class="cls-1" d="M147.56,60.59l3.95-.21V36.59h8.22l-.15-.14c-1.22,4.26,3.41,10.19-4,13V72.59l.14-.14h-8v-12Z"/><path class="cls-1" d="M295.58,12.6H307.7l-.14-.14q0,6.06,0,12.13l.14-.15h-8V48.6l-4.14-.15.14.14V12.45Z"/><path class="cls-1" d="M255.93,24.77V.79h7.27c.37,3.83.68,7.7,1.23,11.53,0,.29,1.8.33,3,.53V24.64H255.77Z"/><path class="cls-1" d="M163.73,84.46l-3.5.19c-.55,8-1.1,15.86-1.75,23.75,0,.06-1.51,0-2.76,0v-36l-.14.14h8v12Z"/><path class="cls-1" d="M235.72,12.6V.9h11.85V12.59l.15-.14H235.58Z"/><path class="cls-1" d="M115.58,96.45v11.73h-7.86V84.45l-.14.14h4.14l-.14-.14V96.33l4.14.26Z"/><path class="cls-1" d="M247.57,24.46v24h-8l.14.14V36.45l-.14.14,4.21-.27V24.59h3.93Z"/><path class="cls-1" d="M175.58,48.45V72.6l.14-.15h-4.07V61.3c-4.44-1.42-5.19-4.48-3.28-12.71h7.35Z"/><path class="cls-1" d="M175.71,12.61V.9h11.6V12.47H175.57Z"/><path class="cls-1" d="M255.71,48.61c-.06-4-.11-8-.16-12a2,2,0,0,1-.14.16h8V48.47h-7.81Z"/><path class="cls-1" d="M239.58,48.45q0,6.06,0,12.14l.14-.15h-8v-12l-.14.14h8.14Z"/><path class="cls-1" d="M287.72,24.6v-12h4l-.14-.15v12h-4Z"/><path class="cls-1" d="M91.72,12.59V1c2.76-1,4.09-.44,4,2.65s-.07,6-.09,9l.14-.15H91.58Z"/><path class="cls-1" d="M215.7,84.44l-4.13,0,.15.13V72.45l-.14.14h4.14l-.15-.13V84.59Z"/><path class="cls-1" d="M251.7,24.45h-4.13l.15.13V12.45l-.15.14h4v12Z"/><path class="cls-1" d="M155.59,12.44V24c-2.74,1-4.11.49-4-2.63s.08-6,.11-8.95l-.14.14h4.14Z"/><path class="cls-1" d="M87.57,12.59h4.15l-.14-.14V24.34l-4,.25.15-12.14Z"/><path class="cls-1" d="M291.72,12.6V1.23l1.09-1c.94,1,2.58,1.89,2.7,3a80,80,0,0,1,.07,9.42l.14-.15h-4.14Z"/><path class="cls-1" d="M215.56,84.59H219c1.78,8.41,1,11.51-3.29,11.65V84.44Z"/><path class="cls-1" d="M307.7,12.61V1.29c4.48-.78,4.68-.13,3.56,11.18h-3.7Z"/><path class="cls-1" d="M367.7,12.45h-4.11l.15.15a90.05,90.05,0,0,1,0-9.44c.1-1.11,1.51-2.1,2.32-3.15l1.47.8V12.59Z"/><path class="cls-1" d="M239.56,96.59H243c1.78,8.41,1,11.51-3.29,11.65V96.44Z"/><path class="cls-1" d="M371.93,12.77V1.36c4.26-1.11,4.26-1.11,3.46,10.91l-3.62.36A2,2,0,0,1,371.93,12.77Z"/><path class="cls-1" d="M151.74,12.46h-3.43C146.52,4.12,147.29,1,151.6.83V12.6Z"/><path class="cls-1" d="M359.57,24.46q0,6.06,0,12.14l.14-.15h-4.14l.14.14V24.45l-.14.14h4.14Z"/><path class="cls-1" d="M251.56,24.59l4.37.17-.16-.13q-.17,6.09-.35,12.17s.14-.16.13-.16l-3.85-.31V24.45Z"/><path class="cls-1" d="M183.56,48.59h3.86V60.8s.14-.16.13-.16l-3.85-.31V48.44Z"/><path class="cls-1" d="M183.7,36.61V25.27c4.48-.77,4.68-.15,3.57,11.2h-3.71Z"/><path class="cls-1" d="M99.7,12.61V1.28c4.47-.77,4.68-.12,3.56,11.19h-3.7Z"/><path class="cls-1" d="M367.56,12.59l4.37.17s-.16-.14-.16-.13a79.48,79.48,0,0,1-.23,8.88c-.16,1.23-1.49,2.3-2.29,3.44l-1.55-.76V12.45Z"/><path class="cls-1" d="M363.59,12.44v12h-4l.15.13V12.45l-.15.14h4.17Z"/><path class="cls-1" d="M219.58,60.45v12h-4l.15.13V60.45l-.14.14h4.14Z"/><path class="cls-1" d="M239.56,60.59H243c1.78,8.41,1,11.51-3.29,11.65V60.44Z"/><ellipse class="cls-1" cx="85.65" cy="30.52" rx="2.93" ry="8.58"/><path class="cls-1" d="M299.58,48.45l3.22.18c3.21,3.72-3.06,10.58,4.92,12.68V72.59h-8.14Z"/></g></g></svg>