<?xml version="1.0" encoding="UTF-8"?>
<svg width="291px" height="210px" viewBox="0 0 291 210" version="1.1" xmlns="http://www.w3.org/2000/svg" xmlns:xlink="http://www.w3.org/1999/xlink">
    <!-- Generator: Sketch 51.2 (57519) - http://www.bohemiancoding.com/sketch -->
    <title>Codigo_de_barras</title>
    <desc>Created with Sketch.</desc>
    <defs></defs>
    <g id="Symbols" stroke="none" stroke-width="1" fill="none" fill-rule="evenodd">
        <g id="Codigo_de_barras" fill="#008693">
            <polygon id="Fill-1" points="77.023 209.847 87.053 209.847 87.053 0 77.023 0"></polygon>
            <polygon id="Fill-2" points="56.626 209.847 61.641 209.847 61.641 0 56.626 0"></polygon>
            <polygon id="Fill-3" points="112.618 209.847 117.641 209.847 117.641 0 112.618 0"></polygon>
            <polygon id="Fill-4" points="102.424 209.847 107.447 209.847 107.447 0 102.424 0"></polygon>
            <polygon id="Fill-5" points="15.852 209.847 21.022 209.847 21.022 0 15.852 0"></polygon>
            <polygon id="Fill-6" points="31.224 209.847 36.239 209.847 36.239 0 31.224 0"></polygon>
            <polygon id="Fill-7" points="0.635 210 10.827 210 10.827 0 0.635 0"></polygon>
            <polygon id="Fill-8" points="122.819 209.847 127.835 209.847 127.835 0 122.819 0"></polygon>
            <polygon id="Fill-9" points="224.444 209.847 234.646 209.847 234.646 0 224.444 0"></polygon>
            <polygon id="Fill-10" points="250.019 209.847 265.226 209.847 265.226 0 250.019 0"></polygon>
            <polygon id="Fill-11" points="270.24 209.847 275.419 209.847 275.419 0 270.24 0"></polygon>
            <polygon id="Fill-12" points="280.444 210 290.635 210 290.635 0 280.444 0"></polygon>
            <polygon id="Fill-13" points="188.849 209.847 199.042 209.847 199.042 0 188.849 0"></polygon>
            <polygon id="Fill-14" points="209.235 209.847 219.428 209.847 219.428 0 209.235 0"></polygon>
            <polygon id="Fill-15" points="168.452 209.847 178.645 209.847 178.645 0 168.452 0"></polygon>
            <polygon id="Fill-16" points="143.04 209.847 153.241 209.847 153.241 0 143.04 0"></polygon>
        </g>
    </g>
</svg>