<?xml version="1.0" encoding="UTF-8"?>
<svg width="33px" height="33px" viewBox="0 0 33 33" version="1.1" xmlns="http://www.w3.org/2000/svg" xmlns:xlink="http://www.w3.org/1999/xlink">
    <!-- Generator: Sketch 51.2 (57519) - http://www.bohemiancoding.com/sketch -->
    <title>Congelación</title>
    <desc>Created with Sketch.</desc>
    <defs></defs>
    <g id="Page-1" stroke="none" stroke-width="1" fill="none" fill-rule="evenodd" opacity="0.498604911">
        <g id="5" transform="translate(-566.000000, -988.000000)" fill-rule="nonzero">
            <g id="Congelación" transform="translate(566.000000, 988.000000)">
                <g>
                    <circle id="Oval" fill="#338A9C" cx="16.5" cy="16.5" r="16.5"></circle>
                    <path d="M17.0445,25.1955 L17.0445,23.5455 L17.7375,23.199 L18.579,24.0405 L19.3875,24.882 C19.4781355,25.0065249 19.6147577,25.0896863 19.767,25.113 C19.940769,25.1004255 20.0836547,24.971148 20.1135,24.7995 C20.0868949,24.6484777 20.0044294,24.5129988 19.8825,24.42 L18.2325,22.77 L17.919,22.4565 C17.5807975,22.202533 17.3044045,21.8753739 17.1105,21.4995 C17.0196601,21.1087095 17.0196601,20.7022905 17.1105,20.3115 C17.1205295,20.1466524 17.1205295,19.9813476 17.1105,19.8165 C16.9646255,19.1489613 17.3728482,18.4855994 18.0345,18.315 C18.153928,18.1643603 18.3373333,18.0787712 18.5295,18.084 C18.7075528,18.0339733 18.8959472,18.0339733 19.074,18.084 L20.3115,19.0905 C20.6444398,19.2437594 20.8879978,19.542118 20.9715,19.899 L21.582,22.209 L21.8955,23.331 C21.9175194,23.4694277 22.0172695,23.5828087 22.1517643,23.622283 C22.2862592,23.6617574 22.4314631,23.6202705 22.5248024,23.5157007 C22.6181418,23.4111309 22.6429359,23.2621659 22.5885,23.133 L22.209,21.6645 L21.6645,19.899 L23.199,20.79 L24.156,21.285 C24.4136877,21.4073693 24.7221181,21.3232519 24.882,21.087 C25.0668715,20.8803073 25.0668715,20.5676927 24.882,20.361 L24.5685,20.361 L22.2585,18.8925 L23.3805,18.579 L25.4265,18.15 C25.9215,18.15 25.8555,17.8035 25.8555,17.688 C25.8555,17.5725 25.6245,17.5395 25.245,17.5395 L23.199,18.084 L22.737,18.084 C22.3250927,18.2570038 21.8797737,18.3359211 21.4335,18.315 C21.0498412,18.2488998 20.6844082,18.1027266 20.361,17.886 L19.866,17.5395 C19.2820336,17.3571813 18.9517562,16.7406635 19.1235,16.1535 C18.9777461,15.7572481 19.1757647,15.3172067 19.569,15.1635 L20.922,14.388 C21.2757415,14.2139118 21.6902585,14.2139118 22.044,14.388 L25.344,15.1965 L25.7235,15.1965 C25.7795014,15.0995028 25.7795014,14.9799972 25.7235,14.883 C25.7133612,14.7320783 25.6064948,14.6051745 25.4595,14.5695 L24.0405,14.1075 L22.8855,13.728 L23.3475,13.035 L24.585,12.2595 C24.7577719,12.1652748 24.8920553,12.0134762 24.9645,11.8305 C25.0296857,11.6949286 25.0296857,11.5370714 24.9645,11.4015 C24.7399429,11.18139 24.3805571,11.18139 24.156,11.4015 L22.506,12.3585 L22.044,11.55 L22.044,10.989 C22.1047082,10.515003 22.2210086,10.0498012 22.3905,9.603 C22.4254397,9.46213424 22.4254397,9.31486576 22.3905,9.174 C22.1359856,9.10013848 21.8638646,9.2089869 21.7305,9.438 L21.3015,10.9725 L21.0705,11.781 L21.0705,12.21 C21.0188017,12.6230095 20.8719485,13.0183834 20.6415,13.365 C20.3893838,13.4993021 20.1157907,13.5886386 19.833,13.629 L19.371,13.86 C18.8450943,14.2975021 18.0819057,14.2975021 17.556,13.86 C17.1681249,13.7487291 16.9216797,13.3684993 16.9785,12.969 L16.9785,11.319 C17.0327723,11.0205152 17.1834801,10.7480818 17.4075,10.5435 L19.173,8.7285 L19.833,8.0685 C20.2125,7.689 20.064,7.524 19.833,7.4085 C19.7694994,7.38281273 19.6985006,7.38281273 19.635,7.4085 C19.4531386,7.43485904 19.2880389,7.5292017 19.173,7.6725 L17.9355,8.91 L17.7375,8.91 L17.127,9.7515 L17.127,7.1445 C17.1281692,6.86209699 16.9132363,6.6256708 16.632,6.6 L16.5,6.6 C16.217597,6.59883084 15.9811708,6.81376373 15.9555,7.095 L15.9555,9.801 L15.147,9.0255 C14.6487384,8.61932872 14.1749126,8.18407017 13.728,7.722 C13.497,7.491 13.299,7.458 13.1175,7.722 C12.936,7.986 12.8865,7.953 13.1175,8.2995 L14.7675,9.801 L15.081,9.999 C15.4229418,10.2489811 15.70015,10.5771051 15.8895,10.956 C15.9720045,11.3254499 15.9720045,11.7085501 15.8895,12.078 C15.8756793,12.2592369 15.8756793,12.4412631 15.8895,12.6225 C16.0423954,13.2657117 15.6764448,13.9186823 15.048,14.124 C14.9450167,14.149179 14.8374833,14.149179 14.7345,14.124 C14.5207533,14.1981814 14.2882467,14.1981814 14.0745,14.124 C13.5813406,13.925619 13.1155653,13.6650066 12.6885,13.3485 C12.4111494,13.1655783 12.2067774,12.8911359 12.111,12.573 C11.7315,11.55 11.451,10.5765 11.187,9.57 L11.187,9.1905 C11.1878143,9.01131325 11.0518743,8.86106373 10.8735,8.844 C10.7749753,8.79402306 10.6585247,8.79402306 10.56,8.844 C10.5056467,8.9646615 10.5056467,9.1028385 10.56,9.2235 L10.9395,10.725 L11.253,12.606 L8.9925,11.3025 C8.76794287,11.08239 8.40855713,11.08239 8.184,11.3025 C8.10905683,11.4468107 8.09478245,11.6150567 8.14434208,11.7699305 C8.19390171,11.9248044 8.30319969,12.0535072 8.448,12.1275 L10.758,13.629 L7.6065,14.4045 C7.44025298,14.4270336 7.28782462,14.5091105 7.1775,14.6355 C7.14809748,14.7096932 7.14809748,14.7923068 7.1775,14.8665 C7.31141726,15.0443586 7.5401236,15.1227722 7.755,15.0645 L9.9,14.5035 L10.329,14.5035 C10.7140978,14.337769 11.1309748,14.2589004 11.55,14.2725 C11.9489352,14.3076054 12.3336633,14.437734 12.672,14.652 L13.035,14.85 C13.3718834,14.9477603 13.6533578,15.1804534 13.8127269,15.4929418 C13.972096,15.8054301 13.9951767,16.1699041 13.8765,16.5 C13.964289,16.6618608 13.9840513,16.8520052 13.9314244,17.0284599 C13.8787976,17.2049146 13.758109,17.3531701 13.596,17.4405 L13.4475,17.4405 L12.903,17.754 L12.012,18.249 C11.7120235,18.3484231 11.3879765,18.3484231 11.088,18.249 L9.1575,17.754 L7.623,17.4405 C7.55782718,17.3739833 7.46862343,17.3364995 7.3755,17.3364995 C7.28237657,17.3364995 7.19317282,17.3739833 7.128,17.4405 C7.08710836,17.6272897 7.2052568,17.8118966 7.392,17.853 L8.283,18.282 L8.745,18.4305 L9.174,18.4305 L10.131,18.777 L9.636,19.47 L8.3655,20.196 C8.21326517,20.2579316 8.09243044,20.3786268 8.03032302,20.53079 C7.9682156,20.6829532 7.97008195,20.8537305 8.0355,21.0045 C8.26005713,21.22461 8.61944287,21.22461 8.844,21.0045 L11.22,19.8 L10.758,21.5655 C10.6832038,22.047521 10.5672806,22.5222542 10.4115,22.9845 C10.3842476,23.1095322 10.3842476,23.2389678 10.4115,23.364 C10.4952102,23.4028589 10.5917898,23.4028589 10.6755,23.364 C10.8448475,23.3768529 10.9985502,23.2650691 11.0385,23.1 L11.0385,22.4895 C11.2240765,21.9514585 11.3675094,21.3997938 11.4675,20.8395 C11.5905001,19.6823638 12.3475226,18.6899645 13.431,18.2655 C13.9244786,17.9128713 14.5875214,17.9128713 15.081,18.2655 C15.478517,18.3634937 15.7313773,18.7536211 15.6585,19.1565 L15.6585,20.8065 C15.6769919,21.1654768 15.5384849,21.5147554 15.279,21.7635 L12.8865,24.123 C12.8030505,24.1886995 12.7543413,24.2890415 12.7543413,24.39525 C12.7543413,24.5014585 12.8030505,24.6018005 12.8865,24.6675 C12.957963,24.7410885 13.0561721,24.7826136 13.15875,24.7826136 C13.2613279,24.7826136 13.359537,24.7410885 13.431,24.6675 L14.2395,23.859 L14.7345,23.364 L14.9325,23.364 L15.708,22.7865 L15.708,25.3275 C15.6596385,25.5335098 15.7350136,25.7488812 15.9012838,25.8797747 C16.0675539,26.0106682 16.2946016,26.0333744 16.4835,25.938 L16.4835,26.4 L16.4835,25.938 C16.6656974,25.9485456 16.8410616,25.8671117 16.950563,25.7211098 C17.0600645,25.5751079 17.0891391,25.3839568 17.028,25.212 L17.0445,25.1955 Z M15.3945,17.49 C15.0696439,17.164895 14.9115715,16.7089169 14.9655,16.2525 C14.9745439,15.4114697 15.6589211,14.7344514 16.5,14.7345 C16.9051939,14.7374752 17.2919845,14.9040927 17.5725,15.1965 C17.8741086,15.4911433 18.0411892,15.8969105 18.0345,16.3185 C18.043349,16.7167499 17.8935815,17.1021943 17.6181639,17.3899902 C17.3427463,17.6777861 16.9642542,17.8443434 16.566,17.853 C16.1389181,17.9093765 15.7078075,17.7836359 15.378,17.5065 L15.3945,17.49 Z" id="Shape" fill="#FFFFFF"></path>
                </g>
            </g>
        </g>
    </g>
</svg>