<?xml version="1.0" encoding="UTF-8"?>
<svg width="15px" height="15px" viewBox="0 0 15 15" version="1.1" xmlns="http://www.w3.org/2000/svg" xmlns:xlink="http://www.w3.org/1999/xlink">
    <!-- Generator: Sketch 52.6 (67491) - http://www.bohemiancoding.com/sketch -->
    <title>Fill 2 Copy 7</title>
    <desc>Created with Sketch.</desc>
    <g id="Page-1" stroke="none" stroke-width="1" fill="none" fill-rule="evenodd">
        <g id="2" transform="translate(-2471.000000, -1026.000000)" fill="#C2C3C9">
            <path d="M2480.9205,1033.51143 L2485.70076,1028.73218 C2486.09975,1028.33341 2486.09975,1027.67828 2485.70076,1027.27502 L2484.72281,1026.29908 C2484.32533,1025.90031 2483.67137,1025.90031 2483.26639,1026.29908 L2478.48613,1031.08133 L2473.73436,1026.33206 C2473.33538,1025.92879 2472.67992,1025.93029 2472.27494,1026.32906 L2471.30149,1027.3035 C2470.89801,1027.70527 2470.90101,1028.35739 2471.30149,1028.76216 L2476.05325,1033.51143 L2471.30899,1038.2547 C2470.90401,1038.65497 2470.90401,1039.3056 2471.30899,1039.71336 L2472.27794,1040.68481 C2472.67992,1041.08658 2473.33238,1041.08658 2473.74036,1040.68481 L2478.48613,1035.94453 L2483.24389,1040.6998 C2483.64437,1041.10007 2484.29684,1041.10007 2484.70331,1040.6998 L2485.67677,1039.72686 C2486.07725,1039.32359 2486.07725,1038.67146 2485.67677,1038.2667 L2480.9205,1033.51143 Z" id="Fill-2-Copy-7"></path>
        </g>
    </g>
</svg>