<?xml version="1.0" encoding="UTF-8"?>
<svg width="43px" height="42px" viewBox="0 0 43 42" version="1.1" xmlns="http://www.w3.org/2000/svg" xmlns:xlink="http://www.w3.org/1999/xlink">
    <!-- Generator: Sketch 51.2 (57519) - http://www.bohemiancoding.com/sketch -->
    <title>Fill 1</title>
    <desc>Created with Sketch.</desc>
    <defs></defs>
    <g id="Symbols" stroke="none" stroke-width="1" fill="none" fill-rule="evenodd">
        <g id="escanea_2" fill="#424242">
            <path d="M19.8332751,40.6961989 L21.791406,40.6961989 L21.791406,27.9484479 L19.8332751,27.9484479 L19.8332751,40.6961989 Z M16.8953418,40.6961989 L18.8534727,40.6961989 L18.8534727,27.9484479 L16.8953418,27.9484479 L16.8953418,40.6961989 Z M11.020458,40.6961989 L14.937211,40.6961989 L14.937211,27.9484479 L11.020458,27.9484479 L11.020458,40.6961989 Z M8.08301609,40.6961989 L10.0411469,40.6961989 L10.0411469,27.9484479 L8.08301609,27.9484479 L8.08301609,40.6961989 Z M3.18744335,40.6961989 L6.12488527,40.6961989 L6.12488527,27.9484479 L3.18744335,27.9484479 L3.18744335,40.6961989 Z M0.25000143,40.6961989 L2.20813225,40.6961989 L2.20813225,27.9484479 L0.25000143,27.9484479 L0.25000143,40.6961989 Z M34.6271132,22.4931986 C33.7618012,24.3235718 32.9284286,25.5628205 31.7053953,26.0787646 C30.5599993,26.5612952 29.230829,26.3067628 27.5287047,25.4964848 L29.6244206,27.9479565 C32.5618625,28.4383491 33.5411736,27.9479565 35.0098946,25.4964848 L34.6271132,22.4931986 Z M30.1138305,20.5930501 L27.0083382,24.1481508 C29.0922611,25.2901072 30.3953886,25.5657688 31.3226139,25.174634 C32.2183912,24.7972577 33.1598664,23.4690701 34.0767728,21.4819481 L30.1138305,20.5930501 Z M6.30865965,5.73041948 L8.08301609,13.7290276 C14.355914,16.6286337 20.6283205,18.5725146 26.9012184,19.566567 L24.8359677,11.0780576 L6.30865965,5.73041948 Z M26.1975688,0 L8.6033826,4.30543093 L25.9680965,9.36217479 C26.3238523,9.46094124 26.6103241,9.77836972 26.6717461,10.1434616 L28.6760662,18.5553165 L29.7315405,17.8044949 L30.0376673,19.6127562 L30.1295545,19.6127562 C30.1963815,19.61767 30.2632086,19.6265147 30.3280701,19.6432215 L34.7347244,20.6235154 C35.1199627,20.713437 35.4324774,21.0583826 35.4840718,21.4514828 L35.9734817,25.373641 C36.003947,25.5888634 35.9602146,25.8139133 35.8511292,26.0021101 C35.0826182,27.2855825 34.3539085,28.2177216 33.2812361,28.7140107 C32.7706971,28.9498709 32.2228135,29.0692751 31.6287407,29.0967921 C32.902877,33.3142669 27.6662898,32.3993259 27.6662898,35.3023716 C29.6244206,40.2058063 31.5830428,41.6769842 38.9266476,41.1865915 C42.8434006,40.2058063 43.3328105,34.811979 42.8434006,30.8898208 C41.9230546,24.4405192 38.404807,17.9951485 39.2018178,11.1394795 L40.3948772,10.2962794 C41.3741883,9.80637812 41.8635982,8.33520028 41.8635982,7.3853717 L41.8635982,4.41304213 C41.8635982,2.9418643 41.3741883,2.45147169 39.9054673,1.96107907 L26.1975688,0 Z" id="Fill-1"></path>
        </g>
    </g>
</svg>