<?xml version="1.0" encoding="UTF-8"?>
<svg width="179px" height="103px" viewBox="0 0 179 103" version="1.1" xmlns="http://www.w3.org/2000/svg" xmlns:xlink="http://www.w3.org/1999/xlink">
    <!-- Generator: Sketch 51.2 (57519) - http://www.bohemiancoding.com/sketch -->
    <title>escanea_gris</title>
    <desc>Created with Sketch.</desc>
    <defs></defs>
    <g id="Symbols" stroke="none" stroke-width="1" fill="none" fill-rule="evenodd">
        <g id="escanea_gris">
            <g id="Group-7">
                <g id="pistola" opacity="0.40078125">
                    <path d="M42.1441176,0.570728421 L85.7088235,11.2502021 L42.7123529,23.7901811 C41.8302353,24.0362968 41.1234588,24.8234337 40.9697647,25.7287495 L36.0071765,46.5932968 L33.3932941,44.7306232 L32.6367294,49.2149179 L32.4094353,49.2149179 C32.2427529,49.2279284 32.0771529,49.2496126 31.9169647,49.2918968 L21.0068471,51.7237811 C20.0522118,51.9460442 19.2783294,52.8014863 19.1506118,53.7751074 L17.9383765,63.5048126 C17.8626118,64.0382442 17.9719294,64.5966126 18.2414353,65.0617389 C20.1452941,68.2460653 21.9484941,70.5597705 24.6056706,71.7903495 C25.8698588,72.3758232 27.2260471,72.6707284 28.6958824,72.7390337 C25.5408235,83.1994968 38.5084941,80.9302442 38.5084941,88.1315705 C33.6584706,100.29316 28.8106118,103.941528 10.6270824,102.725044 C0.9292,100.29316 -0.283035294,86.9150863 0.9292,77.1864653 C3.20647059,61.1889389 11.9172471,45.2044232 9.9452,28.1985811 L6.99037647,26.1093074 C4.56590588,24.8928232 3.35367059,21.2433705 3.35367059,18.8884653 L3.35367059,11.5158337 C3.35367059,7.86638105 4.56590588,6.64989684 8.20261176,5.43449684 L42.1441176,0.570728421 Z" id="Stroke-1" stroke="#9C9A9A" stroke-width="3"></path>
                    <path d="M91.3911765,14.7839695 L86.9957412,34.6217695 C71.4650588,41.8133379 55.9332941,46.6348221 40.4026118,49.1003168 L45.5156471,28.0471168 L91.3911765,14.7839695 Z" id="Fill-3" fill="#9C9A9A" fill-rule="evenodd"></path>
                    <path d="M32.4462353,51.6471274 L40.1363529,60.4650116 C34.9767765,63.2969695 31.7502824,63.9811063 29.4535294,63.0107379 C27.2379529,62.07398 24.9054824,58.7790642 22.6357882,53.8513274 L32.4462353,51.6471274 Z" id="Fill-5" fill="#9C9A9A" fill-rule="evenodd"></path>
                    <path d="M21.2718071,56.3598653 C23.4137835,60.8994547 25.4789129,63.9731916 28.5073365,65.25256 C31.3431012,66.4516968 34.6345365,65.8196021 38.8481365,63.8083916 L33.6582541,69.8897284 C26.3859247,71.1062126 23.9603718,69.8897284 20.3247482,63.8083916 L21.2718071,56.3598653 Z" id="Fill-7" fill="#9C9A9A" fill-rule="evenodd"></path>
                </g>
                <g id="qr_gris" opacity="0.504464286" transform="translate(100.000000, 18.000000)" fill="#9C9A9A">
                    <polygon id="Fill-9" points="24.8285714 3.0915 31.0312 3.0915 31.0312 0 24.8285714 0"></polygon>
                    <polygon id="Fill-11" points="38.3714286 0 41.4727429 0 41.4727429 3.0915 47.6753714 3.0915 47.6753714 6.183 38.3714286 6.183"></polygon>
                    <polygon id="Fill-12" points="49.6436 0 52.7449143 0 52.7449143 34.011 49.6436 34.011 49.6436 27.828 46.5400286 27.828 46.5400286 30.9195 43.4387143 30.9195 43.4387143 27.828 40.3374 27.828 40.3374 24.7365 37.2360857 24.7365 37.2360857 15.45975 34.1325143 15.45975 34.1325143 9.2745 24.8285714 9.2745 24.8285714 6.183 31.0312 6.183 31.0312 3.0915 34.1325143 3.0915 34.1325143 6.183 37.2360857 6.183 37.2360857 9.2745 46.5400286 9.2745 46.5400286 12.36825 40.3374 12.36825 40.3374 21.64275 43.4387143 21.64275 43.4387143 18.55125 46.5400286 18.55125 46.5400286 24.7365 49.6436 24.7365 49.6436 15.45975 46.5400286 15.45975 46.5400286 12.36825 49.6436 12.36825"></polygon>
                    <path d="M3.10131429,18.55125 L18.6101429,18.55125 L18.6101429,3.0915 L3.10131429,3.0915 L3.10131429,18.55125 Z M0,21.64275 L21.7114571,21.64275 L21.7114571,0 L0,0 L0,21.64275 Z" id="Fill-13"></path>
                    <path d="M59.5298857,18.55125 L75.0409714,18.55125 L75.0409714,3.0915 L59.5298857,3.0915 L59.5298857,18.55125 Z M56.4285714,21.64275 L78.1422857,21.64275 L78.1422857,0 L56.4285714,0 L56.4285714,21.64275 Z" id="Fill-14"></path>
                    <polygon id="Fill-15" points="6.77142857 16.02675 16.0776286 16.02675 16.0776286 6.75 6.77142857 6.75"></polygon>
                    <polygon id="Fill-16" points="63.2 16.02675 72.5039429 16.02675 72.5039429 6.75 63.2 6.75"></polygon>
                    <polygon id="Fill-17" points="24.8285714 13.5 31.0312 13.5 31.0312 19.683 27.9298857 19.683 27.9298857 16.5915 24.8285714 16.5915"></polygon>
                    <polygon id="Fill-18" points="24.8285714 20.25 27.9298857 20.25 27.9298857 23.3415 31.0312 23.3415 31.0312 20.25 34.1325143 20.25 34.1325143 26.43525 37.2360857 26.43525 37.2360857 29.52675 40.3374 29.52675 40.3374 32.61825 37.2360857 32.61825 37.2360857 35.70975 34.1325143 35.70975 34.1325143 29.52675 31.0312 29.52675 31.0312 26.43525 24.8285714 26.43525"></polygon>
                    <polygon id="Fill-19" points="15.8 27.8415 22.0026286 27.8415 22.0026286 24.75 15.8 24.75"></polygon>
                    <polygon id="Fill-20" points="63.2 27.8415 66.3013143 27.8415 66.3013143 24.75 63.2 24.75"></polygon>
                    <polygon id="Fill-21" points="67.7142857 24.75 70.8156 24.75 70.8156 30.933 77.0204857 30.933 77.0204857 40.20975 70.8156 40.20975 70.8156 34.0245 67.7142857 34.0245"></polygon>
                    <polygon id="Fill-22" points="74.4857143 27.8415 77.5870286 27.8415 77.5870286 24.75 74.4857143 24.75"></polygon>
                    <polygon id="Fill-23" points="2.25714286 32.3415 8.46202857 32.3415 8.46202857 29.25 2.25714286 29.25"></polygon>
                    <polygon id="Fill-24" points="13.5428571 32.3415 16.6441714 32.3415 16.6441714 29.25 13.5428571 29.25"></polygon>
                    <polygon id="Fill-25" points="0 34.5915 3.10131429 34.5915 3.10131429 31.5 0 31.5"></polygon>
                    <polygon id="Fill-26" points="18.0571429 34.5915 21.1584571 34.5915 21.1584571 31.5 18.0571429 31.5"></polygon>
                    <polygon id="Fill-27" points="5.35845714 33.75 11.5633429 33.75 11.5633429 39.93525 8.46202857 39.93525 8.46202857 43.02675 5.35845714 43.02675 5.35845714 39.93525 2.25714286 39.93525 2.25714286 36.84375 5.35845714 36.84375"></polygon>
                    <polygon id="Fill-28" points="15.8 36.84375 18.9013143 36.84375 18.9013143 33.75 15.8 33.75"></polygon>
                    <polygon id="Fill-29" points="47.4 36.84375 50.5035714 36.84375 50.5035714 33.75 47.4 33.75"></polygon>
                    <polygon id="Fill-30" points="18.0571429 41.3415 21.1584571 41.3415 21.1584571 38.25 18.0571429 38.25"></polygon>
                    <polygon id="Fill-31" points="0 52.86825 3.10131429 52.86825 3.10131429 40.5 0 40.5"></polygon>
                    <polygon id="Fill-32" points="13.5428571 43.59375 16.6441714 43.59375 16.6441714 40.5 13.5428571 40.5"></polygon>
                    <polygon id="Fill-33" points="9.02857143 48.0915 12.1298857 48.0915 12.1298857 45 9.02857143 45"></polygon>
                    <polygon id="Fill-34" points="18.0571429 48.0915 21.1584571 48.0915 21.1584571 45 18.0571429 45"></polygon>
                    <polygon id="Fill-35" points="24.8285714 45 27.9298857 45 27.9298857 48.0915 31.0312 48.0915 31.0312 54.27675 27.9298857 54.27675 27.9298857 57.36825 24.8285714 57.36825"></polygon>
                    <polygon id="Fill-36" points="58.6857143 48.0915 64.8883429 48.0915 64.8883429 45 58.6857143 45"></polygon>
                    <polygon id="Fill-37" points="72.2285714 48.0915 78.4334571 48.0915 78.4334571 45 72.2285714 45"></polygon>
                    <polygon id="Fill-38" points="13.5428571 50.34375 16.6441714 50.34375 16.6441714 47.25 13.5428571 47.25"></polygon>
                    <polygon id="Fill-39" points="6.77142857 52.5915 9.875 52.5915 9.875 49.5 6.77142857 49.5"></polygon>
                    <polygon id="Fill-40" points="15.8 52.5915 22.0026286 52.5915 22.0026286 49.5 15.8 49.5"></polygon>
                    <polygon id="Fill-41" points="31.6 57.0915 34.7013143 57.0915 34.7013143 54 31.6 54"></polygon>
                    <path d="M52.7471714,61.8525 L62.0533714,61.8525 L62.0533714,52.578 L52.7471714,52.578 L52.7471714,61.8525 Z M46.5422857,49.4865 L49.6458571,49.4865 L49.6458571,46.39275 L46.5422857,46.39275 L46.5422857,49.4865 Z M77.5622,52.578 L77.5622,49.4865 L71.3573143,49.4865 L71.3573143,46.39275 L65.1546857,46.39275 L65.1546857,49.4865 L52.7471714,49.4865 L52.7471714,46.39275 L55.8484857,46.39275 L55.8484857,43.30125 L58.9498,43.30125 L58.9498,40.20975 L65.1546857,40.20975 L65.1546857,43.30125 L68.256,43.30125 L68.256,34.0245 L65.1546857,34.0245 L65.1546857,30.933 L62.0533714,30.933 L62.0533714,34.0245 L58.9498,34.0245 L58.9498,30.933 L62.0533714,30.933 L62.0533714,27.8415 L58.9498,27.8415 L58.9498,24.75 L55.8484857,24.75 L55.8484857,34.0245 L52.7471714,34.0245 L52.7471714,43.30125 L46.5422857,43.30125 L46.5422857,37.11825 L43.4409714,37.11825 L43.4409714,43.30125 L40.3374,43.30125 L40.3374,34.0245 L37.2360857,34.0245 L37.2360857,40.20975 L34.1347714,40.20975 L34.1347714,34.0245 L24.8285714,34.0245 L24.8285714,37.11825 L27.9298857,37.11825 L27.9298857,43.30125 L31.0334571,43.30125 L31.0334571,46.39275 L34.1347714,46.39275 L34.1347714,43.30125 L37.2383429,43.30125 L37.2383429,46.39275 L34.1347714,46.39275 L34.1347714,52.578 L37.2383429,52.578 L37.2383429,55.6695 L40.3396571,55.6695 L40.3396571,49.4865 L43.4409714,49.4865 L43.4409714,55.6695 L46.5422857,55.6695 L46.5422857,52.578 L49.6458571,52.578 L49.6458571,55.6695 L46.5422857,55.6695 L46.5422857,58.761 L43.4409714,58.761 L43.4409714,68.03775 L37.2383429,68.03775 L37.2383429,71.12925 L43.4409714,71.12925 L43.4409714,74.22075 L37.2383429,74.22075 L37.2383429,77.3145 L52.7471714,77.3145 L52.7471714,74.22075 L49.6458571,74.22075 L49.6458571,71.12925 L46.5422857,71.12925 L46.5422857,61.8525 L49.6458571,61.8525 L49.6458571,64.94625 L52.7471714,64.94625 L52.7471714,68.03775 L55.8484857,68.03775 L55.8484857,64.94625 L65.1546857,64.94625 L65.1546857,68.03775 L68.256,68.03775 L68.256,64.94625 L71.3573143,64.94625 L71.3573143,61.8525 L68.256,61.8525 L68.256,55.6695 L65.1546857,55.6695 L65.1546857,52.578 L77.5622,52.578 Z" id="Fill-42"></path>
                    <polygon id="Fill-43" points="33.8571429 62.433 36.9607143 62.433 36.9607143 56.25 33.8571429 56.25"></polygon>
                    <polygon id="Fill-44" points="56.4285714 59.34375 59.5321429 59.34375 59.5321429 56.25 56.4285714 56.25"></polygon>
                    <polygon id="Fill-45" points="74.4857143 62.433 77.5870286 62.433 77.5870286 56.25 74.4857143 56.25"></polygon>
                    <path d="M3.10131429,74.80125 L18.6101429,74.80125 L18.6101429,59.3415 L3.10131429,59.3415 L3.10131429,74.80125 Z M0,77.895 L21.7114571,77.895 L21.7114571,56.25 L0,56.25 L0,77.895 Z" id="Fill-46"></path>
                    <polygon id="Fill-47" points="24.8285714 58.5 31.0312 58.5 31.0312 64.68525 34.1325143 64.68525 34.1325143 67.77675 31.0312 67.77675 31.0312 70.86825 27.9298857 70.86825 27.9298857 61.5915 24.8285714 61.5915"></polygon>
                    <polygon id="Fill-48" points="6.77142857 72.27675 16.0776286 72.27675 16.0776286 63 6.77142857 63"></polygon>
                    <polygon id="Fill-49" points="38.3714286 66.09375 41.4727429 66.09375 41.4727429 63 38.3714286 63"></polygon>
                    <polygon id="Fill-50" points="74.4857143 77.61825 77.5870286 77.61825 77.5870286 65.25 74.4857143 65.25"></polygon>
                    <polygon id="Fill-51" points="49.6571429 72.8415 52.7584571 72.8415 52.7584571 69.75 49.6571429 69.75"></polygon>
                    <polygon id="Fill-52" points="56.4285714 69.75 62.6334571 69.75 62.6334571 72.8415 68.8360857 72.8415 68.8360857 79.02675 65.7347714 79.02675 65.7347714 75.933 59.5298857 75.933 59.5298857 79.02675 56.4285714 79.02675"></polygon>
                    <polygon id="Fill-53" points="67.7142857 72.8415 70.8156 72.8415 70.8156 69.75 67.7142857 69.75"></polygon>
                    <polygon id="Fill-54" points="33.8571429 75.09375 36.9607143 75.09375 36.9607143 72 33.8571429 72"></polygon>
                    <polygon id="Fill-55" points="27.0857143 77.34375 30.1870286 77.34375 30.1870286 74.25 27.0857143 74.25"></polygon>
                </g>
            </g>
        </g>
    </g>
</svg>