<svg xmlns="http://www.w3.org/2000/svg" width="26.51548mm" height="26.51549mm" viewBox="0 0 75.162 75.16201"><title>Recurso 119</title><g id="Capa_2" data-name="Capa 2"><g id="Capa_1-2" data-name="Capa 1"><path d="M47.169,73.36a36.81076,36.81076,0,0,0,8.933-3.704A36.32944,36.32944,0,0,0,69.657,56.1,37.17893,37.17893,0,0,0,63.79,11.373a37.30111,37.30111,0,0,0-7.688-5.868,37.02378,37.02378,0,0,0-37.042,0A36.34851,36.34851,0,0,0,5.504,19.06a37.01795,37.01795,0,0,0,0,37.041A36.34163,36.34163,0,0,0,19.06,69.657,36.49779,36.49779,0,0,0,47.169,73.36Z" style="fill:#fff;stroke:#1d1d1b;stroke-miterlimit:10"/><path d="M37.44111,37.58194H37.439l.00212-.00211L5.352,19.0558a36.28455,36.28455,0,0,1,13.563-13.562,37.10768,37.10768,0,0,1,37.05546,0,36.2586,36.2586,0,0,1,13.56091,13.562,37.64862,37.64862,0,0,1,4.99172,18.524H37.44111v.00211h.00212V37.583Z" style="fill:#62626a;stroke:#1d1d1b;stroke-miterlimit:10"/></g></g></svg>