<?xml version="1.0" encoding="UTF-8"?>
<svg width="68px" height="75px" viewBox="0 0 68 75" version="1.1" xmlns="http://www.w3.org/2000/svg" xmlns:xlink="http://www.w3.org/1999/xlink">
    <!-- Generator: Sketch 51.3 (57544) - http://www.bohemiancoding.com/sketch -->
    <title>hielera_refri</title>
    <desc>Created with Sketch.</desc>
    <defs></defs>
    <g id="Page-1" stroke="none" stroke-width="1" fill="none" fill-rule="evenodd">
        <g id="3" transform="translate(-1162.000000, -470.000000)">
            <rect fill="#F2F2F2" x="0" y="0" width="2353" height="1323"></rect>
            <polygon id="Fill-1" fill="#1A1A1A" points="0 1323 2353 1323 2353 0 0 0"></polygon>
            <g id="Page-1" transform="translate(542.000000, 79.000000)">
                <polygon id="Fill-1" fill="#FFFFFF" points="0 1183 1775 1183 1775 -5.68434189e-13 0 -5.68434189e-13"></polygon>
                <path d="M0,1185 L1775,1185 L1775,-5.68434189e-13 L0,-5.68434189e-13 L0,1185 Z M2,1183.929 L1773.85527,1183.929 L1773.85527,1 L2,1 L2,1183.929 Z" id="Fill-2"></path>
            </g>
            <g id="Group-5" transform="translate(1105.000000, 417.000000)" stroke="#D8D9DD">
                <rect id="Rectangle-15" x="0.5" y="0.5" width="180" height="206.470085"></rect>
            </g>
            <g id="hielera_refri" transform="translate(1162.000000, 470.000000)" fill="#9A9999">
                <g id="Recurso-231">
                    <path d="M12.2891566,45.9395604 L11.8877108,45.8406593 C11.8877108,45.8406593 9.51180723,45.3296703 7.61927711,44.8104396 C6.95899055,44.6351516 6.46208292,44.0868974 6.34939759,43.4093407 C5.90409306,43.0192576 5.61326872,42.4809412 5.53012048,41.8928571 L5.53012048,34.978022 C5.5301205,34.3862883 6.00696421,33.9065934 6.59518072,33.9065934 C7.18339724,33.9065934 7.66024095,34.3862883 7.66024096,34.978022 L7.66024096,41.4395604 C7.91652411,41.3820021 8.18227107,41.3820021 8.43855422,41.4395604 C10.306506,41.9175824 12.6250602,42.4615385 12.6250602,42.4615385 L13.026506,42.5521978 L12.8626506,43.2445055 L13.1084337,43.3021978 C13.1898953,43.3146308 13.2727553,43.3146308 13.3542169,43.3021978 L13.3542169,37.7967033 C13.3541996,37.2081734 13.8260698,36.7298019 14.4110843,36.7252747 C14.6935559,36.7252747 14.9644581,36.8381571 15.1641957,37.0390889 C15.3639332,37.2400207 15.4761446,37.5125428 15.4761446,37.7967033 L15.4761446,43.3516484 C15.4996168,43.9867634 15.2268826,44.5964633 14.7387952,45 C14.3253337,45.3093478 13.8200999,45.469085 13.3050602,45.4532967 C13.0763485,45.4542482 12.8482534,45.4293671 12.6250602,45.3791209 L12.3792771,45.3214286 L12.2891566,45.9395604 Z M6.38216867,41.8681319 C6.46577504,42.2753628 6.68908359,42.6400443 7.01301205,42.8983516 L7.14409639,43.0137363 L7.14409639,43.1868132 C7.16690606,43.5789346 7.43813258,43.9116764 7.81590361,44.010989 C9.22506024,44.3736264 10.9045783,44.7692308 11.6501205,44.9505495 L11.7812048,44.3736264 L12.8298795,44.5961538 C13.3117164,44.7377045 13.8311831,44.6561469 14.2472289,44.3736264 C14.5448667,44.1220952 14.7035185,43.7415095 14.673253,43.3516484 L14.673253,37.7884615 C14.6724438,37.7272487 14.6490897,37.6685143 14.6077108,37.6236264 C14.5374905,37.554366 14.4329907,37.5338797 14.3420565,37.571547 C14.2511224,37.6092144 14.1912608,37.6977836 14.1898795,37.7967033 L14.1898795,43.3598901 C14.2123135,43.596218 14.1209445,43.8290702 13.9440964,43.9862637 C13.6402877,44.1582206 13.2821901,44.2054651 12.9445783,44.1181319 L11.8959036,43.8873626 L12.059759,43.1868132 C11.3142169,43.0054945 9.65927711,42.6098901 8.25831325,42.2554945 C8.02755731,42.1968369 7.78310459,42.2323908 7.57831325,42.3543956 L7.25879518,42.543956 L7.03759036,42.239011 C6.99284233,42.1726867 6.95181449,42.1038981 6.9146988,42.032967 L7.27518072,41.8516484 L6.86554217,41.8516484 L6.86554217,35.010989 C6.86554217,34.8744351 6.75550131,34.7637363 6.61975904,34.7637363 C6.48581893,34.768017 6.37823115,34.876248 6.3739759,35.010989 L6.3739759,41.8681319 L6.38216867,41.8681319 Z" id="Shape" fill-rule="nonzero"></path>
                    <path d="M24.3325301,74.9423077 C22.57632,74.9905231 20.8286814,74.6792826 19.1956627,74.0274725 L5.26795181,67.9450549 C4.76819277,67.6730769 2.23662651,65.9835165 2.16289157,58.5164835 C1.74535487,57.8394481 1.5610842,57.0429258 1.63855422,56.25 L1.63855422,30.9313187 C1.6250831,30.8411658 1.6250831,30.7494936 1.63855422,30.6593407 C1.62944984,30.5826902 1.62944984,30.5052219 1.63855422,30.4285714 C1.63535565,29.8832352 1.83059917,29.355564 2.18746988,28.9450549 C1.78940013,28.7010833 1.42567277,28.4044807 1.1060241,28.0631868 C-0.835662651,26.1098901 0.327710843,23.3406593 1.22072289,22.1538462 C1.22891566,22.0631868 10.5686747,7.96978022 12.8790361,4.72252747 C14.3740115,2.53530305 16.7569047,1.1284166 19.3840964,0.881868132 L19.539759,0.881868132 C26.4954217,0.881868132 34.286747,0.881868132 35.4583133,0.774725275 C36.570145,0.632621079 37.6669619,0.389878546 38.7354217,0.0494505495 C38.8418019,0.0175390001 38.9521269,0.000891298668 39.0631325,0 L44.9045783,0 C45.8400322,0.0199190215 46.7599003,0.244932588 47.6,0.659340659 L56.8168675,0.659340659 C59.0289157,0.659340659 59.553253,0.725274725 61.1836145,2.62087912 C62.394239,3.81603778 62.4485296,5.76033859 61.306506,7.02197802 L45.6501205,24.5274725 C45.5652615,24.6465422 45.4721803,24.7594583 45.3715663,24.8653846 C46.4029646,24.7860152 47.4401295,24.8330636 48.460241,25.0054945 L66.820241,29.0521978 C66.9835698,29.088895 67.13547,29.1652993 67.2626506,29.2747253 C67.3396271,29.3115219 67.4112847,29.3586551 67.4756627,29.4148352 C67.7033382,29.6266487 67.8288101,29.9271778 67.819759,30.239011 L67.0578313,56.1346154 C67.0248328,56.6756906 66.8112089,57.189711 66.4515663,57.5934066 C66.3122892,65.728022 63.3219277,66.4368132 62.7156627,66.4945055 C62.6337349,66.4945055 32.9677108,73.532967 28.0848193,74.5467033 C26.8507444,74.8069824 25.5934327,74.9395409 24.3325301,74.9423077 Z M19.4168675,1.6978022 C17.0492862,1.9478321 14.9104345,3.23158406 13.5672289,5.20879121 C11.2486747,8.50549451 1.94168675,22.5164835 1.85975904,22.6318681 C1.1060241,23.6373626 0.114698795,25.9285714 1.67951807,27.4945055 C2.06380592,27.9037099 2.51914633,28.238878 3.02313253,28.4835165 L3.61301205,28.7637363 L3.09686747,29.1758242 C2.68838593,29.4618535 2.44147192,29.9279688 2.43325301,30.4285714 L2.45783133,30.4945055 L2.45783133,30.6675824 C2.4496343,30.7277407 2.4496343,30.7887428 2.45783133,30.8489011 L2.45783133,56.2335165 C2.45783133,57.4120879 2.71180723,57.8818681 2.86746988,58.0137363 L2.98216867,58.1291209 L2.98216867,58.293956 C3.0313253,65.7115385 5.5546988,67.1291209 5.66120482,67.1868132 L19.5315663,73.260989 C21.0644643,73.8536826 22.6992122,74.1338398 24.3407229,74.0851648 C25.546462,74.079854 26.7486286,73.9528441 27.9291566,73.706044 C32.8448193,72.6758242 62.3961446,65.7032967 62.5845783,65.6538462 C62.773012,65.6043956 65.5503614,65.2664835 65.6404819,57.4120879 L65.6404819,57.2225275 L65.7879518,57.0989011 C66.0633461,56.835285 66.2275845,56.4753405 66.246747,56.0934066 L67.0086747,30.2142857 C67.0090214,30.1463912 66.9824905,30.08115 66.9349398,30.032967 L66.7628916,29.9258242 C66.7628916,29.8846154 66.6891566,29.8598901 66.6563855,29.8598901 L48.2554217,25.8049451 C48.1980723,25.8049451 47.5016867,25.5989011 44.2737349,25.7225275 L42.9628916,25.771978 L44.019759,24.9478022 C44.3954046,24.673787 44.7293547,24.3461694 45.0110843,23.9752747 L60.7084337,6.46153846 C61.5465525,5.50084238 61.4814702,4.04591993 60.5609639,3.16483516 C59.1190361,1.51648352 58.8568675,1.51648352 56.8168675,1.51648352 L47.4033735,1.51648352 L47.3214458,1.47527473 C46.5872616,1.08371477 45.7757022,0.861312899 44.9455422,0.824175824 L39.1204819,0.824175824 L38.9074699,0.445054945 L39.0303614,0.832417582 C37.8932162,1.19477394 36.7246881,1.44864104 35.540241,1.59065934 C34.0819277,1.73901099 22.9151807,1.71428571 19.5315663,1.70604396 L19.4168675,1.6978022 Z" id="Shape" fill-rule="nonzero"></path>
                    <path d="M60.5773494,3.92307692 L48.2390361,3.92307692 L48.1407229,3.6510989 C48.0173581,3.28942868 47.8751533,2.93454204 47.7146988,2.58791209 L47.4361446,1.97802198 L56.8168675,1.97802198 C58.6848193,1.97802198 58.9306024,2.02747253 59.9792771,3.23901099 L60.5773494,3.92307692 Z M48.8125301,3.0989011 L58.7093976,3.0989011 C58.3325301,2.81043956 57.9474699,2.8021978 56.8168675,2.8021978 L48.7060241,2.8021978 L48.8125301,3.0989011 Z" id="Shape" fill-rule="nonzero"></path>
                    <path d="M47.7310843,3.89835165 L36.4987952,3.89835165 L39.2024096,1.31868132 L44.9373494,1.31868132 C45.4548166,1.34155305 45.9646158,1.45304162 46.4448193,1.64835165 L46.5513253,1.64835165 L46.6578313,1.78846154 C47.022304,2.24211334 47.312683,2.75122837 47.5180723,3.2967033 L47.7310843,3.89835165 Z M38.5551807,3.07417582 L46.5021687,3.07417582 C46.3910132,2.80929192 46.2419679,2.56217445 46.059759,2.34065934 C45.7008822,2.21666696 45.32493,2.14992575 44.9455422,2.14285714 L39.5301205,2.14285714 L38.5551807,3.07417582 Z" id="Shape" fill-rule="nonzero"></path>
                    <path d="M1.75325301,27.0659341 L1.4746988,26.3076923 C0.917590361,24.8076923 2.06457831,23.1510989 2.22843373,22.9285714 C2.49879518,22.5164835 11.6255422,8.74450549 13.9440964,5.49725275 C15.1880496,3.64390244 17.1818253,2.43746809 19.3922892,2.20054945 C19.5561446,2.20054945 33.8853012,2.25 35.5812048,2.08516484 C35.9826506,2.08516484 36.4004819,1.98626374 36.7773494,1.91208791 L38.1373494,1.64835165 L35.7860241,3.89835165 L21.1537349,3.89835165 C21.0226506,3.89835165 17.0163855,4.33516484 14.0342169,8.71978022 C12.3956627,11.1923077 8.38939759,17.1181319 2.19566265,26.3983516 L1.75325301,27.0659341 Z M19.4086747,3.02472527 C17.4599869,3.26492759 15.7095941,4.3406742 14.6077108,5.97527473 C12.2891566,9.18956044 2.99036145,23.2582418 2.90024096,23.3901099 C2.57459573,23.8435643 2.33821636,24.3555181 2.20385542,24.8983516 C7.99614458,16.2197802 11.7484337,10.6236264 13.3542169,8.24175824 C15.0926268,5.48286751 17.9176491,3.60024935 21.1209639,3.06593407 L35.4583133,3.06593407 L35.6385542,2.9010989 C33.7542169,3.07417582 19.5561446,3.02472527 19.4086747,3.02472527 Z" id="Shape" fill-rule="nonzero"></path>
                    <path d="M24.3489157,73.6236264 C22.7672564,73.6555113 21.1946967,73.3755179 19.72,72.7994505 L5.88240964,66.7582418 C5.73493976,66.6923077 3.64578313,65.3571429 3.48192771,58.9450549 L3.48192771,58.3186813 L4.05542169,58.5494505 C7.04578313,59.760989 14.4684337,62.728022 18.7368675,64.2362637 C20.8210603,64.9933813 23.017885,65.3891119 25.2337349,65.4065934 C26.1598236,65.4189036 27.0840308,65.3192893 27.986506,65.1098901 C28.3224096,65.043956 59.0371084,58.6483516 64.6409639,57.4368132 L65.1489157,57.3296703 L65.1489157,57.8489011 C64.9768675,64.5082418 62.8057831,65.1263736 62.56,65.1758242 L62.4780723,64.771978 L62.5763855,65.1758242 L62.4780723,64.771978 L62.5190361,65.1840659 C59.446747,65.9340659 32.5416867,72.271978 27.8554217,73.2527473 C26.7027019,73.499433 25.5274298,73.6237402 24.3489157,73.6236264 Z M4.31759036,59.5549451 C4.57975904,64.8379121 6.25108434,66.032967 6.26746988,66.0494505 L20.0559036,72.0741758 C22.5016797,72.9324708 25.1419432,73.0612664 27.6587952,72.4450549 C32.3614458,71.4725275 59.266506,65.1263736 62.3142169,64.4010989 L62.3715663,64.4010989 C62.3715663,64.4010989 64.0592771,63.8736264 64.2968675,58.3846154 C57.5542169,59.8269231 28.4780723,65.8846154 28.1749398,65.9505495 C27.2045122,66.1686633 26.2114834,66.2682833 25.2173494,66.2472527 C22.9064557,66.230129 20.6152976,65.8176515 18.4419277,65.0274725 C14.4192771,63.5934066 7.61108434,60.8736264 4.31759036,59.5549451 Z" id="Shape" fill-rule="nonzero"></path>
                    <path d="M24.193253,64.5 C23.18363,64.5326365 22.1733453,64.4608309 21.1783133,64.2857143 L3.48192771,57.6923077 L3.0313253,30.0989011 L21.3012048,34.6153846 L66.3614458,30.1483516 L65.2718072,57.1895604 L28.7238554,64.2857143 C28.56,64.2857143 26.3479518,64.5 24.193253,64.5 Z M4.29301205,57.1401099 L21.4077108,63.4615385 C23.5378313,63.9395604 28.56,63.4615385 28.6091566,63.4615385 L64.4771084,56.5054945 L65.4848193,31.0384615 L21.2438554,35.4395604 L21.1783133,35.4395604 L3.86698795,31.1538462 L4.29301205,57.1401099 Z" id="Shape" fill-rule="nonzero"></path>
                    <path d="M2.67903614,29.2747253 L2.55614458,29.1675824 C2.18606848,28.7374999 2.03480761,28.1592717 2.14650602,27.6016484 L2.14650602,27.4945055 L2.20385542,27.4120879 L15.1893976,7.54120879 C15.3204819,7.36813187 18.0486747,3.90659341 21.7436145,4.35989011 L60.700241,3.85714286 L60.8231325,3.97252747 C61.1073182,4.25576967 61.2671947,4.64151808 61.2671947,5.04395604 C61.2671947,5.446394 61.1073182,5.83214242 60.8231325,6.11538462 L43.8640964,25.978022 L43.700241,25.978022 L2.67903614,29.2747253 Z M2.95759036,27.7664835 C2.9412401,27.9868469 2.96910148,28.2082679 3.03951807,28.4175824 L43.4626506,25.1868132 L60.2086747,5.57142857 C60.467501,5.34945595 60.5234934,4.96924787 60.339759,4.68131868 L21.6780723,5.18406593 C18.4009639,4.78846154 15.8775904,7.99450549 15.853012,8.02747253 L2.95759036,27.7664835 Z" id="Shape" fill-rule="nonzero"></path>
                    <path d="M53.1874699,42.2884615 C52.9236328,42.1474399 52.6497943,42.0262305 52.3681928,41.9258242 C52.05719,41.8091514 51.736377,41.7208831 51.4096386,41.6620879 C51.0213492,41.5811202 50.6263661,41.5369708 50.2298795,41.5302198 C49.740498,41.4642857 49.2445622,41.4642857 48.7551807,41.5302198 L47.9359036,41.5302198 L46.92,41.9258242 C46.3865553,42.0745122 45.8681423,42.2731837 45.3715663,42.5192308 L43.6346988,43.3434066 L42.7744578,43.6813187 L41.7831325,44.0769231 C41.4637338,44.1936357 41.1347577,44.2818873 40.8,44.3406593 C40.4727513,44.3654195 40.1441162,44.3654195 39.8168675,44.3406593 C39.4981893,44.3736191 39.1769914,44.3736191 38.8583133,44.3406593 L37.973494,44.3406593 C37.3998053,44.2435607 36.8461037,44.0513914 36.3349398,43.771978 C35.6059773,43.3973751 34.9660135,42.8688486 34.4587952,42.2225275 C34.2974155,41.9868881 34.165347,41.7322432 34.0655422,41.4642857 C34.2701006,41.6771093 34.4891011,41.8753883 34.7209639,42.0576923 C35.3100581,42.5269111 35.9791077,42.8843816 36.6954217,43.1126374 C37.1760836,43.2441162 37.6720064,43.3106346 38.1701205,43.3104396 L39.8086747,43.3104396 C40.3681062,43.2248899 40.9172221,43.0812661 41.4472289,42.8818681 L42.266506,42.4532967 L43.0857831,42.0247253 L44.8881928,41.2005495 C45.5339337,40.9635448 46.2096544,40.819269 46.8954217,40.771978 C47.1979522,40.6976514 47.5042649,40.6398743 47.813012,40.5989011 L48.5339759,40.5989011 C48.8204891,40.5824266 49.1077037,40.5824266 49.3942169,40.5989011 L50.1151807,40.739011 C50.5712083,40.8141537 51.0132149,40.9586648 51.4260241,41.1675824 C51.7509453,41.2994263 52.0612348,41.4651669 52.3518072,41.6620879 C52.5356743,41.7933099 52.7108262,41.9364717 52.8761446,42.0906593 L53.1874699,42.2884615 Z" id="Shape" fill-rule="nonzero"></path>
                    <path d="M53.1874699,48.0082418 C52.9236328,47.8672201 52.6497943,47.7460108 52.3681928,47.6456044 C52.0583512,47.5253443 51.7371924,47.4369808 51.4096386,47.3818681 C50.9955488,47.3406589 50.5784271,47.3406589 50.1643373,47.3818681 C49.6722098,47.3159805 49.1735734,47.3159805 48.6814458,47.3818681 L47.8621687,47.3818681 L46.9118072,47.6456044 C46.3444752,47.7934225 45.7949965,48.0034729 45.273253,48.271978 L43.6346988,49.1620879 L42.7498795,49.5576923 L41.8240964,49.8214286 C41.5059024,49.9419582 41.176566,50.0303063 40.8409639,50.0851648 C40.5140764,50.1182147 40.1847188,50.1182147 39.8578313,50.0851648 C39.5396272,50.1263895 39.2174812,50.1263895 38.8992771,50.0851648 L38.0062651,50.0851648 C37.4320365,49.9948205 36.8776757,49.8052108 36.3677108,49.5247253 C35.6589022,49.133186 35.041555,48.5936412 34.5571084,47.9423077 C34.3836999,47.7058034 34.2405673,47.4482856 34.1310843,47.1758242 C34.3334316,47.3934605 34.5525903,47.5946386 34.786506,47.7774725 C35.3756003,48.2466913 36.0446499,48.6041619 36.7609639,48.8324176 C37.2169218,48.9886683 37.6901449,49.0883072 38.1701205,49.1291209 L39.8086747,49.1291209 C40.3673253,49.0397804 40.9160686,48.8962541 41.4472289,48.7005495 L42.266506,48.3708791 L43.0857831,47.9423077 L44.8881928,47.1181319 C45.5261872,46.8193897 46.2013655,46.6086943 46.8954217,46.4917582 C47.1980991,46.4201715 47.5044121,46.3651457 47.813012,46.3269231 L48.5339759,46.3269231 C48.8204886,46.3104306 49.1077042,46.3104306 49.3942169,46.3269231 L50.1151807,46.4587912 C50.5693319,46.5415645 51.0102735,46.6857274 51.4260241,46.8873626 C51.7496287,47.025325 52.0595927,47.1936511 52.3518072,47.3901099 C52.5375884,47.5187786 52.7129187,47.6620863 52.8761446,47.8186813 L53.1874699,48.0082418 Z" id="Shape" fill-rule="nonzero"></path>
                    <path d="M53.1874699,53.728022 C52.9237918,53.584344 52.6499598,53.4603828 52.3681928,53.3571429 C52.0671514,53.2443269 51.7575526,53.1561286 51.4424096,53.0934066 C51.0279563,53.0604338 50.6115618,53.0604338 50.1971084,53.0934066 C49.7072151,53.0357103 49.212303,53.0357103 48.7224096,53.0934066 L47.9031325,53.0934066 L46.92,53.3571429 C46.3534668,53.4964099 45.8039523,53.698182 45.2814458,53.9587912 L43.6428916,54.782967 L42.7580723,55.1785714 L41.7831325,55.5082418 C41.4637338,55.6249544 41.1347577,55.7132059 40.8,55.771978 C40.4731126,55.8050279 40.1437549,55.8050279 39.8168675,55.771978 C39.4986634,55.8132027 39.1765174,55.8132027 38.8583133,55.771978 L38.0390361,55.771978 C37.4648076,55.6816337 36.9104468,55.492024 36.4004819,55.2115385 C35.671569,54.8332447 35.0317969,54.302066 34.5243373,53.6538462 C34.3405928,53.4332693 34.18635,53.1894384 34.0655422,52.9285714 C34.2679911,53.1435832 34.4871594,53.3420141 34.7209639,53.521978 C35.3096312,53.9938142 35.9786605,54.3540666 36.6954217,54.5851648 C37.1528357,54.729977 37.6259988,54.8185337 38.1045783,54.8489011 L39.7431325,54.8489011 C40.3017832,54.7595606 40.8505264,54.6160343 41.3816867,54.4203297 L42.2009639,54.0906593 L43.020241,53.6538462 L44.8226506,52.8296703 C45.4851037,52.5491342 46.1824252,52.3605912 46.8954217,52.2692308 C47.197267,52.1936594 47.5038219,52.1385901 47.813012,52.1043956 L48.5339759,52.1043956 C48.8204886,52.0879031 49.1077042,52.0879031 49.3942169,52.1043956 L50.1151807,52.2362637 C50.5702903,52.315174 51.0117557,52.4595082 51.4260241,52.6648352 C51.747853,52.8032711 52.0575387,52.9686891 52.3518072,53.1593407 C52.5356743,53.2905626 52.7108262,53.4337244 52.8761446,53.5879121 L53.1874699,53.728022 Z" id="Shape" fill-rule="nonzero"></path>
                </g>
            </g>
        </g>
    </g>
</svg>