<?xml version="1.0" encoding="UTF-8"?>
<svg width="23px" height="21px" viewBox="0 0 23 21" version="1.1" xmlns="http://www.w3.org/2000/svg" xmlns:xlink="http://www.w3.org/1999/xlink">
    <!-- Generator: Sketch 52.6 (67491) - http://www.bohemiancoding.com/sketch -->
    <title>Group 3 Copy 17</title>
    <desc>Created with Sketch.</desc>
    <defs>
        <polygon id="path-1" points="0 0 23 0 23 21 0 21"></polygon>
    </defs>
    <g id="Page-1" stroke="none" stroke-width="1" fill="none" fill-rule="evenodd">
        <g id="5_no_facturable" transform="translate(-291.000000, -801.000000)">
            <g id="Group-3-Copy-17" transform="translate(291.000000, 801.000000)">
                <mask id="mask-2" fill="white">
                    <use xlink:href="#path-1"></use>
                </mask>
                <g id="Clip-2"></g>
                <path d="M13.1684042,5.56985112 L12.359934,12.6221502 C12.3081827,13.1320661 11.9712243,13.4470142 11.4997125,13.4470142 C11.0328008,13.4470142 10.6958424,13.1274515 10.6429411,12.6221502 L9.83562089,5.56754381 C9.7838696,5.02186453 10.0759769,4.61000934 10.5831396,4.61000934 L12.4151354,4.61000934 C12.918848,4.61462396 13.2201555,5.02417184 13.1684042,5.56985112 Z M13.1281532,16.3196176 C13.1281532,17.2240839 12.4346859,17.9151239 11.4997125,17.9151239 C10.5670392,17.9151239 9.87472187,17.2240839 9.87472187,16.3196176 L9.87472187,16.2838543 C9.87472187,15.3851563 10.5670392,14.6883481 11.4997125,14.6883481 C12.4346859,14.6883481 13.1281532,15.3805417 13.1281532,16.2838543 L13.1281532,16.3196176 Z M22.3479337,15.0425205 L14.799145,1.91045432 C14.1148779,0.730264242 12.8578964,0 11.4951124,0 C10.1357784,0 8.87879697,0.730264242 8.19797995,1.91045432 L0.508887722,15.2674834 C-0.169629241,16.4511344 -0.169629241,17.9058946 0.508887722,19.0895457 C1.18970474,20.2720431 2.4478362,21 3.81062027,21 L19.1911048,21 C21.2945074,21 23,19.2902818 23,17.1790914 C23,16.3876833 22.760794,15.6504972 22.3479337,15.0425205 Z" id="Fill-1" fill="#F19700" mask="url(#mask-2)"></path>
            </g>
        </g>
    </g>
</svg>