<?xml version="1.0" encoding="UTF-8"?>
<svg width="62px" height="67px" viewBox="0 0 62 67" version="1.1" xmlns="http://www.w3.org/2000/svg" xmlns:xlink="http://www.w3.org/1999/xlink">
    <!-- Generator: Sketch 48.2 (47327) - http://www.bohemiancoding.com/sketch -->
    <title>Page 1</title>
    <desc>Created with Sketch.</desc>
    <defs>
        <polygon id="path-1" points="6.60432042e-05 0.00025 61.99975 0.00025 61.99975 67 6.60432042e-05 67"></polygon>
    </defs>
    <g id="12" stroke="none" stroke-width="1" fill="none" fill-rule="evenodd" transform="translate(-1220.000000, -632.000000)">
        <g id="Page-1" transform="translate(1220.000000, 632.000000)">
            <mask id="mask-2" fill="white">
                <use xlink:href="#path-1"></use>
            </mask>
            <g id="Clip-2"></g>
            <path d="M11.545,10.72 L50.468,10.72 L50.468,3.242 L11.545,3.242 L11.545,10.72 Z M11.549,63.746 L50.47,63.746 L50.47,36.314 L11.549,36.314 L11.549,63.746 Z M53.464,41.797 C53.971,41.797 54.4,41.798 54.83,41.797 C57.285,41.786 59.011,39.964 59.016,37.323 C59.028,31.025 59.028,24.726 59.016,18.428 C59.012,15.78 57.301,13.966 54.831,13.966 C38.966,13.962 23.1,13.963 7.235,13.965 C4.633,13.966 2.994,15.736 2.992,18.547 C2.986,24.801 2.988,31.055 2.994,37.309 C2.994,37.705 3.007,38.115 3.099,38.495 C3.701,40.969 5.704,42.215 8.528,41.699 C8.528,39.491 8.525,37.275 8.529,35.059 C8.531,33.642 9.059,33.06 10.356,33.06 C24.115,33.058 37.873,33.058 51.631,33.06 C52.924,33.06 53.463,33.652 53.464,35.053 C53.465,37.269 53.464,39.485 53.464,41.797 Z M8.528,45.054 C7.574,44.99 6.683,45.002 5.814,44.861 C2.619,44.345 0.074,41.356 0.043,37.897 C-0.015,31.178 -0.017,24.458 0.054,17.739 C0.093,14.096 3.146,10.923 6.535,10.79 C7.17,10.765 7.806,10.786 8.528,10.786 L8.528,9.926 C8.528,7.287 8.525,4.648 8.529,2.009 C8.531,0.545 9.038,0.001 10.395,0.001 C24.133,-7.10548157e-15 37.869,-7.10548157e-15 51.607,0.001 C52.953,0.001 53.463,0.556 53.464,2.019 C53.465,4.901 53.464,7.783 53.464,10.77 C53.92,10.77 54.344,10.769 54.768,10.77 C58.977,10.781 61.986,14 61.993,18.527 C62.002,24.759 62.002,30.991 61.993,37.222 C61.987,41.741 58.961,44.984 54.768,44.99 C54.359,44.991 53.949,44.99 53.464,44.99 L53.464,45.813 C53.464,52.199 53.465,58.587 53.464,64.973 C53.464,66.441 52.957,66.999 51.61,66.999 C37.873,67.001 24.136,67 10.399,66.999 C9.035,66.999 8.529,66.456 8.529,64.991 C8.527,58.649 8.528,52.306 8.528,45.964 L8.528,45.054 Z" id="Fill-1" fill="#008994" mask="url(#mask-2)"></path>
            <path d="M52.3836,21.9997 C52.3686,21.4657 51.9606,21.0397 51.4716,21.0487 C50.9576,21.0587 50.5586,21.5327 50.5896,22.0967 C50.6176,22.6227 51.0506,23.0447 51.5306,23.0167 C52.0176,22.9867 52.3986,22.5337 52.3836,21.9997 M55.3626,22.0157 C55.3696,24.3297 53.6266,26.2147 51.4836,26.2137 C49.3416,26.2127 47.5986,24.3247 47.6086,22.0127 C47.6166,19.7247 49.3346,17.8677 51.4566,17.8517 C53.6046,17.8347 55.3576,19.7037 55.3626,22.0157" id="Fill-3" fill="#008994" mask="url(#mask-2)"></path>
            <path d="M31.014,51.9479 C26.513,51.9479 22.011,51.9519 17.51,51.9449 C16.306,51.9429 15.579,50.9989 15.903,49.8899 C16.062,49.3419 16.4,48.9679 16.924,48.8389 C17.201,48.7699 17.496,48.7569 17.783,48.7569 C26.6,48.7529 35.417,48.7529 44.234,48.7569 C44.501,48.7569 44.775,48.7649 45.032,48.8289 C45.76,49.0099 46.218,49.7149 46.155,50.5069 C46.095,51.2659 45.55,51.8579 44.828,51.9309 C44.602,51.9539 44.374,51.9479 44.147,51.9479 C39.769,51.9479 35.392,51.9479 31.014,51.9479" id="Fill-4" fill="#008994" mask="url(#mask-2)"></path>
            <path d="M31.0355,41.2472 C35.5165,41.2472 39.9975,41.2522 44.4785,41.2422 C45.1065,41.2412 45.6175,41.4292 45.9495,42.0232 C46.5065,43.0202 45.9315,44.2572 44.8315,44.4232 C44.6285,44.4532 44.4195,44.4412 44.2135,44.4412 C35.3955,44.4412 26.5775,44.4412 17.7605,44.4412 C17.5945,44.4412 17.4285,44.4502 17.2645,44.4352 C16.4295,44.3572 15.8165,43.6702 15.8225,42.8252 C15.8275,41.9492 16.4725,41.2582 17.3445,41.2532 C19.5545,41.2392 21.7635,41.2472 23.9735,41.2472 L31.0355,41.2472 Z" id="Fill-5" fill="#008994" mask="url(#mask-2)"></path>
            <path d="M27.0047,55.6398 C30.1837,55.6398 33.3627,55.6348 36.5427,55.6418 C37.7637,55.6448 38.5267,56.7538 38.0697,57.8608 C37.7787,58.5658 37.2347,58.8398 36.5237,58.8378 C32.4147,58.8278 28.3067,58.8338 24.1987,58.8338 C21.9897,58.8338 19.7807,58.8358 17.5717,58.8328 C16.5087,58.8308 15.8157,58.1898 15.8227,57.2278 C15.8297,56.2668 16.5217,55.6408 17.5907,55.6398 C20.7297,55.6388 23.8667,55.6398 27.0047,55.6398" id="Fill-6" fill="#008994" mask="url(#mask-2)"></path>
        </g>
    </g>
</svg>