<?xml version="1.0" encoding="UTF-8"?>
<svg width="13px" height="17px" viewBox="0 0 13 17" version="1.1" xmlns="http://www.w3.org/2000/svg" xmlns:xlink="http://www.w3.org/1999/xlink">
    <!-- Generator: Sketch 52.6 (67491) - http://www.bohemiancoding.com/sketch -->
    <title>Group 3 Copy 40</title>
    <desc>Created with Sketch.</desc>
    <g id="Page-1" stroke="none" stroke-width="1" fill="none" fill-rule="evenodd">
        <g id="1_polizas" transform="translate(-2476.000000, -655.000000)" fill="#008894">
            <g id="Group-3-Copy-40" transform="translate(2476.000000, 655.000000)">
                <path d="M10.3978476,5.86103333 L6.04099048,3.27703333 L7.17675238,1.35603333 L11.5336095,3.94003333 L10.3978476,5.86103333 Z M5.49537143,14.1505571 L4.45918095,14.4314619 L1.44613333,12.5622714 L1.18465714,11.4758905 L5.45408571,4.25736667 L9.81984762,6.8389381 L5.49537143,14.1505571 Z M12.6167524,3.23736667 L7.26175238,0.0705095238 C6.98570476,-0.0776333333 6.64084762,0.014652381 6.47651429,0.281795238 L0.0804666667,11.0978429 C0.00760952381,11.2257476 -0.0166761905,11.3755095 0.0116571429,11.5204143 L1.07132381,15.9193667 C1.10694286,16.0667 1.20489524,16.1921762 1.33846667,16.2642238 C1.46960952,16.3362714 1.62260952,16.3524619 1.76589524,16.3127952 L1.77560952,16.3103667 L6.01751429,15.1818905 C6.16322857,15.1495095 6.28951429,15.0604619 6.3680381,14.9341762 L12.8191333,4.02503333 C12.9769905,3.75060476 12.8863238,3.4017 12.6167524,3.23736667 Z" id="Fill-1"></path>
            </g>
        </g>
    </g>
</svg>