<?xml version="1.0" encoding="UTF-8"?>
<svg width="17px" height="12px" viewBox="0 0 17 12" version="1.1" xmlns="http://www.w3.org/2000/svg" xmlns:xlink="http://www.w3.org/1999/xlink">
    <!-- Generator: Sketch 52.6 (67491) - http://www.bohemiancoding.com/sketch -->
    <title>Group 3</title>
    <desc>Created with Sketch.</desc>
    <g id="Page-1" stroke="none" stroke-width="1" fill="none" fill-rule="evenodd">
        <g id="3" transform="translate(-546.000000, -209.000000)" fill="#008794">
            <g id="Group-3" transform="translate(546.000000, 209.000000)">
                <path d="M1.6669,0.9932 L7.3259,5.4762 C7.5829,5.6782 7.9379,5.7682 8.2789,5.7522 C8.6239,5.7682 8.9769,5.6792 9.2349,5.4762 L14.8959,0.9932 C15.3459,0.6352 15.2449,0.3432 14.6699,0.3432 L1.8929,0.3432 C1.3169,0.3432 1.2159,0.6352 1.6669,0.9932" id="Fill-6"></path>
                <path d="M15.3036,2.1748 L9.1166,6.8708 C8.8856,7.0428 8.5826,7.1298 8.2826,7.1258 C7.9786,7.1298 7.6756,7.0428 7.4446,6.8708 L1.2586,2.1748 C0.7996,1.8268 0.4246,2.0138 0.4246,2.5898 L0.4246,10.2928 C0.4246,10.8688 0.8956,11.3428 1.4716,11.3428 L15.0906,11.3428 C15.6666,11.3428 16.1376,10.8688 16.1376,10.2928 L16.1376,2.5898 C16.1376,2.0138 15.7616,1.8268 15.3036,2.1748" id="Fill-8"></path>
            </g>
        </g>
    </g>
</svg>