<?xml version="1.0" encoding="UTF-8"?>
<svg width="60px" height="60px" viewBox="0 0 60 60" version="1.1" xmlns="http://www.w3.org/2000/svg" xmlns:xlink="http://www.w3.org/1999/xlink">
    <!-- Generator: Sketch 52.6 (67491) - http://www.bohemiancoding.com/sketch -->
    <title>Group 6 Copy</title>
    <desc>Created with Sketch.</desc>
    <defs>
        <polygon id="path-1" points="0.00204166667 0.1325 59.85875 0.1325 59.85875 59.9994167 0.00204166667 59.9994167"></polygon>
    </defs>
    <g id="Page-1" stroke="none" stroke-width="1" fill="none" fill-rule="evenodd">
        <g id="5_polizas" transform="translate(-1250.000000, -537.000000)">
            <g id="Group-6-Copy" transform="translate(1250.000000, 537.000000)">
                <g id="Group-3">
                    <mask id="mask-2" fill="white">
                        <use xlink:href="#path-1"></use>
                    </mask>
                    <g id="Clip-2"></g>
                    <path d="M59.8607917,30.06275 C59.8607917,46.5885833 46.4557917,59.9994167 29.9299583,59.9994167 C13.4012083,59.9994167 0.00204166667,46.5885833 0.00204166667,30.06275 C0.00204166667,13.5310833 13.4012083,0.129 29.9299583,0.129 C46.4557917,0.129 59.8607917,13.5310833 59.8607917,30.06275" id="Fill-1" fill="#008894" mask="url(#mask-2)"></path>
                </g>
                <path d="M19.4097565,45.3896136 C19.7100502,45.9416704 20.1720404,46.25 20.683117,46.25 C21.1220077,46.25 21.532024,46.0297646 21.8583046,45.6157219 L44.5246986,17.6223294 C44.8914033,17.1730491 45.0646497,16.6562299 44.9780265,16.1805214 C44.92894,15.7811611 44.7037198,15.4287844 44.3601146,15.1968031 C43.612268,14.7005392 42.4630674,15.1498195 41.2878798,16.4653592 L22.4329049,35.6522707 C21.979577,36.0751227 21.4887124,36.524403 20.8852377,36.524403 C20.5878315,36.524403 20.2846505,36.4274994 19.9612573,36.2278193 L14.0679949,31.9963624 C13.4876197,31.4824797 12.8523832,31.4912891 12.6040635,31.9405694 C12.4221548,32.2635814 12.482791,32.7392899 12.7542103,33.2061891 L19.4097565,45.3896136 Z" id="Fill-4" fill="#FFFFFF"></path>
            </g>
        </g>
    </g>
</svg>