<?xml version="1.0" encoding="UTF-8"?>
<svg width="15px" height="15px" viewBox="0 0 15 15" version="1.1" xmlns="http://www.w3.org/2000/svg" xmlns:xlink="http://www.w3.org/1999/xlink">
    <!-- Generator: Sketch 52.6 (67491) - http://www.bohemiancoding.com/sketch -->
    <title>Group 3 Copy 3</title>
    <desc>Created with Sketch.</desc>
    <defs>
        <polygon id="path-1" points="0.00014953242 0.0004 14.992 0.0004 14.992 15 0.00014953242 15"></polygon>
    </defs>
    <g id="Page-1" stroke="none" stroke-width="1" fill="none" fill-rule="evenodd">
        <g id="3_polizas" transform="translate(-2470.000000, -544.000000)">
            <g id="Group-3-Copy-3" transform="translate(2470.000000, 544.000000)">
                <mask id="mask-2" fill="white">
                    <use xlink:href="#path-1"></use>
                </mask>
                <g id="Clip-2"></g>
                <path d="M9.91969414,7.5134 L14.7000045,2.7334 C15.1001979,2.3314 15.1001979,1.6794 14.7000045,1.2744 L13.7235325,0.3004 C13.3243396,-0.0996 12.6720243,-0.0996 12.2668285,0.3004 L7.48651818,5.0804 L2.73422138,0.3304 C2.33402797,-0.0706 1.68071222,-0.0696 1.27351542,0.3294 L0.301045424,1.3024 C-0.101148958,1.7034 -0.0991479907,2.3564 0.301045424,2.7634 L5.05334222,7.5134 L0.307048325,12.2544 C-0.0951460566,12.6554 -0.0951460566,13.3074 0.307048325,13.7144 L1.27851784,14.6864 C1.68071222,15.0864 2.332027,15.0864 2.74022428,14.6864 L7.48651818,9.9444 L12.2438174,14.7004 C12.6440108,15.1004 13.2963261,15.1004 13.7035229,14.7004 L14.6759929,13.7264 C15.0771868,13.3254 15.0771868,12.6724 14.6759929,12.2664 L9.91969414,7.5134 Z" id="Fill-1" fill="#008894" mask="url(#mask-2)"></path>
            </g>
        </g>
    </g>
</svg>