<?xml version="1.0" encoding="UTF-8"?>
<svg width="62px" height="19px" viewBox="0 0 62 19" version="1.1" xmlns="http://www.w3.org/2000/svg" xmlns:xlink="http://www.w3.org/1999/xlink">
    <!-- Generator: Sketch 52.6 (67491) - http://www.bohemiancoding.com/sketch -->
    <title>Group 11</title>
    <desc>Created with Sketch.</desc>
    <g id="Page-1" stroke="none" stroke-width="1" fill="none" fill-rule="evenodd">
        <g id="1_consola_envio-copy-2" transform="translate(-296.000000, -300.000000)">
            <g id="Group-11" transform="translate(296.000000, 300.000000)">
                <rect id="Rectangle-Copy-19" stroke="#D0021B" fill="#FFFFFF" fill-rule="nonzero" x="0.5" y="0.5" width="61" height="18" rx="5"></rect>
                <path d="M7.15039062,9.30273438 L7.15039062,13 L5.99609375,13 L5.99609375,4.47460938 L8.9140625,4.47460938 C9.84766092,4.47460938 10.5605444,4.68163855 11.0527344,5.09570312 C11.5449243,5.5097677 11.7910156,6.11132418 11.7910156,6.90039062 C11.7910156,7.33789281 11.676759,7.71874838 11.4482422,8.04296875 C11.2197254,8.36718912 10.8867209,8.62499904 10.4492188,8.81640625 C10.9179711,8.96875076 11.2548818,9.2158186 11.4599609,9.55761719 C11.6650401,9.89941577 11.7675781,10.3222631 11.7675781,10.8261719 L11.7675781,11.6289062 C11.7675781,11.8945326 11.7968747,12.1328114 11.8554688,12.34375 C11.9140628,12.5546886 12.0156243,12.7265618 12.1601562,12.859375 L12.1601562,13 L10.9707031,13 C10.8183586,12.8671868 10.7207033,12.6718763 10.6777344,12.4140625 C10.6347654,12.1562487 10.6132812,11.8906264 10.6132812,11.6171875 L10.6132812,10.8378906 C10.6132812,10.3769508 10.478517,10.0058608 10.2089844,9.72460938 C9.93945178,9.44335797 9.57812727,9.30273438 9.125,9.30273438 L7.15039062,9.30273438 Z M7.15039062,8.39453125 L8.796875,8.39453125 C9.44922201,8.39453125 9.91894388,8.27050905 10.2060547,8.02246094 C10.4931655,7.77441282 10.6367188,7.39648691 10.6367188,6.88867188 C10.6367188,6.40820072 10.4970717,6.03613413 10.2177734,5.77246094 C9.93847517,5.50878774 9.5039092,5.37695312 8.9140625,5.37695312 L7.15039062,5.37695312 L7.15039062,8.39453125 Z M16.0976562,13.1230469 C15.1874954,13.1230469 14.4775416,12.8320342 13.9677734,12.25 C13.4580053,11.6679658 13.203125,10.9023485 13.203125,9.953125 L13.203125,9.6953125 C13.203125,8.7851517 13.4658177,8.03222954 13.9912109,7.43652344 C14.5166042,6.84081733 15.1581993,6.54296875 15.9160156,6.54296875 C16.7636761,6.54296875 17.3994119,6.80663799 17.8232422,7.33398438 C18.2470724,7.86133076 18.4589844,8.56249562 18.4589844,9.4375 L18.4589844,10.046875 L14.4042969,10.046875 L14.3867188,10.0761719 C14.3867188,10.7128938 14.5273423,11.2294902 14.8085938,11.6259766 C15.0898452,12.0224629 15.5195284,12.2207031 16.0976562,12.2207031 C16.4882832,12.2207031 16.8310532,12.1650396 17.1259766,12.0537109 C17.4208999,11.9423823 17.6738271,11.7890635 17.8847656,11.59375 L18.3359375,12.34375 C18.1093739,12.5625011 17.8105487,12.7470696 17.4394531,12.8974609 C17.0683575,13.0478523 16.6210964,13.1230469 16.0976562,13.1230469 Z M15.9160156,7.45117188 C15.5136699,7.45117188 15.1806654,7.60644376 14.9169922,7.91699219 C14.653319,8.22754062 14.4921878,8.62499758 14.4335938,9.109375 L14.4453125,9.13867188 L17.3046875,9.13867188 L17.3046875,9.04492188 C17.3046875,8.58398207 17.1914074,8.2031265 16.9648438,7.90234375 C16.7382801,7.601561 16.3886742,7.45117188 15.9160156,7.45117188 Z M23.6503906,13 C23.6113279,12.8085928 23.5810548,12.6396492 23.5595703,12.4931641 C23.5380858,12.346679 23.5253906,12.1992195 23.5214844,12.0507812 C23.3066396,12.3554703 23.0263689,12.6103505 22.6806641,12.8154297 C22.3349592,13.0205088 21.9628926,13.1230469 21.5644531,13.1230469 C20.9042936,13.1230469 20.4013689,12.9541033 20.0556641,12.6162109 C19.7099592,12.2783186 19.5371094,11.812503 19.5371094,11.21875 C19.5371094,10.6132782 19.7822241,10.1396501 20.2724609,9.79785156 C20.7626978,9.45605298 21.4277302,9.28515625 22.2675781,9.28515625 L23.5214844,9.28515625 L23.5214844,8.65820312 C23.5214844,8.28710752 23.4082043,7.99316515 23.1816406,7.77636719 C22.955077,7.55956923 22.6347677,7.45117188 22.2207031,7.45117188 C21.8457012,7.45117188 21.5429699,7.54492094 21.3125,7.73242188 C21.0820301,7.91992281 20.9667969,8.14452994 20.9667969,8.40625 L19.8710938,8.41796875 L19.859375,8.3828125 C19.8320311,7.9218727 20.0478493,7.50000191 20.5068359,7.1171875 C20.9658226,6.73437309 21.5585901,6.54296875 22.2851562,6.54296875 C23.0039098,6.54296875 23.5820291,6.72558411 24.0195312,7.09082031 C24.4570334,7.45605651 24.6757812,7.98241844 24.6757812,8.66992188 L24.6757812,11.7226562 C24.6757812,11.9492199 24.6874999,12.1679677 24.7109375,12.3789062 C24.7343751,12.5898448 24.7773434,12.796874 24.8398438,13 L23.6503906,13 Z M21.734375,12.15625 C22.1523458,12.15625 22.5292952,12.0488292 22.8652344,11.8339844 C23.2011736,11.6191396 23.4199214,11.3730483 23.5214844,11.0957031 L23.5214844,10.0644531 L22.2265625,10.0644531 C21.7617164,10.0644531 21.3896498,10.1816395 21.1103516,10.4160156 C20.8310533,10.6503918 20.6914062,10.9257797 20.6914062,11.2421875 C20.6914062,11.5234389 20.779296,11.7460929 20.9550781,11.9101562 C21.1308603,12.0742196 21.3906233,12.15625 21.734375,12.15625 Z M27.3828125,6.66015625 L27.4648438,7.60351562 C27.6757823,7.26757645 27.9404281,7.00683687 28.2587891,6.82128906 C28.57715,6.63574126 28.9394511,6.54296875 29.3457031,6.54296875 C30.0293003,6.54296875 30.5585919,6.74316206 30.9335938,7.14355469 C31.3085956,7.54394731 31.4960938,8.1621052 31.4960938,8.99804688 L31.4960938,13 L30.3417969,13 L30.3417969,9.02148438 C30.3417969,8.46288783 30.2314464,8.06640742 30.0107422,7.83203125 C29.790038,7.59765508 29.4531273,7.48046875 29,7.48046875 C28.6445295,7.48046875 28.3427747,7.5517571 28.0947266,7.69433594 C27.8466784,7.83691478 27.6503913,8.03710809 27.5058594,8.29492188 L27.5058594,13 L26.3515625,13 L26.3515625,6.66015625 L27.3828125,6.66015625 Z M37.1972656,12.0625 C36.9980459,12.4023454 36.7421891,12.6640616 36.4296875,12.8476562 C36.1171859,13.0312509 35.7558614,13.1230469 35.3457031,13.1230469 C34.6542934,13.1230469 34.1152363,12.902346 33.7285156,12.4609375 C33.3417949,12.019529 33.1484375,11.3320359 33.1484375,10.3984375 L33.1484375,6.66015625 L34.3027344,6.66015625 L34.3027344,10.4101562 C34.3027344,11.0859409 34.4023428,11.55078 34.6015625,11.8046875 C34.8007822,12.058595 35.111326,12.1855469 35.5332031,12.1855469 C35.9433614,12.1855469 36.2822252,12.1025399 36.5498047,11.9365234 C36.8173842,11.770507 37.0195306,11.5351578 37.15625,11.2304688 L37.15625,6.66015625 L38.3105469,6.66015625 L38.3105469,13 L37.2734375,13 L37.1972656,12.0625 Z M39.7285156,9.94726562 C39.7285156,8.92772928 39.9462869,8.10547187 40.3818359,7.48046875 C40.817385,6.85546563 41.4277304,6.54296875 42.2128906,6.54296875 C42.5839862,6.54296875 42.9130845,6.61132744 43.2001953,6.74804688 C43.4873061,6.88476631 43.7324209,7.08398307 43.9355469,7.34570312 L43.9355469,3.859375 L45.0898438,3.859375 L45.0898438,13 L44.2050781,13 L44.0292969,12.1972656 C43.8222646,12.5019546 43.5664078,12.7324211 43.2617188,12.8886719 C42.9570297,13.0449227 42.6035176,13.1230469 42.2011719,13.1230469 C41.4277305,13.1230469 40.8222678,12.8427762 40.3847656,12.2822266 C39.9472634,11.7216769 39.7285156,10.9843796 39.7285156,10.0703125 L39.7285156,9.94726562 Z M40.8828125,10.0703125 C40.8828125,10.7109407 41.0136706,11.2236309 41.2753906,11.6083984 C41.5371107,11.993166 41.9433566,12.1855469 42.4941406,12.1855469 C42.8378923,12.1855469 43.126952,12.1074227 43.3613281,11.9511719 C43.5957043,11.7949211 43.7871086,11.5761733 43.9355469,11.2949219 L43.9355469,8.3359375 C43.7871086,8.07421744 43.5947277,7.86621171 43.3583984,7.71191406 C43.1220691,7.55761642 42.8378923,7.48046875 42.5058594,7.48046875 C41.9511691,7.48046875 41.5419935,7.70898209 41.2783203,8.16601562 C41.0146471,8.62304916 40.8828125,9.21679322 40.8828125,9.94726562 L40.8828125,10.0703125 Z M50.7089844,13 C50.6699217,12.8085928 50.6396485,12.6396492 50.6181641,12.4931641 C50.5966796,12.346679 50.5839844,12.1992195 50.5800781,12.0507812 C50.3652333,12.3554703 50.0849627,12.6103505 49.7392578,12.8154297 C49.393553,13.0205088 49.0214864,13.1230469 48.6230469,13.1230469 C47.9628873,13.1230469 47.4599627,12.9541033 47.1142578,12.6162109 C46.768553,12.2783186 46.5957031,11.812503 46.5957031,11.21875 C46.5957031,10.6132782 46.8408179,10.1396501 47.3310547,9.79785156 C47.8212915,9.45605298 48.4863239,9.28515625 49.3261719,9.28515625 L50.5800781,9.28515625 L50.5800781,8.65820312 C50.5800781,8.28710752 50.466798,7.99316515 50.2402344,7.77636719 C50.0136707,7.55956923 49.6933614,7.45117188 49.2792969,7.45117188 C48.904295,7.45117188 48.6015637,7.54492094 48.3710938,7.73242188 C48.1406238,7.91992281 48.0253906,8.14452994 48.0253906,8.40625 L46.9296875,8.41796875 L46.9179688,8.3828125 C46.8906249,7.9218727 47.106443,7.50000191 47.5654297,7.1171875 C48.0244164,6.73437309 48.6171839,6.54296875 49.34375,6.54296875 C50.0625036,6.54296875 50.6406228,6.72558411 51.078125,7.09082031 C51.5156272,7.45605651 51.734375,7.98241844 51.734375,8.66992188 L51.734375,11.7226562 C51.734375,11.9492199 51.7460936,12.1679677 51.7695312,12.3789062 C51.7929689,12.5898448 51.8359372,12.796874 51.8984375,13 L50.7089844,13 Z M48.7929688,12.15625 C49.2109396,12.15625 49.5878889,12.0488292 49.9238281,11.8339844 C50.2597673,11.6191396 50.4785151,11.3730483 50.5800781,11.0957031 L50.5800781,10.0644531 L49.2851562,10.0644531 C48.8203102,10.0644531 48.4482436,10.1816395 48.1689453,10.4160156 C47.889647,10.6503918 47.75,10.9257797 47.75,11.2421875 C47.75,11.5234389 47.8378897,11.7460929 48.0136719,11.9101562 C48.189454,12.0742196 48.449217,12.15625 48.7929688,12.15625 Z M56.4101562,7.6796875 L55.8183594,7.64453125 C55.5136704,7.64453125 55.256837,7.71679615 55.0478516,7.86132812 C54.8388661,8.0058601 54.6777349,8.20898307 54.5644531,8.47070312 L54.5644531,13 L53.4101562,13 L53.4101562,6.66015625 L54.4414062,6.66015625 L54.5527344,7.5859375 C54.7324228,7.25781086 54.9541002,7.00195404 55.2177734,6.81835938 C55.4814466,6.63476471 55.7851545,6.54296875 56.1289062,6.54296875 C56.2148442,6.54296875 56.2968746,6.54980462 56.375,6.56347656 C56.4531254,6.57714851 56.5175779,6.5917968 56.5683594,6.60742188 L56.4101562,7.6796875 Z" id="Reanudar-Copy" fill="#D0021B"></path>
            </g>
        </g>
    </g>
</svg>