<?xml version="1.0" encoding="UTF-8"?>
<svg width="33px" height="33px" viewBox="0 0 33 33" version="1.1" xmlns="http://www.w3.org/2000/svg" xmlns:xlink="http://www.w3.org/1999/xlink">
    <!-- Generator: Sketch 51.2 (57519) - http://www.bohemiancoding.com/sketch -->
    <title>Refrigeración</title>
    <desc>Created with Sketch.</desc>
    <defs></defs>
    <g id="Page-1" stroke="none" stroke-width="1" fill="none" fill-rule="evenodd" opacity="0.498604911">
        <g id="5" transform="translate(-564.000000, -811.000000)" fill-rule="nonzero">
            <g id="Refrigeración" transform="translate(564.000000, 811.000000)">
                <g>
                    <circle id="Oval" fill="#338A9C" cx="16.5" cy="16.5" r="16.5"></circle>
                    <path d="M26.07,10.527 C25.8043728,10.3857284 25.5286133,10.2643942 25.245,10.164 C24.9345919,10.0473885 24.6142926,9.95903011 24.288,9.9 C23.8965662,9.82170311 23.4990738,9.77753728 23.1,9.768 C22.6068046,9.70822404 22.1081954,9.70822404 21.615,9.768 L20.823,9.768 L19.8,10.164 C19.2643352,10.3093233 18.7447028,10.5083315 18.249,10.758 L16.5,11.55 L15.609,11.946 L14.652,12.309 C14.3312757,12.4286885 13.9997344,12.5170995 13.662,12.573 C13.3327469,12.6044 13.0012531,12.6044 12.672,12.573 C12.3539393,12.6076203 12.0330607,12.6076203 11.715,12.573 L10.791,12.573 C10.2140168,12.4775106 9.65661196,12.2879929 9.141,12.012 C8.41020708,11.635603 7.76875039,11.1066826 7.26,10.461 C7.09742173,10.2251679 6.96442597,9.97025937 6.864,9.702 C7.06796033,9.91712693 7.28865142,10.1157489 7.524,10.296 C8.11512804,10.7642022 8.78586801,11.1219302 9.504,11.352 C9.9883764,11.4818322 10.4875279,11.5483857 10.989,11.55 L12.639,11.55 C13.2018341,11.4619194 13.754541,11.3182156 14.289,11.121 L15.114,10.692 L15.972,10.263 L17.787,9.471 C18.4352953,9.23686565 19.1125754,9.09252726 19.8,9.042 C20.1043693,8.96831472 20.4129392,8.91321295 20.724,8.877 L21.45,8.877 C21.7356383,8.85665736 22.0223617,8.85665736 22.308,8.877 L23.034,9.009 C23.4919642,9.08929694 23.9363315,9.2337163 24.354,9.438 C24.676213,9.57497353 24.985458,9.74064048 25.278,9.933 C25.46445,10.0626355 25.6409423,10.2060355 25.806,10.362 L26.07,10.527 Z" id="Shape" fill="#FFFFFF"></path>
                    <path d="M26.07,16.236 C25.8043728,16.0947284 25.5286133,15.9733942 25.245,15.873 C24.9350606,15.7549521 24.6146267,15.6665566 24.288,15.609 C23.8709474,15.5692 23.4510526,15.5692 23.034,15.609 C22.5408046,15.549224 22.0421954,15.549224 21.549,15.609 L20.757,15.609 L19.8,15.873 C19.2291602,16.0223922 18.6759949,16.2325949 18.15,16.5 L16.5,17.391 L15.609,17.787 L14.685,18.051 C14.3637998,18.1691913 14.0324016,18.2575641 13.695,18.315 C13.3657104,18.3456213 13.0342896,18.3456213 12.705,18.315 C12.38703,18.3512534 12.06597,18.3512534 11.748,18.315 L10.824,18.315 C10.2468704,18.2200947 9.68937198,18.0305453 9.174,17.754 C8.46380149,17.3602785 7.84518925,16.8203988 7.359,16.17 C7.18490703,15.9358806 7.0407879,15.6809006 6.93,15.411 C7.13366492,15.6264299 7.35438115,15.8250745 7.59,16.005 C8.18072857,16.4738117 8.85158438,16.8316015 9.57,17.061 C10.0287393,17.2188764 10.5054521,17.3186536 10.989,17.358 L12.639,17.358 C13.2019681,17.2705653 13.7547386,17.126845 14.289,16.929 L15.114,16.599 L15.972,16.17 L17.787,15.378 C18.4257184,15.0767676 19.1031968,14.8657497 19.8,14.751 C20.1044987,14.6779319 20.4130314,14.6228367 20.724,14.586 L21.45,14.586 C21.7356343,14.5655453 22.0223657,14.5655453 22.308,14.586 L23.034,14.718 C23.4915489,14.7999593 23.9356901,14.9443052 24.354,15.147 C24.6764482,15.2834824 24.9857366,15.4491727 25.278,15.642 C25.4648344,15.7711237 25.6413646,15.9145545 25.806,16.071 L26.07,16.236 Z" id="Shape" fill="#FFFFFF"></path>
                    <path d="M26.07,21.945 C25.8043728,21.8037284 25.5286133,21.6823942 25.245,21.582 C24.9454933,21.4666086 24.6362596,21.3782561 24.321,21.318 C23.9039015,21.279175 23.4840985,21.279175 23.067,21.318 C22.5738442,21.257573 22.0751558,21.257573 21.582,21.318 L20.79,21.318 L19.8,21.582 C19.2300899,21.7195895 18.6768362,21.9187608 18.15,22.176 L16.5,22.968 L15.609,23.364 L14.652,23.727 C14.3307998,23.8451913 13.9994016,23.9335641 13.662,23.991 C13.3327469,24.0224 13.0012531,24.0224 12.672,23.991 C12.35403,24.0272534 12.03297,24.0272534 11.715,23.991 L10.857,23.991 C10.2797224,23.8966864 9.72212865,23.7071046 9.207,23.43 C8.47620708,23.053603 7.83475039,22.5246826 7.326,21.879 C7.14270657,21.6569371 6.98753267,21.4130924 6.864,21.153 C7.06766492,21.3684299 7.28838115,21.5670745 7.524,21.747 C8.11472857,22.2158117 8.78558438,22.5736015 9.504,22.803 C9.96418306,22.9496591 10.4408629,23.0383437 10.923,23.067 L12.573,23.067 C13.1359681,22.9795653 13.6887386,22.835845 14.223,22.638 L15.048,22.308 L15.906,21.879 L17.721,21.021 C18.3839638,20.7365689 19.083946,20.5476849 19.8,20.46 C20.1043693,20.3863147 20.4129392,20.331213 20.724,20.295 L21.45,20.295 C21.7356343,20.2745453 22.0223657,20.2745453 22.308,20.295 L23.034,20.427 C23.4919642,20.5072969 23.9363315,20.6517163 24.354,20.856 C24.6765283,20.9923149 24.9858317,21.1580132 25.278,21.351 C25.4653347,21.4794553 25.6419164,21.6229279 25.806,21.78 L26.07,21.945 Z" id="Shape" fill="#FFFFFF"></path>
                </g>
            </g>
        </g>
    </g>
</svg>