<svg xmlns="http://www.w3.org/2000/svg" xmlns:xlink="http://www.w3.org/1999/xlink" viewBox="0 0 74 89.22"><defs><style>.cls-1,.cls-2{fill:none;}.cls-2{clip-rule:evenodd;}.cls-3{clip-path:url(#clip-path);}.cls-4{clip-path:url(#clip-path-2);}.cls-5{fill:#444;}.cls-6{clip-path:url(#clip-path-3);}.cls-7{fill:#fff;}.cls-8{clip-path:url(#clip-path-5);}.cls-9{clip-path:url(#clip-path-6);}</style><clipPath id="clip-path" transform="translate(-4471.45 -1109.99)"><rect class="cls-1" x="4485.83" y="1123.11" width="44.61" height="62.98"/></clipPath><clipPath id="clip-path-2" transform="translate(-4471.45 -1109.99)"><rect class="cls-1" x="1310.68" width="3589.76" height="2506.01"/></clipPath><clipPath id="clip-path-3" transform="translate(-4471.45 -1109.99)"><rect class="cls-1" x="4489.77" y="1134.92" width="36.74" height="15.74"/></clipPath><clipPath id="clip-path-5" transform="translate(-4471.45 -1109.99)"><path class="cls-2" d="M4490,1155.91v26.24h37v-26.24Zm31.45,3.94h1.85v-1.31h-1.85Zm-14.8,10.5h3.7v-2.63h-3.7Zm-7.4,0h3.7v-2.63h-3.7Zm14.8,0h3.7v-2.63H4514Zm0-5.25h3.7v-2.63H4514Zm-7.4,0h3.7v-2.63h-3.7Zm-7.4,0h3.7v-2.63h-3.7Zm-5.55,0h1.85v-2.63h-1.85Zm0,5.25h1.85v-2.63h-1.85Zm0,5.24h1.85V1173h-1.85Zm5.55,0h3.7V1173h-3.7Zm7.4,0h3.7V1173h-3.7Zm7.4,0h3.7V1173H4514Zm7.4,0h1.85V1173h-1.85Zm0-5.24h1.85v-2.63h-1.85Zm0-5.25h1.85v-2.63h-1.85Zm-7.4-5.25h3.7v-1.31H4514Zm-7.4,0h3.7v-1.31h-3.7Zm-7.4,0h3.7v-1.31h-3.7Zm-5.55,0h1.85v-1.31h-1.85Zm0,19.68h1.85v-1.31h-1.85Zm5.55,0h3.7v-1.31h-3.7Zm7.4,0h3.7v-1.31h-3.7Zm7.4,0h3.7v-1.31H4514Zm7.4,0h1.85v-1.31h-1.85Z"/></clipPath><clipPath id="clip-path-6" transform="translate(-4471.45 -1109.99)"><rect class="cls-1" width="5061.6" height="2506.01"/></clipPath></defs><title>asis_cal</title><g id="Capa_2" data-name="Capa 2"><g id="Capa_1-2" data-name="Capa 1"><g class="cls-3"><g class="cls-4"><rect class="cls-5" x="1.26" width="70.85" height="89.22"/></g></g><g class="cls-6"><g class="cls-4"><rect class="cls-7" x="5.2" y="11.81" width="62.98" height="41.99"/></g></g><g class="cls-8"><g class="cls-9"><rect class="cls-7" y="32.8" width="74" height="52.48"/></g></g></g></g></svg>