<svg xmlns="http://www.w3.org/2000/svg" viewBox="0 0 421 387"><defs><style>.cls-1{fill:#404040;}</style></defs><title>confirmacion_n</title><g id="Capa_2" data-name="Capa 2"><g id="Capa_1-2" data-name="Capa 1"><path class="cls-1" d="M0,0V295H295V0ZM278.5,278.5H16.5V16.5h262Z"/><polygon class="cls-1" points="278.5 108.5 404.5 108.5 404.5 370.5 142.5 370.5 142.5 279 126 279 126 387 421 387 421 92 278.5 92 278.5 108.5"/><polygon class="cls-1" points="240.98 62.98 174.5 129.47 157.52 146.44 108.28 195.69 94.79 182.19 87.57 174.97 59.3 146.7 41.19 164.81 69.46 193.08 76.68 200.3 105.19 228.81 105.49 228.51 108.58 231.6 175.63 164.55 192.6 147.57 259.09 81.09 240.98 62.98"/></g></g></svg>