<svg xmlns="http://www.w3.org/2000/svg" viewBox="0 0 26.2 26.2"><defs><style>.cls-1{fill:#424242;}</style></defs><title>localizacion_1</title><g id="Capa_2" data-name="Capa 2"><g id="Capa_1-2" data-name="Capa 1"><path class="cls-1" d="M24,12.13a10.9,10.9,0,0,0-3.13-6.4,10.9,10.9,0,0,0-3.47-2.34,11.1,11.1,0,0,0-3.3-.82V0H12.13V2.57a11,11,0,0,0-3.29.82A10.83,10.83,0,0,0,5.36,5.73,11.05,11.05,0,0,0,3,9.21a10.7,10.7,0,0,0-.78,2.92H0v1.93H2.18A10.79,10.79,0,0,0,3,17.73a11,11,0,0,0,5.82,5.82,10.73,10.73,0,0,0,3.29.81V26.2h1.93V24.36a10.76,10.76,0,0,0,6.77-3.16A10.81,10.81,0,0,0,24,14.06H26.2V12.13Zm-19.15,0A8.25,8.25,0,0,1,7.17,7.54a8.36,8.36,0,0,1,5-2.41v7Zm7.32,1.93V21.8a8.4,8.4,0,0,1-7.4-7.74Zm9.34,0a8.39,8.39,0,0,1-7.41,7.74V14.06Zm-7.41-1.93v-7a8.38,8.38,0,0,1,5,2.41,8.23,8.23,0,0,1,2.35,4.59Z"/></g></g></svg>