<svg xmlns="http://www.w3.org/2000/svg" viewBox="0 0 26.2 26.2"><defs><style>.cls-1{fill:#08808a;}</style></defs><title>localizacion_2</title><g id="Capa_2" data-name="Capa 2"><g id="Capa_1-2" data-name="Capa 1"><path class="cls-1" d="M24,12.13a11.25,11.25,0,0,0-.78-2.92,11,11,0,0,0-5.82-5.82,11.1,11.1,0,0,0-3.3-.82V0H12.13V2.57A10.92,10.92,0,0,0,3,9.21a10.7,10.7,0,0,0-.78,2.92H0v1.93H2.18A10.79,10.79,0,0,0,3,17.73a11,11,0,0,0,5.82,5.82,10.73,10.73,0,0,0,3.29.81V26.2h1.93V24.36a11,11,0,0,0,9.12-6.63A11,11,0,0,0,24,14.06H26.2V12.13Zm-19.15,0A8.25,8.25,0,0,1,7.17,7.54a8.36,8.36,0,0,1,5-2.41v7Zm7.32,1.93V21.8a8.4,8.4,0,0,1-7.4-7.74Zm9.34,0a8.39,8.39,0,0,1-7.41,7.74V14.06Zm-7.41-1.93v-7a8.38,8.38,0,0,1,5,2.41,8.23,8.23,0,0,1,2.35,4.59Z"/></g></g></svg>