<svg xmlns="http://www.w3.org/2000/svg" width="20.78mm" height="16.62mm" viewBox="0 0 58.9 47.11"><defs><style>.cls-1{fill:#fff;}</style></defs><title>sin over</title><g id="Capa_2" data-name="Capa 2"><g id="Capa_1-2" data-name="Capa 1"><path class="cls-1" d="M47.3,7.66C36.6-3,22-2.14,11.5,8L5.2,1.66a1,1,0,0,0-1.3-.2c-.5.2-.9.5-.9.9L0,27.06a1.28,1.28,0,0,0,.4,1.1,1.28,1.28,0,0,0,1.1.4l24.7-3c.4,0,.7-.4.9-.9a1.37,1.37,0,0,0-.2-1.3l-6.3-6.3c13.7-13.5,23.7-9.5,26.6-9.2C47.7,8,47.6,8,47.3,7.66Z"/><path class="cls-1" d="M11.7,39.46c10.7,10.7,25.3,9.8,35.7-.3l6.3,6.3a1,1,0,0,0,1.3.2c.5-.2.9-.5.9-.9l3-24.7a1.38,1.38,0,0,0-1.5-1.5l-24.7,3c-.4,0-.7.4-.9.9a1.37,1.37,0,0,0,.2,1.3l6.3,6.3c-13.6,13.5-23.5,9.6-26.4,9.3C11.3,39.16,11.4,39.16,11.7,39.46Z"/></g></g></svg>