<svg xmlns="http://www.w3.org/2000/svg" xmlns:xlink="http://www.w3.org/1999/xlink" viewBox="0 0 95.52 86.6"><defs><style>.cls-1,.cls-2{fill:none;}.cls-1{clip-rule:evenodd;}.cls-3{clip-path:url(#clip-path);}.cls-4{clip-path:url(#clip-path-2);}.cls-5{fill:#444;}.cls-6{clip-path:url(#clip-path-3);}.cls-7{clip-path:url(#clip-path-5);}.cls-8{isolation:isolate;}.cls-9{clip-path:url(#clip-path-7);}.cls-10{clip-path:url(#clip-path-8);}.cls-11{clip-path:url(#clip-path-9);}.cls-12{clip-path:url(#clip-path-10);}.cls-13{clip-path:url(#clip-path-12);}.cls-14{clip-path:url(#clip-path-14);}.cls-15{clip-path:url(#clip-path-15);}</style><clipPath id="clip-path" transform="translate(-3151.53 -797.72)"><path class="cls-1" d="M3204,821.34a10.5,10.5,0,1,1-10.5-10.5,10.5,10.5,0,0,1,10.5,10.5"/></clipPath><clipPath id="clip-path-2" transform="translate(-3151.53 -797.72)"><rect class="cls-2" width="3589.76" height="2506.01"/></clipPath><clipPath id="clip-path-3" transform="translate(-3151.53 -797.72)"><path class="cls-1" d="M3230.26,820.82a7.35,7.35,0,1,1-7.35-7.35,7.35,7.35,0,0,1,7.35,7.35"/></clipPath><clipPath id="clip-path-5" transform="translate(-3151.53 -797.72)"><rect class="cls-2" x="3211.89" y="829.49" width="22.04" height="20.72"/></clipPath><clipPath id="clip-path-7" transform="translate(-3151.53 -797.72)"><rect class="cls-2" x="3211.89" y="826.59" width="23.62" height="23.62"/></clipPath><clipPath id="clip-path-8" transform="translate(-3151.53 -797.72)"><path class="cls-1" d="M3222.91,830s-11-1.84-11,3.67,0,16.54,11,16.54,11-11,11-18.37c0,0-1.84-3.68-11-1.84"/></clipPath><clipPath id="clip-path-9" transform="translate(-3151.53 -797.72)"><rect class="cls-2" x="3211.89" y="829.21" width="23.62" height="20.99"/></clipPath><clipPath id="clip-path-10" transform="translate(-3151.53 -797.72)"><path class="cls-1" d="M3193.52,834.46s-15.74-2.62-15.74,5.25c0,1.16,0,2.51,0,3.94a14.39,14.39,0,0,1,13.43,19.53,20.09,20.09,0,0,0,2.26.15c15.74,0,15.74-15.75,15.74-26.24,0,0-2.62-5.25-15.74-2.63"/></clipPath><clipPath id="clip-path-12" transform="translate(-3151.53 -797.72)"><rect class="cls-2" x="3164.66" y="844.96" width="26.24" height="26.24"/></clipPath><clipPath id="clip-path-14" transform="translate(-3151.53 -797.72)"><rect class="cls-2" x="3164.66" y="844.96" width="26.24" height="26.24"/></clipPath><clipPath id="clip-path-15" transform="translate(-3151.53 -797.72)"><path class="cls-1" d="M3177.77,845a13.12,13.12,0,1,0,13.13,13.12A13.12,13.12,0,0,0,3177.77,845Zm7.19,14h-6.68v7h-1.9v-7h-6.68v-1.78h6.68v-6.95h1.9v6.95H3185Z"/></clipPath></defs><title>asis_mas</title><g id="Capa_2" data-name="Capa 2"><g id="Capa_1-2" data-name="Capa 1"><g class="cls-3"><g class="cls-4"><rect class="cls-5" x="18.37" width="47.23" height="47.23"/></g></g><g class="cls-6"><g class="cls-4"><rect class="cls-5" x="50.91" y="2.62" width="40.94" height="40.94"/></g></g><g class="cls-7"><g class="cls-4"><g class="cls-8"><g class="cls-9"><g class="cls-10"><g class="cls-11"><rect class="cls-5" x="47.23" y="18.64" width="48.28" height="46.96"/></g></g></g></g></g></g><g class="cls-12"><g class="cls-4"><rect class="cls-5" x="13.12" y="22.88" width="57.73" height="55.84"/></g></g><g class="cls-13"><g class="cls-4"><g class="cls-8"><g class="cls-14"><g class="cls-15"><g class="cls-14"><rect class="cls-5" y="34.11" width="52.48" height="52.48"/></g></g></g></g></g></g></g></g></svg>