<svg xmlns="http://www.w3.org/2000/svg" xmlns:xlink="http://www.w3.org/1999/xlink" viewBox="0 0 77.41 85.28"><defs><style>.cls-1,.cls-2{fill:none;}.cls-1{clip-rule:evenodd;}.cls-3{clip-path:url(#clip-path);}.cls-4{clip-path:url(#clip-path-2);}.cls-5{fill:#444;}.cls-6{clip-path:url(#clip-path-3);}.cls-7{isolation:isolate;}.cls-8{clip-path:url(#clip-path-5);}.cls-9{clip-path:url(#clip-path-6);}.cls-10{clip-path:url(#clip-path-7);}.cls-11{clip-path:url(#clip-path-8);}</style><clipPath id="clip-path" transform="translate(-3159.41 -960.42)"><path class="cls-1" d="M3175.15,981.41h-2.62v42a1.31,1.31,0,0,0,1.31,1.31h11.24l5.82,7.87v-7.87h6.56v-2.63h-22.31Z"/></clipPath><clipPath id="clip-path-2" transform="translate(-3159.41 -960.42)"><rect class="cls-2" width="3589.76" height="2506.01"/></clipPath><clipPath id="clip-path-3" transform="translate(-3159.41 -960.42)"><rect class="cls-2" x="3172.53" y="973.54" width="51.17" height="59.04"/></clipPath><clipPath id="clip-path-5" transform="translate(-3159.41 -960.42)"><rect class="cls-2" x="3177.78" y="973.54" width="47.23" height="55.11"/></clipPath><clipPath id="clip-path-6" transform="translate(-3159.41 -960.42)"><path class="cls-1" d="M3221.07,973.54h-39.36a2.62,2.62,0,0,0-2.62,2.62v39.36a2.62,2.62,0,0,0,2.62,2.63h18.37v9.18l8.16-9.18h12.83a2.63,2.63,0,0,0,2.63-2.63V976.16A2.62,2.62,0,0,0,3221.07,973.54Zm-36.73,39.36h34.11V978.79h-34.11Z"/></clipPath><clipPath id="clip-path-7" transform="translate(-3159.41 -960.42)"><rect class="cls-2" x="3172.53" y="973.54" width="52.48" height="60.35"/></clipPath><clipPath id="clip-path-8" transform="translate(-3159.41 -960.42)"><polygon class="cls-1" points="3205.33 1026.02 3215.82 1026.02 3221.07 1020.77 3210.58 1020.77 3205.33 1026.02"/></clipPath></defs><title>asis_box</title><g id="Capa_2" data-name="Capa 2"><g id="Capa_1-2" data-name="Capa 1"><g class="cls-3"><g class="cls-4"><rect class="cls-5" y="7.87" width="51.17" height="77.41"/></g></g><g class="cls-6"><g class="cls-4"><g class="cls-7"><g class="cls-8"><g class="cls-9"><g class="cls-10"><rect class="cls-5" x="6.56" width="70.85" height="80.03"/></g></g><g class="cls-11"><g class="cls-10"><rect class="cls-5" x="32.8" y="47.23" width="41.99" height="31.49"/></g></g></g></g></g></g></g></g></svg>