<svg xmlns="http://www.w3.org/2000/svg" width="159.43708mm" height="181.20036mm" viewBox="0 0 451.94762 513.63881"><title>entrega_verde</title><g id="Capa_2" data-name="Capa 2"><g id="Capa_1-2" data-name="Capa 1"><rect x="0.00962" width="451.93801" height="513.63881" style="fill:none"/><path d="M2.80449,89.25207A55.39424,55.39424,0,1,1,108.014,54.53828L216.86367,384.44259a72.73569,72.73569,0,0,0-31.7022-1.19879L79.78072,63.8534A25.66494,25.66494,0,1,0,31.018,79.883l.01762.05342A14.864,14.864,0,1,1,2.80466,89.25157Z" style="fill:#058794"/><path d="M431.67043,348.04987,253.32689,406.89238a72.87859,72.87859,0,0,1,14.53328,25.38228c.11226.34455.17464.69144.28131,1.03618l172.84543-57.02749a14.86514,14.86514,0,0,0-9.31513-28.23277Z" style="fill:#058794"/><path d="M253.74243,436.93509a58.25344,58.25344,0,1,1-.00018-.00055Z" style="fill:#058794"/><path d="M226.01683,446.08116a29.15759,29.15759,0,1,0,.00171.00516Z" style="fill:#fff"/><path d="M386.6001,124.2717l60.54932,183.513a7.436,7.436,0,0,1-4.7301,9.38647L251.84881,380.04861a7.43284,7.43284,0,0,1-9.38732-4.72943L181.913,191.80618a7.43148,7.43148,0,0,1,4.72708-9.3866l.00216-.00071L377.213,119.54246a7.4335,7.4335,0,0,1,9.3873,4.72941Z" style="fill:#058794"/><polygon points="361.39 230.874 296.5 195.171 265.609 262.476 286.061 271.888 299.416 242.772 323.538 315.869 346.62 308.253 322.506 235.168 350.558 250.609 361.39 230.874" style="fill:#fff"/><path d="M304.76649,121.39146,266.057,4.06586a4.75141,4.75141,0,0,0-6.00082-3.02353l-.00075.00025L226.86161,11.9947l-.16348.29721-.27793-.15351-17.51345,5.7818,14.42069,43.70585-19.7506,6.52025L189.15227,24.43673l-17.51582,5.7818-.13525.28436-.30564-.14L138.217,41.243a4.75307,4.75307,0,0,0-3.02422,6.00313l.0001.0003L173.9032,164.57305a4.75393,4.75393,0,0,0,6.00344,3.02328L301.7471,127.39624a4.75188,4.75188,0,0,0,3.0201-6.00334l0-.0001Z" style="fill:#058794"/></g></g></svg>