<svg xmlns="http://www.w3.org/2000/svg" width="159.14428mm" height="180.91653mm" viewBox="0 0 451.11764 512.83427"><title>entrega_gris</title><g id="Capa_2" data-name="Capa 2"><g id="Capa_1-2" data-name="Capa 1"><path d="M2.80449,88.45025A55.39424,55.39424,0,0,1,108.014,53.73645L216.86367,383.64076a72.73585,72.73585,0,0,0-31.7022-1.19878L79.78072,63.05157A25.66494,25.66494,0,0,0,31.018,79.0812l.01762.05342A14.864,14.864,0,1,1,2.80466,88.44975Z" style="fill:#d8d8d8"/><path d="M431.67043,347.24805,253.32689,406.09056a72.87859,72.87859,0,0,1,14.53328,25.38228c.11226.34454.17464.69144.28131,1.03617l172.84543-57.02748a14.86514,14.86514,0,0,0-9.31513-28.23277Z" style="fill:#d8d8d8"/><path d="M253.74243,436.13326a58.25343,58.25343,0,1,1-.00018-.00055Z" style="fill:#d8d8d8"/><path d="M225.597,445.67889a29.14075,29.14075,0,1,0,.00171.00515Z" style="fill:#fff"/><path d="M386.6001,123.46987l60.54932,183.513a7.436,7.436,0,0,1-4.7301,9.38646L251.84881,379.24679a7.43284,7.43284,0,0,1-9.38732-4.72943L181.913,191.00436a7.4315,7.4315,0,0,1,4.72708-9.38661l.00216-.0007L377.213,118.74063a7.43351,7.43351,0,0,1,9.3873,4.72941Z" style="fill:#d8d8d8"/><polygon points="360.97 230.471 296.08 194.769 265.189 262.074 285.641 271.486 298.997 242.369 323.118 315.467 346.2 307.851 322.086 234.766 350.138 250.207 360.97 230.471" style="fill:#fff"/><path d="M304.76649,120.58964,266.057,3.264A4.7514,4.7514,0,0,0,260.05618.24051l-.00075.00025L226.86161,11.19288l-.16348.2972-.27793-.1535-17.51345,5.7818,14.42069,43.70585-19.7506,6.52025L189.15227,23.63491l-17.51582,5.7818-.13525.28435-.30564-.14L138.217,40.44118a4.75309,4.75309,0,0,0-3.02422,6.00314l.0001.0003L173.9032,163.77123a4.75392,4.75392,0,0,0,6.00344,3.02327L301.7471,126.59442a4.75189,4.75189,0,0,0,3.0201-6.00334l0-.0001Z" style="fill:#d8d8d8"/></g></g></svg>