<svg xmlns="http://www.w3.org/2000/svg" width="61.84946mm" height="77.3375mm" viewBox="0 0 175.32131 219.22442"><title>Recurso 102</title><g id="Capa_2" data-name="Capa 2"><g id="Capa_1-2" data-name="Capa 1"><path d="M31.55235,37.31408h83.408a4.21967,4.21967,0,0,0,4.11552-4.11552l-.27436-12.62094a4.19148,4.19148,0,0,0-1.09748-2.74368A64.63691,64.63691,0,0,0,73.5307,0h0A63.79182,63.79182,0,0,0,29.083,17.83394,4.40593,4.40593,0,0,0,27.7112,20.852V33.47293A3.75081,3.75081,0,0,0,31.55235,37.31408Zm41.704-31.82672a9.13453,9.13453,0,0,1,9.05415,9.05416,9.05415,9.05415,0,1,1-18.1083,0A8.79283,8.79283,0,0,1,73.25632,5.48736Z" style="fill:#068996"/><path d="M127.8556,137.45848a5.5035,5.5035,0,0,0-5.48737-5.48736H67.49458a5.48737,5.48737,0,0,0,0,10.97473h54.87365A5.50349,5.50349,0,0,0,127.8556,137.45848Z" style="fill:#068996"/><path d="M122.36824,95.48015H67.49459a5.48737,5.48737,0,0,0,0,10.97473h54.87365a5.48737,5.48737,0,0,0,0-10.97473Z" style="fill:#068996"/><path d="M62.00723,64.47654a5.5035,5.5035,0,0,0,5.48736,5.48736h54.87365a5.48737,5.48737,0,0,0,0-10.97473H67.49458A5.5035,5.5035,0,0,0,62.00723,64.47654Z" style="fill:#068996"/><path d="M44.44766,58.44043A4.91809,4.91809,0,0,0,39.509,53.50181H27.43683a4.91809,4.91809,0,0,0-4.93863,4.93862V70.51264a4.9181,4.9181,0,0,0,4.93863,4.93863H39.509a4.9181,4.9181,0,0,0,4.93863-4.93863Z" style="fill:#068996"/><path d="M44.44766,131.42239a4.91809,4.91809,0,0,0-4.93863-4.93862H27.43683a4.91809,4.91809,0,0,0-4.93863,4.93862V143.4946a4.91811,4.91811,0,0,0,4.93863,4.93864H39.509a4.9181,4.9181,0,0,0,4.93863-4.93863Z" style="fill:#068996"/><path d="M44.44766,168.18774A4.91811,4.91811,0,0,0,39.509,163.2491H27.43683a4.91811,4.91811,0,0,0-4.93863,4.93864V180.26a4.9181,4.9181,0,0,0,4.93863,4.93863H39.509A4.9181,4.9181,0,0,0,44.44766,180.26Z" style="fill:#068996"/><path d="M44.44766,94.93141A4.91809,4.91809,0,0,0,39.509,89.99278H27.43683a4.91809,4.91809,0,0,0-4.93863,4.93863v12.0722a4.91809,4.91809,0,0,0,4.93863,4.93863H39.509a4.91809,4.91809,0,0,0,4.93863-4.93863Z" style="fill:#068996"/><path d="M145.96392,161.05415a29.08432,29.08432,0,1,0,29.35739,29.35741A29.39066,29.39066,0,0,0,145.96392,161.05415Zm17.01082,23.04694-18.657,18.657a4.64588,4.64588,0,0,1-6.31048,0l-9.32852-9.32852a4.46218,4.46218,0,0,1,6.31048-6.31048l6.31047,6.31048L156.66426,178.065a4.6459,4.6459,0,0,1,6.31048,0A3.882,3.882,0,0,1,162.97474,184.10109Z" style="fill:#068996"/><path d="M127.58123,34.02166a7.90958,7.90958,0,0,1,7.68232,7.95668v115.509a34.00582,34.00582,0,0,1,10.97473-1.92057V34.296c0-6.58484-5.213-11.79783-11.24909-11.79783h-10.426V33.47293C124.28882,33.47293,127.58123,34.02166,127.58123,34.02166Z" style="fill:#068996"/><path d="M114.41156,204.40434H18.38267c-4.11552,0-7.6823-3.84116-7.6823-8.231V41.97834a7.90957,7.90957,0,0,1,7.6823-7.95668l3.84116-.54874V22.49819H11.52347A11.65356,11.65356,0,0,0,0,34.296V203.85561a11.65356,11.65356,0,0,0,11.52347,11.79784H122.917A26.72923,26.72923,0,0,1,114.41156,204.40434Z" style="fill:#068996"/><path d="M62.00723,174.22383a5.5035,5.5035,0,0,0,5.48736,5.48737h45.54514a33.009,33.009,0,0,1,6.0361-10.97473H67.49459A5.5035,5.5035,0,0,0,62.00723,174.22383Z" style="fill:#068996"/></g></g></svg>