<?xml version="1.0" encoding="UTF-8"?>
<svg width="71px" height="71px" viewBox="0 0 71 71" version="1.1" xmlns="http://www.w3.org/2000/svg" xmlns:xlink="http://www.w3.org/1999/xlink">
    <!-- Generator: Sketch 51.1 (57501) - http://www.bohemiancoding.com/sketch -->
    <title>caja_vaciagris</title>
    <desc>Created with Sketch.</desc>
    <defs></defs>
    <g id="Symbols" stroke="none" stroke-width="1" fill="none" fill-rule="evenodd">
        <g id="caja_vaciagris">
            <polygon id="Fill-1" fill="#C2C3C9" points="0 70.858 70.858 70.858 70.858 0 0 0"></polygon>
            <path d="M37.1213519,38.7845476 L42.4673519,44.5335476 C42.7853519,44.8825476 43.3353519,44.9935476 43.7643519,44.7965476 L55.0693519,39.6255476 L55.0693519,50.8965476 L37.1213519,58.8535476 L37.1213519,38.7845476 Z M34.8773519,38.7845476 L34.8773519,58.8715476 L16.9293519,50.8965476 L16.9293519,39.6255476 L28.2343519,44.7965476 C28.6633519,44.9935476 29.2133519,44.8825476 29.5313519,44.5335476 L34.8773519,38.7845476 Z M55.8753519,28.3035476 L61.0993519,34.3855476 L43.5543519,42.4125476 L37.8923519,36.3135476 L55.8753519,28.3035476 Z M16.1233519,28.3035476 L34.1063519,36.3135476 L28.4443519,42.4125476 L10.8993519,34.3855476 L16.1233519,28.3035476 Z M35.9993519,19.2065476 L53.4223519,26.9535476 L35.9993519,34.6835476 L18.5763519,26.9535476 L35.9993519,19.2065476 Z M43.5543519,11.4765476 L61.0993519,19.5045476 L55.8753519,25.5865476 L37.8923519,17.5765476 L43.5543519,11.4765476 Z M28.4443519,11.4765476 L34.1063519,17.5765476 L16.1233519,25.5865476 L10.8993519,19.5045476 L28.4443519,11.4765476 Z M28.6203519,9.00554757 C28.4873519,9.01154757 28.3563519,9.04054757 28.2343519,9.09254757 L8.60335191,18.0665476 C7.97335191,18.3545476 7.82235191,19.2725476 8.21835191,19.8195476 L14.3173519,26.9535476 L8.21835191,34.0695476 C7.85035191,34.5855476 7.97335191,35.5345476 8.60335191,35.8225476 L14.6853519,38.6095476 L14.6853519,51.6325476 C14.6883519,52.0605476 14.9603519,52.4755476 15.3513519,52.6495476 L35.5253519,61.6235476 C35.8113519,61.7505476 36.1513519,61.7505476 36.4373519,61.6235476 L56.6463519,52.6495476 C57.0383519,52.4755476 57.3093519,52.0605476 57.3123519,51.6325476 L57.3123519,38.6095476 L63.3943519,35.8225476 C64.0263519,35.5355476 64.2323519,34.5955476 63.7803519,34.0695476 L57.6813519,26.9535476 L63.7803519,19.8195476 C64.2323519,19.2945476 64.0263519,18.3545476 63.3943519,18.0675476 L43.7643519,9.09254757 C43.5893519,9.01654757 43.3933519,8.98654757 43.2033519,9.00554757 C42.9263519,9.02554757 42.6573519,9.15354757 42.4673519,9.35554757 L35.9993519,16.3145476 L29.5313519,9.35554757 C29.3013519,9.11054757 28.9553519,8.97754757 28.6203519,9.00554757 Z" id="Fill-2" fill="#FEFEFE"></path>
        </g>
    </g>
</svg>