<?xml version="1.0" encoding="UTF-8"?>
<svg width="30px" height="30px" viewBox="0 0 30 30" version="1.1" xmlns="http://www.w3.org/2000/svg" xmlns:xlink="http://www.w3.org/1999/xlink">
    <!-- Generator: Sketch 50.2 (55047) - http://www.bohemiancoding.com/sketch -->
    <title>caja_vacia</title>
    <desc>Created with Sketch.</desc>
    <defs></defs>
    <g id="Page-1" stroke="none" stroke-width="1" fill="none" fill-rule="evenodd">
        <g id="8" transform="translate(-2265.000000, -538.000000)">
            <polygon id="Fill-1" fill="#1A1A1A" points="0 1323 2353 1323 2353 0 0 0"></polygon>
            <g id="Page-1" transform="translate(541.000000, 81.000000)">
                <polygon id="Fill-1" fill="#FFFFFF" points="0 1183 1775 1183 1775 -5.68434189e-13 0 -5.68434189e-13"></polygon>
                <path d="M0,1185 L1775,1185 L1775,-5.68434189e-13 L0,-5.68434189e-13 L0,1185 Z M2,1183.929 L1773.85527,1183.929 L1773.85527,1 L2,1 L2,1183.929 Z" id="Fill-2"></path>
            </g>
            <g id="caja_vacia" transform="translate(2265.000000, 538.000000)">
                <polygon id="Fill-1" fill="#078894" points="0 29.9398732 29.94 29.9398732 29.94 -0.000126760563 0 -0.000126760563"></polygon>
                <path d="M15.4387606,16.4173099 L17.6976338,18.8464648 C17.832,18.9939296 18.0643944,19.040831 18.245662,18.9575915 L23.0224225,16.772662 L23.0224225,21.5350563 L15.4387606,24.897169 L15.4387606,16.4173099 Z M14.4905915,16.4173099 L14.4905915,24.9047746 L6.90692958,21.5350563 L6.90692958,16.772662 L11.6836901,18.9575915 C11.8649577,19.040831 12.0973521,18.9939296 12.2317183,18.8464648 L14.4905915,16.4173099 Z M23.3629859,11.9887183 L25.5703099,14.5585775 L18.1569296,17.9502676 L15.7645352,15.3732254 L23.3629859,11.9887183 Z M6.5663662,11.9887183 L14.1648169,15.3732254 L11.7724225,17.9502676 L4.35904225,14.5585775 L6.5663662,11.9887183 Z M14.9646761,8.14491549 L22.326507,11.4182958 L14.9646761,14.684493 L7.60284507,11.4182958 L14.9646761,8.14491549 Z M18.1569296,4.87871831 L25.5703099,8.27083099 L23.3629859,10.8406901 L15.7645352,7.4561831 L18.1569296,4.87871831 Z M11.7724225,4.87871831 L14.1648169,7.4561831 L6.5663662,10.8406901 L4.35904225,8.27083099 L11.7724225,4.87871831 Z M11.8467887,3.8346338 C11.7905915,3.83716901 11.7352394,3.84942254 11.6836901,3.87139437 L3.38890141,7.66322535 C3.12270423,7.78491549 3.05890141,8.17280282 3.22622535,8.40392958 L5.80326761,11.4182958 L3.22622535,14.4250563 C3.07073239,14.6430845 3.12270423,15.0440704 3.38890141,15.1657606 L5.95876056,16.3433662 L5.95876056,21.8460423 C5.96002817,22.0268873 6.07495775,22.2022394 6.24016901,22.2757606 L14.7643944,26.0675915 C14.8852394,26.1212535 15.0289014,26.1212535 15.1497465,26.0675915 L23.6887606,22.2757606 C23.8543944,22.2022394 23.9689014,22.0268873 23.970169,21.8460423 L23.970169,16.3433662 L26.5400282,15.1657606 C26.8070704,15.044493 26.8941127,14.6473099 26.7031268,14.4250563 L24.1260845,11.4182958 L26.7031268,8.40392958 C26.8941127,8.18209859 26.8070704,7.78491549 26.5400282,7.66364789 L18.245662,3.87139437 C18.1717183,3.83928169 18.0889014,3.82660563 18.0086197,3.8346338 C17.8915775,3.84308451 17.7779155,3.89716901 17.6976338,3.98252113 L14.9646761,6.92294366 L12.2317183,3.98252113 C12.1345352,3.879 11.988338,3.82280282 11.8467887,3.8346338 Z" id="Fill-2" fill="#FEFEFE"></path>
            </g>
        </g>
    </g>
</svg>