<svg xmlns="http://www.w3.org/2000/svg" width="9.07796mm" height="11.28889mm" viewBox="0 0 25.7328 32"><title>Recurso 142</title><g id="Capa_2" data-name="Capa 2"><g id="Capa_1-2" data-name="Capa 1"><path d="M22.0672,17.04064c0,.38432-.4688.6984-1.04688.6984H5.8312c-.57968,0-1.04992-.31408-1.04992-.6984h0c0-.38752.47024-.69856,1.04992-.69856H21.02032c.57808,0,1.04688.311,1.04688.69856Z" style="fill:#068996"/><path d="M22.0672,13.88432c0,.38432-.4688.6984-1.04688.6984H5.8312c-.57968,0-1.04992-.31408-1.04992-.6984h0c0-.38752.47024-.7,1.04992-.7H21.02032c.57808,0,1.04688.31248,1.04688.7Z" style="fill:#068996"/><path d="M22.0672,20.18592c0,.38592-.4688.6984-1.04688.6984H5.8312c-.57968,0-1.04992-.31248-1.04992-.6984h0c0-.38592.47024-.6976,1.04992-.6976H21.02032c.57808,0,1.04688.31168,1.04688.6976Z" style="fill:#068996"/><path d="M22.0672,23.15936c0,.38592-.4688.6976-1.04688.6976H5.8312c-.57968,0-1.04992-.31168-1.04992-.6976h0c0-.38752.47024-.6992,1.04992-.6992H21.02032c.57808,0,1.04688.31168,1.04688.6992Z" style="fill:#068996"/><path d="M22.0672,26.275c0,.38432-.4688.6984-1.04688.6984H5.8312c-.57968,0-1.04992-.31408-1.04992-.6984h0c0-.38608.47024-.7,1.04992-.7H21.02032c.57808,0,1.04688.31392,1.04688.7Z" style="fill:#068996"/><path d="M25.60464,0h-22.1L0,4.98592V32H25.7328V0ZM1.49216,5.95616l2.8-4.08752,1.05616.02816V1.86864h.99536v5.7032H1.52032ZM23.72656,30.264H1.8952L1.55472,9.74368H8.14528V1.97184l15.58128-.1016Z" style="fill:#068996"/></g></g></svg>