<svg xmlns="http://www.w3.org/2000/svg" width="10.17476mm" height="10.17476mm" viewBox="0 0 28.84183 28.84183"><title>Recurso 140</title><g id="Capa_2" data-name="Capa 2"><g id="Capa_1-2" data-name="Capa 1"><rect x="4.36679" y="10.13719" width="12.17631" height="1.73947" transform="translate(-4.72089 10.61661) rotate(-45)" style="fill:#007382"/><rect x="8.05676" y="13.82717" width="12.17631" height="1.73947" transform="translate(-6.24933 14.30659) rotate(-45)" style="fill:#007382"/><rect x="11.74674" y="17.51715" width="12.17631" height="1.73947" transform="translate(-7.77777 17.99657) rotate(-45)" style="fill:#007382"/><polygon points="2.769 20.535 8.307 26.073 12.915 24.537 4.305 15.927 2.769 20.535" style="fill:#007382"/><polygon points="1.633 23.944 0 28.842 4.898 27.209 1.633 23.944" style="fill:#007382"/><rect x="19.17041" y="1.84379" width="3.47895" height="12.17631" transform="translate(0.51563 17.10873) rotate(-45)" style="fill:#007382"/><path d="M18.49318,1.74287,27.099,10.34865a6.08546,6.08546,0,0,0-8.60578-8.60578Z" transform="translate(0 0)" style="fill:#007382"/></g></g></svg>