<svg xmlns="http://www.w3.org/2000/svg" width="10.58333mm" height="10.58333mm" viewBox="0 0 30 30"><title>Recurso 136</title><g id="Capa_2" data-name="Capa 2"><g id="Capa_1-2" data-name="Capa 1"><rect width="30" height="30" style="fill:#068a95"/><path d="M15,8.7519c-6.248,0-10,6.209-10,6.209S8.752,21.25,15,21.25c6.25,0,10-6.2481,10-6.2481s-3.75-6.25-10-6.25ZM15,20c-5.4687,0-8.4355-4.9981-8.4355-4.9981S9.5313,10.0039,15,10.0039s8.4375,4.998,8.4375,4.998S20.4688,20,15,20Z" style="fill:#fff"/><path d="M17.6602,15.0019A2.6592,2.6592,0,1,1,15,12.3437a2.65993,2.65993,0,0,1,2.6602,2.6582Z" style="fill:#fff"/></g></g></svg>