<?xml version="1.0" encoding="UTF-8"?>
<svg width="29px" height="29px" viewBox="0 0 29 29" version="1.1" xmlns="http://www.w3.org/2000/svg" xmlns:xlink="http://www.w3.org/1999/xlink">
    <!-- Generator: Sketch 51.3 (57544) - http://www.bohemiancoding.com/sketch -->
    <title>Group 5</title>
    <desc>Created with Sketch.</desc>
    <defs>
        <polygon id="path-1" points="0.131057143 0.0511883721 8.74772381 0.0511883721 8.74772381 8.44186047 0.131057143 8.44186047"></polygon>
    </defs>
    <g id="Page-1" stroke="none" stroke-width="1" fill="none" fill-rule="evenodd">
        <g id="8" transform="translate(-919.000000, -367.000000)">
            <g id="Group-5" transform="translate(919.000000, 367.000000)">
                <rect id="Rectangle-15" fill="#008894" fill-rule="nonzero" x="0" y="0" width="29" height="29"></rect>
                <g id="alamcen" transform="translate(3.000000, 5.000000)">
                    <g id="Group-6">
                        <path d="M22,4.7333 C22,3.88911395 21.3190476,3.22399767 20.4547619,3.22399767 L7.43809524,3.22399767 C7.20238095,3.22399767 7.01904762,3.0705093 6.96666667,2.86585814 L6.46904762,1.10074186 C6.28571429,0.435625581 5.68333333,0.000741860465 4.97619048,0.000741860465 L1.57142857,0.000741860465 C0.707142857,-0.0248395349 0,0.66585814 0,1.48446279 L0,16.6030674 C0,17.4472535 0.680952381,18.1123698 1.5452381,18.1123698 L10.4761905,18.1123698 C10.7642857,18.1123698 11,17.8821372 11,17.6007419 C11,17.3193465 10.7642857,17.089114 10.4761905,17.089114 L1.5452381,17.089114 C1.28333333,17.089114 1.04761905,16.8588814 1.04761905,16.6030674 L1.04761905,1.48446279 C1.04761905,1.22864884 1.28333333,0.998416279 1.5452381,0.998416279 L4.95,0.998416279 C5.18571429,0.998416279 5.36904762,1.15190465 5.42142857,1.35655581 L5.91904762,3.12167209 C6.10238095,3.78678837 6.7047619,4.22167209 7.41190476,4.22167209 L20.4285714,4.22167209 C20.6904762,4.22167209 20.9261905,4.45190465 20.9261905,4.7077186 L20.9261905,11.8705093 C20.9261905,12.1519047 21.1619048,12.3821372 21.45,12.3821372 C21.7380952,12.3821372 21.9738095,12.1519047 21.9738095,11.8705093 L21.9738095,4.7333 L22,4.7333 Z" id="Fill-1" fill="#FFFFFF"></path>
                        <g id="Group-5" transform="translate(13.095238, 13.354179)">
                            <mask id="mask-2" fill="white">
                                <use xlink:href="#path-1"></use>
                            </mask>
                            <g id="Clip-4"></g>
                            <path d="M8.74772381,4.2721186 C8.74772381,3.99072326 8.51200952,3.7604907 8.22391429,3.7604907 L4.97629524,3.7604907 L4.97629524,0.562816279 C4.97629524,0.28142093 4.74031905,0.0511883721 4.45248571,0.0511883721 C4.16439048,0.0511883721 3.92867619,0.28142093 3.92867619,0.562816279 L3.92867619,3.7349093 L0.654866667,3.7349093 C0.366771429,3.7349093 0.131057143,3.96514186 0.131057143,4.24653721 C0.131057143,4.52793256 0.366771429,4.75816512 0.654866667,4.75816512 L3.92867619,4.75816512 L3.92867619,7.93025814 C3.92867619,8.21165349 4.16439048,8.44188605 4.45248571,8.44188605 C4.74031905,8.44188605 4.97629524,8.21165349 4.97629524,7.93025814 L4.97629524,4.78374651 L8.22391429,4.78374651 C8.51200952,4.78374651 8.74772381,4.55351395 8.74772381,4.2721186" id="Fill-3" fill="#FFFFFF" mask="url(#mask-2)"></path>
                        </g>
                    </g>
                </g>
            </g>
        </g>
    </g>
</svg>