<?xml version="1.0" encoding="UTF-8"?>
<svg width="17px" height="23px" viewBox="0 0 17 23" version="1.1" xmlns="http://www.w3.org/2000/svg" xmlns:xlink="http://www.w3.org/1999/xlink">
    <!-- Generator: Sketch 52.6 (67491) - http://www.bohemiancoding.com/sketch -->
    <title>Group 7</title>
    <desc>Created with Sketch.</desc>
    <g id="Page-1" stroke="none" stroke-width="1" fill="none" fill-rule="evenodd">
        <g id="5" transform="translate(-923.000000, -1058.000000)" fill="#C1272D">
            <g id="Group-7" transform="translate(923.000000, 1058.000000)">
                <g id="Group-6" transform="translate(0.585145, 0.000000)">
                    <g id="Group-4">
                        <path d="M8.91152478,15.4211825 C8.69947779,15.6239983 8.57787097,15.9074791 8.57787097,16.1989908 L8.57787097,18.2471601 C8.57787097,18.5002916 8.37504722,18.7062133 8.12567017,18.7062133 C7.87633684,18.7062133 7.67346938,18.5002916 7.67346938,18.2471601 L7.67346938,16.1989908 C7.67346938,15.9075234 7.55186255,15.6240871 7.3399467,15.4213156 C7.10796704,15.1993319 6.98024053,14.8987243 6.98024053,14.5748224 C6.98024053,13.9338072 7.49407527,13.4122364 8.12558275,13.4122364 C8.75709023,13.4122364 9.27092496,13.9338072 9.27092496,14.5748224 C9.27101239,14.8987243 9.14328588,15.1993319 8.91152478,15.4211825 M8.12567017,12.3203764 C6.90099065,12.3203764 5.90466269,13.3317047 5.90466269,14.5748224 C5.90466269,15.1913453 6.15709958,15.7874579 6.59784783,16.2116806 L6.59784783,18.2471601 C6.59784783,19.1023054 7.28325222,19.798029 8.12571388,19.798029 C8.96817555,19.798029 9.65357994,19.1023054 9.65357994,18.2471601 L9.65357994,16.2116806 C10.0941096,15.7877241 10.3467214,15.1914784 10.3467214,14.5748224 C10.3466339,13.3317047 9.35026227,12.3203764 8.12567017,12.3203764" id="Fill-1"></path>
                        <g id="Group-5" transform="translate(0.000000, 0.044326)">
                            <path d="M15.1756401,21.0797798 C15.1756401,21.3807867 14.9343498,21.6257542 14.6378075,21.6257542 L1.61346293,21.6257542 C1.31692062,21.6257542 1.07563029,21.3808311 1.07563029,21.0797798 L1.07563029,10.9500362 C1.07563029,10.6490737 1.31692062,10.4041506 1.61346293,10.4041506 L14.6378075,10.4041506 C14.9343498,10.4041506 15.1756401,10.6490293 15.1756401,10.9500362 L15.1756401,21.0797798 Z M4.30240753,4.97267067 C4.30240753,2.83283272 6.01749215,1.09192655 8.1256352,1.09192655 C10.2337345,1.09192655 11.9488192,2.83283272 11.9488192,4.97267067 L11.9488192,9.3122906 L4.30240753,9.3122906 L4.30240753,4.97267067 Z M14.6378075,9.3122906 L13.0244844,9.3122906 L13.0244844,4.97267067 C13.0244844,2.23077451 10.8268192,6.65551853e-05 8.12567892,6.65551853e-05 C5.42445124,6.65551853e-05 3.22682969,2.23077451 3.22682969,4.97267067 L3.22682969,9.3122906 L1.61346293,9.3122906 C0.723792286,9.3122906 8.74240299e-06,10.0470155 8.74240299e-06,10.9499919 L8.74240299e-06,21.0797354 C8.74240299e-06,21.9828449 0.723792286,22.7174811 1.61346293,22.7174811 L14.6378075,22.7174811 C15.5274781,22.7174811 16.2512617,21.9828449 16.2512617,21.0797354 L16.2512617,10.9500362 C16.2512617,10.0470155 15.5274781,9.3122906 14.6378075,9.3122906 Z" id="Fill-3"></path>
                        </g>
                    </g>
                </g>
            </g>
        </g>
    </g>
</svg>