<?xml version="1.0" encoding="UTF-8"?>
<svg width="13px" height="13px" viewBox="0 0 13 13" version="1.1" xmlns="http://www.w3.org/2000/svg" xmlns:xlink="http://www.w3.org/1999/xlink">
    <!-- Generator: Sketch 51.3 (57544) - http://www.bohemiancoding.com/sketch -->
    <title>Group 3</title>
    <desc>Created with Sketch.</desc>
    <defs>
        <polygon id="path-1" points="0 0 13 0 13 13 0 13"></polygon>
    </defs>
    <g id="Page-1" stroke="none" stroke-width="1" fill="none" fill-rule="evenodd">
        <g id="10" transform="translate(-1885.000000, -554.000000)">
            <g id="Group-3" transform="translate(1885.000000, 554.000000)">
                <mask id="mask-2" fill="white">
                    <use xlink:href="#path-1"></use>
                </mask>
                <g id="Clip-2"></g>
                <path d="M8.12979351,6.5 L12.7123894,1.91740413 C13.0958702,1.5339233 13.0958702,0.8820059 12.7123894,0.498525074 L12.5014749,0.287610619 C12.1179941,-0.0958702065 11.4660767,-0.0958702065 11.0825959,0.287610619 L6.5,4.87020649 L1.91740413,0.287610619 C1.5339233,-0.0958702065 0.8820059,-0.0958702065 0.498525074,0.287610619 L0.287610619,0.498525074 C-0.0958702065,0.8820059 -0.0958702065,1.5339233 0.287610619,1.91740413 L4.87020649,6.5 L0.287610619,11.0825959 C-0.0958702065,11.4660767 -0.0958702065,12.1179941 0.287610619,12.5014749 L0.498525074,12.7123894 C0.8820059,13.0958702 1.5339233,13.0958702 1.91740413,12.7123894 L6.5,8.12979351 L11.0825959,12.7123894 C11.4660767,13.0958702 12.1179941,13.0958702 12.5014749,12.7123894 L12.7123894,12.5014749 C13.0958702,12.1179941 13.0958702,11.4660767 12.7123894,11.0825959 L8.12979351,6.5 Z" id="Fill-1" fill="#008894" mask="url(#mask-2)"></path>
            </g>
        </g>
    </g>
</svg>