<?xml version="1.0" encoding="UTF-8"?>
<svg width="51px" height="25px" viewBox="0 0 51 25" version="1.1" xmlns="http://www.w3.org/2000/svg" xmlns:xlink="http://www.w3.org/1999/xlink">
    <!-- Generator: Sketch 51.3 (57544) - http://www.bohemiancoding.com/sketch -->
    <title>Codigobarras_verde</title>
    <desc>Created with Sketch.</desc>
    <defs></defs>
    <g id="Page-1" stroke="none" stroke-width="1" fill="none" fill-rule="evenodd">
        <g id="3" transform="translate(-915.000000, -649.000000)">
            <rect fill="#F2F2F2" x="0" y="0" width="2353" height="1323"></rect>
            <polygon id="Fill-1" fill="#1A1A1A" points="0 1323 2353 1323 2353 0 0 0"></polygon>
            <g id="Page-1" transform="translate(542.000000, 79.000000)">
                <polygon id="Fill-1" fill="#FFFFFF" points="0 1183 1775 1183 1775 -5.68434189e-13 0 -5.68434189e-13"></polygon>
                <path d="M0,1185 L1775,1185 L1775,-5.68434189e-13 L0,-5.68434189e-13 L0,1185 Z M2,1183.929 L1773.85527,1183.929 L1773.85527,1 L2,1 L2,1183.929 Z" id="Fill-2"></path>
            </g>
            <g id="Codigobarras_verde" transform="translate(915.000000, 649.000000)" fill="#008895">
                <g id="Page-1">
                    <path d="M1.10180778,6.73083654 C1.71003,6.73083654 2.20388,6.22804808 2.20388,5.60881731 L2.20388,2.24343269 L5.50943556,2.24343269 C6.11765778,2.24343269 6.61084667,1.74064423 6.61084667,1.12208654 C6.61084667,0.502855769 6.11765778,6.73076923e-05 5.50943556,6.73076923e-05 L1.10180778,6.73076923e-05 C0.493585556,6.73076923e-05 -0.000264444445,0.502855769 -0.000264444445,1.12208654 L-0.000264444445,5.60881731 C-0.000264444445,6.22804808 0.493585556,6.73083654 1.10180778,6.73083654" id="Fill-1"></path>
                    <path d="M45.8316136,25.0000673 L49.838548,25.0000673 C50.3914773,25.0000673 50.8398308,24.4972788 50.8398308,23.8780481 L50.8398308,19.3913173 C50.8398308,18.7720865 50.3914773,18.2692981 49.838548,18.2692981 C49.2856187,18.2692981 48.8366641,18.7720865 48.8366641,19.3913173 L48.8366641,22.7567019 L45.8316136,22.7567019 C45.2786843,22.7567019 44.8297298,23.2588173 44.8297298,23.8780481 C44.8297298,24.4972788 45.2786843,25.0000673 45.8316136,25.0000673" id="Fill-4"></path>
                    <path d="M49.8382475,6.73083654 C50.3911768,6.73083654 50.8401313,6.22804808 50.8401313,5.60881731 L50.8401313,1.12208654 C50.8401313,0.502855769 50.3911768,6.73076923e-05 49.8382475,6.73076923e-05 L45.8313131,6.73076923e-05 C45.2789848,6.73076923e-05 44.8300303,0.502855769 44.8300303,1.12208654 C44.8300303,1.74064423 45.2789848,2.24343269 45.8313131,2.24343269 L48.8363636,2.24343269 L48.8363636,5.60881731 C48.8363636,6.22804808 49.2853182,6.73083654 49.8382475,6.73083654" id="Fill-7"></path>
                    <path d="M1.10180778,25.0000673 L5.50943556,25.0000673 C6.11765778,25.0000673 6.61084667,24.4972788 6.61084667,23.8780481 C6.61084667,23.2588173 6.11765778,22.7567019 5.50943556,22.7567019 L2.20388,22.7567019 L2.20388,19.3913173 C2.20388,18.7720865 1.71003,18.2692981 1.10180778,18.2692981 C0.493585556,18.2692981 -0.000264444444,18.7720865 -0.000264444444,19.3913173 L-0.000264444444,23.8780481 C-0.000264444444,24.4972788 0.493585556,25.0000673 1.10180778,25.0000673" id="Fill-10"></path>
                    <path d="M25.5,3.84615385 C24.9787709,3.84615385 24.5555556,4.30404476 24.5555556,4.86798002 L24.5555556,19.1704815 C24.5555556,19.7344168 24.9787709,20.1923077 25.5,20.1923077 C26.0212291,20.1923077 26.4444444,19.7344168 26.4444444,19.1704815 L26.4444444,4.86798002 C26.4444444,4.30404476 26.0212291,3.84615385 25.5,3.84615385" id="Fill-13"></path>
                    <path d="M29.2777778,3.84615385 C28.7565487,3.84615385 28.3333333,4.31302885 28.3333333,4.88802885 L28.3333333,15.3042788 C28.3333333,15.8792788 28.7565487,16.3461538 29.2777778,16.3461538 C29.7990069,16.3461538 30.2222222,15.8792788 30.2222222,15.3042788 L30.2222222,4.88802885 C30.2222222,4.31302885 29.7990069,3.84615385 29.2777778,3.84615385" id="Fill-15"></path>
                    <path d="M34,3.84615385 C33.4787709,3.84615385 33.0555556,4.31302885 33.0555556,4.88802885 L33.0555556,15.3042788 C33.0555556,15.8792788 33.4787709,16.3461538 34,16.3461538 C34.5212291,16.3461538 34.9444444,15.8792788 34.9444444,15.3042788 L34.9444444,4.88802885 C34.9444444,4.31302885 34.5212291,3.84615385 34,3.84615385" id="Fill-17"></path>
                    <path d="M38.7222222,19.1704815 L38.7222222,4.86798002 C38.7222222,4.30404476 38.2988799,3.84615385 37.7774944,3.84615385 C37.2561089,3.84615385 36.8333333,4.30404476 36.8333333,4.86798002 L36.8333333,19.1704815 C36.8333333,19.7344168 37.2561089,20.1923077 37.7774944,20.1923077 C38.2988799,20.1923077 38.7222222,19.7344168 38.7222222,19.1704815" id="Fill-19"></path>
                    <path d="M41.5555556,3.84615385 C41.0343265,3.84615385 40.6111111,4.31302885 40.6111111,4.88802885 L40.6111111,15.3042788 C40.6111111,15.8792788 41.0343265,16.3461538 41.5555556,16.3461538 C42.0767846,16.3461538 42.5,15.8792788 42.5,15.3042788 L42.5,4.88802885 C42.5,4.31302885 42.0767846,3.84615385 41.5555556,3.84615385" id="Fill-21"></path>
                    <path d="M44.3888889,19.1704815 C44.3888889,19.7344168 44.8122312,20.1923077 45.3336167,20.1923077 C45.8544354,20.1923077 46.2777778,19.7344168 46.2777778,19.1704815 L46.2777778,4.86798002 C46.2777778,4.30404476 45.8544354,3.84615385 45.3336167,3.84615385 C44.8122312,3.84615385 44.3888889,4.30404476 44.3888889,4.86798002 L44.3888889,19.1704815 Z" id="Fill-23"></path>
                    <path d="M29.2822886,18.2692308 L29.2636816,18.2692308 C28.744942,18.2692308 28.3333333,18.7002354 28.3333333,19.2310577 C28.3333333,19.7613031 28.7635489,20.1923077 29.2822886,20.1923077 C29.8010282,20.1923077 30.2222222,19.7613031 30.2222222,19.2310577 C30.2222222,18.7002354 29.8010282,18.2692308 29.2822886,18.2692308" id="Fill-25"></path>
                    <path d="M34.0047913,18.2692308 L33.9856262,18.2692308 C33.4670413,18.2692308 33.0555556,18.7002354 33.0555556,19.2310577 C33.0555556,19.7613031 33.4862064,20.1923077 34.0047913,20.1923077 C34.5233761,20.1923077 34.9444444,19.7613031 34.9444444,19.2310577 C34.9444444,18.7002354 34.5233761,18.2692308 34.0047913,18.2692308" id="Fill-27"></path>
                    <path d="M41.5600663,18.2692308 L41.5414594,18.2692308 C41.0227197,18.2692308 40.6111111,18.7002354 40.6111111,19.2310577 C40.6111111,19.7613031 41.0413267,20.1923077 41.5600663,20.1923077 C42.078806,20.1923077 42.5,19.7613031 42.5,19.2310577 C42.5,18.7002354 42.078806,18.2692308 41.5600663,18.2692308" id="Fill-29"></path>
                    <path d="M4.72222222,3.84615385 C4.20099313,3.84615385 3.77777778,4.30404476 3.77777778,4.86798002 L3.77777778,19.1704815 C3.77777778,19.7344168 4.20099313,20.1923077 4.72222222,20.1923077 C5.24345131,20.1923077 5.66666667,19.7344168 5.66666667,19.1704815 L5.66666667,4.86798002 C5.66666667,4.30404476 5.24345131,3.84615385 4.72222222,3.84615385" id="Fill-31"></path>
                    <path d="M9.44444444,3.84615385 C8.92321536,3.84615385 8.5,4.31302885 8.5,4.88802885 L8.5,15.3042788 C8.5,15.8792788 8.92321536,16.3461538 9.44444444,16.3461538 C9.96567353,16.3461538 10.3888889,15.8792788 10.3888889,15.3042788 L10.3888889,4.88802885 C10.3888889,4.31302885 9.96567353,3.84615385 9.44444444,3.84615385" id="Fill-33"></path>
                    <path d="M13.2222222,3.84615385 C12.7009931,3.84615385 12.2777778,4.31302885 12.2777778,4.88802885 L12.2777778,15.3042788 C12.2777778,15.8792788 12.7009931,16.3461538 13.2222222,16.3461538 C13.7434513,16.3461538 14.1666667,15.8792788 14.1666667,15.3042788 L14.1666667,4.88802885 C14.1666667,4.31302885 13.7434513,3.84615385 13.2222222,3.84615385" id="Fill-35"></path>
                    <path d="M17.9444444,19.1704815 L17.9444444,4.86798002 C17.9444444,4.30404476 17.5211021,3.84615385 16.9997166,3.84615385 C16.4783312,3.84615385 16.0555556,4.30404476 16.0555556,4.86798002 L16.0555556,19.1704815 C16.0555556,19.7344168 16.4783312,20.1923077 16.9997166,20.1923077 C17.5211021,20.1923077 17.9444444,19.7344168 17.9444444,19.1704815" id="Fill-37"></path>
                    <path d="M20.7777778,3.84615385 C20.2565487,3.84615385 19.8333333,4.31302885 19.8333333,4.88802885 L19.8333333,15.3042788 C19.8333333,15.8792788 20.2565487,16.3461538 20.7777778,16.3461538 C21.2990069,16.3461538 21.7222222,15.8792788 21.7222222,15.3042788 L21.7222222,4.88802885 C21.7222222,4.31302885 21.2990069,3.84615385 20.7777778,3.84615385" id="Fill-39"></path>
                    <path d="M9.44895522,18.2692308 L9.43034826,18.2692308 C8.91160862,18.2692308 8.5,18.7002354 8.5,19.2310577 C8.5,19.7613031 8.93021559,20.1923077 9.44895522,20.1923077 C9.96769486,20.1923077 10.3888889,19.7613031 10.3888889,19.2310577 C10.3888889,18.7002354 9.96769486,18.2692308 9.44895522,18.2692308" id="Fill-41"></path>
                    <path d="M13.2270135,18.2692308 L13.2078484,18.2692308 C12.6892636,18.2692308 12.2777778,18.7002354 12.2777778,19.2310577 C12.2777778,19.7613031 12.7084287,20.1923077 13.2270135,20.1923077 C13.7455983,20.1923077 14.1666667,19.7613031 14.1666667,19.2310577 C14.1666667,18.7002354 13.7455983,18.2692308 13.2270135,18.2692308" id="Fill-43"></path>
                    <path d="M20.7822886,18.2692308 L20.7636816,18.2692308 C20.244942,18.2692308 19.8333333,18.7002354 19.8333333,19.2310577 C19.8333333,19.7613031 20.2635489,20.1923077 20.7822886,20.1923077 C21.3010282,20.1923077 21.7222222,19.7613031 21.7222222,19.2310577 C21.7222222,18.7002354 21.3010282,18.2692308 20.7822886,18.2692308" id="Fill-45"></path>
                </g>
            </g>
        </g>
    </g>
</svg>