<?xml version="1.0" encoding="UTF-8"?>
<svg width="31px" height="27px" viewBox="0 0 31 27" version="1.1" xmlns="http://www.w3.org/2000/svg" xmlns:xlink="http://www.w3.org/1999/xlink">
    <!-- Generator: Sketch 51.3 (57544) - http://www.bohemiancoding.com/sketch -->
    <title>Group 8</title>
    <desc>Created with Sketch.</desc>
    <defs></defs>
    <g id="Page-1" stroke="none" stroke-width="1" fill="none" fill-rule="evenodd">
        <g id="5" transform="translate(-1239.000000, -275.000000)" fill="#C2C3C9">
            <g id="Group-8" transform="translate(1239.000000, 275.000000)">
                <path d="M24,25.5263158 C20.9421053,25.5263158 18.4736842,23.0578947 18.4736842,20 C18.4736842,16.9421053 20.9421053,14.4736842 24,14.4736842 C27.0578947,14.4736842 29.5263158,16.9421053 29.5263158,20 C29.5263158,23.0578947 27.0210526,25.5263158 24,25.5263158 M24,13 C20.1315789,13 17,16.1315789 17,20 C17,23.8684211 20.1315789,27 24,27 C27.8684211,27 31,23.8684211 31,20 C31,16.1315789 27.8684211,13 24,13" id="Fill-1"></path>
                <path d="M27,19.5 C27,19.1001111 26.7019559,18.7999293 26.3052658,18.7999293 L24.1701605,18.7999293 L24.1701605,16.7000707 C24.1701605,16.2998283 23.8724674,16 23.4750752,16 C23.0780341,16 22.77999,16.2998283 22.77999,16.7000707 L22.77999,18.7999293 L20.6950853,18.7999293 C20.2976931,18.7999293 20,19.1001111 20,19.5 C20,19.7001212 20.0744233,19.8751389 20.1986961,19.9999495 C20.3226179,20.1251136 20.4963892,20.2000707 20.6950853,20.2000707 L22.77999,20.2000707 L22.77999,22.2999293 C22.77999,22.5000505 22.8544132,22.6750682 22.9786861,22.8002323 C23.1026078,22.9253965 23.2767302,23 23.4750752,23 C23.8724674,23 24.1701605,22.7001717 24.1701605,22.2999293 L24.1701605,20.2000707 L26.2554162,20.2000707 C26.6773821,20.2251743 27,19.8998889 27,19.5" id="Fill-3"></path>
                <g id="Group-7">
                    <path d="M-0.000147368421,16.875 C-0.000147368421,19.5 1.91564211,21.7125 4.42090526,22.0875 L4.42090526,26.25 C4.42090526,26.55 4.56827368,26.775 4.82653684,26.925 C4.93669474,26.9625 5.04722105,27 5.15774737,27 C5.30511579,27 5.45285263,26.9625 5.59985263,26.85 L11.8630105,22.125 L13.9998526,22.125 C14.4054842,22.125 14.7366947,21.7875 14.7366947,21.375 C14.7366947,20.9625 14.4054842,20.625 13.9998526,20.625 L11.6051158,20.625 C11.4581158,20.625 11.3103789,20.6625 11.1633789,20.775 L5.89458947,24.75 L5.89458947,21.375 C5.89458947,20.9625 5.56337895,20.625 5.15774737,20.625 C3.13143158,20.625 1.47353684,18.9375 1.47353684,16.875 L1.47353684,5.25 C1.47353684,3.1875 3.13143158,1.5 5.15774737,1.5 L22.8419579,1.5 C24.8682737,1.5 26.5261684,3.1875 26.5261684,5.25 L26.5261684,10.875 C26.5261684,11.2875 26.8577474,11.625 27.2630105,11.625 C27.6686421,11.625 27.9998526,11.2875 27.9998526,10.875 L27.9998526,5.25 C27.9998526,2.3625 25.6788,0 22.8419579,0 L5.15774737,0 C2.32127368,0 -0.000147368421,2.3625 -0.000147368421,5.25 L-0.000147368421,16.875 Z" id="Fill-5"></path>
                </g>
            </g>
        </g>
    </g>
</svg>