<?xml version="1.0" encoding="UTF-8"?>
<svg width="21px" height="17px" viewBox="0 0 21 17" version="1.1" xmlns="http://www.w3.org/2000/svg" xmlns:xlink="http://www.w3.org/1999/xlink">
    <!-- Generator: Sketch 51.3 (57544) - http://www.bohemiancoding.com/sketch -->
    <title>e.especial_verde</title>
    <desc>Created with Sketch.</desc>
    <defs></defs>
    <g id="Page-1" stroke="none" stroke-width="1" fill="none" fill-rule="evenodd">
        <g id="2" transform="translate(-1772.000000, -1233.000000)">
            <g id="e.especial_verde" transform="translate(1772.000000, 1233.000000)">
                <g id="Group-3">
                    <g id="entrega-especial" fill="#008894" fill-rule="nonzero">
                        <g id="Group-2">
                            <path d="M6.44957265,10.0932777 C4.75840456,10.0932777 3.06723647,10.0932777 1.37606838,10.0932777 C0.535111111,10.0928053 0,9.56804369 0,8.73815512 C0,6.28202504 0,3.82589495 0,1.36976486 C0,0.526650971 0.531282051,0 1.38803419,0 C4.77898575,0 8.16929915,0 11.5589744,0 C12.385094,0 12.9230769,0.53515296 12.9230769,1.34803755 C12.9230769,3.81172496 12.9230769,6.27541238 12.9230769,8.73909979 C12.9230769,9.56757136 12.3870085,10.0932777 11.5460513,10.0932777 C9.84754416,10.0939074 8.14871795,10.0939074 6.44957265,10.0932777 Z" id="Shape"></path>
                            <path d="M17.9594467,15.405765 C18.0075157,13.5987353 16.6317821,12.4473964 15.2262458,12.4653406 C13.8130184,12.4852247 12.5065042,13.6685722 12.5704359,15.3873358 L9.5858343,15.3873358 C9.60650395,14.4804261 9.31424469,13.7044606 8.62445514,13.1079371 C8.13483955,12.6795905 7.50486099,12.4502077 6.85695956,12.4643706 C5.55092598,12.4760101 4.15596482,13.5638168 4.20259171,15.3742414 C3.71805662,15.3742414 3.22631118,15.4266191 2.7504285,15.361632 C2.1000555,15.2753058 1.63378661,14.6816922 1.62369213,14.0143618 C1.61167489,13.222392 1.61359765,12.4304221 1.62369213,11.6379673 C1.6294604,11.1103108 2.03035551,10.7504567 2.59035887,10.7504567 C5.81834961,10.7504567 9.04650059,10.7504567 12.2748118,10.7504567 C13.0256489,10.7504567 13.5842102,10.2974868 13.7125543,9.58650841 C13.7300595,9.46676694 13.7369766,9.34569219 13.733224,9.22471448 C13.733224,7.61652588 13.733224,6.00833729 13.733224,4.4001487 C13.733224,3.63097285 14.1769005,3.18770253 14.9455231,3.18770253 L15.642523,3.18770253 C16.073807,3.18040402 16.4851343,3.37069282 16.7610876,3.70517456 L20.5479601,8.09277474 C20.84501,8.42673266 21.0063545,8.86140098 20.9998083,9.31007069 C20.9954821,10.8212636 20.9998083,12.3324565 20.9998083,13.8441344 C20.9998083,14.8262158 20.419616,15.405765 19.4423741,15.40625 L17.9594467,15.405765 Z M14.9186045,7.21932852 C14.9186045,7.80130268 14.9186045,8.38327684 14.9186045,8.965251 C14.9186045,9.43955994 15.1012665,9.61900197 15.5766685,9.61948695 C16.3528219,9.61948695 17.1291356,9.61948695 17.9056095,9.61948695 C18.0094237,9.62253125 18.1131833,9.61176921 18.2142122,9.58747837 C18.6256825,9.47253847 18.7569108,9.0845557 18.5083942,8.73634116 C17.6489213,7.53068469 16.7892881,6.32518989 15.9294947,5.11985674 C15.7280857,4.8371143 15.5507113,4.75563791 15.307963,4.83129455 C15.0527169,4.91083102 14.9195659,5.11888678 14.9181238,5.4540069 C14.9171624,6.04034587 14.9186045,6.6295947 14.9186045,7.21932852 Z" id="Shape"></path>
                            <path d="M8.61538462,15.1372531 C8.61090056,16.1492923 7.7429873,16.9990094 6.71215346,16.9999991 C5.68131963,17.0009889 4.83383371,16.1423639 4.84628941,15.1134986 C4.86824057,14.0906994 5.71269463,13.2747974 6.74261681,13.2812885 C7.772539,13.2877795 8.60650172,14.1142596 8.61538462,15.1372531 Z" id="Shape"></path>
                            <path d="M17.2307616,15.1187145 C17.233751,16.1440122 16.3623206,17.00247 15.3209886,16.9999947 C14.3010812,16.9999947 13.4645279,16.1583693 13.4615385,15.1310913 C13.4741918,14.1083971 14.3102131,13.2849125 15.3395296,13.2812622 C16.368846,13.2776119 17.2107618,14.0951459 17.2307616,15.1177244 L17.2307616,15.1187145 Z" id="Shape"></path>
                        </g>
                    </g>
                    <rect id="Rectangle-7" fill="#FFFFFF" x="2.33333333" y="1.54545455" width="3.88888889" height="3.86363636"></rect>
                    <rect id="Rectangle-7" fill="#FFFFFF" x="7.77777778" y="1.54545455" width="3.88888889" height="3.86363636"></rect>
                    <rect id="Rectangle-2" fill="#FFFFFF" x="2.33333333" y="5.40909091" width="8.55555556" height="3.86363636"></rect>
                    <polygon id="Path" fill="#008894" transform="translate(6.222222, 7.340909) rotate(18.000000) translate(-6.222222, -7.340909) " points="7 6.86496953 5.94650206 6.18181818 5.44444444 7.47689182 5.77640604 7.65820213 5.99314129 7.10132047 6.38545953 8.5 6.76131687 8.35430422 6.36899863 6.95562468 6.82441701 7.25025394"></polygon>
                    <rect id="Rectangle-8" fill="#008895" x="3.88888889" y="1.54545455" width="1" height="1.54545455"></rect>
                    <rect id="Rectangle-8" fill="#008895" x="8.55555556" y="1.54545455" width="1" height="1.54545455"></rect>
                </g>
            </g>
        </g>
    </g>
</svg>