<svg xmlns="http://www.w3.org/2000/svg" width="22.225mm" height="22.225mm" viewBox="0 0 63 63"><title>Recurso 124</title><g id="Capa_2" data-name="Capa 2"><g id="Capa_1-2" data-name="Capa 1"><path d="M0,35V63H28V35ZM26,61H2V37H26Z" style="fill:#fff"/><path d="M53,0H47V2h6V0ZM42,0H37V2h5V0ZM32,0H27V2h5V0ZM21,0H16V2h5V0ZM11,0H6V2h5V0ZM2,0H0V1.7344H0V5H2V0ZM2,10H0v5H2V10ZM2,20H0v5H2V20ZM2,31H0v5H2V31ZM2,41H0v5H2V41ZM2,51H0v6H2V51ZM4,61H0v.8438H0v0H0V63H4V61Zm10,0H9v2h5V61Zm11,0H20v2h5V61Zm10,0H30v2h5V61Zm11,0H40v2h6V61Zm10,0H51v2h5V61Zm7-1H61v1.2656h0V63h2V60Zm0-11H61v5h2V49Zm0-10H61v5h2V39Zm0-11H61v6h2V28Zm0-10H61v5h2V18ZM63,8H61v5h2V8Zm0-8H58V2h5V0Z" style="fill:#fff"/><polygon points="47.656 14.7 37.332 15.111 39.896 17.677 33.598 23.975 38.381 28.758 44.68 22.459 47.247 25.025 47.656 14.7" style="fill:#fff"/></g></g></svg>