<svg xmlns="http://www.w3.org/2000/svg" width="22.57778mm" height="22.57778mm" viewBox="0 0 64 64"><title>Recurso 125</title><g id="Capa_2" data-name="Capa 2"><g id="Capa_1-2" data-name="Capa 1"><path d="M0,0V64H64V0ZM61,61H3V3H61Z" style="fill:#fff"/><path d="M34,29H29v3h3v4h2V29ZM23,29H18v3h5V29ZM13,29H8v3h5V29ZM3,29H1v2.7002H1V34H3V29ZM3,39H1v5H3V39ZM3,50H1v5H3V50ZM3,60H1v3H3V61.248H3V60Zm11,1H8v2h6V61Zm10,0H19v2h5V61Zm10,0H29v2h5V61Zm0-9H32v5h2V52Zm0-11H32v6h2V41Z" style="fill:#fff"/><polygon points="38.127 24.945 48.558 24.53 45.966 21.94 52.33 15.575 47.498 10.743 41.133 17.106 38.54 14.514 38.127 24.945" style="fill:#fff"/></g></g></svg>