<?xml version="1.0" encoding="UTF-8"?>
<svg width="20px" height="20px" viewBox="0 0 20 20" version="1.1" xmlns="http://www.w3.org/2000/svg" xmlns:xlink="http://www.w3.org/1999/xlink">
    <!-- Generator: Sketch 48.2 (47327) - http://www.bohemiancoding.com/sketch -->
    <title>move-arrows</title>
    <desc>Created with Sketch.</desc>
    <defs></defs>
    <g id="2" stroke="none" stroke-width="1" fill="none" fill-rule="evenodd" transform="translate(-1266.000000, -795.000000)">
        <g id="move-arrows" transform="translate(1266.000000, 795.000000)" fill="#008994" fill-rule="nonzero">
            <path d="M19.9479798,9.74533128 L19.8053019,9.5293212 L17.138638,6.86265173 C16.878621,6.60263416 16.4546564,6.60263416 16.1959819,6.86265173 C15.9359648,7.12266931 15.9359648,7.54533422 16.1959819,7.80530985 L17.723991,9.33332215 L10.6666555,9.33332215 L10.6666555,2.27601382 L12.1946646,3.80402612 C12.4533392,4.0640437 12.8773456,4.0640437 13.1373207,3.80402612 C13.3959953,3.54400854 13.3959953,3.12134363 13.1373207,2.86136801 L10.4706568,0.194656593 L10.4639865,0.190671167 L10.2546472,0.0520202963 L10,0 L9.99731509,0 L9.74531084,0.0520202963 L9.53597154,0.190671167 L9.52795875,0.194656593 L6.86129488,2.86132606 C6.60127785,3.12134363 6.60127785,3.54400854 6.86129488,3.80398417 C7.12131192,4.06395979 7.54397594,4.06400175 7.80395102,3.80398417 L9.33330257,2.27597187 L9.33330257,9.33332215 L2.27600904,9.33332215 L3.80401814,7.80530985 C4.06403517,7.54529227 4.06403517,7.12262736 3.80401814,6.86265173 C3.54400111,6.60267611 3.12133709,6.60263416 2.86136201,6.86265173 L0.194656184,9.5293212 L0.190670767,9.53599154 L0.0520201872,9.74533128 L0,10.000021 L0,10.0027059 L0.0520201872,10.2547107 L0.190670767,10.462708 L0.194656184,10.4707208 L2.86132005,13.1373902 C3.12133709,13.3974078 3.54400111,13.3974078 3.80397619,13.1373902 C4.06399322,12.8787151 4.06399322,12.4547077 3.80397619,12.1947321 L2.27600904,10.6666779 L9.33334452,10.6666779 L9.33334452,17.7240281 L7.80533543,16.1960158 C7.54531839,15.9373407 7.12265437,15.9373407 6.86267929,16.1960158 C6.60266226,16.4560334 6.60266226,16.8799988 6.86267929,17.1386739 L9.52934316,19.8053434 L9.74535279,19.9493222 L9.99735704,20 L10.000042,20 L10.2546892,19.9479797 L10.4706988,19.8053015 L13.1373627,17.138632 C13.3960372,16.8786144 13.3960372,16.454649 13.1373627,16.1959739 C12.8773456,15.9359563 12.4533811,15.9359563 12.1947065,16.1959739 L10.6666974,17.7239862 L10.6666974,10.6666779 L17.7240329,10.6666779 L16.1960238,12.1946902 C15.9373492,12.4533653 15.9373492,12.8773726 16.1960238,13.1373483 C16.4560408,13.3960234 16.8800054,13.3960234 17.1386799,13.1373483 L19.8053438,10.4706788 L19.9493223,10.2546687 L20,10.0026639 L20,9.99997902 L19.9479798,9.74533128 Z" id="Shape"></path>
        </g>
    </g>
</svg>