<?xml version="1.0" encoding="UTF-8"?>
<svg width="19px" height="18px" viewBox="0 0 19 18" version="1.1" xmlns="http://www.w3.org/2000/svg" xmlns:xlink="http://www.w3.org/1999/xlink">
    <!-- Generator: Sketch 51.3 (57544) - http://www.bohemiancoding.com/sketch -->
    <title>R.material_verde</title>
    <desc>Created with Sketch.</desc>
    <defs></defs>
    <g id="Page-1" stroke="none" stroke-width="1" fill="none" fill-rule="evenodd">
        <g id="2" transform="translate(-1925.000000, -1232.000000)">
            <g id="R.material_verde" transform="translate(1925.000000, 1232.000000)">
                <g id="Group-5">
                    <path d="M13.927,14.9785714 C12.6096667,15.1907143 10.127,14.6828571 10.127,14.085 C10.127,13.86 12.3056667,14.6442857 13.6166667,14.2842857 C14.6236667,14.0078571 14.4843333,13.05 13.9333333,12.9278571 C13.3823333,12.8057143 10.1903333,11.6421429 8.82233333,11.5714286 C7.81524316,11.6239521 6.81251409,11.7420522 5.82033333,11.925 C5.55433333,11.97 5.38966667,11.9635714 5.377,12.2207143 C5.301,13.41 5.149,15.84 5.06666667,17.1128571 C5.06666667,17.1128571 5.10466667,17.4985714 5.396,17.2478571 C5.70279187,16.9151928 6.13830562,16.7364865 6.58666667,16.7592857 C7.22,16.9071429 12.92,17.9614286 13.6736667,17.775 C15.4197181,17.0976195 17.0617757,16.1711662 18.5503333,15.0235714 C19.4876667,14.1107143 18.7593333,13.14 17.974,13.5835714 C16.7109559,14.2689867 15.3432652,14.7426019 13.927,14.9785714 Z" id="Shape" fill="#008894" fill-rule="nonzero"></path>
                    <path d="M4.04862381,11.7193724 L1.08462381,11.5715152 C0.845843108,11.5671935 0.633486421,11.724913 0.565290475,11.9572295 L0.0142904752,16.9200867 C-0.0159434304,17.019808 0.00238904572,17.1281821 0.0636626875,17.211955 C0.124936329,17.2957279 0.221834226,17.344896 0.324623809,17.3443724 L3.62429048,17.3443724 C3.85638403,17.3520864 4.05388867,17.1742005 4.07395714,16.9393724 L4.44762381,12.1565152 C4.45632205,12.045221 4.42008788,11.9351172 4.3472372,11.8514731 C4.27438652,11.7678291 4.17117512,11.7178274 4.06129048,11.7129438 L4.04862381,11.7193724 Z M2.30062381,16.6886581 C1.97017815,16.6886581 1.67227031,16.4866091 1.54581423,16.1767263 C1.41935815,15.8668434 1.48925721,15.5101529 1.72291757,15.2729788 C1.95657793,15.0358048 2.3079842,14.9648546 2.61327617,15.0932123 C2.91856815,15.2215699 3.11762381,15.5239576 3.11762381,15.8593724 C3.11762381,16.3173742 2.75184045,16.6886581 2.30062381,16.6886581 Z" id="Shape" fill="#008894" fill-rule="nonzero"></path>
                    <g id="Group-4" transform="translate(8.866667, 0.000000)">
                        <g id="caja" fill="#008894" fill-rule="nonzero">
                            <path d="M10.1333333,2.59064134 C10.0908894,2.61507439 10.0600211,2.6342867 10.0279343,2.65078422 C8.40450519,3.48317839 6.78114376,4.31564216 5.15785001,5.14817554 C5.09997194,5.17782932 5.05326332,5.18994143 4.98888666,5.15694638 C3.35137725,4.31466762 1.71319091,3.47385067 0.0743276284,2.63449553 C0.0540195332,2.62384522 0.033711438,2.61152429 0,2.59272964 C0.0406161904,2.56954957 0.0690475236,2.55096375 0.0997127473,2.53488388 C1.7250373,1.69859157 3.35022646,0.861951208 4.97528024,0.024962797 C5.04453084,-0.0107470379 5.09550416,-0.00657044904 5.16130239,0.0274687503 C6.78595,0.8647356 8.41120686,1.7009583 10.037073,2.53613686 C10.0659105,2.55096375 10.0935295,2.56871425 10.1333333,2.59064134 Z" id="Shape"></path>
                            <path d="M0.00540060401,3.7387218 L0.649672661,4.06263436 C1.90074592,4.69175797 3.15208587,5.32047796 4.40369252,5.94879431 C4.47390037,5.98391007 4.5037037,6.02104397 4.5037037,6.10620976 C4.50050335,7.67673156 4.49970326,9.24732064 4.50130344,10.817977 L4.50130344,10.9285714 C4.4624991,10.9112154 4.43269576,10.8993083 4.40389254,10.8847776 C2.96293138,10.1582448 1.52197022,9.43171198 0.0810090602,8.70517915 C0.0310034675,8.67934687 0,8.65573455 0,8.58772301 C0.00240026845,6.99029258 0.00306700969,5.39279488 0.00200022371,3.79522991 C0.00200022371,3.78191015 0.00360040268,3.76859038 0.00540060401,3.7387218 Z" id="Shape"></path>
                            <path d="M5.63162968,10.9285714 L5.63162968,10.8098711 C5.63162968,9.24227284 5.63096299,7.67440544 5.62962963,6.10626887 C5.62962963,6.02430911 5.6542302,5.98332923 5.72723188,5.94679051 C7.16099822,5.22812855 8.59389789,4.50778432 10.0259309,3.78575783 C10.0553315,3.77102122 10.0859322,3.75769771 10.1259332,3.7387218 C10.1281332,3.77364555 10.1315333,3.80130192 10.1315333,3.82916016 C10.1315333,5.41021649 10.1321333,6.99154199 10.1333333,8.57313664 C10.1333333,8.63995605 10.1133329,8.67407231 10.0545315,8.70314178 C8.60996492,9.4298786 7.16599834,10.1577594 5.72263177,10.8867841 C5.69663117,10.8997038 5.66983056,10.9110086 5.63162968,10.9285714 Z" id="Shape"></path>
                        </g>
                        <ellipse id="Oval" fill="#FFFFFF" cx="5.38333333" cy="5.46428571" rx="2.21666667" ry="2.25"></ellipse>
                        <g id="check" transform="translate(3.800000, 4.500000)" fill="#008894" fill-rule="nonzero">
                            <polygon id="Shape" points="1.34152094 1.92857143 0 1.08157907 0.327932998 0.739206485 1.27812395 1.33859103 2.77037186 0 3.16666667 0.291114871"></polygon>
                        </g>
                    </g>
                </g>
            </g>
        </g>
    </g>
</svg>