<svg xmlns="http://www.w3.org/2000/svg" xmlns:xlink="http://www.w3.org/1999/xlink" width="162" height="167.87" viewBox="0 0 162 167.87"><defs><style>.cls-1,.cls-2{fill:none;}.cls-1,.cls-3{clip-rule:evenodd;}.cls-3,.cls-4,.cls-8{fill:#008894;}.cls-5{clip-path:url(#clip-path);}.cls-6{clip-path:url(#clip-path-2);}.cls-7{fill:#fff;}.cls-8{fill-rule:evenodd;}.cls-9{clip-path:url(#clip-path-3);}.cls-10{clip-path:url(#clip-path-4);}</style><clipPath id="clip-path"><path class="cls-1" d="M103.89,63a33,33,0,0,0-45.54,0c-11.33,11-12.61,31.63-3,44.05l25.76,36,25.77-36c9.61-12.42,8.34-33.08-3-44.05"/></clipPath><clipPath id="clip-path-2"><rect class="cls-2" x="48.92" y="53.91" width="64.41" height="89.19"/></clipPath><clipPath id="clip-path-3"><path class="cls-3" d="M71.21,88.59a9.91,9.91,0,1,1,9.91,9.91A9.92,9.92,0,0,1,71.21,88.59Z"/></clipPath><clipPath id="clip-path-4"><rect class="cls-4" x="49.14" y="53.91" width="64.41" height="89.19"/></clipPath></defs><title>Recurso 265100</title><g id="Capa_2" data-name="Capa 2"><g id="Capa_1-2" data-name="Capa 1"><rect class="cls-4" width="162" height="162"/><g class="cls-5"><g class="cls-6"><rect class="cls-7" x="24.14" y="29.14" width="113.96" height="138.73"/></g></g><path class="cls-8" d="M71.21,88.59a9.91,9.91,0,1,1,9.91,9.91A9.92,9.92,0,0,1,71.21,88.59Z"/><g class="cls-9"><rect class="cls-4" x="49.14" y="53.91" width="64.41" height="89.19"/><g class="cls-10"><rect class="cls-4" x="49.14" y="53.91" width="69.37" height="69.37"/></g></g><path class="cls-7" d="M118.61,56.53a15.18,15.18,0,0,0-11-11,10.58,10.58,0,0,0-5.85.13,4,4,0,0,0-.15,1.54,4.21,4.21,0,0,0,.15,1.37c1.08.54,2.59,1.06,4.19,1.92a17.59,17.59,0,0,1,7.85,7.85c.82,1.57,1.33,3.07,1.86,4.15a5.25,5.25,0,0,0,1.63.1,3.29,3.29,0,0,0,1.36-.16A10.59,10.59,0,0,0,118.61,56.53Z"/><path class="cls-7" d="M130.41,62.53c.76,0,1.37-.16,1.37-.28a22.51,22.51,0,0,0-.67-10.12A28,28,0,0,0,112,33a22.5,22.5,0,0,0-10.12-.65c-.17,0-.28.72-.27,1.54s.12,1.31.21,1.31a53.22,53.22,0,0,1,8.44,2.63,30.14,30.14,0,0,1,15.9,16,52.75,52.75,0,0,1,2.62,8.43A2.94,2.94,0,0,0,130.41,62.53Z"/><path class="cls-7" d="M143.67,62.53c.75,0,1.34-.19,1.36-.41a35.28,35.28,0,0,0-1.44-14.4,41.12,41.12,0,0,0-27.2-27.2A35.27,35.27,0,0,0,102,19.11c-.23,0-.41.72-.39,1.53S101.8,22,102,22a61.31,61.31,0,0,1,12.69,3.4,42.9,42.9,0,0,1,24,24.06,60.54,60.54,0,0,1,3.37,12.7C142.11,62.37,142.83,62.55,143.67,62.53Z"/><path class="cls-7" d="M43.37,62.41a3.29,3.29,0,0,0,1.36.16,5.25,5.25,0,0,0,1.63-.1c.53-1.08,1-2.58,1.86-4.15a17.59,17.59,0,0,1,7.85-7.85c1.6-.86,3.11-1.38,4.19-1.92a4.21,4.21,0,0,0,.15-1.37,4,4,0,0,0-.15-1.54,10.58,10.58,0,0,0-5.85-.13,15.18,15.18,0,0,0-11,11A10.59,10.59,0,0,0,43.37,62.41Z"/><path class="cls-7" d="M33.23,62.26a52.75,52.75,0,0,1,2.62-8.43,30.14,30.14,0,0,1,15.9-16,53.22,53.22,0,0,1,8.44-2.63c.09,0,.2-.5.21-1.31s-.1-1.51-.27-1.54A22.5,22.5,0,0,0,50,33,28,28,0,0,0,30.89,52.13a22.51,22.51,0,0,0-.67,10.12c0,.12.61.27,1.37.28A2.94,2.94,0,0,0,33.23,62.26Z"/><path class="cls-7" d="M19.93,62.15a60.54,60.54,0,0,1,3.37-12.7,42.9,42.9,0,0,1,24-24.06A61.31,61.31,0,0,1,60,22c.17,0,.36-.54.37-1.35s-.16-1.5-.39-1.53a35.27,35.27,0,0,0-14.4,1.41,41.12,41.12,0,0,0-27.2,27.2A35.28,35.28,0,0,0,17,62.12c0,.22.61.39,1.36.41S19.89,62.37,19.93,62.15Z"/></g></g></svg>