<?xml version="1.0" encoding="UTF-8"?>
<svg width="38px" height="41px" viewBox="0 0 38 41" version="1.1" xmlns="http://www.w3.org/2000/svg" xmlns:xlink="http://www.w3.org/1999/xlink">
    <!-- Generator: Sketch 52.6 (67491) - http://www.bohemiancoding.com/sketch -->
    <title>Group 8</title>
    <desc>Created with Sketch.</desc>
    <defs>
        <polygon id="path-1" points="0.42903913 0 20.7635217 0 20.7635217 37.1046829 0.42903913 37.1046829"></polygon>
    </defs>
    <g id="Page-1" stroke="none" stroke-width="1" fill="none" fill-rule="evenodd">
        <g id="1" transform="translate(-859.000000, -151.000000)">
            <g id="Group-8" transform="translate(859.000000, 151.000000)">
                <path d="M18.5,19.7271003 C20.0543345,19.7252036 21.3677898,20.8802856 21.5640968,22.4222916 C21.7604039,23.9642977 20.7779203,25.4114694 19.2728997,25.7993417 L19.2728997,27.4542006 L17.7280486,27.4542006 L17.7280486,25.7993417 C16.3662278,25.4484548 15.4150396,24.2231954 15.4093495,22.8177508 L16.9551489,22.8177508 C16.9551489,23.6712596 17.6464911,24.3635502 18.5,24.3635502 C19.3535089,24.3635502 20.0457994,23.6712596 20.0457994,22.8177508 C20.0457994,21.9642419 19.3535089,21.2728997 18.5,21.2728997 C16.9456655,21.2747964 15.6331585,20.1197144 15.4368515,18.5777084 C15.2395961,17.0357023 16.2220797,15.5885306 17.7280486,15.2006583 L17.7280486,13.5448511 L19.2728997,13.5448511 L19.2728997,15.2006583 C20.6337722,15.5515452 21.5859087,16.7768046 21.5906505,18.1822492 L20.0457994,18.1822492 C20.0457994,17.3287404 19.3535089,16.6364498 18.5,16.6364498 C17.6464911,16.6364498 16.9551489,17.3287404 16.9551489,18.1822492 C16.9551489,19.0357581 17.6464911,19.7271003 18.5,19.7271003 M18.5,12 C13.8057012,12 10,15.8057012 10,20.5 C10,25.1942988 13.8057012,29 18.5,29 C23.1942988,29 27,25.1942988 27,20.5 C26.9952583,15.8075979 23.1924021,12.0056901 18.5,12" id="Fill-1" fill="#FEFEFE"></path>
                <path d="M21,37.9719502 L16.9029816,34.9439004 L16.9029816,35.3982472 C16.9029816,35.6249561 16.7992597,35.8405153 16.6210464,35.983602 C16.4418903,36.1266888 16.2071014,36.183366 15.9817418,36.1396967 C9.31430413,34.8017428 4.21495423,29.4861634 3.23525294,22.8512129 C2.25460873,16.2162624 5.60482881,9.68816232 11.6084458,6.53282105 L9.89609016,4 C3.77555019,7.32537291 -0.0187885699,13.6732208 6.9972584e-05,20.5590377 C0.0491021831,29.8689669 6.92304093,37.7786902 16.251419,39.2588017 C16.626704,39.3154789 16.9039246,39.6341721 16.9029816,40.0086133 L16.9029816,41 L21,37.9719502 Z" id="Fill-3" fill="#FEFEFE"></path>
                <g id="Group-7" transform="translate(17.000000, 0.000000)">
                    <mask id="mask-2" fill="white">
                        <use xlink:href="#path-1"></use>
                    </mask>
                    <g id="Clip-6"></g>
                    <path d="M20.7634304,20.3902439 C20.7150391,11.1034146 14.0589522,3.21331707 5.02712609,1.73687805 C4.66373478,1.68034146 4.39621304,1.36243902 4.39621304,0.988926829 L4.39621304,0 L0.42903913,3.02053659 L4.39621304,6.042 L4.39621304,5.58785366 C4.39621304,5.36170732 4.49664783,5.14668293 4.67012609,5.00302439 C4.8426913,4.85936585 5.07003913,4.80282927 5.28916957,4.8482439 C11.8101261,6.19678049 16.7734304,11.59 17.6554304,18.2854146 C18.5374304,24.9817561 15.1445609,31.5103415 9.20247391,34.5503415 L10.8213,37.1046829 C16.9596913,33.8663415 20.7981261,27.4128293 20.7634304,20.3902439" id="Fill-5" fill="#FEFEFE" mask="url(#mask-2)"></path>
                </g>
            </g>
        </g>
    </g>
</svg>