<svg xmlns="http://www.w3.org/2000/svg" width="11.04477mm" height="10.23972mm" viewBox="0 0 31.308 29.02597"><title>Recurso 165</title><g id="Capa_2" data-name="Capa 2"><g id="Capa_1-2" data-name="Capa 1"><path d="M28.986,16.837a1.05858,1.05858,0,0,0-1.1-1.013H4.66a1.06258,1.06258,0,0,0-1.103,1.013L.842,28.014a1.05811,1.05811,0,0,0,1.099,1.012H25.168a1.06085,1.06085,0,0,0,1.102-1.012Z" style="fill:#fff"/><path d="M.195,27.238,2.912,16.06a1.05862,1.05862,0,0,1,1.102-1.01H25.625v-.647a1.10066,1.10066,0,0,0-1.103-1.1H13.588v-.84a1.10023,1.10023,0,0,0-1.1-1.101H1.1A1.10087,1.10087,0,0,0,0,12.463V26.76a1.09137,1.09137,0,0,0,.213.645A.82946.82946,0,0,1,.195,27.238Z" style="fill:#fff"/><path d="M30.383,5.354C27.447.608,22.014-1.347,18.251.982a6.92252,6.92252,0,0,0-2.962,4.059l-2.636-.395,4.275,6.944,6.119-5.391-2.584-.387a4.79482,4.79482,0,0,1,1.91-2.333c2.673-1.653,6.529-.267,8.609,3.101.117.189.227.382.326.576A12.90481,12.90481,0,0,0,30.383,5.354Z" style="fill:#fff"/></g></g></svg>