<svg xmlns="http://www.w3.org/2000/svg" width="17.28611mm" height="9.77774mm" viewBox="0 0 49 27.71642"><title>Recurso 162</title><g id="Capa_2" data-name="Capa 2"><g id="Capa_1-2" data-name="Capa 1"><path d="M26.338.16542v11.026H49V.16542Zm21.082,10.47H28.016V.77442H47.42Z" style="fill:#fff"/><path d="M0,.16542v27.551H22.664V.16542Zm21.083,26.164H1.679v-24.64H21.083Z" style="fill:#fff"/><path d="M18.263,8.07242a.84139.84139,0,0,1-.841.84H5.248a.84139.84139,0,0,1-.841-.84h0a.84118.84118,0,0,1,.841-.842H17.421a.84267.84267,0,0,1,.842.842Z" style="fill:#fff"/><path d="M18.263,12.03142a.84182.84182,0,0,1-.841.842H5.248a.84182.84182,0,0,1-.841-.842h0a.84118.84118,0,0,1,.841-.842H17.421a.844.844,0,0,1,.842.842Z" style="fill:#fff"/><path d="M18.263,15.35042a.84032.84032,0,0,1-.841.841H5.248a.84032.84032,0,0,1-.841-.841h0a.84118.84118,0,0,1,.841-.842H17.421a.84267.84267,0,0,1,.842.842Z" style="fill:#fff"/><path d="M18.263,19.35942a.8431.8431,0,0,1-.841.842H5.248a.8431.8431,0,0,1-.841-.842h0a.84054.84054,0,0,1,.841-.842H17.421a.842.842,0,0,1,.842.842Z" style="fill:#fff"/><path d="M19.178,12.63742l5.772-6.589-2.941.07a5.52932,5.52932,0,0,1,4.151-3.77,8.34985,8.34985,0,0,1,8.22,2.9s-5.007-7.265-13.319-4.7a7.51761,7.51761,0,0,0-4.96,5.976l-3.02.121Z" style="fill:#fff"/><path d="M30.393,15.35042l-7.762,4.058,2.768.996a5.5265,5.5265,0,0,1-5.232,2.016,8.35721,8.35721,0,0,1-6.617-5.676s2.045,8.583,10.721,9.195a7.5155,7.5155,0,0,0,6.785-3.777l2.859.979Z" style="fill:#fff"/><path d="M37.699,1.41742a4.2815,4.2815,0,1,0,4.283,4.282A4.28313,4.28313,0,0,0,37.699,1.41742Zm.363,7.069v.946h-.658v-.909a3.33684,3.33684,0,0,1-1.584-.402l.252-.608a3.093,3.093,0,0,0,1.49.392c.739,0,1.24-.373,1.24-.893,0-.501-.406-.811-1.179-1.084-1.063-.363-1.722-.792-1.722-1.585,0-.755.615-1.329,1.564-1.466v-.912h.656v.884a3.17306,3.17306,0,0,1,1.355.318l-.262.601a2.77742,2.77742,0,0,0-1.312-.319c-.803,0-1.104.419-1.104.792,0,.465.386.701,1.292,1.037,1.075.383,1.616.848,1.616,1.658C39.709,7.66742,39.137,8.33942,38.062,8.48642Z" style="fill:#fff"/></g></g></svg>