<svg xmlns="http://www.w3.org/2000/svg" width="10.04288mm" height="10.04394mm" viewBox="0 0 28.468 28.471"><title>Recurso 163</title><g id="Capa_2" data-name="Capa 2"><g id="Capa_1-2" data-name="Capa 1"><path d="M14.134,0H14.13V14.656H28.46c.003-.106.008-.213.008-.32A14.33564,14.33564,0,0,0,14.134,0Z" style="fill:#c5c5c4"/><path d="M14.197,14.589V.068A14.2015,14.2015,0,1,0,28.394,14.589Z" style="fill:#fff"/><path d="M15.458,17.057a.34762.34762,0,0,1-.347.346H13.356a.34676.34676,0,0,1-.346-.346l-.859-11.63a.34783.34783,0,0,1,.348-.349h3.467a.34868.34868,0,0,1,.349.349Z" style="fill:#343434"/><path d="M12.194,20.423a1.958,1.958,0,1,1,1.957,1.96A1.9572,1.9572,0,0,1,12.194,20.423Z" style="fill:#343434"/></g></g></svg>