<svg xmlns="http://www.w3.org/2000/svg" width="10.23056mm" height="10.23056mm" viewBox="0 0 29 29"><title>Recurso 173</title><g id="Capa_2" data-name="Capa 2"><g id="Capa_1-2" data-name="Capa 1"><path d="M13.709,23.623V21.33a6.58993,6.58993,0,0,1-3.487-1.009l.55-1.538a6.16474,6.16474,0,0,0,3.28.986c1.627,0,2.729-.941,2.729-2.247,0-1.261-.896-2.04-2.591-2.729-2.34-.917-3.784-1.995-3.784-3.99a3.75978,3.75978,0,0,1,3.44-3.692V4.817H15.29V7.043a6.27728,6.27728,0,0,1,2.982.801l-.575,1.515a5.50082,5.50082,0,0,0-2.888-.803c-1.766,0-2.43,1.053-2.43,1.995,0,1.168.848,1.765,2.842,2.614,2.362.964,3.556,2.133,3.556,4.174a3.95748,3.95748,0,0,1-3.623,3.899v2.384l-1.445.001Z" style="fill:#fff"/><path d="M14.5,0A14.5,14.5,0,1,0,29,14.5,14.50017,14.50017,0,0,0,14.5,0Zm0,27.779A13.316,13.316,0,1,1,27.816,14.463,13.31629,13.31629,0,0,1,14.5,27.779Z" style="fill:#fff"/></g></g></svg>