<svg xmlns="http://www.w3.org/2000/svg" width="17.27287mm" height="5.71158mm" viewBox="0 0 48.96248 16.19032"><title>Recurso 169</title><g id="Capa_2" data-name="Capa 2"><g id="Capa_1-2" data-name="Capa 1"><path d="M2.26553,16.11732c2.453.075,8.998-.37,10.559-.892,1.562-.52,3.346-1.115,3.196-3.494-.073-1.264-1.263-2.898,1.265-3.645,2.528-.744,9.22-2.23,14.871.002,1.488.443.967,2.154.967,2.898,0,.743-.818,3.493,2.824,4.162a81.58521,81.58521,0,0,0,10.262,1.042c1.414-.074,2.826-.744,2.75-2.603-.074-1.857-.223-9.592-2.451-10.633,0,0-21.415-6.841-44.019.297-1.042.597-2.345,3.133-2.454,7.658C-.04747,14.33732-.18847,16.04632,2.26553,16.11732Zm10.073-6.43a3.46768,3.46768,0,0,1,3.014-3.086c4.014-1.34,10.482-2.082,14.758-1.004,4.272,1.078,4.608,2.974,4.646,3.531.073.893-.931.187-.931.187s.224-1.339-1.934-2.008c-6.246-2.677-13.458-.148-15.54.446s-1.302,2.342-1.115,3.123c.296,1.484-1.302,1.896-2.269,2.416C11.26053,13.73832,11.93153,12.54832,12.33853,9.68732Z" style="fill:#fff"/></g></g></svg>