<svg xmlns="http://www.w3.org/2000/svg" width="11.04477mm" height="10.24002mm" viewBox="0 0 31.308 29.02682"><title>Capa 2 (3)</title><g id="Capa_2" data-name="Capa 2"><g id="Capa_1-2" data-name="Capa 1"><g id="Capa_2-2" data-name="Capa 2"><g id="Capa_1-2-2" data-name="Capa 1-2"><path d="M28.986,16.837a1.05857,1.05857,0,0,0-1.1-1.013H4.66a1.06257,1.06257,0,0,0-1.103,1.013L.842,28.014a1.05812,1.05812,0,0,0,1.099,1.012H25.168a1.06086,1.06086,0,0,0,1.102-1.012Z" style="fill:#fff"/><path d="M.195,27.238,2.912,16.06a1.05862,1.05862,0,0,1,1.102-1.01H25.625v-.647a1.10067,1.10067,0,0,0-1.10132-1.1H13.588v-.84a1.10022,1.10022,0,0,0-1.09946-1.101H1.1A1.10086,1.10086,0,0,0,0,12.463V26.76a1.09139,1.09139,0,0,0,.213.645A.82892.82892,0,0,1,.195,27.238Z" style="fill:#fff"/><path d="M12.653,7.156c.099-.194.209-.387.326-.576,2.08-3.368,5.936-4.754,8.609-3.101a4.7948,4.7948,0,0,1,1.91,2.333l-2.584.387,6.119,5.391,4.275-6.944-2.636.395A6.92248,6.92248,0,0,0,25.71.982C21.947-1.347,16.514.608,13.578,5.354A12.90393,12.90393,0,0,0,12.653,7.156Z" style="fill:#fff"/></g></g></g></g></svg>