<svg xmlns="http://www.w3.org/2000/svg" width="11.37497mm" height="10.20373mm" viewBox="0 0 32.244 28.92396"><title>Recurso 154</title><g id="Capa_2" data-name="Capa 2"><g id="Capa_1-2" data-name="Capa 1"><rect y="6.42163" width="32.244" height="0.328" style="fill:#fff"/><rect x="12.345" y="5.60363" width="15.848" height="1.739" style="fill:#fff"/><rect x="12.345" y="13.80063" width="15.848" height="1.74" style="fill:#fff"/><rect x="12.345" y="9.70263" width="15.848" height="1.739" style="fill:#fff"/><rect y="2.34763" width="32.244" height="0.325" style="fill:#fff"/><rect y="10.49763" width="32.244" height="0.328" style="fill:#fff"/><rect y="14.57563" width="32.244" height="0.325" style="fill:#fff"/><rect y="18.65163" width="32.244" height="0.326" style="fill:#fff"/><path d="M5.088,27.31563a.42176.42176,0,0,1-.596-.034l-1.37-1.367a.42452.42452,0,0,1-.034-.596l10.734-10.745a.42232.42232,0,0,1,.595.033l1.37,1.369a.42235.42235,0,0,1,.034.595Z" style="fill:#a3a1a1"/><path d="M4.423,28.86863c-.127.128-.433.026-.684-.224l-1.977-1.976c-.252-.252-.352-.559-.225-.686l8.787-8.797c.127-.127.434-.027.685.225l1.977,1.976c.252.251.353.558.226.684Z" style="fill:#fff"/><path d="M27.827,9.52963a7.47661,7.47661,0,1,0-7.195,7.749A7.47542,7.47542,0,0,0,27.827,9.52963Zm-14.21.526a6.74362,6.74362,0,1,1,6.987,6.488A6.7452,6.7452,0,0,1,13.617,10.05563Z" style="fill:#a3a1a1"/><path d="M27.277,2.86563a9.792,9.792,0,1,0,.009,13.846A9.78813,9.78813,0,0,0,27.277,2.86563Zm-12.189,12.202a7.45856,7.45856,0,1,1,10.547-.007A7.45479,7.45479,0,0,1,15.088,15.06763Z" style="fill:#fff"/></g></g></svg>