<svg xmlns="http://www.w3.org/2000/svg" width="13.57912mm" height="10.24467mm" viewBox="0 0 38.492 29.04"><title>Recurso 170</title><g id="Capa_2" data-name="Capa 2"><g id="Capa_1-2" data-name="Capa 1"><circle cx="24.026" cy="8.004" r="8.004" style="fill:#fff"/><path d="M16.592,16.064S8.164,19.846,8.927,29.04H38.492V23.565s-3.151-5.941-8.029-7.368c0,0-2.788,2.322-5.178,2.388-2.389.066.73.73.93,1.195.199.464-2.356,7.367-2.356,7.367s-3.499-6.681-3.252-6.903c1.359-1.214,3.42-1.593.897-1.758A10.05875,10.05875,0,0,1,16.592,16.064Z" style="fill:#fff"/><path d="M2.807.068,0,3.652V22.985l11.15.082.231-1.215H1.518L1.245,7.071H6.52V1.487l12.544-.073-.05,1.991,1.479-.243V.069L2.807.068ZM5.078,5.512H1.217L1.194,4.35l2.24-2.937.846.02v-.02h.798Z" style="fill:#fff"/><path d="M17.953,6.292a.781.781,0,0,1-.78.78H11.466a.78036.78036,0,0,1-.78-.78h0a.78036.78036,0,0,1,.78-.78h5.707a.77972.77972,0,0,1,.78.78Z" style="fill:#fff"/><path d="M16.094,9.663a.89911.89911,0,0,1-.983.779H7.912a.90014.90014,0,0,1-.984-.779h0a.89949.89949,0,0,1,.984-.78h7.199a.8984.8984,0,0,1,.983.78Z" style="fill:#fff"/><path d="M14.8,12.632c0,.431-.563.779-1.258.779H4.338c-.695,0-1.258-.348-1.258-.779h0c0-.431.562-.779,1.258-.779h9.205c.694.001,1.257.348,1.257.779Z" style="fill:#fff"/><path d="M11.382,15.837a.85841.85841,0,0,1-.919.781H3.727a.85938.85938,0,0,1-.92-.781h0a.85789.85789,0,0,1,.92-.779h6.735a.85789.85789,0,0,1,.92.779Z" style="fill:#fff"/></g></g></svg>