<svg xmlns="http://www.w3.org/2000/svg" width="10.84881mm" height="10.2175mm" viewBox="0 0 30.75253 28.963"><title>Recurso 178</title><g id="Capa_2" data-name="Capa 2"><g id="Capa_1-2" data-name="Capa 1"><circle cx="15.39633" cy="16.616" r="5.201" style="fill:#fff"/><path d="M19.74133,20.531a6.19557,6.19557,0,0,1-4.045,1.752c-.03.192,1.44,1.035,1.44,1.035l-1.816,3.791-1.816-3.791s1.469-.844,1.439-1.035a6.19061,6.19061,0,0,1-4.045-1.752s-5.507,2.404-4.982,8.432h18.807C25.24833,22.935,19.74133,20.531,19.74133,20.531Z" style="fill:#fff"/><circle cx="24.64233" cy="3.396" r="3.396" style="fill:#fff"/><path d="M27.47833,5.953a4.04988,4.04988,0,0,1-2.642,1.144c-.019.125.94.675.94.675l-1.188,2.475-1.185-2.475s.959-.55.94-.675a4.04988,4.04988,0,0,1-2.642-1.144,5.64555,5.64555,0,0,0-3.251,5.504h12.279A5.647,5.647,0,0,0,27.47833,5.953Z" style="fill:#fff"/><circle cx="6.21333" cy="3.396" r="3.396" style="fill:#fff"/><path d="M9.04833,5.953a4.04659,4.04659,0,0,1-2.641,1.144c-.019.125.94.675.94.675l-1.187,2.475-1.184-2.475s.959-.55.94-.675a4.04657,4.04657,0,0,1-2.642-1.144,5.64555,5.64555,0,0,0-3.251,5.504h12.279A5.64912,5.64912,0,0,0,9.04833,5.953Z" style="fill:#fff"/></g></g></svg>