<svg xmlns="http://www.w3.org/2000/svg" width="17.28646mm" height="9.69116mm" viewBox="0 0 49.001 27.471"><title>Recurso 161</title><g id="Capa_2" data-name="Capa 2"><g id="Capa_1-2" data-name="Capa 1"><path d="M0,0V27.471H49.001V0ZM25.922,21.716v2.591H22.935v-2.4a7.199,7.199,0,0,1-3.262-1.131l-.46-.33,1.082-3.008.796.524a5.5726,5.5726,0,0,0,2.951.889c1.226,0,2.049-.626,2.049-1.558,0-.631-.266-1.323-2.19-2.104-2.148-.84-4.352-2.069-4.352-4.791a4.48347,4.48347,0,0,1,3.527-4.392V3.504h2.986V5.843a6.9912,6.9912,0,0,1,2.68.869l.559.315-1.127,2.978-.764-.436a4.91717,4.91717,0,0,0-2.59-.724c-1.619,0-1.744.989-1.744,1.294,0,.652.355,1.098,2.46,1.992,2.024.826,4.104,2.064,4.104,4.975A4.728,4.728,0,0,1,25.922,21.716Z" style="fill:#fff"/></g></g></svg>