<svg xmlns="http://www.w3.org/2000/svg" width="17.25648mm" height="9.75985mm" viewBox="0 0 48.916 27.66573"><title>Recurso 156</title><g id="Capa_2" data-name="Capa 2"><g id="Capa_1-2" data-name="Capa 1"><path d="M26.292.16273v27.503H48.916V.16273Zm21.045,26.12H27.968V1.68373H47.337Z" style="fill:#fff"/><path d="M44.521,8.05673a.8399.8399,0,0,1-.84.84H31.531a.84161.84161,0,0,1-.842-.84h0a.84118.84118,0,0,1,.842-.841h12.15a.83947.83947,0,0,1,.84.841Z" style="fill:#fff"/><path d="M44.521,12.00873a.84011.84011,0,0,1-.84.841H31.531a.84182.84182,0,0,1-.842-.841h0a.841.841,0,0,1,.842-.84h12.15a.83926.83926,0,0,1,.84.84Z" style="fill:#fff"/><path d="M44.521,15.32173a.839.839,0,0,1-.84.839H31.531a.84075.84075,0,0,1-.842-.839h0a.842.842,0,0,1,.842-.842h12.15a.84033.84033,0,0,1,.84.842Z" style="fill:#fff"/><path d="M44.521,19.32173a.83926.83926,0,0,1-.84.84H31.531a.841.841,0,0,1-.842-.84h0a.84033.84033,0,0,1,.842-.84h12.15a.83862.83862,0,0,1,.84.84Z" style="fill:#fff"/><path d="M0,.16273v27.503H22.624V.16273Zm21.046,26.12H1.676V1.68373H21.047l-.001,24.599Z" style="fill:#fff"/><path d="M18.23,8.05673a.84033.84033,0,0,1-.839.84H5.24a.84054.84054,0,0,1-.84-.84h0a.83947.83947,0,0,1,.84-.841H17.392a.83969.83969,0,0,1,.838.841Z" style="fill:#fff"/><path d="M18.23,12.00873a.84054.84054,0,0,1-.839.841H5.24a.84075.84075,0,0,1-.84-.841h0a.83926.83926,0,0,1,.84-.84H17.392a.83947.83947,0,0,1,.838.84Z" style="fill:#fff"/><path d="M18.23,15.32173a.83947.83947,0,0,1-.839.839H5.24a.83968.83968,0,0,1-.84-.839h0a.84033.84033,0,0,1,.84-.842H17.392a.84054.84054,0,0,1,.838.842Z" style="fill:#fff"/><path d="M18.23,19.32173a.83968.83968,0,0,1-.839.84H5.24a.8399.8399,0,0,1-.84-.84h0a.83862.83862,0,0,1,.84-.84H17.392a.83883.83883,0,0,1,.838.84Z" style="fill:#fff"/><path d="M19.145,12.61373l5.762-6.578-2.937.071a5.51528,5.51528,0,0,1,4.144-3.763,8.33852,8.33852,0,0,1,8.206,2.894s-4.998-7.251-13.295-4.69a7.50616,7.50616,0,0,0-4.952,5.966l-3.014.12Z" style="fill:#fff"/><path d="M30.341,15.31973l-7.75,4.052,2.763.994a5.51848,5.51848,0,0,1-5.224,2.012,8.34166,8.34166,0,0,1-6.606-5.664s2.042,8.568,10.702,9.179a7.50147,7.50147,0,0,0,6.773-3.771l2.854.977Z" style="fill:#fff"/></g></g></svg>