<svg xmlns="http://www.w3.org/2000/svg" width="9.6714mm" height="10.2362mm" viewBox="0 0 27.415 29.016"><title>Recurso 174</title><g id="Capa_2" data-name="Capa 2"><g id="Capa_1-2" data-name="Capa 1"><path d="M8.695,22.339a3.3385,3.3385,0,1,0,3.34,3.337A3.33675,3.33675,0,0,0,8.695,22.339Z" style="fill:#fff"/><path d="M21.615,22.339a3.3385,3.3385,0,1,0,3.338,3.337A3.3391,3.3391,0,0,0,21.615,22.339Z" style="fill:#fff"/><path d="M6.722,18.605V16.202H19.713L27.32,8.279V5.584H6.722V0H0V2.866H3.855V21.471h23.56V18.605Zm4.568-4.463V7.644h3.157v6.498Zm5.171,0V7.644h3.157v5.927l-.542.571Zm5.172-2.688V7.644h3.623ZM9.276,7.644v6.498H6.722V7.644Z" style="fill:#fff"/></g></g></svg>