<svg xmlns="http://www.w3.org/2000/svg" width="11.3665mm" height="10.19606mm" viewBox="0 0 32.22 28.90221"><title>Recurso 158</title><g id="Capa_2" data-name="Capa 2"><g id="Capa_1-2" data-name="Capa 1"><circle cx="18.677" cy="13.78775" r="1.109" style="fill:#fff"/><circle cx="22.97" cy="13.78775" r="1.109" style="fill:#fff"/><path d="M18.021,11.43875v-.798h4.316l2.527-2.631v-.896H18.021v-1.854H15.79v.952h1.28v6.18h7.825v-.952l-6.874-.001Zm1.519-1.482v-2.158h1.049v2.158Zm1.717,0v-2.158h1.049v1.969l-.18.189Zm1.718-.892v-1.266h1.204Zm-4.104-1.266v2.158h-.849v-2.158Z" style="fill:#fff"/><path d="M0,5.38175v1.247H14.08q.084-.6345.178-1.247Z" style="fill:#fff"/><path d="M0,9.45675v1.243H13.648q-.0225-.6165-.038-1.243Z" style="fill:#fff"/><path d="M14.653,13.53275H0v1.237H14.965C14.857,14.37175,14.754,13.95775,14.653,13.53275Z" style="fill:#fff"/><path d="M26.456,6.62875H32.22v-1.247H26.276Q26.369,5.99525,26.456,6.62875Z" style="fill:#fff"/><rect y="1.73775" width="32.22" height="1.27" style="fill:#fff"/><path d="M32.22,10.69875v-1.243H27.184c-.008.417-.022.832-.037,1.243Z" style="fill:#fff"/><path d="M25.778,14.76975h6.439v-1.237H26.071C25.978,13.95775,25.881,14.37175,25.778,14.76975Z" style="fill:#fff"/><rect y="16.99175" width="32.22" height="1.235" style="fill:#fff"/><path d="M5.084,27.29675a.4244.4244,0,0,1-.596-.033l-1.37-1.367a.42422.42422,0,0,1-.034-.595l10.726-10.738a.42407.42407,0,0,1,.595.032l1.368,1.369a.42147.42147,0,0,1,.034.595Z" style="fill:#a3a1a1"/><path d="M4.419,28.84775c-.127.126-.432.026-.684-.224l-1.977-1.974c-.25-.252-.351-.558-.223-.686l8.779-8.791c.127-.125.434-.027.685.225l1.976,1.975c.251.25.353.557.226.683Z" style="fill:#fff"/><path d="M27.807,9.52475a7.47106,7.47106,0,1,0-7.191,7.74A7.47335,7.47335,0,0,0,27.807,9.52475Zm-14.201.524a6.73908,6.73908,0,1,1,6.981,6.485A6.74008,6.74008,0,0,1,13.606,10.04875Z" style="fill:#a3a1a1"/><path d="M27.255,2.86375a9.78353,9.78353,0,1,0,.009,13.837A9.77817,9.77817,0,0,0,27.255,2.86375Zm-12.179,12.193a7.45149,7.45149,0,1,1,10.537-.006A7.44845,7.44845,0,0,1,15.076,15.05675Z" style="fill:#fff"/></g></g></svg>