<svg xmlns="http://www.w3.org/2000/svg" width="11.37567mm" height="10.20445mm" viewBox="0 0 32.246 28.92599"><title>Recurso 155</title><g id="Capa_2" data-name="Capa 2"><g id="Capa_1-2" data-name="Capa 1"><path d="M0,5.38463v1.249H14.093c.057-.423.115-.839.178-1.249Z" style="fill:#fff"/><path d="M0,9.46263v1.245H13.66q-.024-.618-.038-1.245Z" style="fill:#fff"/><path d="M14.666,13.54263H0v1.239H14.978C14.87,14.38363,14.768,13.96863,14.666,13.54263Z" style="fill:#fff"/><path d="M26.478,6.63363h5.768v-1.248H26.297C26.361,5.79463,26.42,6.21063,26.478,6.63363Z" style="fill:#fff"/><rect y="1.73863" width="32.246" height="1.271" style="fill:#fff"/><path d="M32.246,10.70763v-1.245H27.209c-.012.419-.023.833-.038,1.245Z" style="fill:#fff"/><path d="M25.802,14.78163h6.443v-1.239H26.096C26.001,13.96863,25.903,14.38363,25.802,14.78163Z" style="fill:#fff"/><rect y="17.00563" width="32.246" height="1.236" style="fill:#fff"/><path d="M5.089,27.31763a.4235.4235,0,0,1-.596-.033l-1.37-1.368a.42448.42448,0,0,1-.034-.596l10.734-10.745a.42425.42425,0,0,1,.596.031l1.37,1.37a.42106.42106,0,0,1,.033.594Z" style="fill:#a3a1a1"/><path d="M4.424,28.87063c-.127.128-.433.026-.684-.223l-1.979-1.976c-.251-.251-.352-.558-.225-.686l8.788-8.797c.126-.126.434-.026.686.225l1.976,1.977c.252.25.353.557.226.683Z" style="fill:#fff"/><path d="M27.831,9.53163a7.4776,7.4776,0,1,0-7.195,7.748A7.4799,7.4799,0,0,0,27.831,9.53163Zm-14.213.525a6.7441,6.7441,0,1,1,6.987,6.489A6.74531,6.74531,0,0,1,13.618,10.05663Z" style="fill:#a3a1a1"/><path d="M27.28,2.86563a9.79237,9.79237,0,1,0,.008,13.847A9.78934,9.78934,0,0,0,27.28,2.86563Zm-12.19,12.203a7.4575,7.4575,0,1,1,10.546-.006A7.45449,7.45449,0,0,1,15.09,15.06863Z" style="fill:#fff"/><path d="M14.499,7.36163s1.113,1.457.896,1.55c0,0-.069.175-.217.093,0,0,.666.513.693.825a5.658,5.658,0,0,1,.508.628c.041.112.299.083.163-.063a2.29754,2.29754,0,0,1-.438-.757,5.87506,5.87506,0,0,0-.512-.988c-.176-.279-.237-.266-.305-.571-.068-.304-.051-.464.558.331.609.793,1.396,1.473,1.463,1.899s.577.499.316,1.024c-.263.525,1.653,1.417,2.067,1.435.414.02.923-.128,1.241.188a3.17762,3.17762,0,0,0,1.735.78l-.097-.731s-.091-.185-.615-.125a6.06982,6.06982,0,0,0,.251-.938c.065-.421.458-1.126-.23-.854,0,0-.3.161-.374.135s.044.468-.279.688a.77288.77288,0,0,1-.968.085,1.74323,1.74323,0,0,1-.704-2.114c.375-1.336.8-1.665,1.833-1.304,1.033.359.282-.238.979-.221.696.017.693.098,1.091.881.397.783.511.589.511.589a1.71124,1.71124,0,0,0-.197-1.349c-.417-.785.159-.866.697-1.258a1.26752,1.26752,0,0,0,.428-1.718,5.95386,5.95386,0,0,0-5.908-1.951A6.74273,6.74273,0,0,0,14.499,7.36163Z" style="fill:#fff"/><path d="M24.436,14.73963a1.875,1.875,0,0,1-.943-.388c-.945-.617-.122-.575.085-.831.208-.256.389-.539.741-.347s1.278.006,1.214.564C25.469,14.29463,24.436,14.73963,24.436,14.73963Z" style="fill:#fff"/></g></g></svg>