<svg xmlns="http://www.w3.org/2000/svg" width="11.31394mm" height="10.14931mm" viewBox="0 0 32.071 28.76969"><title>Recurso 159</title><g id="Capa_2" data-name="Capa 2"><g id="Capa_1-2" data-name="Capa 1"><path d="M19.731,15.87238v-1.492a4.2734,4.2734,0,0,1-2.268-.657l.358-1a4.011,4.011,0,0,0,2.132.642c1.06,0,1.777-.612,1.777-1.462,0-.821-.582-1.329-1.688-1.776-1.523-.597-2.463-1.299-2.463-2.598a2.44882,2.44882,0,0,1,2.239-2.403v-1.491h.941v1.448a4.08961,4.08961,0,0,1,1.939.521l-.372.986a3.581,3.581,0,0,0-1.881-.522c-1.147,0-1.581.687-1.581,1.298,0,.761.551,1.149,1.852,1.701,1.535.628,2.312,1.388,2.312,2.717a2.57427,2.57427,0,0,1-2.357,2.537v1.551Z" style="fill:#fff"/><path d="M0,5.35738v1.241H14.016q.084-.63.176-1.241Z" style="fill:#fff"/><path d="M0,9.41238v1.237H13.586q-.0225-.6135-.038-1.237Z" style="fill:#fff"/><path d="M14.586,13.46938H0v1.231H14.896C14.789,14.30538,14.687,13.89438,14.586,13.46938Z" style="fill:#fff"/><path d="M26.333,6.59738h5.736v-1.241H26.153C26.216,5.76338,26.275,6.17738,26.333,6.59738Z" style="fill:#fff"/><rect y="1.73038" width="32.069" height="1.264" style="fill:#fff"/><path d="M32.069,10.65038v-1.238H27.058q-.015.624-.036,1.237h5.047Z" style="fill:#fff"/><path d="M25.661,14.70138h6.41v-1.231H25.952C25.858,13.89438,25.76,14.30538,25.661,14.70138Z" style="fill:#fff"/><rect y="16.91338" width="32.069" height="1.229" style="fill:#fff"/><path d="M5.06,27.17038a.42078.42078,0,0,1-.593-.033l-1.363-1.36a.42171.42171,0,0,1-.033-.593l10.675-10.688a.42441.42441,0,0,1,.593.032l1.362,1.363a.41869.41869,0,0,1,.033.592Z" style="fill:#a3a1a1"/><path d="M4.399,28.71438c-.127.127-.431.028-.681-.222l-1.967-1.966c-.25-.252-.35-.555-.223-.682l8.738-8.751c.127-.124.433-.025.683.223l1.966,1.966c.25.249.351.555.225.679Z" style="fill:#fff"/><path d="M27.676,9.48038a7.43557,7.43557,0,1,0-7.156,7.707A7.43485,7.43485,0,0,0,27.676,9.48038Zm-14.132.522a6.70707,6.70707,0,1,1,6.949,6.455A6.7071,6.7071,0,0,1,13.544,10.00238Z" style="fill:#a3a1a1"/><path d="M27.131,2.85038a9.73863,9.73863,0,1,0,.008,13.772A9.73562,9.73562,0,0,0,27.131,2.85038Zm-12.125,12.138a7.41755,7.41755,0,1,1,10.49-.007A7.41586,7.41586,0,0,1,15.006,14.98838Z" style="fill:#fff"/></g></g></svg>