<svg xmlns="http://www.w3.org/2000/svg" width="11.17882mm" height="10.2235mm" viewBox="0 0 31.688 28.98"><title>Recurso 167</title><g id="Capa_2" data-name="Capa 2"><g id="Capa_1-2" data-name="Capa 1"><path d="M27.134,8.853c-.054.116-.072.1-.146.141a.40845.40845,0,0,0-.095.08h.411c.01-.019.005-.042-.031-.084C27.191,8.891,27.188,8.74,27.134,8.853Z" style="fill:#fff"/><path d="M15.422,27.465c-.101.002-.197-.015-.249-.016-.114-.001-.181.138-.08.347.104.211-.17.342-.247.437-.076.095-.53.115-.641.113-.111,0-.024.323-.097.417-.074.095-.219.012-.35-.013-.07-.014-.071.059-.05.148a15.2162,15.2162,0,0,1-1.579-.174,1.2136,1.2136,0,0,0,.068-.593c-.094-.258.242-.402.254-.715a5.2536,5.2536,0,0,0,.105-.85c-.043-.239.133-.446.105-.567-.026-.121.067-.48.044-.604a7.23293,7.23293,0,0,0,.028-.973c-.058-.349-.68-.549-.775-.613-.095-.067-.239-.084-.273-.282a1.66043,1.66043,0,0,0-.338-.68c-.15-.174-.136-.497-.359-.641-.225-.145-.078-.146-.177-.293-.1-.147.153-.245.175-.281.023-.039.156-.3-.003-.176s-.104-.218-.028-.429c.078-.212.201-.138.26-.287a.86937.86937,0,0,1,.248-.303.728.728,0,0,0-.031-.668c-.164-.148-.069-.114-.188-.285-.122-.171-.282.037-.282.037-.08.049.037.078-.022.176-.056.094-.198-.168-.447-.184-.25-.017-.188-.179-.361-.23-.171-.049-.162-.144-.163-.211,0-.068.042-.285-.309-.353-.349-.066-.291-.198-.578-.211a.86145.86145,0,0,1-.532-.346.55312.55312,0,0,0-.394.008c-.173.09-.588-.149-.758-.206a3.6866,3.6866,0,0,1-.635-.314c-.19-.121-.386-.145-.321-.309.113-.208-.105-.413-.139-.487a2.14634,2.14634,0,0,0-.465-.508,1.06166,1.06166,0,0,1-.311-.386,1.42112,1.42112,0,0,1-.444-.573.29442.29442,0,0,0-.257-.191c-.072-.012-.125.214.087.397.213.181.07.203.227.346a1.044,1.044,0,0,1,.246.328,2.48974,2.48974,0,0,1,.151.309c.049.078.203.167.158.234-.045.068-.108-.076-.212-.131-.104-.056-.212-.075-.225-.274a.362.362,0,0,0-.228-.285s-.25-.108-.174-.18c.077-.069-.007-.223-.114-.307a1.82832,1.82832,0,0,1-.273-.41s-.039-.209-.143-.151c-.104.06-.221-.107-.185-.164.038-.06-.058-.253-.233-.274s-.15-.11-.227-.188c-.075-.078-.169-.146-.18-.236-.01-.092-.051-.143-.136-.083-.083.061-.096-.063-.096-.063-.105-.106.037-.233.037-.233-.232-.201-.096-.563-.187-.738a2.70259,2.70259,0,0,1,.02-.953.23368.23368,0,0,0-.045-.246c-.086-.118-.048-.181.021-.204.068-.023-.266-.259-.382-.298a.89838.89838,0,0,1-.287-.172c-.112-.086.036-.109.146-.054.109.054.206-.072.048-.075a.192.192,0,0,1-.157-.269c.051-.064.026-.133-.037-.079s-.157-.188-.168-.253c-.01-.067.086-.163.013-.129-.074.035-.023.079-.201-.003-.179-.083-.201-.129-.095-.225.107-.097.033-.108.033-.108-.021.094-.086.104-.159-.021-.07-.124.011-.079-.05-.134-.06-.058-.098.071-.127.135-.028.064,0,.064-.065.111-.063.046-.15-.222-.156-.311-.006-.088.084.055.136.098.054.043.228-.183.061-.186-.168-.003-.355-.383-.417-.448-.059-.069-.126.057-.126.057-.124.124-.165.07-.179,0A14.50032,14.50032,0,0,0,14.489,28.978c.314,0,.625-.013.933-.032ZM1.798,10.775c-.014,0-.036-.009-.056-.063-.022-.054-.105-.054-.119-.126-.014-.071-.122-.1-.122-.164s-.044-.138.056-.138h.02c.089,0,.146.006.146.1,0,.099-.05.135.008.182.057.046.017.056.045.1C1.804,10.707,1.909,10.775,1.798,10.775Z" style="fill:#fff"/><path d="M2.953,5.851c.121-.044.117.175.212.243.096.068.091-.064.091-.064a.09689.09689,0,0,1,.134-.092.91012.91012,0,0,1,.358.116c.1.056.316.059.412.12a.4667.4667,0,0,0,.362.049c.126-.037.144-.024.273.084.128.11.024.086-.099.151-.121.068.294.189.478.148.185-.043.196-.01.314-.058s.178.003.32.08c.144.078.124.127.209.225.085.097.145-.095.021-.217-.124-.123,0-.084.141-.166.141-.083.262-.116.3-.064.037.052.172.05.311.071a3.33178,3.33178,0,0,1,.326.105,1.24775,1.24775,0,0,0,.267-.007,1.4884,1.4884,0,0,1,.201-.012c.068.012.122.003.096-.058-.026-.062,0-.086.062-.118.064-.03.12-.062-.04-.142-.158-.081-.072-.108-.01-.207s.132-.112.201-.051c.069.062.209.125.243.196s.02.099-.047.137c-.068.036-.097.013-.122.067-.015.032.026.027.075.021a.29146.29146,0,0,1,.093-.001c.063.019-.029.119-.051.214-.024.093.052.078.111.127.058.05.078-.059.019-.159-.057-.097.109-.117.173-.143.064-.028.123-.148.062-.181-.06-.034.079-.053.028-.123s.011-.136-.104-.127a.22222.22222,0,0,1-.166-.042c-.216-.127-.053-.165-.119-.275-.113-.134-.002-.297.087-.365a.201.201,0,0,0,.049-.3c-.092-.108-.004-.216-.038-.349-.032-.135.062-.089.165-.16a.18541.18541,0,0,1,.109-.031.54741.54741,0,0,1,.088.009.43636.43636,0,0,0,.14.004.76653.76653,0,0,1,.41.072c.089.054-.211.168-.229.277-.017.106-.206.12-.281.079-.074-.041-.13.01-.079.072.051.063.019.11-.061.205-.078.095.057.172.18.243.123.068.075.14.151.232.077.095.113.119.044.175-.069.058-.041.062-.021.13.013.037.041.029.08.021a.21171.21171,0,0,1,.13.007c.112.045.107.253.094.361-.013.103.101.027.118-.172.019-.2.208-.042.286.02s.085.112-.002.184c-.089.072.064.223.064.223.042.063.031.184.114.117.135-.22.228-.147.256-.299.009-.272.202-.175.081-.311-.12-.133.072-.167.188-.196a.514.514,0,0,1,.333.049c.082.038.092.108.147.203.058.094-.04.131-.14.157-.103.026.117.17.173.271.055.099-.123.21-.208.273-.084.062-.186.031-.186.086,0,.04-.1.04-.184.04a.76821.76821,0,0,0-.088.002c-.072.009-.024-.034-.074-.068a.18271.18271,0,0,0-.185.011c-.07.039.141.053.089.123a.55093.55093,0,0,1-.229.175c-.078.026-.101.029-.018.048.082.02.057.041.018.133-.04.095-.267.13-.337.21a.50166.50166,0,0,1-.312.128c-.067-.005-.095.005-.015.065.079.059-.066.148-.119.167-.051.018-.028-.013-.078.089a3.39887,3.39887,0,0,1-.372.432.65472.65472,0,0,0-.091.431c-.002.094.026.126.174.126.145.001.188.202.221.304.033.103-.043.132.062.121a1.45929,1.45929,0,0,1,.546.068,2.732,2.732,0,0,1,.639.347,2.59214,2.59214,0,0,0,.54.088c.098.03.081.298.081.458-.002.157.171.235.289.395.116.158.234.01.29-.047a.40774.40774,0,0,0-.003-.391c-.075-.133-.042-.147-.083-.265-.04-.115.289-.201.369-.264a.41539.41539,0,0,0,.126-.339.43264.43264,0,0,0-.216-.367c-.14-.103-.013-.266.024-.329a.24725.24725,0,0,0-.027-.285c-.083-.1.082-.045.01-.188a.507.507,0,0,1-.058-.277c-.003-.065.175-.105.308-.017a.42325.42325,0,0,0,.377.044c.144-.031.161-.001.208.047a4.06573,4.06573,0,0,1,.334.275.21326.21326,0,0,0,.252.035c.062-.032.057.042.014.139-.043.098.07.252.07.351s.195.152.294.199c.099.046.244-.106.327-.189.083-.085.083-.186.172-.293.087-.106.145.091.18.204.033.113.202.232.27.351s.195.187.12.337c-.077.148.208.226.256.317.049.092.25.134.403.202.151.07.031.24.17.244a.27558.27558,0,0,1,.228.354.34412.34412,0,0,1-.32.196.58189.58189,0,0,0-.361.189c-.133.133-.305.088-.462.072-.156-.017-.592-.003-.668-.003h-.028c-.061-.001-.11-.005-.192.111a1.07708,1.07708,0,0,1-.319.257,2.541,2.541,0,0,0-.351.399c-.039.072.059.027.227-.159a1.854,1.854,0,0,1,.55-.344.33026.33026,0,0,1,.352.014c.068.078.068.136-.03.201-.099.066-.152.008-.215.008-.061,0-.023.027.049.067.073.04.097.027.132.155.036.129-.021.075.021.118.046.043.075.062.142.12a.26336.26336,0,0,0,.202.07.416.416,0,0,1,.194.013c.108.02.05-.044.12-.14.069-.098.058-.123.117-.146.058-.021.051.102.092.214.041.113-.102.088-.177.095-.076.004-.064.041-.147.119a1.05808,1.05808,0,0,1-.389.121c-.085.024-.098.117-.175.189-.078.071-.147.005-.185-.069-.038-.07.106-.207.198-.254.09-.045.109-.192.031-.111-.077.08-.371.084-.398.155-.026.072-.1.063-.235.129-.135.067-.235.018-.313.166a1.87243,1.87243,0,0,1-.427.474,2.31113,2.31113,0,0,0-.364.472c-.044.035-.049.03-.12.005-.068-.028-.068.011-.039.067.031.06.018.092-.034.197-.032.062-.047.042-.062.021-.01-.013-.021-.027-.037-.013-.037.033.04.199.016.391-.026.194-.174.178-.3.332-.124.152-.146.029-.293.186-.147.155-.272.237-.318.375-.044.139-.112.155-.032.337a1.71516,1.71516,0,0,1,.198.497.40731.40731,0,0,1-.039.386c-.09.091-.202-.126-.289-.238a.61057.61057,0,0,1-.126-.371c.003-.117-.144-.442-.337-.296-.106.08-.146.031-.184-.017-.031-.04-.061-.081-.125-.051a.14128.14128,0,0,1-.159-.024c-.039-.029-.067-.056-.103-.026-.071.063-.069.047-.168.045s-.097.019-.118.151c-.013.077-.021.062-.041.048a.04934.04934,0,0,0-.063-.001c-.074.048-.093.031-.178.017-.083-.01-.067-.118-.14-.103-.077.015-.1.061-.188.018a.1754.1754,0,0,0-.242.025.82686.82686,0,0,1-.363.199c-.151.04-.259.095-.218.231.042.139.096.299.017.36a.59507.59507,0,0,0-.053.538c.08.167.092.374.177.458.082.082.08.225.229.267.151.041.208.134.295.091a.44967.44967,0,0,1,.321-.04c.095.036.171.013.252-.259.083-.269.167-.223.316-.31a.29325.29325,0,0,1,.343.025c.068.051-.123.229-.12.342.001.115-.116.122-.094.208a1.10072,1.10072,0,0,1-.105.414c-.039.092.41.098.535.046.126-.052.231.006.377.103s-.077.296.001.413c.078.116,0,.245,0,.341,0,.095.058.131.15.242.093.113.072.035.203.131s.233.01.348-.075c.113-.086.297.047.423.154s.292-.119.292-.225c0-.108.067-.101.175-.217a.22176.22176,0,0,1,.187-.06c.067,0,.13,0,.173-.06a.23815.23815,0,0,1,.202-.135c.094-.025.065.062.01.123-.056.061.017.088.089.139.068.049.148-.034.122-.114-.028-.081.032-.121.074-.077.043.042.068.118.173.109.104-.01.09.067.177.148.045.042.118.028.185.013.061-.015.115-.031.138,0,.048.061.136.105.292.049.155-.057.104-.036.38.033.276.067.225.216.317.271.095.056.174-.014.331.198s.193.27.571.291c.018.001.032.003.05.004V11.935c-.089.034-.174.058-.128-.001.049-.065.085-.081.066-.1-.008-.007-.013-.002-.018.003-.007.007-.019.016-.045-.01-.026-.024-.041-.015-.069-.005a.18516.18516,0,0,1-.13-.004c-.134-.042-.185-.074-.273-.036-.089.038-.182.06-.16-.003.021-.064-.023-.126.084-.132,0,0,.02.017.013-.05-.007-.068-.014-.065.026-.094.038-.03.03-.108.104-.179.074-.072.198-.425.316-.43.066-.001.118-.019.147-.019.022,0,.03.01.02.046a.29339.29339,0,0,1-.122.176c-.072.065-.146.171-.088.152a.11092.11092,0,0,1,.155.067c.034.07.059.11.104.107V9.072h9.22a.20975.20975,0,0,1,.04-.007c.008,0,.014.003.014.007h1.533a.05414.05414,0,0,1,.014-.027c.067-.087.125-.087.078-.126a.08809.08809,0,0,0-.07-.013c-.031.002-.053.006-.046-.031.01-.064.061-.026.056-.086-.003-.06-.124-.07-.064-.124.062-.054.149-.076.074-.12-.074-.042-.182-.042-.092-.224.086-.182.001-.167.194-.268a3.72818,3.72818,0,0,0,.323-.204,2.93923,2.93923,0,0,0,.489-.342,14.57347,14.57347,0,0,0-5.111-5.364.78335.78335,0,0,1-.277-.014c-.111-.032-.2,0-.197.072s-.027.033.13.005c.158-.027.404-.068.354.018a.216.216,0,0,1-.22.126c-.129.006-.226.002-.168.078.056.079.241.111.125.142-.116.028-.037.091-.15.112-.117.022-.165.009-.21.146-.045.135-.189.273-.08.251.105-.022.108-.076.226-.025.12.052.342.116.168.114s-.308-.032-.173.027c.138.059.202-.011.294.076.087.083.275.211.067.214-.209,0-.348-.076-.461.001-.112.072-.24.139-.112.18.13.043.382.052.301.089-.08.038-.185.027-.099.069.086.043.311.148.165.198a.25591.25591,0,0,1-.173-.007c-.049-.017-.081-.034-.084.004-.008.073-.045.136.048.18.094.042.383.15.236.17-.148.02-.174.038-.234-.02-.063-.052-.161-.097-.195-.015-.032.08-.123.129.02.148.143.021.292.097.202.15-.088.054-.275.188-.385.11-.109-.079-.232-.189-.316-.127s-.288.11-.215.185c.072.075.017.092.178.182.157.094.363.192.394.308.028.114.148-.018.131.149-.019.165-.018.259-.165.238a.41514.41514,0,0,1-.314-.162c-.078-.102-.069-.191-.185-.114a1.93857,1.93857,0,0,1-.342.125c-.137.058-.404.108-.178.168a.60478.60478,0,0,0,.284.015,1.06166,1.06166,0,0,1,.229-.006c.247.023.574.038.487.131a.62287.62287,0,0,1-.337.253c-.171.025-.361.198-.645.213-.284.013-.372.12-.573.124-.2.004-.256.159-.388.326-.13.165-.663.413-.69.314s-.075-.013-.117.054c-.043.067-.193.024-.294.146-.102.124-.283.067-.173.141.11.075-.097.086-.041.187.056.102.047.293-.08.325-.126.033-.179.031-.139.193.041.163-.043.543-.206.555-.165.01-.182.094-.288.008-.103-.085-.094-.15-.221-.146-.125.003-.194.073-.328-.058-.133-.131-.667-.687-.583-.799.086-.112.195-.264.08-.215-.115.048-.132.273-.182.1-.048-.174.005-.244-.094-.3s-.289-.211-.158-.307c.129-.097.234-.051.074-.137-.161-.085-.205-.178-.099-.324.109-.146.196-.215.29-.204.094.01.029-.143.16-.252.132-.11.238-.175.045-.186-.069-.003-.094.013-.104.029-.02.028,0,.056-.125-.023-.199-.122-.572-.191-.385-.239.188-.05.188-.023.352.026.162.048.317.034.179-.069-.14-.105-.269-.413-.391-.304-.123.11-.195.275-.283.149-.089-.126-.191-.141-.071-.285.122-.146.034-.314-.073-.495-.108-.178-.23-.076-.198-.201.032-.123.027-.116-.135-.242-.16-.128-.144-.116-.205-.238a1.25741,1.25741,0,0,0-.937-.247c-.391.049-.326.083-.529.057s-.496-.01-.405-.097c.091-.09.28-.162.124-.161-.154,0-.575-.02-.448-.115a.36951.36951,0,0,1,.3-.086c.131.001.457.083.506-.004.048-.09.083-.177-.054-.122a.42073.42073,0,0,1-.369.051c-.206-.047-.329-.012-.476-.107-.148-.096-.354-.181.001-.29.356-.108.403-.243.808-.228,0,0,.291.034.375-.179,0,0-.039-.042.048-.099.084-.057.075-.102-.014-.102s-.318.083-.391.016c-.073-.065-.094-.098.033-.16a.925.925,0,0,0,.279-.174.26018.26018,0,0,1,.222-.108c.094.01.252.089.353.062.097-.027.139-.017.081-.116-.056-.099-.014-.094.03-.123.042-.028-.146-.102.005-.126a.47376.47376,0,0,1,.167.004c.053.009.083.018.083-.006.004-.047-.055-.028-.031-.07a2.89829,2.89829,0,0,1,.729-.13c.129.002.29.044.263.133-.026.088-.136.134-.045.134.091-.001.033-.057.147-.097a.8431.8431,0,0,1,.48-.006c.117.054.243.092.171.019-.073-.072-.397-.245-.254-.283a2.06779,2.06779,0,0,1,1.035.304c.179.079.082-.038.047-.089-.034-.049.046-.135.155-.135s-.353-.165-.253-.225c.101-.059-.085-.07.044-.122.13-.052.208-.193.396-.094.191.097.492.236.593.147a.21757.21757,0,0,1,.158-.042c.042.001.062.003.026-.036C18.138.82,17.98.834,18.1.786a.49135.49135,0,0,1,.219-.023.64158.64158,0,0,0,.124,0c.104-.013-.076-.075.126-.075.067,0,.215.005.387.013A14.52916,14.52916,0,0,0,5.555,3.078c.083.01.132.017.088.038-.071.035.048.083-.023.129s-.134.027-.223.054a.3782.3782,0,0,1-.154.035q-.2145.18-.422.366c.009.005.021.01.036.017.054.024.062.016.071.009.009-.01.019-.019.108.025.162.082.129.062.177.127.048.064.074.097.143.094a.14261.14261,0,0,1,.069.017.17429.17429,0,0,0,.098.015.66543.66543,0,0,0,.22-.032c.029-.021.079-.023,0-.064-.082-.04-.054-.042-.038-.093.015-.053.069-.073-.003-.076a.38261.38261,0,0,0-.079.013c-.05.013-.094.026-.102-.013-.011-.056-.072-.076.016-.094.085-.017.067-.092.19-.092h.015c.14.007.14-.005.151.064s.01.126.056.171c.045.048.067.098.121.076.023-.009.03-.006.038-.002.009.004.021.007.068-.011.086-.035.113-.064.144.006s.083.069.047.16c-.034.09-.027.16-.112.178a.72912.72912,0,0,1-.198,0c-.087,0-.124-.043-.208-.018a.567.567,0,0,0-.147.05c-.082.041-.1-.004-.192.05-.093.057-.043.073-.13.092a.35429.35429,0,0,1-.214.018.48391.48391,0,0,0-.114-.004.262.262,0,0,1-.172-.029s-.135-.081-.027-.089a1.19775,1.19775,0,0,1,.246-.028c.103.01.114.021.174-.018.062-.039.144-.045.067-.063-.078-.018,0-.061-.14-.016-.141.046-.189.048-.222.026a.07706.07706,0,0,1-.038-.073c-.001-.032-.007-.124-.048-.041-.041.082-.016.137-.101.14-.084.002-.075.015-.137-.01-.028-.013-.031-.008-.04-.004-.01.003-.025.009-.085-.008a.47045.47045,0,0,0-.126-.007.14572.14572,0,0,1-.069-.005q-.1845.18-.361.367c.089.06.076-.034.204-.092a.18928.18928,0,0,1,.081-.019c.081,0,.135.067.215.13a.46369.46369,0,0,1,.16.187c.032.054-.01.048-.075.044a.34749.34749,0,0,0-.146.011c-.105.042-.166.103-.276.157-.113.053-.135.037-.22.102a.25038.25038,0,0,0-.139.21c-.021.126-.075.182-.17.182a.68771.68771,0,0,0-.236.07c-.138.011-.097-.087-.15-.109L3.21,5.395c-.162.202-.321.41-.474.621.013.017.023.032.034.046C2.88,6.207,2.835,5.898,2.953,5.851Zm11.14,6.296a.70384.70384,0,0,0-.105-.026.22294.22294,0,0,1-.151-.051c-.042-.04-.073-.046-.054-.079.015-.027.01-.076.031-.076a.04681.04681,0,0,1,.024.013c.05.041.04.06.089.084.05.028.127.028.149.051C14.102,12.084,14.188,12.187,14.093,12.147Zm.141-.659a1.2228,1.2228,0,0,1-.343-.116c-.056-.034-.119-.067-.119-.067s-.105-.047-.014-.048h.006a.59112.59112,0,0,1,.258.064c.061.033.173.055.2.094C14.25,11.452,14.325,11.495,14.234,11.488Zm-2.59,6.267c-.064.024-.092.069-.189.051,0,0-.235-.083-.128-.115a.57745.57745,0,0,1,.124-.034.18084.18084,0,0,1,.062.014C11.588,17.701,11.708,17.729,11.644,17.755Zm.335-.377a.23649.23649,0,0,1-.192.019.24294.24294,0,0,0-.218.024c-.068.03-.246.03-.129-.039.118-.067.061-.141-.089-.14-.149,0-.068-.067-.143-.139-.076-.07-.208.004-.308-.09a.10147.10147,0,0,0-.103-.025c-.042.009-.085.017-.158-.094-.082-.083-.189.036-.237.097-.045.06-.195.126-.2.028-.009-.099.194-.227.334-.227.045,0,.096-.005.151-.005a.848.848,0,0,1,.44.129,1.1143,1.1143,0,0,0,.421.195C11.819,17.204,12.08,17.333,11.979,17.378Zm1.003.323c-.2-.017-.274-.024-.35.033-.075.058-.102.122-.172.03-.067-.095-.218-.05-.296-.028-.078.021-.085.067-.119.012,0,0-.107-.149.043-.113.15.041.214.029.214-.054s-.025-.109-.086-.109c-.06,0-.078-.078.047-.083h.011c.12,0,.206.045.311.045.106,0,.099-.064.26.067C13.007,17.634,13.182,17.718,12.982,17.701Zm.558.06c-.064.011-.257.042-.264-.006,0,0-.021-.078.082-.067a.93752.93752,0,0,0,.109-.003c.023-.002.044-.005.061-.005.02,0,.033.004.037.013C13.577,17.722,13.604,17.75,13.54,17.761ZM20.915,7.189c.028-.088.277-.334.39-.241.114.092.048.2.162.22.112.023.106.061.136-.048.029-.109.025-.099.121-.074a.06407.06407,0,0,0,.075-.016c.021-.014.047-.028.13-.014.163.026.106.079.201,0,.079-.067.058-.12.133-.12a.27665.27665,0,0,1,.058.006.37732.37732,0,0,1,.216.076c.111.064.065.088.169.161.105.072.207.137.101.251a.76849.76849,0,0,1-.407.26c-.216.061-.359.202-.591.138-.232-.063-.375-.037-.481-.106-.107-.069.036-.027-.032-.134-.067-.108-.358-.082-.272-.151.085-.071.057-.079.171-.098.05-.007.107-.099.041-.106a.365.365,0,0,0-.19.038C20.979,7.26,20.884,7.278,20.915,7.189ZM15.451,5.881s.015-.143.113-.143a.13626.13626,0,0,1,.061.015c.153.068.372.098.337.177-.034.082.02.122-.15.143-.167.023-.312.004-.342-.065A.17247.17247,0,0,1,15.451,5.881ZM6.308,6.32c-.07-.009-.093.019-.28.107-.184.089-.18-.062-.18-.062.03-.069.252-.093.394-.15a.24108.24108,0,0,1,.082-.021c.051,0,.048.048.1.09C6.498,6.344,6.378,6.327,6.308,6.32ZM8.003,5.244c.011.094-.05.054-.122.105a.0639.0639,0,0,1-.079.007.05169.05169,0,0,0-.048-.007.436.436,0,0,0-.11.075c-.041.006-.077.017-.112-.032-.037-.05-.058-.115-.139-.154-.083-.04-.096-.006-.211-.109s-.117-.039-.25-.11c-.133-.072-.014-.122.035-.186.05-.064.082.024.218.121.137.096.107.017.149-.033.045-.05-.021-.072-.153-.143-.133-.07-.043-.106.007-.167.051-.061.104-.029.172-.079a.06651.06651,0,0,1,.044-.017c.04,0,.068.046.13.089.083.056.104.003.164,0,.061-.004.014,0,.099-.034.086-.031.086.007.15.073.065.064-.01.042-.124.104s-.071.1.007.143c.079.04.07.055.147.09.081.036.044.042.027.109C7.985,5.152,7.991,5.152,8.003,5.244Zm-.882-1.41c-.076-.047-.151-.027-.105-.095.045-.067.029-.143.108-.08.078.062.034.08.114.135.08.052.105.084.132.056.027-.03.091-.033.018-.08-.072-.045-.15-.02-.122-.084.022-.049-.021-.098.022-.098a.3645.3645,0,0,1,.081.019c.091.03.105.02.125.009A.16612.16612,0,0,1,7.6,3.609c.152.024.173-.019.218.07.041.088.111.095.037.181a.30926.30926,0,0,0-.093.164c-.016.056-.027.124-.107.139a.49853.49853,0,0,1-.223.017c-.063-.021-.149-.021-.109-.097.041-.075.126-.069.109-.113-.017-.042-.019-.099-.081-.05-.06.048-.08.109-.161.068-.022-.012-.038,0-.088.004-.051.007-.194.039-.167-.023.026-.061.053-.101.12-.083.066.019.098.048.107.024C7.17,3.886,7.198,3.884,7.121,3.834Zm1.46.303c-.013.095.003.126-.064.148a.27912.27912,0,0,1-.202.021c-.076-.03-.167-.015-.225-.101,0,0-.085-.069-.013-.12s.059-.105.157-.105c.067,0,.087-.041.123-.041a.10846.10846,0,0,1,.068.037C8.519,4.061,8.595,4.043,8.581,4.137Zm.417.178c-.079-.024-.2-.027-.208-.159-.01-.135.083-.087.015-.204s-.156-.228-.284-.23a1.06476,1.06476,0,0,0-.124.009c-.096.007-.188.016-.214-.028,0,0,.035-.017-.053-.054-.088-.038-.158-.012-.13-.084.025-.06-.041-.114.046-.114a.36592.36592,0,0,1,.052.004.78092.78092,0,0,1,.2.043.132.132,0,0,0,.091-.002c.029-.013.046-.024.111.034.105.096.056.131.163.105.108-.027-.008-.054.155-.065.164-.01.199.022.252.069.055.048.083.013.156.045.072.033.126.021.075.086s-.058.111.024.137c.083.027.099.121.226.094.126-.027.126.009.206.036.081.024.021.044.124-.012a.91831.91831,0,0,1,.373-.132.202.202,0,0,0,.078,0,.63319.63319,0,0,1,.119-.003c.037.001.072,0,.104-.001a.30549.30549,0,0,1,.214.04c.075.062.169.003.191.129.021.125.169.141.028.222-.137.082-.148.137-.342.082-.192-.055-.148-.119-.276-.062a.49731.49731,0,0,1-.302.084,1.26817,1.26817,0,0,0-.148.006.44641.44641,0,0,1-.195-.01,1.45821,1.45821,0,0,0-.262-.096A2.55146,2.55146,0,0,1,8.998,4.315Zm2.076.311a.48758.48758,0,0,0,.154.018c.089-.013.067-.029.178,0,.11.027.131.118.222.215.062.067.026.063-.031.06a.30636.30636,0,0,0-.08.002.87918.87918,0,0,1-.171,0c-.05-.003-.102-.006-.144-.004-.093.005-.064.018-.175.04-.11.019-.12-.095-.194-.191a.09031.09031,0,0,1,.032-.146.11423.11423,0,0,1,.065-.014A.73931.73931,0,0,1,11.074,4.626Zm-.501,3.442c-.04.009-.064.053-.088.075a.18687.18687,0,0,1-.214.011c-.064-.037-.018-.055.013-.087.028-.032.05-.054.05-.088,0-.035.058,0,.107.011.048.011.03-.016.085-.041a.08192.08192,0,0,1,.036-.009c.023,0,.031.023.062.052C10.663,8.03,10.612,8.061,10.573,8.068Zm.237-.231c-.122-.044-.115-.059-.188-.078-.072-.019-.091.004-.136-.055-.045-.06-.153-.13-.153-.066s.035.144-.053.152c-.09.008-.168.21-.255.131-.045-.039-.075-.034-.047-.081.026-.05.078-.061.014-.075-.064-.017-.104-.043-.158-.013-.054.028-.047.103-.103.059-.055-.045-.16-.059-.034-.103.125-.044.172-.017.16-.067-.009-.051-.101-.082-.042-.121.059-.038.035-.255.081-.302.039-.038-.014-.098.016-.098a.15616.15616,0,0,1,.051.017c.122.054.073.08.157.13.037.023.049.015.062.007.015-.01.031-.02.097.034a.72478.72478,0,0,0,.232.144c.105.048.12.027.15.107.03.082.062.051.14.091C10.879,7.689,10.931,7.88,10.81,7.837Zm1.747-2.375c.04.119-.057.108.086.137.144.028.439.032.381.121s-.089.127.003.103c.092-.023.074-.134.139-.029.064.104.037.108-.014.178-.05.069.205.045.117.136-.089.09-.326.189-.133.215.191.026.161.005.304.151.144.147.239-.013.391.185.089.115.11.105.131.096.014-.007.027-.014.066.026a.19469.19469,0,0,0,.164.037c.067-.004.119-.01.095.066-.042.139-.048.26-.206.263-.16.002-.057.406-.22.224-.161-.182-.265-.078-.265-.182.001-.105-.108-.072-.174-.145-.066-.072-.176-.165-.175-.056.002.11-.175.06-.068.165.108.106.131.075.196.197.064.12.076.086.191.211.117.124.157.215.117.316-.038.101.064.224-.086.141a.25358.25358,0,0,0-.144-.04.14834.14834,0,0,1-.122-.049c-.111-.101-.391-.262-.321-.151a1.1059,1.1059,0,0,0,.334.274c.113.073.276.238.099.208-.179-.029-.324-.055-.432-.082-.109-.029-.535-.163-.557-.312-.021-.152-.057-.127-.099-.133a.46951.46951,0,0,1-.273-.166c-.046-.06-.099-.035-.146-.009-.043.023-.08.046-.102,0a.07359.07359,0,0,0-.125-.029.2738.2738,0,0,1-.303.055c-.109-.059-.144-.113-.067-.209.078-.097.122-.162.254-.109.134.054.144.07.255.027.112-.044.316.006.253-.082-.062-.089-.148-.089-.069-.187a1.89013,1.89013,0,0,1,.286-.261c.062-.048.072-.056-.012-.165a3.2703,3.2703,0,0,0-.322-.297c-.113-.113-.132-.117-.189-.115-.055.004-.135.147-.181.093-.045-.054-.11-.099-.028-.124a.30726.30726,0,0,1,.087-.011.08948.08948,0,0,0,.053-.011c.038-.024.105-.043,0-.078a.53754.53754,0,0,1-.28-.143c-.053-.079-.227-.234-.262-.161s.075.179-.069.155a1.87409,1.87409,0,0,0-.309-.054c-.06.009.06.074-.001.078a.305.305,0,0,1-.101-.025.25791.25791,0,0,0-.075-.025c-.035,0-.053.058-.106.026a.80377.80377,0,0,0-.387-.032.30365.30365,0,0,1-.307-.089c-.026-.041-.106-.034-.189-.026-.092.009-.186.016-.215-.039-.057-.104-.164-.175-.062-.189a.182.182,0,0,1,.099.017c.034.014.055.029.077,0,.037-.052-.025-.119-.089-.094-.065.023-.196.045-.23-.062a.638.638,0,0,1,.083-.476.893.893,0,0,1,.587-.348.35158.35158,0,0,1,.12.02c.274.102.051.105-.042.156-.093.053-.238.119-.183.256.056.138.041.251.117.301.075.049.192.162.223.113.03-.051.094-.051-.004-.098-.101-.048-.207-.021-.159-.103.049-.082.117-.037.086-.1-.029-.062-.096-.03-.103-.125-.005-.095.225-.295.384-.333.157-.038.391-.096.445.109.052.202.141.212.094.309s-.077.216-.005.162.012-.099.119-.098c.104,0,.115.045.169.025.055-.017.103-.223.303-.182.198.037.304-.008.426.133.122.144.122.316.285.303C12.327,5.4,12.518,5.344,12.557,5.462ZM11.471,6.508c.01-.084.146-.127.146-.127a.15286.15286,0,0,1,.038-.004.55471.55471,0,0,1,.173.038c.081.028.028.074.025.209-.002.094-.035.091-.072.088a.14273.14273,0,0,0-.054.006.39812.39812,0,0,1-.257-.047C11.416,6.632,11.461,6.595,11.471,6.508ZM9.399,1.429a.30234.30234,0,0,1,.203-.016.529.529,0,0,0,.21-.001c.181-.042-.044-.013-.039-.094.081-.129.577-.022.703.011.126.031.16.014.031-.084-.128-.098.14-.199.376-.191.235.007.173.09.478-.021a1.86086,1.86086,0,0,1,.633-.141c.04,0,.079.002.119.004a1.43912,1.43912,0,0,0,.164.003,1.75861,1.75861,0,0,1,.373.038,2.0289,2.0289,0,0,0,.393.038c.311-.006.246.079.073.134-.173.053.184.024.434-.055.25-.075.508.119.708.188.2.068-.046.097-.144.162a1.56748,1.56748,0,0,1-.492.123,2.6186,2.6186,0,0,0-.457.117c-.183.061-.034.085.13.039a1.75144,1.75144,0,0,1,.347-.071c.171-.023.073.065-.11.12a3.85082,3.85082,0,0,0-.747.42.09919.09919,0,0,1-.083.028c-.022-.002-.04-.003-.061.035a.35458.35458,0,0,1-.186.178c-.116.063-.173-.003-.277-.028-.105-.024.011.028.001.108-.005.044-.083.04-.168.036a.36281.36281,0,0,0-.185.017c-.088.053.106.019.154.097.03.048-.017.043-.083.038a.45593.45593,0,0,0-.128.003c-.104.024.031.031.128.095.096.064-.079.089-.147.114-.067.024-.01.024.063.069.073.044-.177.131-.304.158a.26438.26438,0,0,1-.116.003.18853.18853,0,0,0-.093.001c-.102.024.002.051.037.126.037.075-.074.078-.134.097-.061.02-.067-.003-.113.039s.019.054.115.089c.046.018.061.012.072.006.011-.007.019-.013.057.009.077.046.007.046-.051.119-.055.073-.148.069-.24.119a.17141.17141,0,0,1-.108.027.45619.45619,0,0,0-.082.005c-.1.018-.033-.093-.033-.093.004-.062-.257-.083-.434,0-.178.083-.136.1-.374.054a1.19332,1.19332,0,0,0-.554-.034c-.181.045-.225-.12-.104-.21.121-.089.251-.026.344-.081.094-.055-.167-.133-.158-.241.008-.109.288-.014.389.098.097.111.261.065.379.041.118-.027-.059-.04-.198-.044-.14-.005-.099-.091-.09-.155.009-.065-.017-.043-.048-.085-.031-.04-.094.002-.243.034s-.051-.096,0-.193c.054-.096.175-.09.312-.105.136-.014.349.015.508.017.078,0,.022-.018-.066-.037a1.45934,1.45934,0,0,0-.275-.036c-.097.006-.082-.042-.022-.064s-.091-.198-.232-.208c-.14-.013-.194-.105-.173-.207.022-.104.517-.067.615.043a.7099.7099,0,0,0,.444.2c.209.034-.163-.135-.339-.228-.178-.094.091-.128.337-.114a1.60587,1.60587,0,0,0,.435-.054c.206-.021-.035-.027-.184-.105-.119-.062.212-.09.239-.212A2.494,2.494,0,0,0,10.815,2c-.184.113-.47.067-.401.017.07-.051-.061-.065-.061-.065a.20841.20841,0,0,0-.14.047.5265.5265,0,0,1-.388.028c-.15-.006-.011-.047.111-.158.121-.113-.122.064-.288.129-.168.065-.258-.075-.188-.133.037-.032.003-.029-.065-.026a.81891.81891,0,0,1-.25-.02c-.192-.051.049-.102.044-.183-.002-.04-.049-.027-.107-.013a.2119.2119,0,0,1-.195-.02C8.773,1.513,9.275,1.497,9.399,1.429Zm-1.35.76c-.046-.032.013-.085.068-.149.035-.04.1-.031.16-.023a.34878.34878,0,0,0,.1.004c.071-.016-.064-.016-.165-.051-.102-.034-.026-.08.048-.14a.22132.22132,0,0,1,.155-.023.24179.24179,0,0,0,.128-.01c.075-.039-.126.003-.126-.079,0-.018.018-.025.046-.025a.91546.91546,0,0,1,.45.193c.104.114.051.097.151.151a.13361.13361,0,0,0,.118.014.29542.29542,0,0,1,.12-.003c.142.017.028.122.113.154.086.032.002-.02.043-.097.04-.078.214.161.222.238.006.048.02.048.053.048a.28544.28544,0,0,1,.083.01c.096.029.225.096.241.156.018.059-.219.078-.331.145-.11.066-.114.086-.181.047-.067-.041-.129.126-.242.22-.111.093-.427.025-.427.025-.102-.003-.142-.064-.263-.135-.122-.068-.123-.087-.153-.205-.02-.078.091-.07.225-.062a1.06416,1.06416,0,0,0,.211.002c.199-.022-.346-.065-.491-.039a.14344.14344,0,0,1-.14-.037.12722.12722,0,0,0-.105-.042c-.118.006-.092-.078-.181-.196S8.093,2.221,8.049,2.189Zm-.313.609c.051-.005.081-.018.115-.018a.20551.20551,0,0,1,.1.035c.1.062.041.065.146.067a.51033.51033,0,0,0,.072-.004c.051-.006.077-.013.091.046.02.075.077.073-.021.13a.47235.47235,0,0,1-.3.067.14866.14866,0,0,1-.116-.08c-.042-.077-.069-.063-.097-.122C7.7,2.859,7.646,2.805,7.736,2.798Zm-1.31-.227c.088-.017.147-.067.203-.067a.08882.08882,0,0,1,.062.024c.08.064.069.096.194.146.064.026.067.017.076.008s.021-.017.092.002c.148.04.137.03.211.102.072.072.237.175.272.229.036.053.133.085.014.116-.117.034-.164.085-.253.009-.092-.078-.039-.138-.153-.152a1.0665,1.0665,0,0,0-.208-.015.39379.39379,0,0,0-.111.009c-.068.013-.119.025-.15-.031-.04-.072-.03-.071.035-.07l.033.001s.083-.021,0-.095c-.082-.076-.051-.062-.123-.05-.073.011-.117.006-.099-.03.018-.035-.011-.005-.072-.042S6.306,2.595,6.426,2.571ZM4.161,5.107c.034-.057.058-.075.162-.161s.142-.045.276-.106c.137-.059.237-.056.288.027.051.082-.023.054-.012.127.009.076.059-.004.116-.057.059-.054.056-.031.17-.007a.37663.37663,0,0,1,.241.15c.062.081.059-.027.13-.048.073-.022-.012-.062.004-.124.016-.061.051-.007.144-.005.094,0,.07.051.146.108.074.059.047.07.078.175.029.104.013.083.071.129.06.044.073-.028.089-.065.016-.038-.016-.086-.07-.163s-.009-.112-.044-.203c-.034-.091.025-.077.118-.092.014-.001.025-.002.036-.002.059,0,.069.032.149.072.093.048.089.128.153.188.065.056.065.112.092.17a1.54837,1.54837,0,0,0,.119.183c.035.053.002.09.005.169.003.081.105.078.18.098a3.32269,3.32269,0,0,1,.361.177c.119.055.033.073-.034.119s-.075.016-.171-.01c-.096-.027-.067.003-.146.032-.076.03.04.044.122.091.08.044.053.002.105.064.055.061-.055.041-.143.077a.42646.42646,0,0,1-.257.017c-.118-.01-.104-.067-.192-.07-.089-.006-.113-.056-.148-.064a.38868.38868,0,0,0-.289.072c-.053.027-.098.041-.222.092-.122.051-.35.035-.436.067-.085.032-.154-.023-.299-.04-.146-.014-.09-.106-.127-.172-.038-.063-.072-.07-.25-.033-.176.04-.15-.037-.219-.059-.069-.02-.102-.104-.107-.184-.004-.059.101-.055.226-.054.048,0,.098.001.146,0a1.64525,1.64525,0,0,1,.353.023c.152.015.13,0,.229-.062s-.114-.032-.227-.079c-.111-.048-.126-.013-.249-.013-.122,0-.235-.032-.348-.023a.81439.81439,0,0,1-.25-.017c-.103-.018-.071-.068-.05-.128.015-.041.067-.033.122-.026a.43145.43145,0,0,0,.071.005.32512.32512,0,0,0,.217-.054c.066-.055-.082-.042-.205-.035-.084.003-.102.003-.123.003H4.22a.21368.21368,0,0,1-.167-.116C4.011,5.202,4.125,5.164,4.161,5.107Z" style="fill:#fff"/><path d="M28.729,14.788a.45644.45644,0,0,1-.456.456H18.787a.45644.45644,0,0,1-.456-.456h0a.45559.45559,0,0,1,.456-.455h9.486a.45752.45752,0,0,1,.456.455Z" style="fill:#fff"/><path d="M28.729,17.792a.45623.45623,0,0,1-.456.455H18.787a.45623.45623,0,0,1-.456-.455h0a.45644.45644,0,0,1,.456-.456h9.486a.45708.45708,0,0,1,.456.456Z" style="fill:#fff"/><path d="M28.729,19.958a.45708.45708,0,0,1-.456.456H18.787a.45644.45644,0,0,1-.456-.456h0a.455.455,0,0,1,.456-.455h9.486a.45558.45558,0,0,1,.456.455Z" style="fill:#fff"/><path d="M18.646,27.422a.3165.3165,0,0,0,.273.182.32918.32918,0,0,0,.254-.134l4.871-5.917a.38246.38246,0,0,0,.097-.306.29454.29454,0,0,0-.134-.206c-.159-.106-.407-.01-.661.267l-4.05,4.056a.54093.54093,0,0,1-.335.184.38309.38309,0,0,1-.198-.062l-1.265-.894c-.127-.109-.262-.107-.317-.012a.27112.27112,0,0,0,.033.265Z" style="fill:#fff"/><path d="M15.422,9.074V28.98H31.688V9.074ZM30.891,28.089H16.143V10.041H30.891Z" style="fill:#fff"/><path d="M28.729,23.395c0,.251-.081.455-.181.455H24.81c-.099,0-.179-.203-.179-.455h0c0-.251.081-.455.179-.455h3.738c.099-.001.181.203.181.455Z" style="fill:#fff"/></g></g></svg>