<svg xmlns="http://www.w3.org/2000/svg" width="13.46165mm" height="10.18646mm" viewBox="0 0 38.159 28.875"><title>Recurso 171</title><g id="Capa_2" data-name="Capa 2"><g id="Capa_1-2" data-name="Capa 1"><rect x="0.08" width="16.276" height="16.12" style="fill:#fff"/><circle cx="9.021" cy="24.973" r="3.902" style="fill:#fff"/><circle cx="27.551" cy="24.973" r="3.902" style="fill:#fff"/><path d="M32.799,3.428H18.616l-.093,14.9H0l1.131,7.574H3.485a5.722,5.722,0,0,1-.083-.93,5.619,5.619,0,0,1,11.238,0,5.732,5.732,0,0,1-.083.93h7.422a5.722,5.722,0,0,1-.083-.93,5.6285,5.6285,0,1,1,11.257,0,5.73173,5.73173,0,0,1-.082.93h5.088V12.26Zm-10.467,9.41-.044-6.286h7.877l3.955,6.286Z" style="fill:#fff"/></g></g></svg>