<svg xmlns="http://www.w3.org/2000/svg" width="146.45254mm" height="124.66128mm" viewBox="0 0 415.14105 353.37056"><title>cobro</title><g id="Capa_2" data-name="Capa 2"><g id="Capa_1-2" data-name="Capa 1"><path d="M303.55733,223.16743h-.01278A111.58372,111.58372,0,0,1,303.55733,0h0a111.58372,111.58372,0,0,1,0,223.16743Zm0-210.07753a98.49382,98.49382,0,0,0-.01278,196.98763h.01278a98.49381,98.49381,0,1,0,0-196.98763Z" style="fill:#058794"/><path d="M308.55321,103.48065c-11.87333-4.75687-15.30065-7.637-15.30065-12.83058,0-4.16076,3.14891-9.01554,12.02725-9.01554a33.41392,33.41392,0,0,1,13.93474,3.12233,4.37076,4.37076,0,0,0,2.04464.51928,4.12936,4.12936,0,0,0,3.86964-2.652l2.15984-5.51543a3.409,3.409,0,0,0-1.84174-4.38512,83.73663,83.73663,0,0,0-14.384-3.7568.73657.73657,0,0,1-.6829-.75437L310.35388,60.21a4.43157,4.43157,0,0,0-4.48262-4.36928h-3.87109A4.4295,4.4295,0,0,0,297.52344,60.21l.00981,8.41235c0,.64521-.69977.92363-.95556.98384a23.22512,23.22512,0,0,0-19.38612,22.6005c0,13.74308,11.35968,19.954,23.62215,24.61149,9.80761,3.84843,13.8046,7.75184,13.8046,13.48128,0,6.22635-5.66374,10.57742-13.77659,10.57742a48.5373,48.5373,0,0,1-16.4006-4.43918,4.39016,4.39016,0,0,0-1.89215-.42543,4.18667,4.18667,0,0,0-3.95771,2.74888l-2.06008,5.58259a3.61372,3.61372,0,0,0,1.83612,4.52033,72.88572,72.88572,0,0,0,17.40133,4.83816c.13574.01675.81444.25747.81444.87467v8.376a4.43525,4.43525,0,0,0,4.48263,4.37347h3.99557a4.43512,4.43512,0,0,0,4.48262-4.37347v-8.81263a.83607.83607,0,0,1,.73191-.92859l.007-.0008a24.299,24.299,0,0,0,20.53183-23.82413c0-11.99375-6.66446-19.73958-22.26172-25.90609Z" style="fill:#058794"/><path d="M375.92888,267.5226a267.23192,267.23192,0,0,1-83.69118,28.53154c-27.25657,4.27555-78.54109-6.03445-78.54109-18.21028,0-4.61263,44.97558,11.37095,72.1832,4.11179,20.86085-5.56582,17.89821-25.0817,6.54966-27.65687-11.27851-2.55829-77.37111-26.77094-105.6017-27.60658a486.98866,486.98866,0,0,0-62.01588,7.21581c-5.4441.8858-8.856.78644-9.19474,5.99126-1.58558,24.207-4.70085,73.70922-6.39572,99.567-.03927.54021.72073,7.88758,6.78332,2.7227a31.48854,31.48854,0,0,1,24.55129-9.98263c13.50877,3.06775,130.35038,24.47445,146.46693,20.72511a406.76706,406.76706,0,0,0,100.83372-56.05671c19.397-18.64133,4.31875-38.31688-11.92791-29.3516Z" style="fill:#058794"/><path d="M83.3741,232.962,22.163,229.94465a11.02785,11.02785,0,0,0-10.73136,7.91L.30705,338.90862a6.67127,6.67127,0,0,0,6.46143,8.66553l67.8363-.00562a9.0429,9.0429,0,0,0,9.25587-8.2511l7.4454-97.35729a8.34757,8.34757,0,0,0-7.66111-8.9817q-.13554-.01075-.27136-.01708ZM47.33761,334.17913A16.92525,16.92525,0,1,1,64.26285,317.2539v.00117a16.92407,16.92407,0,0,1-16.92407,16.92406Z" style="fill:#058794"/></g></g></svg>