<svg xmlns="http://www.w3.org/2000/svg" width="23.91833mm" height="23.91833mm" viewBox="0 0 67.8 67.8"><title>desseleccionar</title><g id="Capa_2" data-name="Capa 2"><g id="Capa_1-2" data-name="Capa 1"><path d="M42.4,33.9,66.3,10a5.31333,5.31333,0,0,0,0-7.4L65.2,1.5a5.31333,5.31333,0,0,0-7.4,0L33.9,25.4,10,1.5a5.31333,5.31333,0,0,0-7.4,0L1.5,2.6a5.31333,5.31333,0,0,0,0,7.4L25.4,33.9,1.5,57.8a5.31333,5.31333,0,0,0,0,7.4l1.1,1.1a5.31333,5.31333,0,0,0,7.4,0L33.9,42.4,57.8,66.3a5.31333,5.31333,0,0,0,7.4,0l1.1-1.1a5.31333,5.31333,0,0,0,0-7.4Z" style="fill:#068996"/></g></g></svg>