<svg xmlns="http://www.w3.org/2000/svg" width="110.77346mm" height="83.89734mm" viewBox="0 0 314.00352 237.81925"><title>RMaterial_verde</title><g id="Capa_2" data-name="Capa 2"><g id="Capa_1-2" data-name="Capa 1"><path d="M297.34054,169.9179a211.3669,211.3669,0,0,1-66.19545,22.567c-21.55855,3.38174-62.122-4.77294-62.122-14.4034,0-3.64835,35.57339,8.99384,57.09322,3.25222,16.49987-4.40228,14.15658-19.83835,5.18045-21.87518-8.92073-2.02348-61.19659-21.17444-83.52555-21.83539a385.18426,385.18426,0,0,0-49.0514,5.70733c-4.306.70063-7.00461.622-7.27256,4.73878-1.25411,19.14653-3.71813,58.30023-5.05869,78.75241-.03106.42728.57007,6.23867,5.36526,2.15352a24.9058,24.9058,0,0,1,19.41882-7.89575c10.68474,2.42643,103.10049,19.358,115.84786,16.3925a321.73235,321.73235,0,0,0,79.75432-44.338c15.342-14.74435,3.4159-30.3067-9.43437-23.21562Z" style="fill:#058794"/><path d="M65.94465,142.58224l-48.41486-2.38658a8.72248,8.72248,0,0,0-8.488,6.25638L.24286,226.3806a5.27661,5.27661,0,0,0,5.11066,6.854l53.65505-.00444a7.15246,7.15246,0,0,0,7.32092-6.5262l5.88893-77.00464a6.6025,6.6025,0,0,0-6.05955-7.10407q-.1072-.0085-.21463-.01351Zm-28.503,80.05756a13.387,13.387,0,1,1,13.387-13.387v.00093A13.38606,13.38606,0,0,1,37.44256,222.6398Z" style="fill:#058794"/><path d="M297.29113,32.89043c-.74811.3907-1.3182.70043-1.89846.98973q-31.55457,15.732-63.1008,31.48068a2.52144,2.52144,0,0,1-2.56457.02368q-31.82868-15.92271-63.6916-31.777c-.38743-.19314-.76656-.40293-1.31722-.69338.43864-.25844.742-.46244,1.06625-.62462Q197.86,16.24722,229.95316.24085a2.46186,2.46186,0,0,1,1.91008-.08526Q264.2672,16.28,296.62641,32.49431C296.78248,32.57237,296.92745,32.67266,297.29113,32.89043Z" style="fill:#058794"/><path d="M224.35358,142.32179c-.587-.27291-.98111-.44442-1.365-.63639q-28.6309-14.31558-57.26529-28.62419a1.52652,1.52652,0,0,1-1.08729-1.54713q.0461-31.43154.02573-62.86317c0-.25371.02622-.50742.04672-.87947.43761.19418.79407.336,1.13623.50651q28.71742,14.31152,57.44182,28.609a1.61029,1.61029,0,0,1,1.08985,1.68054q-.04392,31.3653-.02275,62.73069Z" style="fill:#058794"/><path d="M297.317,47.74839v1.30107q0,31.1001.01652,62.20017a1.70785,1.70785,0,0,1-1.07357,1.82654q-28.6542,14.2689-57.27263,28.60956c-.385.19248-.78.36481-1.36443.6369v-1.55586q0-30.96726-.02147-61.93447a1.88671,1.88671,0,0,1,1.20014-2.01917q28.563-14.17746,57.08721-28.43289C296.31067,48.16991,296.75144,47.99736,297.317,47.74839Z" style="fill:#058794"/><circle cx="233.1171" cy="70.78333" r="34.92161" style="fill:#fff"/><path d="M253.298,59.02868c-.18949.22576-.31389.38416-.44872.53313Q245.831,67.316,238.81077,75.06858q-5.393,5.95615-10.77491,11.92221c-.41242.46008-.6639.47005-1.13657.10068q-8.90418-6.95808-17.84327-13.87139c-.4465-.34528-.43467-.55569-.10357-.96852,1.27173-1.58565,2.53088-3.18287,3.74143-4.81529.40625-.54782.6599-.54339,1.17893-.135,4.0174,3.161,8.07261,6.274,12.08211,9.44484.57263.45286.82206.33776,1.25069-.138q9.85488-10.93848,19.72538-21.86287c.58328-.64934.90294-.73467,1.55678-.08774,1.38133,1.36672,2.86083,2.63427,4.30145,3.941C252.94156,58.73663,253.10324,58.8645,253.298,59.02868Z" style="fill:#058794"/></g></g></svg>