<svg xmlns="http://www.w3.org/2000/svg" width="21.85537mm" height="16.95097mm" viewBox="0 0 61.95223 48.05"><title>Recurso 190</title><g id="Capa_2" data-name="Capa 2"><g id="Capa_1-2" data-name="Capa 1"><path d="M60.36883,21.85l-29.4-19.6-29.4,19.6a1.01242,1.01242,0,0,1-1.1-1.7l30-20a1.08333,1.08333,0,0,1,1.1,0l30,20C62.45683,21.037,61.69682,22.516,60.36883,21.85Zm-8.4.2v24h-14v-15a.94477.94477,0,0,0-1-1h-13a.94477.94477,0,0,0-1,1v15h-13v-24a1,1,0,1,0-2,0v25a.94477.94477,0,0,0,1,1h15a.94477.94477,0,0,0,1-1v-15h11v15a.94477.94477,0,0,0,1,1h16a.94477.94477,0,0,0,1-1v-25A1,1,0,1,0,51.96883,22.05Z" style="fill:#fff"/></g></g></svg>