<svg xmlns="http://www.w3.org/2000/svg" width="17.63889mm" height="17.63889mm" viewBox="0 0 50 50"><title>Recurso 189</title><g id="Capa_2" data-name="Capa 2"><g id="Capa_1-2" data-name="Capa 1"><path d="M25,0A25,25,0,1,0,50,25,25.02837,25.02837,0,0,0,25,0Zm0,48A23,23,0,1,1,48,25,23.02572,23.02572,0,0,1,25,48Z" style="fill:#078995"/><path d="M37.021,12.979a.99888.99888,0,0,0-1.414,0L25,23.586,14.394,12.979a.99985.99985,0,0,0-1.414,1.414L23.586,25,12.979,35.606a.99985.99985,0,1,0,1.414,1.414L25,26.414,35.606,37.02a.99985.99985,0,0,0,1.414-1.414L26.414,25,37.02,14.394A1.001,1.001,0,0,0,37.021,12.979Z" style="fill:#078995"/></g></g></svg>