<svg xmlns="http://www.w3.org/2000/svg" width="9.39078mm" height="10.1732mm" viewBox="0 0 26.61952 28.83741"><title>Recurso 152</title><g id="Capa_2" data-name="Capa 2"><g id="Capa_1-2" data-name="Capa 1"><path d="M25.641.10541a13.58513,13.58513,0,0,0-7.314,8.63c-.236-.761-.451-1.53-.624-2.317-.126-.576-1.556-.208-1.426.382a38.60316,38.60316,0,0,0,1.527,4.967c.19.527,1.382.25,1.432-.263.462-4.871,2.626-8.398,7.002-10.692C27.106.35841,26.313-.24659,25.641.10541Z" style="fill:#fff"/><path d="M0,3.27041v25.567H21.443V3.27041Zm19.793,21.444H2.475v-.826H19.793Zm0-4.949H2.475v-.825H19.793Zm0-4.948H2.475v-.825H19.793Zm0-4.949H2.475v-.824H19.793Z" style="fill:#fff"/><path d="M21.443,3.27041H21.39a12.822,12.822,0,0,0-3.063,5.465c-.236-.761-.451-1.53-.624-2.317-.126-.576-1.556-.208-1.426.382a38.55473,38.55473,0,0,0,1.527,4.967c.19.527,1.382.25,1.432-.263a13.69267,13.69267,0,0,1,2.207-6.563Z" style="fill:#313131"/></g></g></svg>