<svg xmlns="http://www.w3.org/2000/svg" width="13.76362mm" height="12.00785mm" viewBox="0 0 39.015 34.038"><title>Recurso 172</title><g id="Capa_2" data-name="Capa 2"><g id="Capa_1-2" data-name="Capa 1"><circle cx="12.453" cy="15.931" r="6.891" style="fill:#fff"/><path d="M18.854,22.868s7.257,3.257,6.598,11.17H0V29.326s2.714-5.114,6.913-6.342c0,0,2.399,2.001,4.457,2.056,2.057.057-.628.629-.8,1.028-.171.4,2.028,6.343,2.028,6.343s3.013-5.751,2.8-5.942c-1.169-1.046-2.942-1.372-.771-1.513A8.67192,8.67192,0,0,0,18.854,22.868Z" style="fill:#fff"/><path d="M29.324,0a9.6915,9.6915,0,1,0,9.691,9.69A9.68954,9.68954,0,0,0,29.324,0Zm0,17.767A8.0755,8.0755,0,1,1,37.4,9.69,8.07526,8.07526,0,0,1,29.324,17.767Z" style="fill:#fff"/><polygon points="29.324 10.716 29.324 4.097 28.066 4.097 28.066 10.716 28.066 11.956 28.066 11.975 35.121 11.975 35.121 10.716 29.324 10.716" style="fill:#fff"/></g></g></svg>