<svg xmlns="http://www.w3.org/2000/svg" width="10.0651mm" height="9.87002mm" viewBox="0 0 28.531 27.978"><title>Recurso 175</title><g id="Capa_2" data-name="Capa 2"><g id="Capa_1-2" data-name="Capa 1"><path d="M20.983,27.978H0V0H20.983ZM1.749,26.229H19.235V1.749H1.749Z" style="fill:#fff"/><path d="M28.252,3.425,25.879,3.8a2.59251,2.59251,0,0,0-.321-.626,1.5687,1.5687,0,0,0-.476-.354V4.664A6.85658,6.85658,0,0,1,27.67,5.756a2.51564,2.51564,0,0,1,.861,1.959,2.66885,2.66885,0,0,1-.309,1.276,3.10988,3.10988,0,0,1-.791.969,3.17012,3.17012,0,0,1-1.021.566,5.10271,5.10271,0,0,1-1.328.208v1.205h-.93V10.734a5.886,5.886,0,0,1-1.521-.303,3.05092,3.05092,0,0,1-1.008-.609,2.97131,2.97131,0,0,1-.652-.838,3.79719,3.79719,0,0,1-.345-1.087l2.576-.3a2.44017,2.44017,0,0,0,.309.912,1.60874,1.60874,0,0,0,.642.498V6.751a12.19733,12.19733,0,0,1-1.828-.619,2.43932,2.43932,0,0,1-1.33-2.247,2.52576,2.52576,0,0,1,.794-1.897,3.57794,3.57794,0,0,1,2.362-.847V.511h.931v.63a3.90235,3.90235,0,0,1,2.184.679A2.711,2.711,0,0,1,28.252,3.425Zm-4.101-.637a1.18653,1.18653,0,0,0-.568.333.723.723,0,0,0-.159.468.77873.77873,0,0,0,.162.49,1.21219,1.21219,0,0,0,.566.349V2.788Zm.93,6.28a1.49451,1.49451,0,0,0,.795-.4.911.911,0,0,0,.252-.624.83423.83423,0,0,0-.213-.553,1.95579,1.95579,0,0,0-.834-.471V9.068Z" style="fill:#fff"/><rect x="3.98" y="6.78" width="13.328" height="0.921" style="fill:#fff"/><rect x="3.98" y="11.369" width="13.328" height="0.921" style="fill:#fff"/><rect x="3.98" y="15.957" width="13.328" height="0.921" style="fill:#fff"/><rect x="3.98" y="20.545" width="13.328" height="0.92" style="fill:#fff"/></g></g></svg>