<svg xmlns="http://www.w3.org/2000/svg" width="12.17606mm" height="9.47359mm" viewBox="0 0 34.51483 26.85426"><title>Recurso 177</title><g id="Capa_2" data-name="Capa 2"><g id="Capa_1-2" data-name="Capa 1"><polygon points="32.775 9.333 34.515 7.553 26.545 0.687 24.594 2.385 32.775 9.333" style="fill:#fff"/><polygon points="10.256 1.854 8.196 0 0 8.519 2.06 10.374 10.256 1.854" style="fill:#fff"/><path d="M14.584,8.21389a3.75569,3.75569,0,0,1-.15776.39158,3.91621,3.91621,0,0,1-3.3495,2.33606A1.8059,1.8059,0,0,1,9.53017,10.202a2.37664,2.37664,0,0,1-.34509-1.47051,6.71188,6.71188,0,0,1,.60849-2.34029c.46552-1.06556.81554-1.805,1.05077-2.28324.23452-.47538.35636-.69018.36622-.70708.00986-.02677.08944-.2141.22325-.47891.0162-.0338.031-.06338.05-.1-.01831-.01691-.03239-.02888-.05-.04437-.27537-.2465-.43946-.393-.43946-.393l-.15.15494-6.006,6.19264-2.60721,2.6875s1.85435,1.7825,4.11364,4.01644l.57469-.69934a1.37512,1.37512,0,0,1,1.986.09015,1.96917,1.96917,0,0,1,.68244,1.05711,1.28017,1.28017,0,0,1-.03662.71765,1.93833,1.93833,0,0,1,1.72264.40988,1.96753,1.96753,0,0,1,.68244,1.05641,1.2702,1.2702,0,0,1-.03874.71906,1.87206,1.87206,0,0,1,1.90646.33734,1.96821,1.96821,0,0,1,.68314,1.05781,1.30511,1.30511,0,0,1-.007.631,1.91625,1.91625,0,0,1,1.8149.393,1.88508,1.88508,0,0,1,.70779,1.27121,1.132,1.132,0,0,1-.27819.86414l-.99443,1.10852c.58032.50918,1.11064.9571,1.56489,1.317,2.1452,2.10084,5.16511.24016,2.8699-1.95223-1.04162-.9064-3.53614-3.4974-3.53614-3.4974s2.91638,2.56846,3.90377,3.52627c1.56277,1.56,4.26928-.25283,2.0304-2.31775-1.02471-.86695-3.74741-3.62417-3.74741-3.62417s3.42275,2.87624,4.21646,3.67488c1.82124,1.41,3.85165-.35214,2.029-2.11422-1.44868-1.21627-4.16364-4.07913-4.16364-4.07913S24.02684,18.061,25.122,19.12443c1.46981,1.29445,3.60375-.31551,2.284-1.80645-.72188-.79019-5.32709-4.97073-9.47876-8.70829-.90851-.81765-1.79378-1.61418-2.61073-2.34944A11.92158,11.92158,0,0,1,14.584,8.21389Z" style="fill:#fff"/><path d="M24.3649,2.63608A53.16747,53.16747,0,0,0,15.58548.131c-1.6663,0-3.91785,3.1178-4.19533,3.8925a27.61914,27.61914,0,0,0-1.30783,2.70158C9.4682,8.159,9.37171,9.314,9.77948,9.90343a1.86573,1.86573,0,0,0,1.61067.636,3.87468,3.87468,0,0,0,2.9361-2.6389c.54017-1.31416.94724-2.348.94724-2.348L27.21085,16.25172c.60778-.836,4.11716-4.99327,5.31019-6.62365C30.8477,8.2639,26.73688,4.72213,24.3649,2.63608Z" style="fill:#fff"/><path d="M9.39354,15.93268a1.62113,1.62113,0,0,0-.5613-.86132,1.686,1.686,0,0,0-1.04161-.40707.86665.86665,0,0,0-.66131.2627L3.98757,18.47721a.81773.81773,0,0,0-.15142.74371,1.61745,1.61745,0,0,0,.5606.862,1.32171,1.32171,0,0,0,1.70433.143l3.14245-3.54882A.82039.82039,0,0,0,9.39354,15.93268Z" style="fill:#fff"/><path d="M11.63805,18.0476a1.61437,1.61437,0,0,0-.5613-.86061,1.68118,1.68118,0,0,0-1.04232-.40637.85842.85842,0,0,0-.6599.262L6.23208,20.59283a.81891.81891,0,0,0-.15212.74371,1.6295,1.6295,0,0,0,.562.862,1.321,1.321,0,0,0,1.70293.14437l3.14245-3.55022A.81846.81846,0,0,0,11.63805,18.0476Z" style="fill:#fff"/><path d="M14.16849,20.18858a1.6055,1.6055,0,0,0-.5606-.86132,1.68783,1.68783,0,0,0-1.04232-.40707.86291.86291,0,0,0-.6606.2627L8.76252,22.7317a.82318.82318,0,0,0-.15212.74511,1.61568,1.61568,0,0,0,.562.86062,1.321,1.321,0,0,0,1.70222.14438L14.01707,20.933A.81519.81519,0,0,0,14.16849,20.18858Z" style="fill:#fff"/><path d="M16.70879,22.493a1.54248,1.54248,0,0,0-.57962-1.02049,1.67317,1.67317,0,0,0-1.04654-.41551.86147.86147,0,0,0-.65427.25846l-3.1671,3.5298a.82108.82108,0,0,0-.157.74371,1.61,1.61,0,0,0,.55567.86554,1.32361,1.32361,0,0,0,1.70222.15424l3.1671-3.5298A.77069.77069,0,0,0,16.70879,22.493Z" style="fill:#fff"/></g></g></svg>