<svg xmlns="http://www.w3.org/2000/svg" width="8.11674mm" height="10.58354mm" viewBox="0 0 23.00808 30.00059"><title>Recurso 150</title><g id="Capa_2" data-name="Capa 2"><g id="Capa_1-2" data-name="Capa 1"><path d="M23.00487,4.82959a.36563.36563,0,0,0-.39341-.331H10.02239a.36872.36872,0,0,0-.39448.331v1.904h13.377v-1.904Z" style="fill:#fff"/><path d="M22.80175,10.3136l-1.31706-2.069H11.14916l-1.31493,2.069a2.63884,2.63884,0,0,0-.20419.975v15.672a2.66529,2.66529,0,0,0,.20419.975l.80927,1.651a.70058.70058,0,0,0,.5078.414H21.48576a.71522.71522,0,0,0,.511-.414l.8082-1.653a2.65315,2.65315,0,0,0,.20312-.972v-15.673A2.70872,2.70872,0,0,0,22.80175,10.3136Zm-.76009,11.601H10.51949v-7.171H22.04166v7.171Z" style="fill:#fff"/><path d="M1.82815,9.09159c.05666.042.08339.151.08446.303H5.71306c.00107-.153.02887-.261.08553-.303a2.44491,2.44491,0,0,0,.33461-1.875c-.16891-.51-.53666-3.786-.53666-3.786l-.14432-1.836S5.29934-.05941,3.839.00259a.07365.07365,0,0,0-.0278.006.0664.0664,0,0,0-.02672-.007c-1.45925-.06-1.61106,1.593-1.61106,1.593l-.14325,1.836s-.36882,3.276-.53559,3.786A2.4477,2.4477,0,0,0,1.82815,9.09159Z" style="fill:#fff"/><path d="M6.90505,11.6556A2.66275,2.66275,0,0,1,5.7911,9.9436H1.8335a2.66384,2.66384,0,0,1-1.11395,1.712,1.01764,1.01764,0,0,0-.70664,1.208v17.136H7.61062V12.8636A1.017,1.017,0,0,0,6.90505,11.6556Z" style="fill:#fff"/></g></g></svg>