<svg xmlns="http://www.w3.org/2000/svg" width="8.57356mm" height="10.15682mm" viewBox="0 0 24.303 28.791"><title>Recurso 179</title><g id="Capa_2" data-name="Capa 2"><g id="Capa_1-2" data-name="Capa 1"><rect y="7.902" width="4.711" height="1.967" style="fill:#fff"/><rect y="13.201" width="4.711" height="1.967" style="fill:#fff"/><rect y="18.395" width="4.711" height="1.967" style="fill:#fff"/><path d="M24.303,8.57V2.634H22.262V0H.631V5.268H5.343V22.929H.631v5.862H22.262V22.893h2.04V16.956h-2.04V15.732h2.04V9.795h-2.04V8.57ZM12.9,3.897a2.7575,2.7575,0,1,1-2.756,2.758A2.75826,2.75826,0,0,1,12.9,3.897ZM10.515,8.731a3.286,3.286,0,0,0,2.145.929c.016.103-.763.549-.763.549l.963,2.01.963-2.01s-.78-.446-.764-.549a3.286,3.286,0,0,0,2.145-.929,4.58791,4.58791,0,0,1,2.641,4.47H7.875A4.58772,4.58772,0,0,1,10.515,8.731Zm7.851,14.161H7.311V21.698H18.367l-.001,1.194Zm0-3.302H7.311V18.395H18.367l-.001,1.195Zm0-3.228H7.311V15.168H18.367l-.001,1.194Z" style="fill:#fff"/></g></g></svg>