<svg xmlns="http://www.w3.org/2000/svg" width="10.24079mm" height="10.24184mm" viewBox="0 0 29.029 29.032"><title>Recurso 157</title><g id="Capa_2" data-name="Capa 2"><g id="Capa_1-2" data-name="Capa 1"><path d="M.943,9.356a14.44655,14.44655,0,0,0-.915,4.197H0V15.48H.028a14.43276,14.43276,0,0,0,.915,4.196Z" style="fill:#fff"/><path d="M28.992,13.553A14.51545,14.51545,0,0,0,15.478.03V0H13.551V.03A14.52424,14.52424,0,0,0,1.979,7.198H4.281A12.56723,12.56723,0,0,1,9.09,3.168a14.763,14.763,0,0,0-2.097,4.03H9.005c1.052-2.728,2.674-4.641,4.546-5.136V7.198h1.927V2.062c1.994.526,3.705,2.663,4.745,5.678H17.442V9.677H20.77a22.45316,22.45316,0,0,1,.501,3.875H17.442v1.927h3.829a21.607,21.607,0,0,1-.501,3.875H17.442v1.938h2.781a10.87492,10.87492,0,0,1-2.781,4.573v1.956H8.714a14.41993,14.41993,0,0,0,4.837,1.174v.037h1.927v-.037A14.503,14.503,0,0,0,28.992,15.481h.037V13.553ZM19.939,3.167A12.57966,12.57966,0,0,1,25.118,7.74H22.226A15.11175,15.11175,0,0,0,19.939,3.167Zm0,22.699a15.46607,15.46607,0,0,0,2.287-4.575h2.892A12.57814,12.57814,0,0,1,19.939,25.866Zm6.189-6.512H22.727a22.95692,22.95692,0,0,0,.482-3.875h3.846A12.54235,12.54235,0,0,1,26.128,19.354Zm-2.919-5.801a22.956,22.956,0,0,0-.482-3.876h3.401a12.54171,12.54171,0,0,1,.927,3.876Z" style="fill:#fff"/><path d="M9.881,22.7H8.498a.28146.28146,0,0,0-.281.282v1.241a.28146.28146,0,0,0,.281.282H9.882a.28231.28231,0,0,0,.282-.282V22.982A.28252.28252,0,0,0,9.881,22.7Z" style="fill:#fff"/><path d="M5.324,15.302H6.732a.28174.28174,0,0,0,.281-.266,2.1803,2.1803,0,0,1,4.357.125c0,.73-.281,1-.975,1.594a5.35571,5.35571,0,0,0-2.188,4.553.2784.2784,0,0,0,.281.285H9.894a.27954.27954,0,0,0,.28-.277,3.41659,3.41659,0,0,1,1.501-3.066,3.75843,3.75843,0,0,0,1.664-3.088,4.14985,4.14985,0,0,0-8.297-.149.28113.28113,0,0,0,.08.205A.287.287,0,0,0,5.324,15.302Z" style="fill:#fff"/><rect x="3.231" y="16.043" width="4.542" height="0.929" style="fill:#fff"/><rect x="3.231" y="12.379" width="1.811" height="0.928" style="fill:#fff"/><rect x="13.61" y="16.043" width="1.565" height="0.929" style="fill:#fff"/><rect x="13.61" y="12.379" width="1.565" height="0.928" style="fill:#fff"/><rect x="3.231" y="18.388" width="3.713" height="0.928" style="fill:#fff"/><rect x="3.231" y="21.593" width="3.713" height="0.929" style="fill:#fff"/><rect x="12.61" y="18.388" width="2.585" height="0.928" style="fill:#fff"/><rect x="11.482" y="21.593" width="3.712" height="0.929" style="fill:#fff"/><path d="M1.608,8.029V26.99H16.776V8.029ZM15.934,25.936H2.451V9.083H15.934Z" style="fill:#fff"/></g></g></svg>