<svg xmlns="http://www.w3.org/2000/svg" width="10.16247mm" height="10.19493mm" viewBox="0 0 28.807 28.89901"><title>Recurso 151</title><g id="Capa_2" data-name="Capa 2"><g id="Capa_1-2" data-name="Capa 1"><path d="M23.166,7.449a2.18844,2.18844,0,0,0-1.958,3.177l-2.617,2.616a2.1829,2.1829,0,0,0-2.862.585L13.88,11.979c.003-.048.007-.096.007-.144a2.193,2.193,0,1,0-4.215.849L7.124,15.231a2.19419,2.19419,0,1,0,.709.872l2.529-2.529a2.18411,2.18411,0,0,0,3.096-.438l1.844,1.842c-.005.052-.009.104-.009.156a2.193,2.193,0,1,0,4.088-1.102l2.567-2.567a2.19277,2.19277,0,1,0,1.218-4.016ZM5.834,17.635a.633.633,0,1,1,.633-.633A.63376.63376,0,0,1,5.834,17.635Zm5.861-5.167a.633.633,0,1,1,.633-.633A.634.634,0,0,1,11.695,12.468Zm5.791,3.3a.6335.6335,0,1,1,.633-.634A.63334.63334,0,0,1,17.486,15.768Zm5.68-5.494a.633.633,0,1,1,.632-.633A.6327.6327,0,0,1,23.166,10.274Z" style="fill:#fff"/><path d="M28.483,1.149H15.576L14.964,0h-.981l-.485,1.149H0V6.305H.464V22.023H9.145L5.033,28.166c-.11.165.004.435.257.604.251.168.544.171.654.007l2.378-3.552,5.266-.027.018,3.403c0,.166.247.299.55.298.303-.002.547-.137.546-.304l-.017-3.403,5.862-.03,2.42,3.615c.11.164.404.161.655-.007.252-.169.366-.438.256-.604l-4.112-6.144h8.717V6.305h.324V1.149ZM8.94,24.302l1.525-2.278h3.107l.012,2.255Zm10.994-.056-5.254.027-.012-2.249h3.778Zm7.388-3.088H1.626V6.305H27.322Z" style="fill:#fff"/></g></g></svg>