<svg xmlns="http://www.w3.org/2000/svg" width="9.54193mm" height="10.1981mm" viewBox="0 0 27.048 28.908"><title>Recurso 149</title><g id="Capa_2" data-name="Capa 2"><g id="Capa_1-2" data-name="Capa 1"><path d="M0,0V28.908H24.173V0ZM22.43,27.204H1.713V1.753H22.43Z" style="fill:#fff"/><path d="M14.616,11.646c1.106-3.997,4.555-6.505,7.708-5.607a5.15744,5.15744,0,0,1,2.935,2.303l1.789-.822-1.604,5.846-5.45-2.613,1.751-.803A3.56214,3.56214,0,0,0,19.91,8.668c-2.234-.639-4.683,1.141-5.468,3.978-.044.16-.081.32-.111.479A9.44586,9.44586,0,0,1,14.616,11.646Z" style="fill:#fff"/><rect x="3.553" y="5.969" width="16.261" height="0.397" style="fill:#fff"/><rect x="3.553" y="11.713" width="16.261" height="0.398" style="fill:#fff"/><rect x="3.553" y="17.399" width="16.261" height="0.397" style="fill:#fff"/><rect x="3.553" y="22.53" width="16.261" height="0.396" style="fill:#fff"/><rect x="3.49" y="6.035" width="0.381" height="16.957" style="fill:#fff"/><rect x="11.494" y="6.035" width="0.381" height="16.957" style="fill:#fff"/><rect x="19.751" y="6.035" width="0.381" height="16.957" style="fill:#fff"/></g></g></svg>