<svg xmlns="http://www.w3.org/2000/svg" width="31.75007mm" height="20.41112mm" viewBox="0 0 90.00021 57.85829"><title>seleccionar</title><g id="Capa_2" data-name="Capa 2"><g id="Capa_1-2" data-name="Capa 1"><path d="M87.80625,11.26829l-51.429,45c-.019.017-.042.028-.061.044a6.48045,6.48045,0,0,1-.838.607c-.047.029-.094.056-.141.084a6.354,6.354,0,0,1-.914.434c-.048.018-.097.034-.146.051a6.40307,6.40307,0,0,1-.974.263c-.037.007-.075.01-.112.016a6.39142,6.39142,0,0,1-1.041.091h-.007a6.3411,6.3411,0,0,1-.646-.034c-.057-.006-.112-.017-.169-.024-.158-.02-.317-.042-.473-.074-.07-.014-.138-.034-.207-.051-.141-.034-.282-.069-.421-.112-.077-.024-.153-.053-.229-.08-.128-.045-.255-.092-.38-.145-.082-.035-.162-.074-.243-.113-.115-.055-.229-.112-.341-.174-.086-.047-.17-.098-.254-.15-.102-.063-.203-.128-.302-.197-.087-.061-.173-.124-.258-.19-.091-.071-.18-.144-.268-.22-.085-.073-.168-.147-.249-.225-.034-.033-.071-.061-.104-.094l-25.716-25.713a6.4276,6.4276,0,0,1,9.09-9.09l21.461,21.461,46.902-41.039a6.429,6.429,0,0,1,8.47,9.674Z" style="fill:#068996"/></g></g></svg>