<svg xmlns="http://www.w3.org/2000/svg" width="152.84376mm" height="125.18997mm" viewBox="0 0 433.25789 354.8692"><title>Entrega_especial_verde</title><g id="Capa_2" data-name="Capa 2"><g id="Capa_1-2" data-name="Capa 1"><path d="M135.15572,213.87051q-53.73657,0-107.47312-.00344C11.36044,213.86194.02054,202.60016.01468,186.33374q-.02851-79.2302.00113-158.46036C.02242,11.73468,11.463.06574,27.62222.05018q107.473-.10344,214.94615-.0026c15.81235.01355,27.41019,11.75975,27.41749,27.50337q.03675,79.48011.00021,158.96022c-.00723,15.93939-11.44324,27.34732-27.35724,27.35434Q188.89228,213.88918,135.15572,213.87051Z" style="fill:#068996"/><path d="M369.42607,321.87058c.74378-20.07352-6.13434-36.539-21.78238-48.81357A53.27962,53.27962,0,0,0,311.837,261.54926c-15.84308.56079-28.94876,6.94989-39.50088,18.56955-10.58445,11.65524-14.71229,25.74279-14.42026,41.49023H195.54137c.58212-21.7475-7.647-39.35574-26.09961-51.52939-11.47467-7.57013-24.31909-9.96866-37.73969-8.08057-22.54284,3.17142-48.18454,22.40085-47.89592,58.87784-10.87636,0-21.96731,1.35419-32.56543-.35229-12.46763-2.00757-21.13623-14.67865-21.20945-27.46478-.09064-15.82865-.03882-31.65824-.01871-47.48737.01526-12.02808,7.58816-19.68811,19.55952-19.69171q99.72371-.02985,199.44741-.01239c21.49319-.0011,32.97149-11.49484,32.9739-33.01386q.0056-49.48622.011-98.97249c.01178-14.6589,9.37445-23.974,24.01849-23.99813,5.33194-.00879,10.66471.05978,15.99561-.01491a27.726,27.726,0,0,1,22.11868,9.72453q40.83037,46.61783,81.375,93.48482a31.852,31.852,0,0,1,7.6789,21.16992c.02691,32.49139.16467,64.98383-.05774,97.47373-.12409,18.13052-12.67286,30.13354-30.75238,30.14712C391.58107,321.87723,380.7812,321.87058,369.42607,321.87058ZM306.85045,153.012c0,12.332-.03778,24.66413.013,36.99588.03479,8.43882,3.72369,12.15342,12.19131,12.21,11.16495.07467,22.33082.03366,33.49622.01541,6.83133-.01114,13.68848.28888,20.4877-.19828,9.74762-.69833,13.829-9.85186,8.20148-17.66925q-26.99529-37.5-53.97794-75.00895c-3.77984-5.24988-7.78643-6.94088-12.69278-5.43653-4.78051,1.46579-7.69,5.94658-7.70773,12.09575C306.82616,128.34793,306.85118,140.68,306.85045,153.012Z" style="fill:#068996"/><path d="M176.99434,316.82083A38.21044,38.21044,0,0,1,138.93642,354.869a37.82953,37.82953,0,0,1-37.7786-37.73328A38.226,38.226,0,0,1,139.269,279.03287,37.82855,37.82855,0,0,1,176.99434,316.82083Z" style="fill:#068996"/><path d="M350.99443,317.33792c-.04529,20.67545-17.441,37.60037-38.57513,37.53107-20.38388-.0668-37.23151-17.13593-37.26142-37.75122a37.91944,37.91944,0,1,1,75.83655.22015Z" style="fill:#068996"/><rect x="43.00155" y="29.96756" width="78.15633" height="78.15633" style="fill:#fff"/><rect x="154.00205" y="29.96808" width="78.15633" height="78.15633" style="fill:#fff"/><rect x="43.00148" y="116.96863" width="189.1569" height="78.15633" style="fill:#fff"/><rect x="61.00142" y="28.96755" width="25.38911" height="52.90894" style="fill:#068996"/><rect x="170.00199" y="28.96806" width="25.38911" height="52.90894" style="fill:#068996"/></g></g></svg>