<svg xmlns="http://www.w3.org/2000/svg" xmlns:xlink="http://www.w3.org/1999/xlink" width="8.35605mm" height="8.14718mm" viewBox="0 0 23.68644 23.09437"><defs><clipPath id="clip-path" transform="translate(-1003.9998 -495.99989)"><path d="M1022.341,501.2836a1.78049,1.78049,0,0,0-1.654-.123s-.522.487-1.291,1.25l-.276.379-.056-.044c-.643.639-1.409,1.423-2.19,2.267a48.94894,48.94894,0,0,0-3.562,4.437l-1.801-2.567a1.32406,1.32406,0,0,0-1.783-.914c-.815.306-.86,1.266-.553,2.075l2.385,4.931.004.014a1.53813,1.53813,0,0,0,.429.692,1.58292,1.58292,0,0,0,2.223-.088,45.97859,45.97859,0,0,1,4.844-6.664c1.838-1.985,3.443-4.066,3.443-4.066a1.35654,1.35654,0,0,0-.162-1.579" style="fill:none;clip-rule:evenodd"/></clipPath><clipPath id="clip-path-2" transform="translate(-1003.9998 -495.99989)"><rect width="2500" height="1440" style="fill:none"/></clipPath></defs><title>seleccion</title><g id="Capa_2" data-name="Capa 2"><g id="Capa_1-2" data-name="Capa 1"><g style="clip-path:url(#clip-path)"><g style="clip-path:url(#clip-path-2)"><rect width="23.68644" height="23.09437" style="fill:#058794"/></g></g></g></g></svg>