<?xml version="1.0" encoding="UTF-8"?>
<svg width="24px" height="25px" viewBox="0 0 24 25" version="1.1" xmlns="http://www.w3.org/2000/svg" xmlns:xlink="http://www.w3.org/1999/xlink">
    <!-- Generator: Sketch 50.2 (55047) - http://www.bohemiancoding.com/sketch -->
    <title>COBRADOR</title>
    <desc>Created with Sketch.</desc>
    <defs></defs>
    <g id="Symbols" stroke="none" stroke-width="1" fill="none" fill-rule="evenodd">
        <g id="COBRADOR" fill="#5C5C60">
            <path d="M11.4969458,3 C15.0911568,3 18,5.68803158 18,9.00140971 C18,12.3130962 15.0911568,15 11.4969458,15 C7.91067569,15 5,12.3130962 5,9.00140971 C5,5.68803158 7.91067569,3 11.4969458,3" id="Fill-1"></path>
            <path d="M15.9820169,15 C14.8336157,16.0155465 13.3599344,16.6835136 11.7383438,16.8407519 L10.2887128,16.8448898 C8.65569828,16.6911982 7.17359934,16.0202755 6.01978683,15 C2.46515441,16.8561211 0.0288603444,20.6327954 0,25 L22,25 C21.9729434,20.6327954 19.5342443,16.8561211 15.9820169,15" id="Fill-3"></path>
            <path d="M19.3814956,6.99049916 C19.657161,6.93261712 19.8574144,6.83965505 19.9841572,6.71044362 C20.1115336,6.58123219 20.1755387,6.43506541 20.1755387,6.27369729 C20.1755387,6.13279252 20.121673,6.00475042 20.0139417,5.88664766 C19.9062104,5.76796024 19.6958175,5.65979683 19.3814956,5.55689542 L19.3814956,6.99049916 Z M18.6761724,2.59321786 C18.468948,2.65577724 18.3263625,2.73412263 18.2439797,2.82650004 C18.1653992,2.91887744 18.1242079,3.02937952 18.1242079,3.15391362 C18.1242079,3.28487905 18.1653992,3.40005847 18.2471483,3.49711321 C18.3288973,3.59416795 18.4721166,3.67543667 18.6761724,3.74150406 L18.6761724,2.59321786 Z M21.7864385,3.0404882 L19.986692,3.30241906 C19.896071,3.09135424 19.8149556,2.94518746 19.7427123,2.86391873 C19.6698352,2.78206534 19.5500634,2.69904261 19.3814956,2.61601988 L19.3814956,3.90696485 C20.3631179,4.14843236 21.017744,4.40217788 21.347275,4.67112475 C21.7813688,5.03127969 22,5.4879047 22,6.04275378 C22,6.36782869 21.9214195,6.66425491 21.7648923,6.93612512 C21.6077313,7.20565665 21.4087452,7.43367683 21.1653992,7.61316963 C20.9220532,7.7967551 20.6622307,7.9283052 20.3891001,8.01015859 C20.112801,8.09201199 19.7782003,8.14112402 19.3814956,8.15515603 L19.3814956,9 L18.6761724,9 L18.6761724,8.15515603 C18.2021546,8.116568 17.8168568,8.04699262 17.52218,7.94350654 C17.2262357,7.84060513 16.9714829,7.69853102 16.756654,7.51611489 C16.5430925,7.33486808 16.3770596,7.13958927 16.26109,6.93027845 C16.1444867,6.72038296 16.0583016,6.46663743 16,6.16904188 L17.9537389,5.95973105 C18.0126743,6.25323394 18.0912548,6.46663743 18.1888466,6.59818753 C18.2883397,6.7285683 18.4493029,6.84491705 18.6761724,6.94606446 L18.6761724,5.36863261 C18.0240811,5.20083315 17.5621039,5.05642038 17.2896071,4.93539428 C17.0171103,4.81202953 16.7813688,4.61733538 16.5811153,4.34721918 C16.3814956,4.07827231 16.2794677,3.74910473 16.2794677,3.3620551 C16.2794677,2.83293137 16.4803549,2.39033838 16.8833967,2.03369144 C17.2845374,1.67704451 17.882763,1.48001169 18.6761724,1.44142366 L18.6761724,1 L19.3814956,1 L19.3814956,1.44142366 C20.1045627,1.4835197 20.6577947,1.64137981 21.0392902,1.91558869 C21.4214195,2.18921289 21.6698352,2.56398451 21.7864385,3.0404882 Z" id="Fill-5"></path>
            <path d="M19,0.392975632 C16.4602448,0.392975632 14.3929756,2.45852877 14.3929756,4.99942798 C14.3929756,7.53918316 16.4602448,9.60645235 19,9.60645235 C21.5397552,9.60645235 23.6070244,7.53918316 23.6070244,4.99942798 C23.6070244,2.45852877 21.5397552,0.392975632 19,0.392975632 M19,10 C16.2434504,10 14,7.75654959 14,4.99942798 C14,2.24173436 16.2434504,0 19,0 C21.7565496,0 24,2.24173436 24,4.99942798 C24,7.75654959 21.7565496,10 19,10" id="Fill-7"></path>
        </g>
    </g>
</svg>