<?xml version="1.0" encoding="UTF-8"?>
<svg width="58px" height="60px" viewBox="0 0 58 60" version="1.1" xmlns="http://www.w3.org/2000/svg" xmlns:xlink="http://www.w3.org/1999/xlink">
    <!-- Generator: Sketch 50.2 (55047) - http://www.bohemiancoding.com/sketch -->
    <title>icono4</title>
    <desc>Created with Sketch.</desc>
    <defs></defs>
    <g id="Symbols" stroke="none" stroke-width="1" fill="none" fill-rule="evenodd">
        <g id="icono4" fill="#FEFEFE">
            <path d="M46.9122,38.3739 C45.4992,38.3739 44.3522,39.5199 44.3522,40.9339 C44.3522,42.3479 45.4992,43.4939 46.9122,43.4939 C48.3252,43.4939 49.4712,42.3479 49.4712,40.9339 C49.4712,39.5199 48.3252,38.3739 46.9122,38.3739 Z M46.1392,36.6679 L52.8552,36.6679 C53.8822,36.8699 54.2782,37.4499 54.5882,38.3739 L54.5882,43.4939 C54.3812,44.4919 53.8192,44.8529 52.9352,45.1999 L46.0582,45.1999 C44.6252,45.1999 43.9502,44.8989 43.5002,44.3999 C43.0502,43.9009 42.6472,42.8949 42.6472,40.9869 C42.6472,39.0529 43.0382,37.9849 43.5002,37.4679 C43.9622,36.9489 44.6712,36.6679 46.1392,36.6679 Z M3.4122,25.5749 L47.8452,25.5749 C49.2182,25.5749 49.9582,25.8769 50.4032,26.3209 C50.8492,26.7659 51.1772,27.5209 51.1772,28.8809 L51.1772,33.2539 L46.1392,33.2539 C44.1152,33.2539 42.2312,33.7859 40.9682,35.2009 C39.7042,36.6159 39.2352,38.6029 39.2352,40.9869 C39.2352,43.3499 39.7112,45.2999 40.9682,46.6929 C42.2252,48.0869 44.0762,48.6129 46.0582,48.6129 L51.1772,48.6129 L51.1772,52.9339 C51.1772,54.3239 50.8582,55.0449 50.4032,55.4929 C49.9492,55.9399 49.1642,56.2929 47.7122,56.2929 L6.6642,56.2929 C4.8482,56.2929 4.2332,55.9409 3.9452,55.5999 C3.6562,55.2579 3.4122,54.4199 3.4122,52.8259 L3.4122,25.5749 Z M6.9572,20.4549 L13.1672,20.4549 L11.2742,22.1619 L3.8112,22.1619 C4.4772,20.9479 5.9742,20.4669 6.9572,20.4549 Z M32.3852,17.8949 C34.9712,17.8949 36.6772,19.6019 36.7032,22.1619 L28.1472,22.1619 C28.1472,19.6019 29.8522,17.8949 32.3852,17.8949 Z M34.1442,6.2419 C34.2942,7.5139 35.3652,8.5089 36.6772,8.5089 C37.8752,8.5089 38.8772,7.6749 39.1552,6.5619 L48.0052,15.4149 C46.8932,15.6939 46.0582,16.6969 46.0582,17.8949 C46.0582,19.2529 47.1222,20.3429 48.4582,20.4289 L46.9652,22.1609 L40.0882,22.1609 C40.0882,17.8949 36.6772,14.4819 32.3592,14.4869 C27.2942,14.4809 24.7352,18.7479 24.7352,22.1609 L16.3922,22.1609 L34.1442,6.2419 Z M35.5302,0.4029 L16.9782,17.0419 L6.9572,17.0419 C4.7762,17.0419 2.9212,17.8819 1.7322,19.2019 C0.6472,20.6969 0.0992,22.2679 0.0002,23.8419 L0.0002,23.8679 L0.0002,52.8259 C0.0002,54.6999 0.1692,56.4349 1.3332,57.8119 C2.4972,59.1909 4.3752,59.7059 6.6642,59.7059 L47.7122,59.7059 C49.7242,59.7059 51.5382,59.1649 52.8032,57.9199 C54.0672,56.6739 54.5882,54.9019 54.5882,52.9339 L54.5882,48.2929 C56.5302,47.4149 57.9682,45.3609 58.0002,43.4929 L58.0002,38.3739 C58.0002,35.8139 56.4562,34.2389 54.5882,33.2539 L54.5882,28.8809 C54.5882,26.9339 54.0682,25.1569 52.8292,23.9219 C52.3032,23.3959 51.6852,23.0039 50.9902,22.7219 L54.1882,18.9879 C54.7382,18.3389 54.6882,17.2659 54.0822,16.6689 L37.8762,0.4559 C36.8962,-0.2011 36.4352,-0.0841 35.5302,0.4029 Z" id="Fill-1"></path>
        </g>
    </g>
</svg>