<?xml version="1.0" encoding="UTF-8"?>
<svg width="53px" height="41px" viewBox="0 0 53 41" version="1.1" xmlns="http://www.w3.org/2000/svg" xmlns:xlink="http://www.w3.org/1999/xlink">
    <!-- Generator: Sketch 50.2 (55047) - http://www.bohemiancoding.com/sketch -->
    <title>icono3</title>
    <desc>Created with Sketch.</desc>
    <defs></defs>
    <g id="Symbols" stroke="none" stroke-width="1" fill="none" fill-rule="evenodd">
        <g id="icono3">
            <path d="M13.5,23.5 L21.5,26.5" id="Stroke-6" stroke="#FEFEFE"></path>
            <path d="M7,31 C10.866,31 14,27.866 14,24 C14,20.134 10.866,17 7,17 C3.134,17 0,20.134 0,24 C0,27.866 3.134,31 7,31" id="Fill-8" fill="#FEFEFE"></path>
            <path d="M33,14 C36.866,14 40,10.866 40,7 C40,3.134 36.866,0 33,0 C29.134,0 26,3.134 26,7 C26,10.866 29.134,14 33,14" id="Fill-14" fill="#FEFEFE"></path>
            <path d="M29.5,38 C35.299,38 40,33.299 40,27.5 C40,21.701 35.299,17 29.5,17 C23.701,17 19,21.701 19,27.5 C19,33.299 23.701,38 29.5,38" id="Fill-19" fill="#FEFEFE"></path>
            <path d="M32.5,13.5 L30.5,17.5" id="Stroke-24" stroke="#FEFEFE"></path>
            <path d="M38.5,28.5 L46.5,31.5" id="Stroke-26" stroke="#FEFEFE"></path>
            <path d="M32.8906,2.4062 C34.3116,2.4062 35.4626,3.5582 35.4626,4.9792 C35.4626,6.4002 34.3116,7.5522 32.8906,7.5522 C31.4696,7.5522 30.3176,6.4002 30.3176,4.9792 C30.3176,3.5582 31.4696,2.4062 32.8906,2.4062" id="Fill-28" fill="#444242"></path>
            <path d="M35.2803,7.5693 C35.2803,7.5693 37.9893,8.7853 37.7433,11.7393 L28.2413,11.7393 L28.2413,9.9803 C28.2413,9.9803 29.2543,8.0713 30.8223,7.6123 C30.8223,7.6123 31.7173,8.3593 32.4863,8.3803 C33.2543,8.4013 32.2513,8.6153 32.1873,8.7633 C32.1233,8.9133 32.9443,11.1323 32.9443,11.1323 C32.9443,11.1323 34.0693,8.9853 33.9893,8.9143 C33.5533,8.5233 32.8913,8.4013 33.7023,8.3483 C33.7013,8.3493 34.4693,8.2623 35.2803,7.5693" id="Fill-30" fill="#444242"></path>
            <path d="M6.8906,19.4062 C8.3116,19.4062 9.4626,20.5582 9.4626,21.9792 C9.4626,23.4002 8.3116,24.5522 6.8906,24.5522 C5.4696,24.5522 4.3176,23.4002 4.3176,21.9792 C4.3176,20.5582 5.4696,19.4062 6.8906,19.4062" id="Fill-32" fill="#444242"></path>
            <path d="M9.2803,24.5693 C9.2803,24.5693 11.9893,25.7853 11.7433,28.7393 L2.2413,28.7393 L2.2413,26.9803 C2.2413,26.9803 3.2543,25.0713 4.8223,24.6123 C4.8223,24.6123 5.7173,25.3593 6.4863,25.3803 C7.2543,25.4013 6.2513,25.6153 6.1873,25.7633 C6.1233,25.9133 6.9443,28.1323 6.9443,28.1323 C6.9443,28.1323 8.0693,25.9853 7.9893,25.9143 C7.5533,25.5233 6.8913,25.4013 7.7023,25.3483 C7.7013,25.3493 8.4693,25.2623 9.2803,24.5693" id="Fill-34" fill="#444242"></path>
            <path d="M47.6084,32.4063 C48.6374,32.4063 49.4714,33.2403 49.4714,34.2693 C49.4714,35.2993 48.6374,36.1343 47.6084,36.1343 C46.5794,36.1343 45.7454,35.2993 45.7454,34.2693 C45.7454,33.2403 46.5794,32.4063 47.6084,32.4063" id="Fill-36" fill="#444242"></path>
            <path d="M49.3398,36.1455 C49.3398,36.1455 51.3018,37.0265 51.1238,39.1665 L44.2408,39.1665 L44.2408,37.8925 C44.2408,37.8925 44.9748,36.5085 46.1108,36.1765 C46.1108,36.1765 46.7588,36.7185 47.3158,36.7335 C47.8718,36.7495 47.1458,36.9035 47.0998,37.0105 C47.0528,37.1195 47.6478,38.7265 47.6478,38.7265 C47.6478,38.7265 48.4628,37.1705 48.4048,37.1195 C48.0888,36.8365 47.6098,36.7495 48.1958,36.7095 C48.1958,36.7105 48.7528,36.6485 49.3398,36.1455" id="Fill-38" fill="#444242"></path>
            <path d="M29.6553,20.5 C31.7863,20.5 33.5143,22.228 33.5143,24.359 C33.5143,26.49 31.7863,28.218 29.6553,28.218 C27.5243,28.218 25.7973,26.49 25.7973,24.359 C25.7973,22.228 27.5243,20.5 29.6553,20.5" id="Fill-40" fill="#444242"></path>
            <path d="M33.2402,28.2432 C33.2402,28.2432 37.3032,30.0672 36.9342,34.4992 L22.6812,34.4992 L22.6812,31.8602 C22.6812,31.8602 24.2012,28.9962 26.5532,28.3082 C26.5532,28.3082 27.8962,29.4292 29.0492,29.4602 C30.2012,29.4922 28.6972,29.8122 28.6002,30.0352 C28.5052,30.2602 29.7362,33.5882 29.7362,33.5882 C29.7362,33.5882 31.4242,30.3672 31.3042,30.2602 C30.6492,29.6752 29.6572,29.4922 30.8732,29.4132 C30.8722,29.4132 32.0242,29.2832 33.2402,28.2432" id="Fill-42" fill="#444242"></path>
        </g>
    </g>
</svg>