<svg xmlns="http://www.w3.org/2000/svg" width="13.42mm" height="13.42mm" viewBox="0 0 38.04 38.04"><defs><style>.cls-1{fill:#737277;}.cls-2{fill:none;stroke:#737277;stroke-miterlimit:10;}</style></defs><title>Recurso 210</title><g id="Capa_2" data-name="Capa 2"><g id="Capa_1-2" data-name="Capa 1"><path class="cls-1" d="M19,6.18A12.84,12.84,0,1,0,31.85,19,12.83,12.83,0,0,0,19,6.18Zm0,22.39A9.56,9.56,0,1,1,28.57,19,9.56,9.56,0,0,1,19,28.57Z"/><rect class="cls-1" x="18.02" width="2" height="38.04"/><rect class="cls-1" y="18.02" width="38.04" height="2"/><path class="cls-1" d="M19,6.18A12.84,12.84,0,1,0,31.85,19,12.83,12.83,0,0,0,19,6.18Zm0,22.39A9.56,9.56,0,1,1,28.57,19,9.56,9.56,0,0,1,19,28.57Z"/><line class="cls-2" x1="19.02" x2="19.02" y2="38.04"/><line class="cls-2" x1="38.04" y1="19.02" y2="19.02"/></g></g></svg>