<svg xmlns="http://www.w3.org/2000/svg" width="10.58mm" height="10.58mm" viewBox="0 0 30 30"><defs><style>.cls-1{fill:#058794;}.cls-2{fill:#fff;}</style></defs><title>Recurso 221</title><g id="Capa_2" data-name="Capa 2"><g id="Capa_1-2" data-name="Capa 1"><rect class="cls-1" width="30" height="30"/><path class="cls-2" d="M24.16,27.26H5.84a.7.7,0,0,1-.7-.7V3.44a.7.7,0,0,1,.7-.7H17.67V9.93h7.19V26.56A.7.7,0,0,1,24.16,27.26ZM5.84,3.28a.16.16,0,0,0-.16.16V26.56a.16.16,0,0,0,.16.16H24.16a.16.16,0,0,0,.16-.16V10.47H17.13V3.28Z"/><polygon class="cls-2" points="19.13 3.16 20.8 4.83 19.31 6.32 21.13 8.14 22.62 6.65 24.29 8.32 24.29 3.16 19.13 3.16"/></g></g></svg>