<svg xmlns="http://www.w3.org/2000/svg" width="10.46mm" height="12.17mm" viewBox="0 0 29.66 34.49"><defs><style>.cls-1{fill:#5c5c60;}</style></defs><title>Recurso 206</title><g id="Capa_2" data-name="Capa 2"><g id="Capa_1-2" data-name="Capa 1"><path class="cls-1" d="M29.65,14.13l0-.43c0-.08,0-.16,0-.23s0-.38-.07-.56a.28.28,0,0,0,0-.09c0-.19-.06-.39-.09-.58v0h0A14.83,14.83,0,0,0,16.17.06h0l-.61,0-.7,0-.69,0-.62,0h0A14.84,14.84,0,0,0,.24,12.2h0s0,0,0,0l-.09.58s0,.06,0,.09c0,.18,0,.37-.07.56v.23c0,.14,0,.29,0,.43s0,.47,0,.71,0,.46,0,.7,0,.3,0,.46,0,.13,0,.2.05.39.07.58c0,0,0,0,0,.06,0,.21.06.42.1.62h0a14.86,14.86,0,0,0,12,12h0l.13,0,.42.06.29,0,.39,0,.38,0,.31,0,.71,0a9.73,9.73,0,0,0,5.43-1.82,7,7,0,0,1-4.35-1.79l-1.08.15A11.29,11.29,0,0,1,12.89,26a30,30,0,0,1-1.22-5.88c1,.06,2.14.15,2.16.15a5.38,5.38,0,0,1,.58-2.07s-1.87,0-2.92-.07c-.07-1-.11-2.15-.11-3.33s0-2.3.11-3.35c1-.07,2.16-.11,3.34-.11s2.29,0,3.33.11c0,.07.24,3.18.24,3.24a4.55,4.55,0,0,1,2-.36c0-.55-.25-2.16-.28-2.7A30.14,30.14,0,0,1,26,12.89a11.4,11.4,0,0,1,.17,1.95c0,.66-.16,2.34-.16,2.34a5.55,5.55,0,0,1,1.26,4.16c1.6-1.89,1.9-2.71,2.11-3.87h0s0-.06,0-.09,0-.3.07-.45l0-.24c0-.15,0-.29.05-.44l0-.34c0-.12,0-.23,0-.35s0-.48,0-.72S29.66,14.37,29.65,14.13Zm-26.2.71a12.51,12.51,0,0,1,.17-1.95,30.31,30.31,0,0,1,5.89-1.22c-.06,1-.1,2.09-.1,3.17s0,2.13.1,3.15a30.39,30.39,0,0,1-5.89-1.21A12.38,12.38,0,0,1,3.45,14.84ZM4.26,19a36.34,36.34,0,0,0,5.41,1,36.19,36.19,0,0,0,1,5.42A11.46,11.46,0,0,1,4.26,19ZM9.67,9.68a36.34,36.34,0,0,0-5.41,1,11.46,11.46,0,0,1,6.38-6.38A36.19,36.19,0,0,0,9.67,9.68Zm5.16-.27c-1.08,0-2.13,0-3.16.1a30,30,0,0,1,1.22-5.88,11.29,11.29,0,0,1,1.94-.17,12.39,12.39,0,0,1,1.94.16A30.39,30.39,0,0,1,18,9.51C17,9.45,15.91,9.41,14.83,9.41ZM20,9.68a33.87,33.87,0,0,0-1-5.42,11.4,11.4,0,0,1,6.38,6.38A36.25,36.25,0,0,0,20,9.68Z"/><path class="cls-1" d="M25.81,26.77a.56.56,0,0,0-.76-.23l-2.26,1.17a.57.57,0,0,0-.23.77l3,5.71a.57.57,0,0,0,.76.24l2.26-1.18a.56.56,0,0,0,.23-.76Z"/><path class="cls-1" d="M25.7,24.55A6.25,6.25,0,1,0,17,26.29,6.26,6.26,0,0,0,25.7,24.55Zm-4.31,1a4.56,4.56,0,1,1,3.52-3.33,4.76,4.76,0,0,1-.62,1.38A4.57,4.57,0,0,1,21.39,25.56Z"/></g></g></svg>