<svg xmlns="http://www.w3.org/2000/svg" width="14.25mm" height="15.31mm" viewBox="0 0 40.38 43.4"><defs><style>.cls-1{fill:#5c5c60;}</style></defs><title>Recurso 208</title><g id="Capa_2" data-name="Capa 2"><g id="Capa_1-2" data-name="Capa 1"><path class="cls-1" d="M18.29,5.43A10.64,10.64,0,1,1,7.65,16.07,10.64,10.64,0,0,1,18.29,5.43"/><path class="cls-1" d="M26.58,26.48a12.3,12.3,0,0,1-7.06,3.11H17.11A12.36,12.36,0,0,1,10,26.48,19.22,19.22,0,0,0,0,43.4H36.59A19.22,19.22,0,0,0,26.58,26.48Z"/><path class="cls-1" d="M36,5.39l-2.84.45a3.14,3.14,0,0,0-.38-.75,2.21,2.21,0,0,0-.57-.43V6.87a8.25,8.25,0,0,1,3.1,1.31,3,3,0,0,1,1,2.34A3.26,3.26,0,0,1,36,12.05a3.72,3.72,0,0,1-.95,1.16,3.79,3.79,0,0,1-1.22.68,6.31,6.31,0,0,1-1.59.25v1.44H31.13V14.14a7.48,7.48,0,0,1-1.82-.36,3.76,3.76,0,0,1-2-1.74,4.74,4.74,0,0,1-.41-1.3L30,10.38a3.16,3.16,0,0,0,.37,1.09,2,2,0,0,0,.77.6V9.37A14.54,14.54,0,0,1,29,8.63a2.75,2.75,0,0,1-1.12-1,2.87,2.87,0,0,1-.48-1.68,3,3,0,0,1,.95-2.27,4.32,4.32,0,0,1,2.83-1V1.9h1.12v.75a4.72,4.72,0,0,1,2.61.82A3.2,3.2,0,0,1,36,5.39Zm-4.91-.77a1.58,1.58,0,0,0-.68.4.92.92,0,0,0-.19.56.94.94,0,0,0,.2.59,1.33,1.33,0,0,0,.67.42Zm1.12,7.53a1.81,1.81,0,0,0,1-.48,1.08,1.08,0,0,0,.3-.75,1,1,0,0,0-.26-.66,2.31,2.31,0,0,0-1-.57Z"/><path class="cls-1" d="M31.64,17.48a8.74,8.74,0,1,1,8.74-8.74A8.75,8.75,0,0,1,31.64,17.48Zm0-16.79A8.05,8.05,0,1,0,39.7,8.74,8.06,8.06,0,0,0,31.64.69Z"/></g></g></svg>