<svg xmlns="http://www.w3.org/2000/svg" width="14.44mm" height="16.79mm" viewBox="0 0 40.94 47.6"><defs><style>.cls-1{fill:#fff;}</style></defs><title>Recurso 214</title><g id="Capa_2" data-name="Capa 2"><g id="Capa_1-2" data-name="Capa 1"><path class="cls-1" d="M40.92,19.51c0-.21,0-.41-.05-.61s0-.21,0-.31c0-.26-.05-.52-.09-.77,0,0,0-.09,0-.13,0-.26-.08-.53-.13-.8a.07.07,0,0,0,0-.05h0A20.47,20.47,0,0,0,22.32.09h0L21.43,0l-1,0-1,0-.85.07h0A20.47,20.47,0,0,0,.33,16.84h0a.43.43,0,0,0,0,.05c0,.27-.09.54-.13.8,0,0,0,.09,0,.13,0,.25-.07.51-.09.77,0,.1,0,.21,0,.31s0,.4,0,.61,0,.64,0,1,0,.64,0,1,0,.43.05.64,0,.19,0,.28c0,.27.06.53.09.8,0,0,0,.06,0,.09,0,.28.08.57.14.85h0a20.48,20.48,0,0,0,16.5,16.5h0l.19,0a5.62,5.62,0,0,0,.57.09l.4.06.54.05.53,0,.43,0,1,0A13.51,13.51,0,0,0,28,38.44,9.56,9.56,0,0,1,22,36l-1.49.21a15.72,15.72,0,0,1-2.68-.23,40.94,40.94,0,0,1-1.68-8.11c1.41.08,3,.21,3,.21a7.45,7.45,0,0,1,.8-2.87s-2.58,0-4-.09c-.1-1.44-.15-3-.15-4.6s0-3.17.15-4.62c1.44-.09,3-.15,4.61-.15s3.16.06,4.6.15c0,.09.33,4.38.33,4.47a6.28,6.28,0,0,1,2.8-.5c0-.75-.34-3-.39-3.72a42.51,42.51,0,0,1,8.13,1.68,15.92,15.92,0,0,1,.23,2.69c0,.91-.21,3.24-.21,3.24a7.62,7.62,0,0,1,1.73,5.74c2.21-2.61,2.63-3.74,2.92-5.35h0s0-.08,0-.12c0-.21.07-.41.1-.62s0-.23,0-.34,0-.4.07-.6,0-.32,0-.47,0-.33,0-.49q0-.49,0-1C40.94,20.15,40.93,19.83,40.92,19.51Zm-36.15,1A15.92,15.92,0,0,1,5,17.79a42.39,42.39,0,0,1,8.12-1.68C13,17.53,13,19,13,20.48s0,2.94.14,4.35A41.72,41.72,0,0,1,5,23.16,15.8,15.8,0,0,1,4.77,20.48Zm1.11,5.78a48.5,48.5,0,0,0,7.47,1.33,49.74,49.74,0,0,0,1.33,7.47A15.73,15.73,0,0,1,5.88,26.26Zm7.47-12.9a48.72,48.72,0,0,0-7.47,1.33,15.8,15.8,0,0,1,8.8-8.81A51.43,51.43,0,0,0,13.35,13.36ZM20.47,13c-1.49,0-2.95,0-4.36.14A41.47,41.47,0,0,1,17.79,5a15.71,15.71,0,0,1,2.68-.24A16.68,16.68,0,0,1,23.14,5a41,41,0,0,1,1.68,8.13C23.41,13,22,13,20.47,13Zm7.11.37a50.17,50.17,0,0,0-1.32-7.48,15.77,15.77,0,0,1,8.8,8.81A48.64,48.64,0,0,0,27.58,13.36Z"/><path class="cls-1" d="M35.62,37a.78.78,0,0,0-1-.33l-3.11,1.63a.78.78,0,0,0-.33,1l4.15,7.89a.78.78,0,0,0,1,.33l3.11-1.63a.78.78,0,0,0,.33-1Z"/><path class="cls-1" d="M35.47,33.88a8.63,8.63,0,1,0-12,2.41A8.7,8.7,0,0,0,35.47,33.88Zm-5.95,1.39a6.3,6.3,0,0,1-7.33-7.75,6.36,6.36,0,0,1,.85-1.9,6.29,6.29,0,0,1,8.73-1.76,6.31,6.31,0,0,1,2.61,6.82,6.39,6.39,0,0,1-.86,1.9A6.25,6.25,0,0,1,29.52,35.27Z"/></g></g></svg>