<svg xmlns="http://www.w3.org/2000/svg" width="29.45mm" height="29.45mm" viewBox="0 0 83.49 83.49"><defs><style>.cls-1{fill:#9c9b9b;}</style></defs><title>Recurso 222</title><g id="Capa_2" data-name="Capa 2"><g id="Capa_1-2" data-name="Capa 1"><path class="cls-1" d="M72.85,30.87a9.74,9.74,0,0,1,4.09-11.6A41.77,41.77,0,0,0,67.81,9.15a9.9,9.9,0,0,1-4.42,3.18A9.65,9.65,0,0,1,51,6.53,9.59,9.59,0,0,1,50.67,1,41.56,41.56,0,0,0,36.86.29a9.77,9.77,0,0,1-6.35,10.34A9.72,9.72,0,0,1,19,6.69,41.43,41.43,0,0,0,9,15.93a9.78,9.78,0,0,1,3.09,4.29,9.53,9.53,0,0,1-.33,7.4A9.64,9.64,0,0,1,.92,33,41,41,0,0,0,.36,47.08a9.68,9.68,0,0,1,10.33,6.3A9.64,9.64,0,0,1,6.9,64.73a41.19,41.19,0,0,0,9.27,10,9.89,9.89,0,0,1,4.34-3.15,9.61,9.61,0,0,1,7.43.35,9.73,9.73,0,0,1,5,5.48,9.87,9.87,0,0,1,.35,5.26,41.34,41.34,0,0,0,13.43.52,9.68,9.68,0,0,1,17.75-6.41,41.59,41.59,0,0,0,10.06-9.24,10.07,10.07,0,0,1-3.17-4.35,9.9,9.9,0,0,1,.35-7.43,9.7,9.7,0,0,1,5.49-5,9.49,9.49,0,0,1,5.36-.34,41.13,41.13,0,0,0,.65-13.2A9.72,9.72,0,0,1,72.85,30.87ZM46.17,54.07A13,13,0,1,1,54,37.38,13,13,0,0,1,46.17,54.07Z"/></g></g></svg>