<svg xmlns="http://www.w3.org/2000/svg" width="20.04mm" height="21.53mm" viewBox="0 0 56.79 61.03"><defs><style>.cls-1{fill:#fff;}</style></defs><title>Recurso 218</title><g id="Capa_2" data-name="Capa 2"><g id="Capa_1-2" data-name="Capa 1"><path class="cls-1" d="M25.72,7.63a15,15,0,1,1-15,15,15,15,0,0,1,15-15"/><path class="cls-1" d="M37.38,37.24a17.37,17.37,0,0,1-9.92,4.38H24.07a17.42,17.42,0,0,1-10-4.39A27,27,0,0,0,0,61H51.46A27,27,0,0,0,37.38,37.24Z"/><path class="cls-1" d="M50.69,7.58l-4,.63a4.06,4.06,0,0,0-.54-1.05,2.63,2.63,0,0,0-.8-.6v3.1a11.66,11.66,0,0,1,4.36,1.84,4.24,4.24,0,0,1,1.45,3.3A4.47,4.47,0,0,1,50.64,17a5.36,5.36,0,0,1-3,2.58,8.22,8.22,0,0,1-2.24.35v2H43.78v-2a9.69,9.69,0,0,1-2.56-.51,5.13,5.13,0,0,1-1.69-1,4.92,4.92,0,0,1-1.1-1.41,6.32,6.32,0,0,1-.58-1.84l4.33-.5a4.32,4.32,0,0,0,.52,1.54,2.75,2.75,0,0,0,1.08.83V13.18a20.43,20.43,0,0,1-3.07-1,4.16,4.16,0,0,1-1.58-1.42,4.08,4.08,0,0,1-.66-2.37,4.22,4.22,0,0,1,1.34-3.19,6,6,0,0,1,4-1.43V2.67h1.57V3.73A6.53,6.53,0,0,1,49,4.88,4.52,4.52,0,0,1,50.69,7.58ZM43.78,6.5a1.93,1.93,0,0,0-1,.57,1.19,1.19,0,0,0-.27.78,1.31,1.31,0,0,0,.27.83,2.07,2.07,0,0,0,1,.59Zm1.57,10.58a2.52,2.52,0,0,0,1.34-.67,1.54,1.54,0,0,0,.42-1.05,1.4,1.4,0,0,0-.36-.93,3.25,3.25,0,0,0-1.4-.8Z"/><path class="cls-1" d="M44.5,24.59a12.3,12.3,0,1,1,12.29-12.3A12.31,12.31,0,0,1,44.5,24.59ZM44.5,1A11.33,11.33,0,1,0,55.83,12.29,11.34,11.34,0,0,0,44.5,1Z"/></g></g></svg>