<svg xmlns="http://www.w3.org/2000/svg" width="12.34mm" height="14.53mm" viewBox="0 0 34.97 41.19"><defs><style>.cls-1{fill:#5c5c60;}</style></defs><title>Recurso 213</title><g id="Capa_2" data-name="Capa 2"><g id="Capa_1-2" data-name="Capa 1"><path class="cls-1" d="M35,40.06a18.61,18.61,0,0,0-9.55-16.35l-.68-.37-.58.53a9.88,9.88,0,0,1-13.34,0l-.58-.53-.69.37A18.58,18.58,0,0,0,0,40.06v1.13H35Z"/><path class="cls-1" d="M7.31,18.7a2,2,0,0,0,.74-.16,11,11,0,0,0,1.28,2A5.85,5.85,0,0,0,12.51,22a5.16,5.16,0,0,0,3.74-1.37A1.46,1.46,0,0,1,16,19.8a1.53,1.53,0,0,1,1.52-1.55h1.57a1.55,1.55,0,0,1,0,3.1H17.48a1.4,1.4,0,0,1-.67-.18,6,6,0,0,1-4.44,1.64c-.19,0-.37-.08-.56-.11a10.46,10.46,0,0,0,5.63,1.65,10.64,10.64,0,0,0,9.42-5.82,2.16,2.16,0,0,0,.8.17,2.23,2.23,0,0,0,2.21-2.25V10.9a2.22,2.22,0,0,0-2.21-2.24,2.29,2.29,0,0,0-.7.14.3.3,0,0,1,0-.08h.25a8.65,8.65,0,0,0-2.44-6.2C23,.85,20.51,0,17.29,0S11.61.85,10,2.53A8.25,8.25,0,0,0,7.87,8.71H8a.35.35,0,0,1,0,.08,2.36,2.36,0,0,0-.61-.12,2.22,2.22,0,0,0-2.2,2.24v5.55A2.23,2.23,0,0,0,7.31,18.7ZM10.63,3.08c1.46-1.5,3.7-2.26,6.66-2.26s5.25.77,6.79,2.27A7.66,7.66,0,0,1,26.2,7.47,10.53,10.53,0,0,0,8.78,7.32,7.1,7.1,0,0,1,10.63,3.08Z"/></g></g></svg>