<?xml version="1.0" encoding="UTF-8"?>
<svg width="8px" height="8px" viewBox="0 0 8 8" version="1.1" xmlns="http://www.w3.org/2000/svg" xmlns:xlink="http://www.w3.org/1999/xlink">
    <!-- Generator: Sketch 50.2 (55047) - http://www.bohemiancoding.com/sketch -->
    <title>Group 2</title>
    <desc>Created with Sketch.</desc>
    <defs></defs>
    <g id="Symbols" stroke="none" stroke-width="1" fill="none" fill-rule="evenodd">
        <g id="Group-2" fill="#FEFEFE">
            <path d="M3.99988,0.01344 C5.07228,0.01344 5.94028,0.881973333 5.94028,1.95304 C5.94028,3.02344 5.07228,3.89197333 3.99988,3.89197333 C2.92988,3.89197333 2.06174667,3.02344 2.06174667,1.95304 C2.06174667,0.881973333 2.92988,0.01344 3.99988,0.01344" id="Fill-1"></path>
            <path d="M5.8119289,4 C5.39411753,4.40636623 4.85809689,4.67329816 4.26881011,4.73609549 L4.7726791,5.28206903 L4.01607582,7.82458265 L3.22716094,5.24677796 L3.74142723,4.73817144 C3.14782157,4.67641208 2.60860176,4.40792319 2.18887089,4 C0.896406934,4.74232333 0.0100773799,6.25326529 0,8 L8,8 C7.9904025,6.25326529 7.10327315,4.74232333 5.8119289,4" id="Fill-4"></path>
        </g>
    </g>
</svg>