<?xml version="1.0" encoding="UTF-8"?>
<svg width="35px" height="35px" viewBox="0 0 35 35" version="1.1" xmlns="http://www.w3.org/2000/svg" xmlns:xlink="http://www.w3.org/1999/xlink">
    <!-- Generator: Sketch 50.2 (55047) - http://www.bohemiancoding.com/sketch -->
    <title>todos</title>
    <desc>Created with Sketch.</desc>
    <defs></defs>
    <g id="Symbols" stroke="none" stroke-width="1" fill="none" fill-rule="evenodd">
        <g id="todos" fill="#444242">
            <path d="M24.9351667,19.5854 C23.1426176,21.1514 20.8429118,22.1800667 18.3146765,22.4220667 L20.4764412,24.5254 L17.2303627,34.3234 L13.8456569,24.3894 L16.0520294,22.4300667 C13.5052647,22.1920667 11.1918333,21.1567333 9.39104902,19.5854 C3.84595098,22.4454 0.0433039216,28.2687333 6.8627451e-05,35.0000667 L34.3227157,35.0000667 C34.2815392,28.2687333 30.4754608,22.4454 24.9351667,19.5854" id="Fill-4"></path>
            <path d="M17.49937,0.0672 C23.12947,0.0672 27.68647,4.40986667 27.68647,9.76586667 C27.68647,15.1172 23.12947,19.4598667 17.49937,19.4598667 C11.88187,19.4598667 7.32417,15.1172 7.32417,9.76586667 C7.32417,4.40986667 11.88187,0.0672 17.49937,0.0672" id="Fill-1"></path>
        </g>
    </g>
</svg>