<?xml version="1.0" encoding="utf-8"?>
<!-- Generator: Adobe Illustrator 22.1.0, SVG Export Plug-In . SVG Version: 6.00 Build 0)  -->
<svg version="1.1" id="Capa_1" xmlns="http://www.w3.org/2000/svg" xmlns:xlink="http://www.w3.org/1999/xlink" x="0px" y="0px"
	 viewBox="0 0 29 24" style="enable-background:new 0 0 29 24;" xml:space="preserve">
<style type="text/css">
	.st0{fill:#A3185B;}
</style>
<g id="Layer_2">
	<g id="Layer_1-2">
		<path class="st0" d="M11.7,0c3.8,0,6.8,3,6.8,6.8s-3,6.8-6.8,6.8s-6.8-3-6.8-6.8l0,0C4.9,3,7.9,0,11.7,0"/>
		<path class="st0" d="M17,13.2c-3,2.7-7.6,2.7-10.6,0C2.4,15.3,0,19.5,0,24h23.4C23.4,19.5,20.9,15.3,17,13.2z"/>
	</g>
</g>
<g id="Layer_2_1_">
	<g id="Layer_2-2">
		<path class="st0" d="M28.3,3c-0.4-0.7-1.1-1.4-1.8-1.8c-0.8-0.4-1.6-0.7-2.5-0.7s-1.7,0.2-2.5,0.7c-0.7,0.4-1.4,1.1-1.8,1.8
			C19.3,3.8,19,4.6,19,5.5s0.2,1.7,0.7,2.5c0.4,0.7,1.1,1.4,1.8,1.8c0.8,0.4,1.6,0.7,2.5,0.7s1.7-0.2,2.5-0.7c0.7-0.4,1.4-1,1.8-1.8
			C28.8,7.2,29,6.3,29,5.5C29,4.6,28.8,3.7,28.3,3z M24.9,8.6c0,0.1,0,0.1-0.1,0.2l-0.1,0.1h-1.2c-0.1,0-0.1,0-0.1-0.1l-0.1-0.1V7.3
			c0-0.1,0-0.1,0.1-0.1l0.1-0.1h1.2c0.1,0,0.1,0,0.1,0.1l0.1,0.1V8.6z M24.9,6.3c0,0,0,0.1-0.1,0.1l-0.1,0.1h-1.2
			c-0.1,0-0.1,0-0.2-0.1l-0.1-0.1l-0.1-4c0,0,0-0.1,0.1-0.1c0,0,0.1-0.1,0.2,0h1.4c0.1,0,0.1,0,0.2,0l0.1,0.1L24.9,6.3z"/>
	</g>
</g>
</svg>
