<svg xmlns="http://www.w3.org/2000/svg" width="15.7119" height="11" viewBox="0 0 15.7119 11"><title>correo</title><g id="Layer_2" data-name="Layer 2"><g id="Layer_1-2" data-name="Layer 1"><path d="M1.2422.6499,6.9023,5.1328a1.44531,1.44531,0,0,0,.9531.2754,1.44564,1.44564,0,0,0,.9551-.2754L14.4687.6499C14.9199.291,14.8193,0,14.2431,0H1.4687C.8926,0,.791.291,1.2422.6499Zm0,0" style="fill:#088592"/><path d="M14.8779,1.8311,8.6914,6.5273a1.49335,1.49335,0,0,1-1.6719,0L.834,1.8311C.375,1.4844,0,1.6709,0,2.2461V9.9492A1.0528,1.0528,0,0,0,1.0469,11H14.665a1.0528,1.0528,0,0,0,1.0469-1.0508V2.2461c0-.5752-.376-.7617-.834-.415Zm0,0" style="fill:#088592"/></g></g></svg>