<svg xmlns="http://www.w3.org/2000/svg" width="13.10113" height="12.98306" viewBox="0 0 13.10113 12.98306"><title>telefono</title><g id="Layer_2" data-name="Layer 2"><g id="Layer_1-2" data-name="Layer 1"><path d="M12.86119,10.1378a17.48275,17.48275,0,0,0-2.5616-2.1602c-.4648-.2334-.998-.5-1.4951.0654-.2656.2989-.3652.9317-1.0976.5323A7.82858,7.82858,0,0,1,4.38359,5.251c-.2344-.4336.2656-.6982.4317-.8652a1.00629,1.00629,0,0,0,.2988-1.5635A25.69305,25.69305,0,0,0,3.05349.296.79011.79011,0,0,0,1.85629.2618C1.45779.6944-.23751,2.4571.02809,3.1876a25.43744,25.43744,0,0,0,9.9063,9.7763c.3652.0996,1.2256-.1748,2.2607-1.1611C12.98029,11.0528,13.39439,10.7032,12.86119,10.1378Z" style="fill:#038692"/></g></g></svg>