<?xml version="1.0" encoding="UTF-8"?>
<svg width="18px" height="19px" viewBox="0 0 18 19" version="1.1" xmlns="http://www.w3.org/2000/svg" xmlns:xlink="http://www.w3.org/1999/xlink">
    <!-- Generator: Sketch 50.2 (55047) - http://www.bohemiancoding.com/sketch -->
    <title>cartera</title>
    <desc>Created with Sketch.</desc>
    <defs></defs>
    <g id="Symbols" stroke="none" stroke-width="1" fill="none" fill-rule="evenodd">
        <g id="cartera" fill="#FEFEFE">
            <g id="icono4">
                <path d="M14.5589586,12.151735 C14.1204414,12.151735 13.7644759,12.514635 13.7644759,12.9624017 C13.7644759,13.4101683 14.1204414,13.7730683 14.5589586,13.7730683 C14.9974759,13.7730683 15.353131,13.4101683 15.353131,12.9624017 C15.353131,12.514635 14.9974759,12.151735 14.5589586,12.151735 Z M14.3190621,11.6115017 L16.4033379,11.6115017 C16.7220621,11.6754683 16.8449586,11.859135 16.9411655,12.151735 L16.9411655,13.7730683 C16.8769241,14.0891017 16.7025103,14.2034183 16.4281655,14.3133017 L14.2939241,14.3133017 C13.8492,14.3133017 13.6397172,14.217985 13.5000621,14.0599683 C13.3604069,13.9019517 13.2353379,13.583385 13.2353379,12.979185 C13.2353379,12.3667517 13.3566828,12.0285517 13.5000621,11.864835 C13.6434414,11.700485 13.8634759,11.6115017 14.3190621,11.6115017 Z M1.05895862,8.09871833 L14.8485103,8.09871833 C15.2746138,8.09871833 15.504269,8.19435167 15.6423724,8.33495167 C15.7807862,8.47586833 15.8825793,8.71495167 15.8825793,9.14561833 L15.8825793,10.5304017 L14.3190621,10.5304017 C13.6909241,10.5304017 13.1062345,10.6988683 12.714269,11.1469517 C12.3219931,11.595035 12.1764414,12.2242517 12.1764414,12.979185 C12.1764414,13.7274683 12.3241655,14.3449683 12.714269,14.786085 C13.1043724,15.2275183 13.6788207,15.394085 14.2939241,15.394085 L15.8825793,15.394085 L15.8825793,16.7624017 C15.8825793,17.2025683 15.7835793,17.430885 15.6423724,17.5727517 C15.5014759,17.7143017 15.2578552,17.826085 14.8072345,17.826085 L2.0682,17.826085 C1.50461379,17.826085 1.31375172,17.7146183 1.22437241,17.606635 C1.13468276,17.498335 1.05895862,17.2329683 1.05895862,16.7282017 L1.05895862,8.09871833 Z M2.15913103,6.477385 L4.08637241,6.477385 L3.49888966,7.017935 L1.18278621,7.017935 C1.38947586,6.63350167 1.85406207,6.481185 2.15913103,6.477385 Z M10.0505793,5.66671833 C10.853131,5.66671833 11.3825793,6.20726833 11.3906483,7.017935 L8.73533793,7.017935 C8.73533793,6.20726833 9.26447586,5.66671833 10.0505793,5.66671833 Z M10.5964759,1.97660167 C10.6430276,2.37940167 10.9754069,2.694485 11.3825793,2.694485 C11.7543724,2.694485 12.0653379,2.430385 12.1516138,2.077935 L14.8981655,4.881385 C14.5530621,4.969735 14.2939241,5.28735167 14.2939241,5.66671833 C14.2939241,6.09675167 14.624131,6.44191833 15.0387517,6.46915167 L14.5754069,7.01761833 L12.4411655,7.01761833 C12.4411655,5.66671833 11.3825793,4.585935 10.0425103,4.58751833 C8.47061379,4.58561833 7.67644138,5.936835 7.67644138,7.01761833 L5.08723448,7.01761833 L10.5964759,1.97660167 Z M11.0266138,0.127585 L5.26909655,5.39660167 L2.15913103,5.39660167 C1.48226897,5.39660167 0.90657931,5.66260167 0.53757931,6.08060167 C0.200855172,6.55401833 0.0307862069,7.05150167 6.20689655e-05,7.549935 L6.20689655e-05,7.55816833 L6.20689655e-05,16.7282017 C6.20689655e-05,17.321635 0.0525103448,17.8710517 0.413751724,18.3071017 C0.774993103,18.743785 1.35782069,18.9068683 2.0682,18.9068683 L14.8072345,18.9068683 C15.4316483,18.9068683 15.9946138,18.7355517 16.3872,18.3413017 C16.7794759,17.946735 16.9411655,17.3856017 16.9411655,16.7624017 L16.9411655,15.2927517 C17.5438552,15.0147183 17.990131,14.364285 18.0000621,13.7727517 L18.0000621,12.151735 C18.0000621,11.3410683 17.5208897,10.8423183 16.9411655,10.5304017 L16.9411655,9.14561833 C16.9411655,8.52906833 16.7797862,7.96635167 16.395269,7.57526833 C16.2320276,7.40870167 16.0402345,7.28456833 15.8245448,7.19526833 L16.8170276,6.012835 C16.9877172,5.80731833 16.9722,5.467535 16.784131,5.278485 L11.7546828,0.144368333 C11.4505448,-0.0636816667 11.3074759,-0.0266316667 11.0266138,0.127585 Z" id="Fill-1"></path>
            </g>
        </g>
    </g>
</svg>