<?xml version="1.0" encoding="UTF-8"?>
<svg width="30px" height="31px" viewBox="0 0 30 31" version="1.1" xmlns="http://www.w3.org/2000/svg" xmlns:xlink="http://www.w3.org/1999/xlink">
    <!-- Generator: Sketch 50.2 (55047) - http://www.bohemiancoding.com/sketch -->
    <title>configuracion</title>
    <desc>Created with Sketch.</desc>
    <defs></defs>
    <g id="Symbols" stroke="none" stroke-width="1" fill="none" fill-rule="evenodd">
        <g id="configuracion">
            <path d="M26.1764421,11.5793161 C25.607969,9.98960375 26.2594492,8.25759342 27.6490102,7.41278921 C26.7747403,6.0437105 25.6654631,4.81477371 24.365018,3.77556752 C23.9568098,4.29624863 23.3998355,4.69583276 22.7796177,4.91682578 C21.9387662,5.22513799 20.9865199,5.21615453 20.1183587,4.80758695 C19.241214,4.40333143 18.6184808,3.67639016 18.3177147,2.83302331 C18.0880976,2.20490006 18.0413836,1.50922122 18.2081166,0.832946647 C16.5483332,0.467140316 14.8734577,0.399584726 13.2434994,0.593268039 C13.4393387,2.15351469 12.5359624,3.73244693 10.9627796,4.30666944 C9.39893955,4.87083048 7.7025037,4.24091054 6.83937324,2.89015809 C5.47280991,3.77556752 4.25141922,4.8963435 3.21832177,6.21116213 C3.72355134,6.61254294 4.11558936,7.15155031 4.32975496,7.75487922 C4.63806717,8.59824607 4.62081893,9.55264844 4.21153267,10.4111075 C3.79793436,11.2947202 3.08321059,11.9131414 2.23804705,12.2189382 C1.63974887,12.4377752 0.976769814,12.4873639 0.328882962,12.3461439 C-0.0383607217,14.0361117 -0.0879493992,15.7462024 0.129809576,17.4038297 C1.70946049,17.204397 3.27761258,18.107414 3.84033627,19.66802 C4.40234128,21.2174865 3.79002892,22.8844566 2.47844433,23.7486651 C3.37032185,25.1044482 4.49325386,26.3132621 5.8091505,27.3323454 C6.21340602,26.8217257 6.75995949,26.425735 7.3708345,26.2029453 C8.21635739,25.9003825 9.17399381,25.9115219 10.0382023,26.3258389 C10.9099569,26.7308131 11.530534,27.4545204 11.8431583,28.2953718 C12.0504964,28.8918733 12.1008038,29.5462283 11.9707233,30.1862097 C13.583074,30.5200349 15.2080016,30.5671082 16.7941206,30.3745029 C16.6072647,28.8271924 17.5120784,27.2687425 19.068013,26.6833805 C20.6250256,26.1353897 22.3074472,26.7451867 23.1716557,28.0707854 C24.5385784,27.185376 25.757813,26.060288 26.7873171,24.7483441 C26.2741821,24.3394171 25.8771133,23.7986131 25.6489336,23.1863007 C25.3582289,22.3497613 25.3679311,21.3932029 25.77578,20.5182143 C26.1796761,19.6443037 26.9120075,19.0283979 27.7463909,18.7190077 C28.3576252,18.4965773 29.0277911,18.4509413 29.6753186,18.59827 C30.0159712,17.0117917 30.0792148,15.4145332 29.9085291,13.8550052 C28.3482824,14.0688115 26.7495866,13.158967 26.1764421,11.5793161" id="Path" fill="#444242"></path>
            <path d="M16.5896571,19.9177601 C14.1576559,20.7923893 11.4769926,19.5397362 10.5915832,17.1070163 C9.7151572,14.6746558 10.9721224,11.9886024 13.4008896,11.106427 C15.8271414,10.2325164 18.5124761,11.4927156 19.4000415,13.9211235 C20.2750301,16.3585148 19.0155496,19.0309133 16.5896571,19.9177601" id="Path" fill="#FFFFFF"></path>
        </g>
    </g>
</svg>