<?xml version="1.0" encoding="UTF-8"?>
<svg width="53px" height="41px" viewBox="0 0 53 41" version="1.1" xmlns="http://www.w3.org/2000/svg" xmlns:xlink="http://www.w3.org/1999/xlink">
    <!-- Generator: Sketch 50.2 (55047) - http://www.bohemiancoding.com/sketch -->
    <title>corporativo</title>
    <desc>Created with Sketch.</desc>
    <defs></defs>
    <g id="Symbols" stroke="none" stroke-width="1" fill="none" fill-rule="evenodd">
        <g id="corporativo">
            <path d="M13.5,23.5 L21.5,26.5" id="Line-6" stroke="#444242" stroke-linecap="square"></path>
            <circle id="Oval-3" fill="#444242" cx="7" cy="24" r="7"></circle>
            <circle id="Oval-3" fill="#444242" cx="33" cy="7" r="7"></circle>
            <circle id="Oval-3" fill="#444242" cx="29.5" cy="27.5" r="10.5"></circle>
            <circle id="Oval-3" fill="#444242" cx="48" cy="36" r="5"></circle>
            <path d="M6.99988,20.01344 C8.07228,20.01344 8.94028,20.8819733 8.94028,21.95304 C8.94028,23.02344 8.07228,23.8919733 6.99988,23.8919733 C5.92988,23.8919733 5.06174667,23.02344 5.06174667,21.95304 C5.06174667,20.8819733 5.92988,20.01344 6.99988,20.01344" id="Fill-1" fill="#FEFEFE"></path>
            <path d="M8.69946667,24.1462833 C8.28974118,24.5377833 7.76409412,24.79495 7.18621176,24.85545 L7.68032941,25.38145 L6.93836863,27.83095 L6.16472157,25.34745 L6.66903529,24.85745 C6.08691765,24.79795 5.55813333,24.5392833 5.14652549,24.1462833 C3.87907451,24.86145 3.00989804,26.3171167 3.00001569,27.99995 L10.8451922,27.99995 C10.8357804,26.3171167 9.96581961,24.86145 8.69946667,24.1462833" id="Fill-4" fill="#FEFEFE"></path>
            <g id="Group-2" transform="translate(45.000000, 33.000000)" fill="#FEFEFE">
                <path d="M2.99991,0.01008 C3.80421,0.01008 4.45521,0.66148 4.45521,1.46478 C4.45521,2.26758 3.80421,2.91898 2.99991,2.91898 C2.19741,2.91898 1.54631,2.26758 1.54631,1.46478 C1.54631,0.66148 2.19741,0.01008 2.99991,0.01008" id="Fill-1"></path>
                <path d="M4.35894667,3 C4.04558815,3.30477467 3.64357267,3.50497362 3.20160758,3.55207162 L3.57950933,3.96155177 L3.01205687,5.86843699 L2.4203707,3.93508347 L2.80607042,3.55362858 C2.36086617,3.50730906 1.95645132,3.30594239 1.64165317,3 C0.672305201,3.5567425 0.00755803491,4.68994897 0,6 L6,6 C5.99280187,4.68994897 5.32745486,3.5567425 4.35894667,3" id="Fill-4"></path>
            </g>
            <g id="Page-1" transform="translate(23.000000, 21.000000)" fill="#FEFEFE">
                <path d="M6.499805,0.02184 C8.242455,0.02184 9.652955,1.43320667 9.652955,3.17369 C9.652955,4.91309 8.242455,6.32445667 6.499805,6.32445667 C4.761055,6.32445667 3.35033833,4.91309 3.35033833,3.17369 C3.35033833,1.43320667 4.761055,0.02184 6.499805,0.02184" id="Fill-1"></path>
                <path d="M9.26163333,6.73771042 C8.59582941,7.37389792 7.74165294,7.79179375 6.80259412,7.89010625 L7.60553529,8.74485625 L6.39984902,12.7252937 L5.14267255,8.68960625 L5.96218235,7.89335625 C5.01624118,7.79666875 4.15696667,7.37633542 3.48810392,6.73771042 C1.42849608,7.89985625 0.0160843137,10.2653146 2.54901961e-05,12.9999187 L12.7484373,12.9999187 C12.7331431,10.2653146 11.3194569,7.89985625 9.26163333,6.73771042" id="Fill-4"></path>
            </g>
            <path d="M32.5,13.5 L30.5,17.5" id="Line-4" stroke="#444242" stroke-linecap="square"></path>
            <path d="M38.5,28.5 L46.5,31.5" id="Line-5" stroke="#444242" stroke-linecap="square"></path>
            <path d="M34.6994667,7.14628333 C34.2897412,7.53778333 33.7640941,7.79495 33.1862118,7.85545 L33.6803294,8.38145 L32.9383686,10.83095 L32.1647216,8.34745 L32.6690353,7.85745 C32.0869176,7.79795 31.5581333,7.53928333 31.1465255,7.14628333 C29.8790745,7.86145 29.009898,9.31711667 29.0000157,10.99995 L36.8451922,10.99995 C36.8357804,9.31711667 35.9658196,7.86145 34.6994667,7.14628333" id="Fill-4" fill="#FEFEFE"></path>
            <path d="M32.99988,3.01344 C34.07228,3.01344 34.94028,3.88197333 34.94028,4.95304 C34.94028,6.02344 34.07228,6.89197333 32.99988,6.89197333 C31.92988,6.89197333 31.0617467,6.02344 31.0617467,4.95304 C31.0617467,3.88197333 31.92988,3.01344 32.99988,3.01344" id="Fill-1" fill="#FEFEFE"></path>
        </g>
    </g>
</svg>