<?xml version="1.0" encoding="UTF-8"?>
<svg width="113px" height="171px" viewBox="0 0 113 171" version="1.1" xmlns="http://www.w3.org/2000/svg" xmlns:xlink="http://www.w3.org/1999/xlink">
    <!-- Generator: Sketch 50.2 (55047) - http://www.bohemiancoding.com/sketch -->
    <title>cuentaclave</title>
    <desc>Created with Sketch.</desc>
    <defs></defs>
    <g id="Symbols" stroke="none" stroke-width="1" fill="none" fill-rule="evenodd">
        <g id="cuentaclave">
            <path d="M41.0745,116.8375 L37.6585,113.1205 C37.4145,112.8725 37.1705,112.6245 36.6825,112.6245 L31.5575,113.6155 C30.3375,113.8635 29.1175,113.8635 27.8975,113.8635 C24.9695,113.8635 22.2845,113.3685 19.8445,112.1295 C18.3805,111.3855 16.4285,112.1295 15.9395,113.8635 L1.2985,154.5045 C0.3215,157.4785 3.2505,160.2045 5.9345,158.9655 L20.5765,152.0265 C22.2845,151.2825 24.2365,152.0265 25.2135,153.7615 L32.0465,168.6295 C33.2655,171.3555 37.4145,171.3555 38.3905,168.3825 L53.5205,126.5025 C54.0095,124.7675 53.0325,123.0325 51.3245,122.5375 C47.4195,121.7945 43.7595,119.8115 41.0745,116.8375" id="Fill-1" fill="#444242"></path>
            <path d="M95.9818,114.1119 C95.4938,112.3769 93.5418,111.8819 92.0768,112.3769 C89.6368,113.3679 86.9528,114.1119 84.0238,114.1119 C82.8038,114.1119 81.5838,114.1119 80.3638,113.8639 L75.4838,112.8729 C74.9958,112.8729 74.7518,113.1199 74.5068,113.1199 L71.0908,116.8379 C68.4068,119.8109 64.7458,121.7939 61.0858,122.7849 C59.3778,123.2799 58.4008,125.0149 58.8888,126.7499 L74.0188,168.6299 C74.9958,171.6039 79.1438,171.6039 80.3638,168.8769 L87.1968,154.0089 C87.9288,152.2739 90.1258,151.5309 91.8338,152.2739 L106.4748,159.2129 C109.1598,160.4519 112.0878,157.7259 111.1118,154.7529 L95.9818,114.1119 Z" id="Fill-3" fill="#444242"></path>
            <path d="M108.4271,65.5543 C106.7191,62.3323 106.7191,58.3673 108.4271,55.1463 L110.8671,50.6853 C113.7961,45.2343 111.6001,38.2953 105.9871,35.3213 L101.5941,33.0913 C98.1781,31.3563 95.9821,28.3833 95.4931,24.6653 L94.7611,19.7093 C94.0301,13.5143 88.1731,9.0543 82.0721,10.2923 L77.1911,11.2843 C73.5311,12.0273 69.8701,10.7883 67.4301,8.0623 L64.0141,4.3453 C59.6201,-0.1147 52.5441,-0.1147 48.1521,4.3453 L44.7351,8.0623 C42.2951,10.7883 38.3901,12.0273 34.9741,11.2843 L30.0931,10.2923 C23.9921,9.3013 18.1361,13.5143 17.4041,19.7093 L16.6711,24.6653 C16.1831,28.3833 13.9871,31.6043 10.5711,33.0913 L6.1781,35.3213 C0.5661,38.0473 -1.6309,44.9863 1.2981,50.6853 L3.7391,55.1463 C5.4471,58.3673 5.4471,62.3323 3.7391,65.5543 L1.2981,70.0143 C-1.6309,75.4673 0.5661,82.4053 6.1781,85.3793 L10.5711,87.6093 C13.9881,89.3443 16.1841,92.3173 16.6721,96.0343 L17.4041,100.9913 C18.1361,107.1863 23.9921,111.6463 30.0931,110.4083 L34.9741,109.4163 C38.6341,108.6733 42.2951,109.9123 44.7361,112.6383 L48.1521,116.3553 C52.5441,120.8153 59.6211,120.8153 64.0141,116.3553 L67.4301,112.6383 C69.8701,109.9123 73.7751,108.6733 77.1921,109.4163 L82.0721,110.4083 C88.1731,111.3993 94.0301,107.1863 94.7611,100.9913 L95.4931,96.0343 C95.9821,92.3173 98.1781,89.0963 101.5951,87.6093 L105.9871,85.3793 C111.6001,82.6533 113.7961,75.7143 110.8671,70.0143 L108.4271,65.5543 Z" id="Fill-6" fill="#444242"></path>
            <path d="M55.9603,100.9908 C33.7543,100.9908 15.6953,82.6538 15.6953,60.1028 C15.6953,37.7998 33.7543,19.4618 55.9603,19.4618 C78.1673,19.4618 96.2263,37.7998 96.2263,60.3498 C96.2263,82.6528 78.1673,100.9908 55.9603,100.9908" id="Fill-9" fill="#FEFEFE"></path>
            <path d="M55.9603,26.8961 C37.9023,26.8961 23.0173,42.0121 23.0173,60.3501 C23.0173,78.6881 37.9023,93.8051 55.9603,93.8051 C74.0193,93.8051 88.9043,78.6881 88.9043,60.3501 C88.9043,41.7651 74.0193,26.8961 55.9603,26.8961" id="Fill-11" fill="#444242"></path>
        </g>
    </g>
</svg>