<?xml version="1.0" encoding="UTF-8"?>
<svg width="59px" height="76px" viewBox="0 0 59 76" version="1.1" xmlns="http://www.w3.org/2000/svg" xmlns:xlink="http://www.w3.org/1999/xlink">
    <!-- Generator: Sketch 50.2 (55047) - http://www.bohemiancoding.com/sketch -->
    <title>icono2</title>
    <desc>Created with Sketch.</desc>
    <defs></defs>
    <g id="Symbols" stroke="none" stroke-width="1" fill="none" fill-rule="evenodd">
        <g id="icono2" fill="#FEFEFE">
            <path d="M29.2754,3.4999 C30.4704,3.4999 31.4504,4.4469 31.4504,5.6119 C31.4504,6.7739 30.4704,7.7179 29.2754,7.7179 C28.0764,7.7179 27.0994,6.7739 27.0994,5.6119 C27.1004,4.4469 28.0764,3.4999 29.2754,3.4999 Z" id="Path"></path>
            <path d="M42.9114,16.2629 C42.8954,12.1739 42.9114,5.8979 42.9114,5.8979 L34.3414,5.8979 C34.3294,3.1909 32.0694,0.9999 29.2754,0.9999 C26.4854,0.9999 24.2234,3.1909 24.2084,5.8969 L15.6324,5.8969 C15.6324,5.8969 15.6484,12.1739 15.6324,16.2619 L42.9114,16.2619 L42.9114,16.2629 Z" id="Path"></path>
            <path d="M52.96,5.8725 L45.068,5.8725 C45.063,6.4565 45.063,9.7165 45.063,12.8675 L47.273,12.8675 C49.24,12.8675 50.851,14.6165 50.851,16.7545 L50.851,63.9505 C50.851,66.0915 49.24,67.8365 47.273,67.8365 L10.534,67.8365 C8.566,67.8365 6.963,66.0915 6.963,63.9505 L6.963,16.7545 C6.963,14.6165 8.566,12.8675 10.534,12.8675 L12.739,12.8675 C12.739,9.7165 12.738,6.4565 12.738,5.8725 L5.583,5.8725 C2.51,5.8725 0,8.3875 0,11.4535 L0,69.6305 C0,72.7025 2.51,75.2175 5.583,75.2175 L52.96,75.2175 C56.03,75.2175 58.543,72.7025 58.543,69.6305 L58.543,11.4535 C58.543,8.3875 56.03,5.8725 52.96,5.8725" id="Fill-1"></path>
            <path d="M43.0957,35.0038 L25.6997,35.0038 C25.1187,35.0038 24.6517,35.5228 24.6517,36.1638 C24.6517,36.8068 25.1187,37.3258 25.6997,37.3258 L43.0957,37.3258 C43.6787,37.3258 44.1477,36.8068 44.1477,36.1638 C44.1477,35.5228 43.6797,35.0038 43.0957,35.0038" id="Fill-7"></path>
            <path d="M24.6514,27.4052 C24.6514,28.0452 25.1194,28.5692 25.7004,28.5692 L43.0954,28.5692 C43.6784,28.5692 44.1474,28.0452 44.1474,27.4052 C44.1474,26.7642 43.6784,26.2432 43.0954,26.2432 L25.7004,26.2432 C25.1204,26.2432 24.6514,26.7642 24.6514,27.4052" id="Fill-9"></path>
            <path d="M43.0957,43.7626 L25.6997,43.7626 C25.1187,43.7626 24.6517,44.2826 24.6517,44.9246 C24.6517,45.5626 25.1187,46.0866 25.6997,46.0866 L43.0957,46.0866 C43.6787,46.0866 44.1477,45.5626 44.1477,44.9246 C44.1477,44.2836 43.6797,43.7626 43.0957,43.7626" id="Fill-11"></path>
            <path d="M17.7832,42.8544 C16.6402,42.8544 15.7112,43.7834 15.7112,44.9284 C15.7112,46.0684 16.6402,46.9974 17.7832,46.9974 C18.9292,46.9974 19.8542,46.0684 19.8542,44.9284 C19.8542,43.7834 18.9292,42.8544 17.7832,42.8544" id="Fill-13"></path>
            <path d="M43.0957,52.5229 L25.6997,52.5229 C25.1187,52.5229 24.6517,53.0439 24.6517,53.6849 C24.6517,54.3229 25.1187,54.8449 25.6997,54.8449 L43.0957,54.8449 C43.6787,54.8449 44.1477,54.3239 44.1477,53.6849 C44.1477,53.0439 43.6797,52.5229 43.0957,52.5229" id="Fill-15"></path>
            <path d="M17.7832,51.6122 C16.6402,51.6122 15.7112,52.5432 15.7112,53.6852 C15.7112,54.8252 16.6402,55.7552 17.7832,55.7552 C18.9292,55.7552 19.8542,54.8252 19.8542,53.6852 C19.8542,52.5432 18.9292,51.6122 17.7832,51.6122" id="Fill-17"></path>
            <path d="M15.9893,29.8495 C16.1583,30.0195 16.3803,30.1045 16.6033,30.1045 C16.8003,30.1045 16.9963,30.0385 17.1563,29.9055 L21.5893,26.2435 C21.9593,25.9375 22.0103,25.3915 21.7053,25.0225 C21.4023,24.6555 20.8553,24.6005 20.4843,24.9055 L16.6583,28.0665 L15.1433,26.5515 C14.8053,26.2115 14.2573,26.2115 13.9173,26.5515 C13.5783,26.8905 13.5783,27.4385 13.9173,27.7785 L15.9893,29.8495 Z" id="Fill-19"></path>
            <path d="M15.9893,38.6088 C16.1583,38.7788 16.3803,38.8638 16.6033,38.8638 C16.8003,38.8638 16.9963,38.7968 17.1563,38.6648 L21.5893,35.0028 C21.9593,34.6968 22.0103,34.1508 21.7053,33.7818 C21.4023,33.4138 20.8553,33.3598 20.4843,33.6638 L16.6583,36.8258 L15.1433,35.3118 C14.8053,34.9718 14.2573,34.9718 13.9173,35.3118 C13.5783,35.6508 13.5783,36.1988 13.9173,36.5388 L15.9893,38.6088 Z" id="Fill-21"></path>
        </g>
    </g>
</svg>