<?xml version="1.0" encoding="UTF-8"?>
<svg width="25px" height="34px" viewBox="0 0 25 34" version="1.1" xmlns="http://www.w3.org/2000/svg" xmlns:xlink="http://www.w3.org/1999/xlink">
    <!-- Generator: Sketch 50.2 (55047) - http://www.bohemiancoding.com/sketch -->
    <title>Group</title>
    <desc>Created with Sketch.</desc>
    <defs>
        <polygon id="path-1" points="0 0.0148087033 24.729023 0.0148087033 24.729023 12.21909 0 12.21909"></polygon>
    </defs>
    <g id="Page-1" stroke="none" stroke-width="1" fill="none" fill-rule="evenodd">
        <g id="7" transform="translate(-2250.000000, -238.000000)">
            <g id="Group" transform="translate(2250.000000, 238.000000)">
                <g id="Page-1" transform="translate(0.000000, 15.000000)">
                    <g id="Group-3">
                        <mask id="mask-2" fill="white">
                            <use xlink:href="#path-1"></use>
                        </mask>
                        <g id="Clip-2"></g>
                        <path d="M19.968592,12.21909 C19.968592,10.7566202 19.9777874,9.60577256 19.9660057,8.45521209 C19.9513506,7.01744233 19.2579598,6.29338767 17.8433046,6.28821791 C14.2237644,6.27471907 10.6042241,6.27586791 6.98439655,6.28735628 C5.5091092,6.29166442 4.83094828,7.0042307 4.82031609,8.51437721 C4.81255747,9.63736558 4.81887931,10.760354 4.81887931,11.9468156 C4.58181034,11.9025853 4.4183046,11.8902353 4.2662931,11.841697 C-0.125086207,10.4257551 -1.11761494,8.92652256 1.24818966,4.21083302 C2.3525,2.00966093 4.30048851,0.658053953 6.71485632,0.0844969767 C7.08899425,-0.00453790698 7.58841954,0.0859330233 7.93181034,0.272906279 C10.9358333,1.91172256 13.9070977,1.91689233 16.8953161,0.237579535 C17.1892816,0.072434186 17.6070977,-0.0300995349 17.9280747,0.0342353488 C21.6530747,0.786436512 24.5941667,4.34639581 24.7269253,8.13612256 C24.7602586,9.09425279 24.444454,9.85851674 23.6720402,10.3180516 C22.5467529,10.9866749 21.3427299,11.5228947 19.968592,12.21909" id="Fill-1" fill="#434142" mask="url(#mask-2)"></path>
                    </g>
                    <path d="M18.3190122,16.9782972 C18.2373358,16.862762 18.1553667,16.7472269 18.0733976,16.6319926 C17.4557018,16.6319926 16.835664,16.6040114 16.2208956,16.6494432 C16.049346,16.6623807 15.8933119,16.8916458 15.7299592,17.0219237 C15.8883352,17.1973325 16.0285609,17.4970018 16.2080147,17.5240804 C16.6831429,17.5965907 17.1863747,17.6131387 17.6559406,17.5261865 C17.9009697,17.4807547 18.0997448,17.1693514 18.3190122,16.9782972 M11.4415107,7.60400431 C11.4415107,8.5123392 11.4628813,9.29310403 11.4353631,10.0717628 C11.4090158,10.8119098 11.7231332,11.0628377 12.4348008,11.0754743 C14.4843214,11.1121808 14.4840286,11.137755 14.4851996,9.00968189 C14.4854924,8.58755739 14.4851996,8.16573377 14.4851996,7.61152613 C15.9594727,7.61152613 17.3406523,7.56850133 18.7153914,7.65003785 C18.9706666,7.66538236 19.4018827,8.18017566 19.4065667,8.46991614 C19.4563336,11.6892548 19.4595539,14.9097969 19.4012972,18.1285337 C19.3963205,18.4230882 18.8860628,18.9550312 18.6041476,18.9592435 C14.8452782,19.0152058 11.0855306,18.9986578 7.32578297,18.9944456 C6.71101461,18.9938438 6.48120835,18.6403183 6.48325758,18.0301484 C6.49350371,14.8815148 6.49584569,11.7331822 6.48150109,8.58484954 C6.47886637,7.90939017 6.74146029,7.59377464 7.40628835,7.60009297 C8.69173971,7.61272962 9.97777656,7.60400431 11.4415107,7.60400431" id="Fill-4" fill="#434142"></path>
                    <path d="M17.5925926,16.5005237 C17.3573421,16.6892602 17.1440776,16.9968857 16.8811875,17.0417663 C16.3773933,17.1276637 15.8374793,17.1113164 15.3277175,17.0396858 C15.1351827,17.0129357 14.9847354,16.7169019 14.8148148,16.543621 C14.9900749,16.4149236 15.1574828,16.1884399 15.3415373,16.1756593 C16.0011181,16.1307787 16.6663526,16.1584204 17.3290743,16.1584204 C17.4170184,16.2722567 17.5049626,16.3863902 17.5925926,16.5005237" id="Fill-10" fill="#434142"></path>
                </g>
                <circle id="Oval-2" fill="#434142" cx="13.5" cy="7.5" r="7.5"></circle>
            </g>
        </g>
    </g>
</svg>