<svg xmlns="http://www.w3.org/2000/svg" width="16.1mm" height="16.02mm" viewBox="0 0 45.63 45.41"><defs><style>.cls-1{fill:#5c5c60;}</style></defs><title>Recurso 211</title><g id="Capa_2" data-name="Capa 2"><g id="Capa_1-2" data-name="Capa 1"><path class="cls-1" d="M41.52,24.55l4.11-1.2-.16-1.21-.41-3.06-.16-1.2L41,17.79A16.52,16.52,0,0,0,40,15l2.95-3.09-.74-1L40.26,8.5l-.74-1L36,9.47a17.89,17.89,0,0,0-2.24-1.85l1-4.26L33.66,2.9,30.79,1.72l-1.13-.46L27.54,4.75a19,19,0,0,0-2.81-.48L23.47,0,22.26.16,19.18.57,18,.74l-.09,4.1a18.89,18.89,0,0,0-2.68.94L12,2.72l-1,.75L8.55,5.34l-1,.75,2,3.54a19.75,19.75,0,0,0-1.9,2.19l-4.26-1-.46,1.13L1.73,14.77,1.27,15.9l3.38,2a17.56,17.56,0,0,0-.53,2.91L0,22.06l.16,1.21.42,3.06.16,1.2,3.94.08a18.06,18.06,0,0,0,1,2.81l-3,3.08.75,1,1.89,2.45.75,1,3.52-1.93a18.8,18.8,0,0,0,2.24,1.85l-1,4.26,1.14.46,2.87,1.17,1.13.47,2.11-3.48a17.66,17.66,0,0,0,2.83.52l1.25,4.22,1.22-.17,3.06-.4,1.22-.17.09-4.1a18.89,18.89,0,0,0,2.68-.94l3.22,3.06,1-.74,2.46-1.89,1-.74-2-3.55A20.75,20.75,0,0,0,38,33.59l4.26,1,.46-1.12,1.18-2.86.47-1.13-3.38-2A17.49,17.49,0,0,0,41.52,24.55ZM22.81,9.18a6.68,6.68,0,1,1-6.7,6.67A6.69,6.69,0,0,1,22.81,9.18ZM11.28,33a12.05,12.05,0,0,1,6.31-10.62,7.83,7.83,0,0,0,4.48,2h1.52a7.87,7.87,0,0,0,4.46-2A12.07,12.07,0,0,1,34.36,33Z"/></g></g></svg>