<svg xmlns="http://www.w3.org/2000/svg" width="23.44mm" height="22.23mm" viewBox="0 0 66.45 63.01"><defs><style>.cls-1,.cls-2{fill:#fff;}.cls-2{fill-rule:evenodd;}</style></defs><title>Recurso 217</title><g id="Capa_2" data-name="Capa 2"><g id="Capa_1-2" data-name="Capa 1"><path class="cls-1" d="M56.89,11.89l-6.33,1a7,7,0,0,0-.86-1.67,4.39,4.39,0,0,0-1.27-1V15.2q5.18,1.38,6.91,2.91a6.71,6.71,0,0,1,2.3,5.23,7.19,7.19,0,0,1-.83,3.41A8.54,8.54,0,0,1,52,30.84a13.29,13.29,0,0,1-3.54.55v3.22H46V31.39a15.33,15.33,0,0,1-4.06-.81A8,8,0,0,1,39.2,29a7.9,7.9,0,0,1-1.75-2.24,10.53,10.53,0,0,1-.92-2.9l6.88-.8a6.59,6.59,0,0,0,.82,2.44A4.36,4.36,0,0,0,46,26.78v-6a33,33,0,0,1-4.88-1.65,6.53,6.53,0,0,1-3.55-6,6.73,6.73,0,0,1,2.12-5.07C41.05,6.7,43.15,5.94,46,5.79V4.11h2.48V5.79A10.57,10.57,0,0,1,54.26,7.6,7.28,7.28,0,0,1,56.89,11.89ZM46,10.19a3.18,3.18,0,0,0-1.52.89A2,2,0,0,0,44,12.33a2.11,2.11,0,0,0,.44,1.31,3.32,3.32,0,0,0,1.51.93ZM48.43,27a3.93,3.93,0,0,0,2.12-1.07,2.4,2.4,0,0,0,.67-1.66,2.24,2.24,0,0,0-.57-1.48,5.25,5.25,0,0,0-2.22-1.25Z"/><path class="cls-1" d="M47.08,38.72A19.36,19.36,0,1,1,66.45,19.36,19.38,19.38,0,0,1,47.08,38.72Zm0-37.43A18.08,18.08,0,1,0,65.16,19.36,18.09,18.09,0,0,0,47.08,1.29Z"/><path class="cls-2" d="M29.19,46.07a6.31,6.31,0,0,0,.67.71c1.95,1.33,3.92,2.63,5.85,4A8.8,8.8,0,0,0,41.23,52a55.43,55.43,0,0,0,10.86-1.7,22.65,22.65,0,0,1,3.59-.5A2.24,2.24,0,0,1,58.05,51a2.62,2.62,0,0,1-.25,3.12A7.82,7.82,0,0,1,55.1,56c-5.13,1.85-10.29,3.6-15.45,5.35-1.59.55-3.19,1-4.81,1.5a5.61,5.61,0,0,1-4.2-.57C24.39,59,18.09,55.83,11.89,52.5,9.52,51.22,7,51.07,4.48,51c-1.08-.06-2.16,0-3.24,0-.55,0-.75-.19-.83-.73A35.55,35.55,0,0,1,.69,38c.12-.65.35-.85,1-.77,1,.13,2,.16,2.91.26A21.89,21.89,0,0,0,13.91,36a19.9,19.9,0,0,1,12.28-.3C31.8,37.42,37.46,39,43.07,40.61c2,.59,2.64,1.48,2.58,3.11a2.82,2.82,0,0,1-3.39,3c-1.93-.25-3.83-.69-5.76-1a20,20,0,0,0-3.9-.47A16.77,16.77,0,0,0,29.19,46.07Z"/></g></g></svg>