<svg xmlns="http://www.w3.org/2000/svg" width="14.87mm" height="14.1mm" viewBox="0 0 42.15 39.97"><defs><style>.cls-1,.cls-2{fill:#5c5c60;}.cls-2{fill-rule:evenodd;}</style></defs><title>Recurso 212</title><g id="Capa_2" data-name="Capa 2"><g id="Capa_1-2" data-name="Capa 1"><path class="cls-1" d="M36.08,7.54l-4,.64a4.12,4.12,0,0,0-.55-1.06,2.63,2.63,0,0,0-.8-.6V9.64a11.53,11.53,0,0,1,4.38,1.85,4.25,4.25,0,0,1,1.46,3.31A4.6,4.6,0,0,1,36,17,5.3,5.3,0,0,1,34.7,18.6a5.21,5.21,0,0,1-1.73,1,8.3,8.3,0,0,1-2.25.35v2H29.14v-2a9.77,9.77,0,0,1-2.57-.51,5.24,5.24,0,0,1-1.71-1A4.82,4.82,0,0,1,23.76,17a6.63,6.63,0,0,1-.59-1.84l4.36-.51a4.17,4.17,0,0,0,.53,1.55,2.86,2.86,0,0,0,1.08.84V13.17a19.52,19.52,0,0,1-3.09-1.05,4,4,0,0,1-1.58-1.42,4.07,4.07,0,0,1-.67-2.38,4.29,4.29,0,0,1,1.34-3.21,6,6,0,0,1,4-1.43V2.61h1.58V3.68a6.65,6.65,0,0,1,3.7,1.14A4.63,4.63,0,0,1,36.08,7.54ZM29.14,6.46a2,2,0,0,0-1,.57,1.22,1.22,0,0,0-.27.79,1.3,1.3,0,0,0,.28.83,2.07,2.07,0,0,0,.95.59ZM30.72,17.1a2.53,2.53,0,0,0,1.34-.68,1.53,1.53,0,0,0,.43-1.06,1.4,1.4,0,0,0-.36-.93,3.29,3.29,0,0,0-1.41-.8Z"/><path class="cls-1" d="M29.87,24.56A12.28,12.28,0,1,1,42.15,12.28,12.3,12.3,0,0,1,29.87,24.56Zm0-23.74A11.47,11.47,0,1,0,41.33,12.28,11.47,11.47,0,0,0,29.87.82Z"/><path class="cls-2" d="M18.51,29.22a4,4,0,0,0,.43.45c1.23.85,2.49,1.67,3.71,2.53a5.55,5.55,0,0,0,3.5.78A35.69,35.69,0,0,0,33,31.9a14.39,14.39,0,0,1,2.28-.32,1.44,1.44,0,0,1,1.5.77,1.65,1.65,0,0,1-.16,2A4.84,4.84,0,0,1,35,35.5c-3.25,1.18-6.53,2.28-9.8,3.4-1,.34-2,.66-3,1a3.49,3.49,0,0,1-2.66-.37c-4-2-8-4.06-11.9-6.18a10.4,10.4,0,0,0-4.7-1c-.68,0-1.37,0-2,0-.35,0-.48-.12-.53-.47a22.29,22.29,0,0,1,.18-7.77c.07-.41.22-.54.62-.49.62.08,1.24.1,1.85.17a14.17,14.17,0,0,0,5.92-.9,12.57,12.57,0,0,1,7.79-.19c3.55,1.06,7.14,2,10.7,3.09,1.27.37,1.67.94,1.64,2a1.79,1.79,0,0,1-2.15,1.87c-1.23-.16-2.44-.44-3.66-.63a12.26,12.26,0,0,0-2.47-.3A10.63,10.63,0,0,0,18.51,29.22Z"/></g></g></svg>