<svg xmlns="http://www.w3.org/2000/svg" width="22.64mm" height="22.53mm" viewBox="0 0 64.19 63.87"><defs><style>.cls-1{fill:#fff;}</style></defs><title>Recurso 216</title><g id="Capa_2" data-name="Capa 2"><g id="Capa_1-2" data-name="Capa 1"><path class="cls-1" d="M58.39,34.53l5.8-1.68L64,31.14l-.57-4.3-.22-1.7L57.6,25a24.64,24.64,0,0,0-1.4-3.92l4.14-4.35L59.29,15.4,56.63,12,55.58,10.6l-4.95,2.71a27.19,27.19,0,0,0-3.15-2.6l1.46-6-1.6-.65-4-1.66-1.59-.65-3,4.91A27.26,27.26,0,0,0,34.79,6L33,0l-1.7.23L27,.8,25.27,1,25.15,6.8a26.71,26.71,0,0,0-3.77,1.33L16.85,3.82,15.48,4.88,12,7.52l-1.36,1,2.76,5a27.84,27.84,0,0,0-2.67,3.07l-6-1.44L4.1,16.76l-1.66,4-.65,1.58,4.76,2.87a25.14,25.14,0,0,0-.76,4.1L0,31l.23,1.7L.81,37,1,38.72l5.54.11a24.7,24.7,0,0,0,1.42,4L3.84,47.11l1,1.36,2.66,3.44,1.07,1.35,4.94-2.71a26.21,26.21,0,0,0,3.15,2.6l-1.46,6,1.6.64,4,1.66,1.6.65,3-4.89a25,25,0,0,0,4,.73l1.77,5.94,1.71-.24,4.31-.56,1.71-.24L39,57.06a28,28,0,0,0,3.77-1.32L47.35,60l1.36-1,3.46-2.65,1.36-1.05-2.76-5a27.6,27.6,0,0,0,2.67-3.06l6,1.44.65-1.58,1.67-4,.66-1.6-4.76-2.86A25.44,25.44,0,0,0,58.39,34.53ZM32.09,12.9a9.39,9.39,0,1,1-9.44,9.39A9.41,9.41,0,0,1,32.09,12.9ZM15.86,46.41a17,17,0,0,1,8.89-14.93A11,11,0,0,0,31,34.23h2.15a11,11,0,0,0,6.26-2.75,16.91,16.91,0,0,1,8.87,14.93Z"/></g></g></svg>