<svg xmlns="http://www.w3.org/2000/svg" width="51.95" height="61.2" viewBox="0 0 51.95 61.2"><defs><style>.cls-1{fill:#528791;}</style></defs><title>verde4</title><g id="Capa_2" data-name="Capa 2"><g id="Capa_1-2" data-name="Capa 1"><path class="cls-1" d="M52,59.52A27.62,27.62,0,0,0,37.77,35.23l-1-.55-.86.78a14.65,14.65,0,0,1-19.82,0l-.86-.78-1,.55A27.57,27.57,0,0,0,0,59.52L0,61.2H52Z"/><path class="cls-1" d="M10.87,27.78a3.13,3.13,0,0,0,1.1-.23,15.45,15.45,0,0,0,1.89,2.93,8.51,8.51,0,0,0,4.73,2.25,7.58,7.58,0,0,0,5.55-2,2.16,2.16,0,0,1-.43-1.27A2.28,2.28,0,0,1,26,27.12H28.3a2.3,2.3,0,0,1,0,4.6H26a2.29,2.29,0,0,1-1-.26,8.91,8.91,0,0,1-6.59,2.44,7.65,7.65,0,0,1-.83-.18,15.46,15.46,0,0,0,8.36,2.46,15.77,15.77,0,0,0,14-8.65,3.17,3.17,0,0,0,1.19.25,3.31,3.31,0,0,0,3.28-3.33V16.2a3.31,3.31,0,0,0-3.28-3.33,3.26,3.26,0,0,0-1,.21L40,13l.38,0a12.89,12.89,0,0,0-3.63-9.22C34.19,1.26,30.47,0,25.69,0S17.24,1.26,14.82,3.76a12.2,12.2,0,0,0-3.12,9.18h.14l-.07.12a3.35,3.35,0,0,0-.9-.18A3.31,3.31,0,0,0,7.58,16.2v8.25A3.32,3.32,0,0,0,10.87,27.78ZM15.8,4.58C18,2.35,21.29,1.22,25.69,1.22S33.48,2.36,35.77,4.6a11.33,11.33,0,0,1,3.15,6.5,15.61,15.61,0,0,0-25.87-.22A10.46,10.46,0,0,1,15.8,4.58Z"/></g></g></svg>