<svg xmlns="http://www.w3.org/2000/svg" width="20" height="25" viewBox="0 0 20 25"><title>archivos</title><g id="Layer_2" data-name="Layer 2"><g id="Layer_2-2" data-name="Layer 2"><path d="M15.33146,12.44576c0,.23921-.2939.436-.6552.436H5.18406c-.3636,0-.6565-.1968-.6565-.436h0c0-.2422.2929-.4365.6565-.4365h9.4922c.3613,0,.6552.1943.6552.4365Z" style="fill:#008895"/><path d="M15.33146,10.47307c0,.24029-.2939.43659-.6552.43659H5.18406c-.3636,0-.6565-.1963-.6565-.43659h0c0-.24311.2929-.4375.6565-.4375h9.4922c.3613,0,.6552.19439.6552.4375Z" style="fill:#008895"/><path d="M15.33146,14.41157c0,.24019-.2939.4365-.6552.4365H5.18406c-.3636,0-.6565-.19631-.6565-.4365h0c0-.2422.2929-.437.6565-.437h9.4922c.3613,0,.6552.19481.6552.437Z" style="fill:#008895"/><path d="M15.33146,16.269c0,.2412-.2939.43611-.6552.43611H5.18406c-.3636,0-.6565-.19491-.6565-.43611h0c0-.2412.2929-.4365.6565-.4365h9.4922c.3613,0,.6552.1953.6552.4365Z" style="fill:#008895"/><path d="M15.33146,18.21726c0,.23971-.2939.4365-.6552.4365H5.18406c-.3636,0-.6565-.19679-.6565-.4365h0c0-.2412.2929-.4375.6565-.4375h9.4922c.3613,0,.6552.1963.6552.4375Z" style="fill:#008895"/><path d="M17.54246,1.79537H3.73086l-2.1914,3.1162v16.8838h16.0821v-20ZM2.47086,5.518l1.75-2.5546.6604.0166v-.0166h.6231v3.5644H2.48876Zm13.8968,15.1924H2.72306L2.51,7.88516h4.1204V3.02776l9.7373-.0635Z" style="fill:#008895"/><rect width="20" height="25" style="fill:none"/></g></g></svg>