<svg xmlns="http://www.w3.org/2000/svg" width="20" height="19.9976" viewBox="0 0 20 19.9976"><title>cre</title><g id="Layer_2" data-name="Layer 2"><g id="Layer_1-2" data-name="Layer 1"><path d="M10,0A9.9988,9.9988,0,1,0,20,9.9976,9.99936,9.99936,0,0,0,10,0Zm0,17.958a7.96,7.96,0,1,1,7.9609-7.9604A7.96069,7.96069,0,0,1,10,17.958Z" style="fill:#d00054"/><path d="M6.9531,9.3682A1.11054,1.11054,0,0,0,6.1172,9a1.03578,1.03578,0,0,0-1.0664,1.1221,1.032,1.032,0,0,0,1.0664,1.1133,1.0808,1.0808,0,0,0,.9082-.4649l.9648.2481a2.037,2.037,0,0,1-1.873,1.1699A2.0664,2.0664,0,1,1,7.9238,9.1128Z" style="fill:#d00054"/><path d="M10.7031,12.1084,9.9648,10.815H9.4766v1.2934H8.5234V8.1362h1.4825c.998,0,1.5996.545,1.5996,1.3638a1.19419,1.19419,0,0,1-.7149,1.146l.8809,1.4624ZM9.4766,9.9697h.6601a.47168.47168,0,1,0,0-.9433H9.4766Z" style="fill:#d00054"/><path d="M15.3066,11.2178v.8906H12.3828V8.1362h2.8906v.8902H13.3379v.6548h1.5156v.8339H13.3379v.7027Z" style="fill:#d00054"/></g></g></svg>