<svg xmlns="http://www.w3.org/2000/svg" width="20" height="20" viewBox="0 0 20 20"><title>crm</title><g id="Layer_2" data-name="Layer 2"><g id="Layer_1-2" data-name="Layer 1"><path d="M6.3125,9.4698a1.15193,1.15193,0,0,0-.8652-.3828,1.07673,1.07673,0,0,0-1.1094,1.1669,1.07007,1.07007,0,0,0,1.1094,1.1543,1.12241,1.12241,0,0,0,.9433-.4824l1.002.2608a2.12193,2.12193,0,0,1-1.9453,1.2129,2.1465,2.1465,0,1,1,1.875-3.1954Z" style="fill:#660e80"/><path d="M10.2109,12.3169l-.7656-1.3427H8.9375v1.3427H7.9473V8.1895h1.539c1.0371,0,1.6621.5654,1.6621,1.415a1.23753,1.23753,0,0,1-.7421,1.1905l.914,1.5219ZM8.9375,10.0938H9.623a.489.489,0,1,0,0-.978H8.9375Z" style="fill:#660e80"/><path d="M16.0801,8.1895v4.1274h-.9727V11.3081c0-.978.0352-1.4624.0293-1.4624h-.0058s-.336.5665-.3711.625l-.4844.8262h-.5137l-.4824-.8262c-.0352-.0585-.3652-.625-.3652-.625h-.0137s.0312.4844.0312,1.4624v1.0088H11.957V8.1895h.9317l.7734,1.25c.3008.4902.3477.5962.3477.5962h.0117s.0527-.106.3535-.5962l.7734-1.25Z" style="fill:#660e80"/><path d="M10,0A10,10,0,1,0,20,10,10.00019,10.00019,0,0,0,10,0Zm0,17.9605A7.96045,7.96045,0,1,1,17.9609,10,7.96045,7.96045,0,0,1,10,17.9605Z" style="fill:#660e80"/></g></g></svg>