<svg xmlns="http://www.w3.org/2000/svg" width="21" height="25" viewBox="0 0 21 25"><title>no_realizada</title><g id="Layer_2" data-name="Layer 2"><g id="Layer_2-2" data-name="Layer 2"><path d="M19.93345,16.43805l-6.5684-11.3828a3.31263,3.31263,0,0,0-5.7382,0L.94325,16.63286a3.31235,3.31235,0,0,0,2.8701,4.96869h13.3721a3.31139,3.31139,0,0,0,2.748-5.1635ZM11.91495,17.545a1.41593,1.41593,0,0,1-2.8311,0v-.0312a1.41594,1.41594,0,0,1,2.8311,0Zm.0322-9.31861-.7002,6.11381a.74829.74829,0,0,1-1.4951,0L9.05255,8.224a.67385.67385,0,0,1,.649-.82941h1.5913a.68031.68031,0,0,1,.6543.8318Zm0,0" style="fill:#de0009"/><rect width="21" height="25" style="fill:none"/></g></g></svg>