<svg xmlns="http://www.w3.org/2000/svg" width="21" height="25" viewBox="0 0 21 25"><title>parcial</title><g id="Layer_2" data-name="Layer 2"><g id="Layer_2-2" data-name="Layer 2"><path d="M19.93345,16.43805l-6.5664-11.3828a3.31349,3.31349,0,0,0-5.7392,0L.94325,16.63286a3.31235,3.31235,0,0,0,2.8701,4.96869h13.374a3.31139,3.31139,0,0,0,2.7461-5.1635ZM11.91495,17.545a1.41491,1.41491,0,0,1-2.8291,0v-.0312a1.41491,1.41491,0,0,1,2.8291,0Zm.0341-9.31861-.7021,6.11381a.74729.74729,0,0,1-1.4932,0L9.05265,8.224a.67436.67436,0,0,1,.6499-.82941h1.5923a.68166.68166,0,0,1,.6542.8318Zm0,0" style="fill:#f09600"/><rect width="21" height="25" style="fill:none"/></g></g></svg>