<svg xmlns="http://www.w3.org/2000/svg" width="45" height="25" viewBox="0 0 45 25"><title>reportada</title><g id="Layer_2" data-name="Layer 2"><g id="Layer_2-2" data-name="Layer 2"><path d="M8.493,23.50285l-.02694-.00024a1.48523,1.48523,0,0,1-1.10542-.52145L.95709,15.4407a1.44718,1.44718,0,0,1,.18279-2.0561,1.4902,1.4902,0,0,1,2.08193.18031l5.31257,6.25573L21.18854,5.9843a1.49021,1.49021,0,0,1,2.08722-.10476,1.44724,1.44724,0,0,1,.10631,2.06157L9.58978,23.02155A1.48643,1.48643,0,0,1,8.493,23.50285Z" style="fill:#2b73b5"/><path d="M29.34163,23.50285l-.02694-.00024a1.48523,1.48523,0,0,1-1.10542-.52145L21.80571,15.4407a1.44718,1.44718,0,0,1,.18279-2.0561,1.4902,1.4902,0,0,1,2.08193.18031L29.383,19.82064,42.03715,5.9843a1.49023,1.49023,0,0,1,2.08722-.10476,1.44724,1.44724,0,0,1,.10631,2.06157L30.43839,23.02155A1.48643,1.48643,0,0,1,29.34163,23.50285Z" style="fill:#2b73b5"/><rect width="45" height="25" style="fill:none"/></g></g></svg>