<svg xmlns="http://www.w3.org/2000/svg" width="70" height="70" viewBox="0 0 70 70"><defs><style>.cls-1{fill:#528791;}.cls-2{fill:#fff;}</style></defs><title>Recurso 244</title><g id="Capa_2" data-name="Capa 2"><g id="Capa_1-2" data-name="Capa 1"><rect class="cls-1" width="70" height="70"/><path class="cls-2" d="M42.63,16.15l2.75,5h8.25a5.5,5.5,0,0,1,5.5,5.5V48.05a5.5,5.5,0,0,1-5.5,5.5H15.13a5.5,5.5,0,0,1-5.5-5.5V26.6a5.5,5.5,0,0,1,5.5-5.5h8.25l2.75-5Zm-1.29,2.2H27.43L25.3,22.17a2.18,2.18,0,0,1-1.92,1.13H15.13a3.3,3.3,0,0,0-3.3,3.3V48.05a3.3,3.3,0,0,0,3.3,3.3h38.5a3.3,3.3,0,0,0,3.3-3.3V26.6a3.3,3.3,0,0,0-3.3-3.3H45.38a2.19,2.19,0,0,1-1.92-1.13Z"/><path class="cls-2" d="M37.28,27.25a7.71,7.71,0,0,1,4.55,3.25,7.3,7.3,0,0,1,1.1,3.17,7.51,7.51,0,0,1-3.69,7.38L38,38.77a.29.29,0,0,0-.29-.15c-.1,0-.22.07-.21.17l-2.74,6a.46.46,0,0,0,.35.63l6.57.83a.3.3,0,0,0,.26-.09.28.28,0,0,0,0-.32l-1.27-2.29a10.47,10.47,0,0,0,5-11.41,10.68,10.68,0,0,0-1.75-3.79,10.21,10.21,0,0,0-5.52-3.85.41.41,0,0,0-.45.2l-.86,2A.39.39,0,0,0,37.28,27.25Z"/><path class="cls-2" d="M31.33,42.55a7.71,7.71,0,0,1-4.48-3.35,7.31,7.31,0,0,1-1-3.19,7.51,7.51,0,0,1,3.84-7.3L30.89,31a.33.33,0,0,0,.29.16c.1,0,.22-.07.22-.17l2.86-6a.46.46,0,0,0-.34-.64l-6.55-1c-.1,0-.2,0-.26.08a.32.32,0,0,0,0,.33l1.23,2.31a10.47,10.47,0,0,0-5.2,11.31,10.62,10.62,0,0,0,1.66,3.81,10.33,10.33,0,0,0,5.44,4,.42.42,0,0,0,.46-.2l.9-2A.38.38,0,0,0,31.33,42.55Z"/></g></g></svg>