<svg xmlns="http://www.w3.org/2000/svg" width="11.32882mm" height="10.58333mm" viewBox="0 0 32.1132 30"><title>Recurso 187</title><g id="Capa_2" data-name="Capa 2"><g id="Capa_1-2" data-name="Capa 1"><path d="M32.1132,13.8574v-6.5a3.68392,3.68392,0,0,0-3.4384-3.8877H3.4394A3.68536,3.68536,0,0,0,0,7.3574v6.5Z" style="fill:#a9a8a7"/><path d="M0,11.2646V26.1133A3.68315,3.68315,0,0,0,3.4394,30H28.6748a3.68371,3.68371,0,0,0,3.4384-3.8867V11.2646Z" style="fill:#058794"/><path d="M22.292,0a1.863,1.863,0,0,0-1.9922,1.7099V6.6357a1.87034,1.87034,0,0,0,1.9922,1.71,1.87043,1.87043,0,0,0,2.0019-1.71V1.7012A1.86253,1.86253,0,0,0,22.292,0Z" style="fill:#60605f"/><path d="M9.8105,0A1.8631,1.8631,0,0,0,7.8183,1.7099V6.6357a1.8704,1.8704,0,0,0,1.9922,1.71,1.87052,1.87052,0,0,0,2.002-1.71V1.7012A1.86263,1.86263,0,0,0,9.8105,0Z" style="fill:#60605f"/><path d="M20.83,15.208v1.5488l-4.9296,8.9434h-2.961l4.9297-8.4424v-.0313H12.3877V15.208Z" style="fill:#fff"/></g></g></svg>