<svg xmlns="http://www.w3.org/2000/svg" width="37.04167mm" height="27.68413mm" viewBox="0 0 105 78.4747"><title>Recurso 120</title><g id="Capa_2" data-name="Capa 2"><g id="Capa_1-2" data-name="Capa 1"><path d="M100.84552,10.13427V3.52047l-.951-.37374A54.93919,54.93919,0,0,0,81.42456,0c-11.10532,0-20.669,3.38365-28.454,10.05752C45.18878,3.38365,35.62179,0,24.51646,0A54.78351,54.78351,0,0,0,6.0532,3.14673l-.961.37374V9.64708C1.95544,10.23438,0,11.28552,0,13.0007V76.12883H46.49685a10.43049,10.43049,0,0,0,13.1809,0H105V13.0007C104.99666,11.60586,103.41162,10.69488,100.84552,10.13427ZM52.46663,71.15013C48.60913,69.55174,35.31479,64.503,22.00041,64.503A37.195,37.195,0,0,0,8.10875,66.90554V5.60939A53.91727,53.91727,0,0,1,24.51312,3.00992c10.22437,0,19.01052,3.09334,26.18493,9.11984v36.5895l1.76858-1.94877Zm45.359-4.2279a38.92012,38.92012,0,0,0-14.57907-2.57611c-13.3077,0-25.97136,5.09884-29.78548,6.774V46.76381l1.77859,1.95545V12.12976C62.4107,6.09992,71.19685,3.00992,81.42122,3.00992A54.21692,54.21692,0,0,1,97.8256,5.60939Z" style="fill:#fff"/><path d="M14.07186,13.67142l.624,2.35922c15.70028-4.1645,29.82553,3.54382,29.969,3.62057l1.18461-2.1323C45.2455,17.18188,30.73985,9.25332,14.07186,13.67142Z" style="fill:#fff"/><path d="M14.07186,20.57888l.624,2.35921c15.70028-4.16783,29.82553,3.54049,29.969,3.61724l1.18461-2.129C45.2455,24.086,30.73985,16.16078,14.07186,20.57888Z" style="fill:#fff"/><path d="M14.07186,27.06922l.624,2.35921c15.70028-4.16115,29.82553,3.54383,29.969,3.62058l1.18461-2.1323C45.2455,30.57967,30.73985,22.65445,14.07186,27.06922Z" style="fill:#fff"/><path d="M14.07186,34.18357l.624,2.35921c15.70028-4.1645,29.82553,3.54382,29.969,3.62057l1.18461-2.129C45.2455,37.69068,30.73985,29.76212,14.07186,34.18357Z" style="fill:#fff"/><path d="M14.07186,40.774l.624,2.35921c15.70028-4.16115,29.82553,3.54383,29.969,3.62392l1.18461-2.13564C45.2455,44.28781,30.73985,36.35925,14.07186,40.774Z" style="fill:#fff"/><path d="M14.07186,47.54465l.624,2.35922c15.70028-4.16449,29.82553,3.54049,29.969,3.61724l1.18461-2.13231C45.2455,51.05177,30.73985,43.12989,14.07186,47.54465Z" style="fill:#fff"/><path d="M14.07186,54.33532l.624,2.35587c15.70028-4.16449,29.82553,3.54383,29.969,3.62058l1.18461-2.12563C45.2455,57.84244,30.73985,49.91387,14.07186,54.33532Z" style="fill:#fff"/><path d="M61.99358,19.83141c.14348-.07675,14.26539-7.78174,29.96567-3.62058l.62735-2.35921C75.91527,9.43685,61.413,17.36541,60.809,17.70244Z" style="fill:#fff"/><path d="M60.809,24.6099l1.18461,2.129c.14348-.07675,14.26539-7.78507,29.96567-3.61724l.62735-2.36255C75.91527,16.341,61.413,24.26619,60.809,24.6099Z" style="fill:#fff"/><path d="M60.809,31.0969l1.18461,2.1323c.14348-.08009,14.26539-7.78507,29.96567-3.62391l.62735-2.35921C75.91527,22.83465,61.413,30.75987,60.809,31.0969Z" style="fill:#fff"/><path d="M60.809,38.21458l1.18461,2.129c.14348-.07675,14.26539-7.78173,29.96567-3.61723l.62735-2.35921C75.91527,29.94232,61.413,37.87088,60.809,38.21458Z" style="fill:#fff"/><path d="M60.809,44.805l1.18461,2.13563c.14348-.07675,14.26539-7.78507,29.96567-3.62391l.62735-2.35922C75.91527,36.54278,61.413,44.46466,60.809,44.805Z" style="fill:#fff"/><path d="M60.809,51.57567l1.18461,2.129c.14348-.07675,14.26539-7.78174,29.96567-3.61724l.62735-2.35921C75.91527,43.31008,61.413,51.2353,60.809,51.57567Z" style="fill:#fff"/><path d="M60.809,58.363l1.18461,2.12562c.14348-.07007,14.26539-7.78507,29.96567-3.61723l.62735-2.35922C75.91527,50.09407,61.413,58.026,60.809,58.363Z" style="fill:#fff"/></g></g></svg>