<?xml version="1.0" encoding="UTF-8"?>
<svg width="19px" height="16px" viewBox="0 0 19 16" version="1.1" xmlns="http://www.w3.org/2000/svg" xmlns:xlink="http://www.w3.org/1999/xlink">
    <!-- Generator: Sketch 51.3 (57544) - http://www.bohemiancoding.com/sketch -->
    <title>cobro_verde</title>
    <desc>Created with Sketch.</desc>
    <defs></defs>
    <g id="Page-1" stroke="none" stroke-width="1" fill="none" fill-rule="evenodd">
        <g id="2" transform="translate(-1597.000000, -1234.000000)">
            <g id="cobro_verde" transform="translate(1597.000000, 1234.000000)">
                <g id="Group">
                    <path d="M13.9275758,0.285714286 C11.3837187,0.285714286 9.32151515,2.33241257 9.32151515,4.85714286 C9.32151515,7.38187314 11.3837187,9.42857143 13.9275758,9.42857143 C16.4714328,9.42857143 18.5336364,7.38187314 18.5336364,4.85714286 C18.5336364,2.33241257 16.4714328,0.285714286 13.9275758,0.285714286 Z" id="Shape" stroke="#008894"></path>
                    <path d="M14.1463636,4.52 C13.6224242,4.31428571 13.4727273,4.18857143 13.4727273,3.94857143 C13.4727273,3.70857143 13.6109091,3.55428571 14.0024242,3.55428571 C14.2134247,3.55594224 14.4215863,3.60271881 14.6127273,3.69142857 C14.6429694,3.6989286 14.6746063,3.6989286 14.7048485,3.69142857 C14.7806271,3.69221478 14.8491614,3.64686877 14.8775758,3.57714286 L14.969697,3.36571429 C14.9977593,3.29158167 14.9623027,3.20863373 14.8890909,3.17714286 C14.6833545,3.10335617 14.4714064,3.04789906 14.2557576,3.01142857 C14.2389546,3.00861139 14.2267316,2.99405417 14.2269697,2.97714286 L14.2269697,2.62857143 C14.2238549,2.52350838 14.1371169,2.43995453 14.0312121,2.44 L13.8584848,2.44 C13.7525801,2.43995453 13.6658421,2.52350838 13.6627273,2.62857143 L13.6627273,2.99428571 C13.6627273,2.99428571 13.6339394,3.03428571 13.6224242,3.04 C13.1423624,3.11596769 12.7831998,3.51788467 12.7645455,4 C12.7645455,4.57142857 13.2654545,4.86857143 13.8009091,5.07428571 C14.2327273,5.24 14.4054545,5.41142857 14.4054545,5.64571429 C14.4054545,5.88 14.1578788,6.10857143 13.8009091,6.10857143 C13.5513863,6.08620001 13.3077745,6.02043581 13.0812121,5.91428571 C13.0546344,5.90873607 13.0271838,5.90873607 13.0006061,5.91428571 C12.9233806,5.91440541 12.854425,5.96231139 12.8278788,6.03428571 L12.7357576,6.28 C12.7066152,6.35732202 12.7415311,6.44395523 12.8163636,6.48 C13.0617947,6.58171892 13.3190224,6.65274046 13.5821212,6.69142857 C13.5821212,6.69142857 13.6166667,6.69142857 13.6166667,6.73142857 L13.6166667,7.09714286 C13.6197815,7.20220591 13.7065195,7.28575976 13.8124242,7.28571429 L13.9909091,7.28571429 C14.0968139,7.28575976 14.1835518,7.20220591 14.1866667,7.09714286 L14.1866667,6.71428571 C14.1849567,6.70425152 14.1878264,6.69398194 14.1944995,6.68625522 C14.2011726,6.6785285 14.2109593,6.67414321 14.2212121,6.67428571 C14.7380586,6.59334077 15.1202944,6.15357098 15.1251515,5.63428571 C15.1251515,5.10857143 14.8315152,4.77142857 14.1463636,4.49142857 L14.1463636,4.52 Z" id="Shape" fill="#008894" fill-rule="nonzero"></path>
                    <path d="M17.1115152,11.68 C15.9632932,12.2949723 14.7199381,12.7159636 13.4324242,12.9257143 C12.2348485,13.1142857 9.97787879,12.6628571 9.97787879,12.1314286 C9.97787879,11.9314286 11.9584848,12.6285714 13.150303,12.3085714 C14.0657576,12.0628571 13.9390909,11.2114286 13.4381818,11.1028571 C12.9372727,10.9942857 10.0354545,9.96 8.79181818,9.89714286 C7.87628166,9.94383046 6.96470978,10.0488083 6.06272727,10.2114286 C5.82090909,10.2514286 5.67121212,10.2457143 5.65969697,10.4742857 C5.59060606,11.5314286 5.45242424,13.6914286 5.37757576,14.8228571 C5.37757576,14.8228571 5.41212121,15.1657143 5.6769697,14.9428571 C5.95587139,14.6471555 6.35179299,14.4883055 6.75939394,14.5085714 C7.33515152,14.64 12.5169697,15.5771429 13.2021212,15.4114286 C14.7894407,14.8093126 16.2822203,13.9857986 17.6354545,12.9657143 C18.4875758,12.1542857 17.8254545,11.2914286 17.1115152,11.6857143 L17.1115152,11.68 Z" id="Shape" fill="#008894" fill-rule="nonzero"></path>
                    <path d="M4.24333333,10.1714286 L1.54878788,10.04 C1.33171451,10.0361584 1.13866298,10.1763536 1.07666667,10.3828571 L0.575757576,14.7942857 C0.548272207,14.8829269 0.564938094,14.9792594 0.620641405,15.0537242 C0.676344716,15.1281891 0.764433713,15.171894 0.857878788,15.1714286 L3.85757576,15.1714286 C4.0685699,15.1782855 4.24811957,15.0201646 4.26636364,14.8114286 L4.60606061,10.56 C4.6139681,10.4610718 4.58102795,10.3632017 4.51480005,10.2888515 C4.44857216,10.2145012 4.35474362,10.1700553 4.25484848,10.1657143 L4.24333333,10.1714286 Z M2.65424242,14.5885714 C2.35383728,14.5885714 2.08301197,14.4089723 1.9680519,14.1335209 C1.85309183,13.8580695 1.91663642,13.5410112 2.12905493,13.3301899 C2.34147344,13.1193685 2.66093369,13.0563017 2.93847185,13.1703974 C3.21601001,13.2844931 3.3969697,13.5532821 3.3969697,13.8514286 C3.3969697,14.2585413 3.06443937,14.5885714 2.65424242,14.5885714 Z" id="Shape" fill="#008894" fill-rule="nonzero"></path>
                </g>
            </g>
        </g>
    </g>
</svg>