<?xml version="1.0" encoding="UTF-8"?>
<svg width="51px" height="25px" viewBox="0 0 51 25" version="1.1" xmlns="http://www.w3.org/2000/svg" xmlns:xlink="http://www.w3.org/1999/xlink">
    <!-- Generator: Sketch 51.3 (57544) - http://www.bohemiancoding.com/sketch -->
    <title>codigo_gris</title>
    <desc>Created with Sketch.</desc>
    <defs>
        <path d="M1.10216667,0.891964286 C0.493944444,0.891964286 0,1.35892857 0,1.93482143 L0,6.10089286 C0,6.67678571 0.493944444,7.14285714 1.10216667,7.14285714 C1.71038889,7.14285714 2.20433333,6.67678571 2.20433333,6.10089286 L2.20433333,2.97589286 L5.50988889,2.97589286 C6.11811111,2.97589286 6.61111111,2.50892857 6.61111111,1.93482143 C6.61111111,1.35892857 6.11811111,0.891964286 5.50988889,0.891964286 L1.10216667,0.891964286 Z" id="path-1"></path>
        <path d="M4.44833333,1.93482143 L4.44833333,5.05982143 L1.44311111,5.05982143 C0.890611111,5.05982143 0.440111111,5.52589286 0.440111111,6.10089286 C0.440111111,6.67678571 0.890611111,7.14285714 1.44311111,7.14285714 L5.44944444,7.14285714 C6.00288889,7.14285714 6.4515,6.67678571 6.4515,6.10089286 L6.4515,1.93482143 C6.4515,1.35892857 6.00288889,0.891964286 5.44944444,0.891964286 C4.896,0.891964286 4.44833333,1.35892857 4.44833333,1.93482143 Z" id="path-3"></path>
        <path d="M1.44216667,0.891964286 C0.890611111,0.891964286 0.442,1.35892857 0.442,1.93482143 C0.442,2.50892857 0.890611111,2.97589286 1.44216667,2.97589286 L4.44738889,2.97589286 L4.44738889,6.10089286 C4.44738889,6.67678571 4.896,7.14285714 5.44944444,7.14285714 C6.00194444,7.14285714 6.4515,6.67678571 6.4515,6.10089286 L6.4515,1.93482143 C6.4515,1.35892857 6.00194444,0.891964286 5.44944444,0.891964286 L1.44216667,0.891964286 Z" id="path-5"></path>
        <path d="M0,1.93482143 L0,6.10089286 C0,6.67678571 0.493944444,7.14285714 1.10216667,7.14285714 L5.50988889,7.14285714 C6.11811111,7.14285714 6.61111111,6.67678571 6.61111111,6.10089286 C6.61111111,5.52589286 6.11811111,5.05982143 5.50988889,5.05982143 L2.20433333,5.05982143 L2.20433333,1.93482143 C2.20433333,1.35892857 1.71038889,0.891964286 1.10216667,0.891964286 C0.493944444,0.891964286 0,1.35892857 0,1.93482143 Z" id="path-7"></path>
        <path d="M0,0.949107143 L0,14.2294643 C0,14.7535714 0.423111111,15.1785714 0.944444444,15.1785714 C1.46577778,15.1785714 1.88888889,14.7535714 1.88888889,14.2294643 L1.88888889,0.949107143 C1.88888889,0.425 1.46577778,0 0.944444444,0 C0.423111111,0 0,0.425 0,0.949107143 Z" id="path-9"></path>
        <path d="M0,0.967857143 L0,10.6392857 C0,11.1732143 0.423111111,11.6071429 0.944444444,11.6071429 C1.46577778,11.6071429 1.88888889,11.1732143 1.88888889,10.6392857 L1.88888889,0.967857143 C1.88888889,0.433928571 1.46577778,0 0.944444444,0 C0.423111111,0 0,0.433928571 0,0.967857143 Z" id="path-11"></path>
        <path d="M0,0.967857143 L0,10.6392857 C0,11.1732143 0.423111111,11.6071429 0.944444444,11.6071429 C1.46577778,11.6071429 1.88888889,11.1732143 1.88888889,10.6392857 L1.88888889,0.967857143 C1.88888889,0.433928571 1.46577778,0 0.944444444,0 C0.423111111,0 0,0.433928571 0,0.967857143 Z" id="path-13"></path>
        <path d="M0,0.949107143 L0,14.2294643 C0,14.7535714 0.423111111,15.1785714 0.944444444,15.1785714 C1.46577778,15.1785714 1.88888889,14.7535714 1.88888889,14.2294643 L1.88888889,0.949107143 C1.88888889,0.425 1.46577778,0 0.944444444,0 C0.423111111,0 0,0.425 0,0.949107143 Z" id="path-15"></path>
        <path d="M0,0.967857143 L0,10.6392857 C0,11.1732143 0.423111111,11.6071429 0.944444444,11.6071429 C1.46577778,11.6071429 1.88888889,11.1732143 1.88888889,10.6392857 L1.88888889,0.967857143 C1.88888889,0.433928571 1.46577778,0 0.944444444,0 C0.423111111,0 0,0.433928571 0,0.967857143 Z" id="path-17"></path>
        <path d="M0,0.949107143 L0,14.2294643 C0,14.7535714 0.423111111,15.1785714 0.945388889,15.1785714 C1.46577778,15.1785714 1.88888889,14.7535714 1.88888889,14.2294643 L1.88888889,0.949107143 C1.88888889,0.425 1.46577778,0 0.945388889,0 C0.423111111,0 0,0.425 0,0.949107143 Z" id="path-19"></path>
        <path d="M0.931222222,0.891964286 C0.412722222,0.891964286 0,1.29285714 0,1.78571429 C0,2.27857143 0.430666667,2.67857143 0.949166667,2.67857143 C1.46766667,2.67857143 1.88888889,2.27857143 1.88888889,1.78571429 C1.88888889,1.29285714 1.46766667,0.891964286 0.949166667,0.891964286 L0.931222222,0.891964286 Z" id="path-21"></path>
        <path d="M0.930277778,0.891964286 C0.410833333,0.891964286 0,1.29285714 0,1.78571429 C0,2.27857143 0.430666667,2.67857143 0.949166667,2.67857143 C1.46861111,2.67857143 1.88888889,2.27857143 1.88888889,1.78571429 C1.88888889,1.29285714 1.46861111,0.891964286 0.949166667,0.891964286 L0.930277778,0.891964286 Z" id="path-23"></path>
        <path d="M0.930277778,0.891964286 C0.411777778,0.891964286 0,1.29285714 0,1.78571429 C0,2.27857143 0.430666667,2.67857143 0.949166667,2.67857143 C1.46861111,2.67857143 1.88888889,2.27857143 1.88888889,1.78571429 C1.88888889,1.29285714 1.46861111,0.891964286 0.949166667,0.891964286 L0.930277778,0.891964286 Z" id="path-25"></path>
        <path d="M0.000944444444,0.949107143 L0.000944444444,14.2294643 C0.000944444444,14.7535714 0.423111111,15.1785714 0.945388889,15.1785714 C1.46672222,15.1785714 1.88983333,14.7535714 1.88983333,14.2294643 L1.88983333,0.949107143 C1.88983333,0.425 1.46672222,0 0.945388889,0 C0.423111111,0 0.000944444444,0.425 0.000944444444,0.949107143 Z" id="path-27"></path>
        <path d="M0,0.967857143 L0,10.6392857 C0,11.1732143 0.424055556,11.6071429 0.944444444,11.6071429 C1.46577778,11.6071429 1.88888889,11.1732143 1.88888889,10.6392857 L1.88888889,0.967857143 C1.88888889,0.433928571 1.46577778,0 0.944444444,0 C0.424055556,0 0,0.433928571 0,0.967857143 Z" id="path-29"></path>
        <path d="M0,0.967857143 L0,10.6392857 C0,11.1732143 0.423111111,11.6071429 0.944444444,11.6071429 C1.46577778,11.6071429 1.88888889,11.1732143 1.88888889,10.6392857 L1.88888889,0.967857143 C1.88888889,0.433928571 1.46577778,0 0.944444444,0 C0.423111111,0 0,0.433928571 0,0.967857143 Z" id="path-31"></path>
        <path d="M0,0.949107143 L0,14.2294643 C0,14.7535714 0.423111111,15.1785714 0.944444444,15.1785714 C1.46577778,15.1785714 1.88888889,14.7535714 1.88888889,14.2294643 L1.88888889,0.949107143 C1.88888889,0.425 1.46577778,0 0.944444444,0 C0.423111111,0 0,0.425 0,0.949107143 Z" id="path-33"></path>
        <path d="M0,0.967857143 L0,10.6392857 C0,11.1732143 0.423111111,11.6071429 0.944444444,11.6071429 C1.46577778,11.6071429 1.88888889,11.1732143 1.88888889,10.6392857 L1.88888889,0.967857143 C1.88888889,0.433928571 1.46577778,0 0.944444444,0 C0.423111111,0 0,0.433928571 0,0.967857143 Z" id="path-35"></path>
        <path d="M0.930277778,0.891964286 C0.411777778,0.891964286 0,1.29285714 0,1.78571429 C0,2.27857143 0.430666667,2.67857143 0.949166667,2.67857143 C1.46861111,2.67857143 1.88888889,2.27857143 1.88888889,1.78571429 C1.88888889,1.29285714 1.46861111,0.891964286 0.949166667,0.891964286 L0.930277778,0.891964286 Z" id="path-37"></path>
        <path d="M0.931222222,0.891964286 C0.411777778,0.891964286 0,1.29285714 0,1.78571429 C0,2.27857143 0.430666667,2.67857143 0.949166667,2.67857143 C1.46766667,2.67857143 1.88888889,2.27857143 1.88888889,1.78571429 C1.88888889,1.29285714 1.46766667,0.891964286 0.949166667,0.891964286 L0.931222222,0.891964286 Z" id="path-39"></path>
        <path d="M0.931222222,0.891964286 C0.412722222,0.891964286 0,1.29285714 0,1.78571429 C0,2.27857143 0.430666667,2.67857143 0.949166667,2.67857143 C1.46766667,2.67857143 1.88888889,2.27857143 1.88888889,1.78571429 C1.88888889,1.29285714 1.46766667,0.891964286 0.949166667,0.891964286 L0.931222222,0.891964286 Z" id="path-41"></path>
    </defs>
    <g id="Page-1" stroke="none" stroke-width="1" fill="none" fill-rule="evenodd">
        <g id="3" transform="translate(-912.000000, -985.000000)">
            <rect fill="#F2F2F2" x="0" y="0" width="2353" height="1323"></rect>
            <polygon id="Fill-1" fill="#1A1A1A" points="0 1323 2353 1323 2353 0 0 0"></polygon>
            <g id="Page-1" transform="translate(542.000000, 79.000000)">
                <polygon id="Fill-1" fill="#FFFFFF" points="0 1183 1775 1183 1775 -5.68434189e-13 0 -5.68434189e-13"></polygon>
                <path d="M0,1185 L1775,1185 L1775,-5.68434189e-13 L0,-5.68434189e-13 L0,1185 Z M2,1183.929 L1773.85527,1183.929 L1773.85527,1 L2,1 L2,1183.929 Z" id="Fill-2"></path>
            </g>
            <g id="codigo_gris" transform="translate(912.000000, 985.000000)">
                <g id="Group-3">
                    <mask id="mask-2" fill="white">
                        <use xlink:href="#path-1"></use>
                    </mask>
                    <g id="Clip-2"></g>
                    <polygon id="Fill-1" fill="#9C9A9A" mask="url(#mask-2)" points="-4.72222222 11.6071429 11.3333333 11.6071429 11.3333333 -3.57142857 -4.72222222 -3.57142857"></polygon>
                </g>
                <g id="Group-6" transform="translate(44.388889, 16.964286)">
                    <mask id="mask-4" fill="white">
                        <use xlink:href="#path-3"></use>
                    </mask>
                    <g id="Clip-5"></g>
                    <polygon id="Fill-4" fill="#9C9A9A" mask="url(#mask-4)" points="-4.28116667 11.6071429 11.1737222 11.6071429 11.1737222 -3.57142857 -4.28116667 -3.57142857"></polygon>
                </g>
                <g id="Group-9" transform="translate(44.388889, 0.000000)">
                    <mask id="mask-6" fill="white">
                        <use xlink:href="#path-5"></use>
                    </mask>
                    <g id="Clip-8"></g>
                    <polygon id="Fill-7" fill="#9C9A9A" mask="url(#mask-6)" points="-4.28022222 11.6071429 11.1737222 11.6071429 11.1737222 -3.57142857 -4.28022222 -3.57142857"></polygon>
                </g>
                <g id="Group-12" transform="translate(0.000000, 16.964286)">
                    <mask id="mask-8" fill="white">
                        <use xlink:href="#path-7"></use>
                    </mask>
                    <g id="Clip-11"></g>
                    <polygon id="Fill-10" fill="#9C9A9A" mask="url(#mask-8)" points="-4.72222222 11.6071429 11.3333333 11.6071429 11.3333333 -3.57142857 -4.72222222 -3.57142857"></polygon>
                </g>
                <g id="Group-15" transform="translate(24.555556, 4.464286)">
                    <mask id="mask-10" fill="white">
                        <use xlink:href="#path-9"></use>
                    </mask>
                    <g id="Clip-14"></g>
                    <polygon id="Fill-13" fill="#9C9A9A" mask="url(#mask-10)" points="-4.72222222 19.6428571 6.61111111 19.6428571 6.61111111 -4.46428571 -4.72222222 -4.46428571"></polygon>
                </g>
                <g id="Group-18" transform="translate(28.333333, 4.464286)">
                    <mask id="mask-12" fill="white">
                        <use xlink:href="#path-11"></use>
                    </mask>
                    <g id="Clip-17"></g>
                    <polygon id="Fill-16" fill="#9C9A9A" mask="url(#mask-12)" points="-4.72222222 16.0714286 6.61111111 16.0714286 6.61111111 -4.46428571 -4.72222222 -4.46428571"></polygon>
                </g>
                <g id="Group-21" transform="translate(33.055556, 4.464286)">
                    <mask id="mask-14" fill="white">
                        <use xlink:href="#path-13"></use>
                    </mask>
                    <g id="Clip-20"></g>
                    <polygon id="Fill-19" fill="#9C9A9A" mask="url(#mask-14)" points="-4.72222222 16.0714286 6.61111111 16.0714286 6.61111111 -4.46428571 -4.72222222 -4.46428571"></polygon>
                </g>
                <g id="Group-24" transform="translate(36.833333, 4.464286)">
                    <mask id="mask-16" fill="white">
                        <use xlink:href="#path-15"></use>
                    </mask>
                    <g id="Clip-23"></g>
                    <polygon id="Fill-22" fill="#9C9A9A" mask="url(#mask-16)" points="-4.72222222 19.6428571 6.61111111 19.6428571 6.61111111 -4.46428571 -4.72222222 -4.46428571"></polygon>
                </g>
                <g id="Group-27" transform="translate(40.611111, 4.464286)">
                    <mask id="mask-18" fill="white">
                        <use xlink:href="#path-17"></use>
                    </mask>
                    <g id="Clip-26"></g>
                    <polygon id="Fill-25" fill="#9C9A9A" mask="url(#mask-18)" points="-4.72222222 16.0714286 6.61111111 16.0714286 6.61111111 -4.46428571 -4.72222222 -4.46428571"></polygon>
                </g>
                <g id="Group-30" transform="translate(44.388889, 4.464286)">
                    <mask id="mask-20" fill="white">
                        <use xlink:href="#path-19"></use>
                    </mask>
                    <g id="Clip-29"></g>
                    <polygon id="Fill-28" fill="#9C9A9A" mask="url(#mask-20)" points="-4.72222222 19.6428571 6.61111111 19.6428571 6.61111111 -4.46428571 -4.72222222 -4.46428571"></polygon>
                </g>
                <g id="Group-33" transform="translate(28.333333, 16.964286)">
                    <mask id="mask-22" fill="white">
                        <use xlink:href="#path-21"></use>
                    </mask>
                    <g id="Clip-32"></g>
                    <polygon id="Fill-31" fill="#9C9A9A" mask="url(#mask-22)" points="-4.72222222 7.14285714 6.61111111 7.14285714 6.61111111 -3.57142857 -4.72222222 -3.57142857"></polygon>
                </g>
                <g id="Group-36" transform="translate(33.055556, 16.964286)">
                    <mask id="mask-24" fill="white">
                        <use xlink:href="#path-23"></use>
                    </mask>
                    <g id="Clip-35"></g>
                    <polygon id="Fill-34" fill="#9C9A9A" mask="url(#mask-24)" points="-4.72222222 7.14285714 6.61111111 7.14285714 6.61111111 -3.57142857 -4.72222222 -3.57142857"></polygon>
                </g>
                <g id="Group-39" transform="translate(40.611111, 16.964286)">
                    <mask id="mask-26" fill="white">
                        <use xlink:href="#path-25"></use>
                    </mask>
                    <g id="Clip-38"></g>
                    <polygon id="Fill-37" fill="#9C9A9A" mask="url(#mask-26)" points="-4.72222222 7.14285714 6.61111111 7.14285714 6.61111111 -3.57142857 -4.72222222 -3.57142857"></polygon>
                </g>
                <g id="Group-42" transform="translate(3.777778, 4.464286)">
                    <mask id="mask-28" fill="white">
                        <use xlink:href="#path-27"></use>
                    </mask>
                    <g id="Clip-41"></g>
                    <polygon id="Fill-40" fill="#9C9A9A" mask="url(#mask-28)" points="-4.72222222 19.6428571 6.61111111 19.6428571 6.61111111 -4.46428571 -4.72222222 -4.46428571"></polygon>
                </g>
                <g id="Group-45" transform="translate(8.500000, 4.464286)">
                    <mask id="mask-30" fill="white">
                        <use xlink:href="#path-29"></use>
                    </mask>
                    <g id="Clip-44"></g>
                    <polygon id="Fill-43" fill="#9C9A9A" mask="url(#mask-30)" points="-4.72222222 16.0714286 6.61111111 16.0714286 6.61111111 -4.46428571 -4.72222222 -4.46428571"></polygon>
                </g>
                <g id="Group-48" transform="translate(12.277778, 4.464286)">
                    <mask id="mask-32" fill="white">
                        <use xlink:href="#path-31"></use>
                    </mask>
                    <g id="Clip-47"></g>
                    <polygon id="Fill-46" fill="#9C9A9A" mask="url(#mask-32)" points="-4.72222222 16.0714286 6.61111111 16.0714286 6.61111111 -4.46428571 -4.72222222 -4.46428571"></polygon>
                </g>
                <g id="Group-51" transform="translate(16.055556, 4.464286)">
                    <mask id="mask-34" fill="white">
                        <use xlink:href="#path-33"></use>
                    </mask>
                    <g id="Clip-50"></g>
                    <polygon id="Fill-49" fill="#9C9A9A" mask="url(#mask-34)" points="-4.72222222 19.6428571 6.61111111 19.6428571 6.61111111 -4.46428571 -4.72222222 -4.46428571"></polygon>
                </g>
                <g id="Group-54" transform="translate(19.833333, 4.464286)">
                    <mask id="mask-36" fill="white">
                        <use xlink:href="#path-35"></use>
                    </mask>
                    <g id="Clip-53"></g>
                    <polygon id="Fill-52" fill="#9C9A9A" mask="url(#mask-36)" points="-4.72222222 16.0714286 6.61111111 16.0714286 6.61111111 -4.46428571 -4.72222222 -4.46428571"></polygon>
                </g>
                <g id="Group-57" transform="translate(8.500000, 16.964286)">
                    <mask id="mask-38" fill="white">
                        <use xlink:href="#path-37"></use>
                    </mask>
                    <g id="Clip-56"></g>
                    <polygon id="Fill-55" fill="#9C9A9A" mask="url(#mask-38)" points="-4.72222222 7.14285714 6.61111111 7.14285714 6.61111111 -3.57142857 -4.72222222 -3.57142857"></polygon>
                </g>
                <g id="Group-60" transform="translate(12.277778, 16.964286)">
                    <mask id="mask-40" fill="white">
                        <use xlink:href="#path-39"></use>
                    </mask>
                    <g id="Clip-59"></g>
                    <polygon id="Fill-58" fill="#9C9A9A" mask="url(#mask-40)" points="-4.72222222 7.14285714 6.61111111 7.14285714 6.61111111 -3.57142857 -4.72222222 -3.57142857"></polygon>
                </g>
                <g id="Group-63" transform="translate(19.833333, 16.964286)">
                    <mask id="mask-42" fill="white">
                        <use xlink:href="#path-41"></use>
                    </mask>
                    <g id="Clip-62"></g>
                    <polygon id="Fill-61" fill="#9C9A9A" mask="url(#mask-42)" points="-4.72222222 7.14285714 6.61111111 7.14285714 6.61111111 -3.57142857 -4.72222222 -3.57142857"></polygon>
                </g>
            </g>
        </g>
    </g>
</svg>