<svg xmlns="http://www.w3.org/2000/svg" width="29.45231mm" height="29.4526mm" viewBox="0 0 83.48686 83.48768"><title>Recurso 121</title><g id="Capa_2" data-name="Capa 2"><g id="Capa_1-2" data-name="Capa 1"><path d="M72.84625,30.86766a9.74187,9.74187,0,0,1,4.098-11.595,41.73183,41.73183,0,0,0-9.139-10.122,9.83451,9.83451,0,0,1-4.412,3.176,9.64226,9.64226,0,0,1-12.417-5.799,9.54947,9.54947,0,0,1-.305-5.566,41.39718,41.39718,0,0,0-13.815-.667,9.76139,9.76139,0,0,1-6.348,10.334,9.7128,9.7128,0,0,1-11.475-3.942,41.62726,41.62726,0,0,0-10.077,9.242,9.66082,9.66082,0,0,1,3.093,4.296,9.52415,9.52415,0,0,1-.329,7.392,9.65857,9.65857,0,0,1-10.805,5.385,41.04678,41.04678,0,0,0-.554,14.075,9.685,9.685,0,0,1,10.326,6.301,9.64942,9.64942,0,0,1-3.789,11.356,41.38918,41.38918,0,0,0,9.268,9.973,9.90965,9.90965,0,0,1,4.346-3.143,9.61836,9.61836,0,0,1,7.423.342,9.7346,9.7346,0,0,1,5.023,5.481,9.9979,9.9979,0,0,1,.356,5.262,41.43435,41.43435,0,0,0,13.422.524,9.68228,9.68228,0,0,1,17.749-6.411,41.5337,41.5337,0,0,0,10.061-9.246,10.08207,10.08207,0,0,1-3.168-4.347,9.86522,9.86522,0,0,1,.354-7.425,9.705,9.705,0,0,1,5.483-5.007,9.52557,9.52557,0,0,1,5.368-.336,41.36214,41.36214,0,0,0,.65-13.2A9.73335,9.73335,0,0,1,72.84625,30.86766Zm-26.679,23.205a13.03867,13.03867,0,1,1,7.821-16.688A13.05373,13.05373,0,0,1,46.16725,54.07266Z" style="fill:#fff"/></g></g></svg>