<?xml version="1.0" encoding="UTF-8"?>
<svg width="15px" height="17px" viewBox="0 0 15 17" version="1.1" xmlns="http://www.w3.org/2000/svg" xmlns:xlink="http://www.w3.org/1999/xlink">
    <!-- Generator: Sketch 51.3 (57544) - http://www.bohemiancoding.com/sketch -->
    <title>entrega_verde</title>
    <desc>Created with Sketch.</desc>
    <defs></defs>
    <g id="Page-1" stroke="none" stroke-width="1" fill="none" fill-rule="evenodd">
        <g id="2" transform="translate(-1506.000000, -1234.000000)" fill="#008894">
            <g id="entrega_verde" transform="translate(1506.000000, 1234.000000)">
                <g id="entregas">
                    <path d="M0.0629249124,2.93308825 C-0.189866569,1.9917937 0.340277147,1.01800164 1.2715398,0.713049533 C2.20280244,0.408097428 3.21180402,0.877879586 3.57184872,1.78405291 L7.20488236,12.7195064 C6.86758738,12.6329269 6.51548023,12.619545 6.17251411,12.680271 L2.62974216,2.09233068 C2.52896903,1.80397188 2.28101677,1.59093319 1.97928658,1.53346422 C1.6775564,1.47599526 1.36788829,1.58282692 1.16693123,1.81371675 C0.965974178,2.04460658 0.904258334,2.36447693 1.00503146,2.65283573 C1.06987567,2.82250275 1.03570459,3.01384445 0.91606805,3.15098837 C0.796431508,3.28813229 0.610658007,3.34892142 0.43241205,3.30925114 C0.254166093,3.26958086 0.112245143,3.13586031 0.0629249124,2.9611135 L0.0629249124,2.93308825 Z M14.3694052,11.5144205 L8.42905675,13.4649781 C8.64627493,13.7097929 8.8113143,13.9957997 8.91421341,14.3057357 L8.91421341,14.339366 L14.6796799,12.450464 C14.9279241,12.356806 15.0580367,12.0856415 14.9749725,11.8350517 C14.8919084,11.584462 14.6250818,11.4431847 14.3694052,11.5144205 Z M8.42905675,14.4626771 C8.76412598,15.4769432 8.20859903,16.5691147 7.18797261,16.9026609 C6.16734619,17.2362071 5.06775351,16.6849375 4.73140948,15.6710881 C4.39506544,14.6572386 4.94921896,13.5643785 5.96942527,13.229566 C6.46016198,13.0685154 6.99521855,13.1080033 7.45662151,13.3393229 C7.91802446,13.5706426 8.2678827,13.9747977 8.42905675,14.4626771 Z M7.50387426,14.7653498 C7.38104522,14.3922609 7.04394017,14.1295537 6.64998428,14.0999102 C6.25602838,14.0702667 5.8829476,14.2795354 5.70496742,14.6299898 C5.52698725,14.9804441 5.57922248,15.4029407 5.83727972,15.7001773 C6.09533695,15.9974139 6.50830251,16.1107469 6.88332504,15.9872508 C7.39354669,15.8192332 7.67098433,15.2729408 7.50387426,14.7653498 Z M12.863163,4.1157539 L14.8827687,10.1972337 C14.9041451,10.2596577 14.8994718,10.3279871 14.8697923,10.386964 C14.8401129,10.4459409 14.7878992,10.4906532 14.7248107,10.5111165 L8.37264318,12.5737751 C8.30981484,12.5950139 8.24104279,12.5903707 8.18168388,12.5608822 C8.12232498,12.5313938 8.0773231,12.4795161 8.05672721,12.4168337 L6.03712155,6.33535389 C6.01574516,6.2729299 6.02041846,6.20460044 6.05009792,6.14562355 C6.07977737,6.08664666 6.13199103,6.0419344 6.19507953,6.02147106 L12.5528884,3.93639229 C12.6157168,3.91515347 12.6844888,3.9197967 12.7438477,3.94928514 C12.8032066,3.97877359 12.8482085,4.03065122 12.8688044,4.0933337 L12.863163,4.1157539 Z M12.0226009,7.65254075 L9.85631996,6.4698751 L8.82395171,8.71189529 L9.50655585,9.02577812 L9.95222303,8.06170944 L10.758937,10.4830912 L11.5318029,10.230864 L10.7250889,7.80948217 L11.6615541,8.31954176 L12.0226009,7.65254075 Z M10.1214637,3.99804784 L8.84651713,0.108142814 C8.81960182,0.0264751024 8.73158646,-0.0184986265 8.64906965,0.00725190503 L7.52079833,0.371580186 L6.95666267,0.562151902 L7.43617798,2.01385997 L6.73664977,2.21564179 L6.25713446,0.763933719 L5.6929988,0.954505435 L4.56472748,1.31322867 C4.52103349,1.32879594 4.48644281,1.3626704 4.47014428,1.40585345 C4.45384574,1.44903649 4.45748932,1.49715652 4.48010713,1.53743068 L5.77197779,5.42733571 C5.78483759,5.46789702 5.81371379,5.50153685 5.8519967,5.52055511 C5.89027961,5.53957338 5.93469152,5.54234178 5.97506663,5.52822662 L10.0424847,4.19422461 C10.1158068,4.15886888 10.1500178,4.07389176 10.1214637,3.99804784 Z" id="Shape" fill-rule="nonzero"></path>
                </g>
            </g>
        </g>
    </g>
</svg>