<svg xmlns="http://www.w3.org/2000/svg" width="10.58333mm" height="10.58333mm" viewBox="0 0 30 30"><title>Recurso 196</title><g id="Capa_2" data-name="Capa 2"><g id="Capa_1-2" data-name="Capa 1"><rect width="30" height="30" style="fill:#058794"/><path d="M24.15607,27.25831H5.84393a.70158.70158,0,0,1-.70462-.697V3.43892a.70159.70159,0,0,1,.70462-.697l11.82376-.00026v7.193h7.193V26.56134A.70158.70158,0,0,1,24.15607,27.25831ZM5.84393,3.28181a.16113.16113,0,0,0-.16476.15711V26.56134a.15947.15947,0,0,0,.16476.15711H24.15607a.16113.16113,0,0,0,.16476-.15711V10.47455h-7.193v-7.193Z" style="fill:#fff"/><polygon points="19.134 3.164 20.798 4.828 19.306 6.319 21.129 8.142 22.62 6.65 24.286 8.317 24.286 3.161 19.134 3.164" style="fill:#fff"/></g></g></svg>