<?xml version="1.0" encoding="UTF-8"?>
<svg width="19px" height="15px" viewBox="0 0 19 15" version="1.1" xmlns="http://www.w3.org/2000/svg" xmlns:xlink="http://www.w3.org/1999/xlink">
    <!-- Generator: Sketch 51.3 (57544) - http://www.bohemiancoding.com/sketch -->
    <title>mover_gris</title>
    <desc>Created with Sketch.</desc>
    <defs></defs>
    <g id="Page-1" stroke="none" stroke-width="1" fill="none" fill-rule="evenodd">
        <g id="10" transform="translate(-1540.000000, -552.000000)" fill="#D8D9DD">
            <g id="mover_gris" transform="translate(1540.000000, 552.000000)">
                <path d="M17.5008377,3.99294118 C17.6774443,3.99294118 17.8817721,3.95823529 18.010723,4.07264706 C18.085477,4.13911765 18.0948213,4.22205882 18.0948213,4.31705882 L18.0948213,5.03441176 L18.0948213,7.59647059 L18.0948213,8.60294118 C18.0948213,8.77235294 18.1346902,9.00764706 17.984559,9.11029412 C17.8571656,9.19705882 17.6422475,9.16647059 17.4830836,9.16647059 L16.4795098,9.16647059 L12.0736902,9.16647059 C11.809559,9.16647059 11.7812148,8.95117647 11.7812148,8.75 L11.7812148,7.88323529 L11.7812148,5.29911765 L11.7812148,4.37058824 C11.7812148,4.29294118 11.7793459,4.22970588 11.803018,4.15735294 C11.8693623,3.95617647 12.1453295,3.99294118 12.3315918,3.99294118 C12.7234279,3.99294118 12.7234279,3.41941176 12.3315918,3.41941176 C12.0683951,3.41941176 11.8182803,3.41529412 11.5849852,3.55382353 C11.3273951,3.70705882 11.1741492,3.98676471 11.1741492,4.27205882 L11.1741492,4.83647059 L11.1741492,7.34294118 C11.1741492,7.87205882 11.1563951,8.40411765 11.1750836,8.93294118 C11.1887885,9.30970588 11.4859361,9.63176471 11.8690508,9.71823529 C11.962182,9.73941176 12.0559361,9.74 12.1503131,9.74 L12.8906902,9.74 L17.6743295,9.74 L17.8060836,9.74 C18.180477,9.74 18.5115754,9.515 18.6448869,9.18852941 C18.7258705,8.98911765 18.7018869,8.75441176 18.7018869,8.54441176 L18.7018869,6.15970588 L18.7018869,4.47705882 C18.7018869,4.31735294 18.7096738,4.16 18.6585918,4.005 C18.5657721,3.72323529 18.3078705,3.50911765 18.0069852,3.44117647 C17.8447066,3.40441176 17.6662311,3.41941176 17.5008377,3.41941176 C17.1090016,3.41941176 17.1090016,3.99294118 17.5008377,3.99294118" id="Fill-1"></path>
                <path d="M14.3882328,3.99294118 L15.5139049,3.99294118 C15.9054295,3.99294118 15.9054295,3.41941176 15.5139049,3.41941176 L14.3882328,3.41941176 C13.9963967,3.41941176 13.9963967,3.99294118 14.3882328,3.99294118" id="Fill-3"></path>
                <path d="M13.0607869,3.25464706 L13.0607869,4.44494118 C13.0607869,4.81494118 13.6678525,4.81494118 13.6678525,4.44494118 L13.6678525,3.25464706 C13.6678525,2.88494118 13.0607869,2.88494118 13.0607869,3.25464706" id="Fill-5"></path>
                <path d="M11.4863721,5.8935 L15.5268311,5.8935 L18.3896016,5.8935 C18.7814377,5.8935 18.7814377,5.31997059 18.3896016,5.31997059 L14.3491426,5.31997059 L11.4863721,5.31997059 C11.0945361,5.31997059 11.0945361,5.8935 11.4863721,5.8935" id="Fill-7"></path>
                <path d="M12.9686213,4.74417647 L13.751359,4.74417647 C14.1428836,4.74417647 14.1428836,4.17064706 13.751359,4.17064706 L12.9686213,4.17064706 C12.5770967,4.17064706 12.5770967,4.74417647 12.9686213,4.74417647" id="Fill-9"></path>
                <path d="M16.1907721,3.267 L16.1907721,4.45729412 C16.1907721,4.82729412 16.7978377,4.82729412 16.7978377,4.45729412 L16.7978377,3.267 C16.7978377,2.89729412 16.1907721,2.89729412 16.1907721,3.267" id="Fill-11"></path>
                <path d="M16.0986066,4.74417647 L16.8813443,4.74417647 C17.2728689,4.74417647 17.2728689,4.17064706 16.8813443,4.17064706 L16.0986066,4.17064706 C15.707082,4.17064706 15.707082,4.74417647 16.0986066,4.74417647" id="Fill-13"></path>
                <path d="M12.6729689,7.1415 L13.1772475,7.1415 C13.5690836,7.1415 13.5690836,6.56797059 13.1772475,6.56797059 L12.6729689,6.56797059 C12.2814443,6.56797059 12.2814443,7.1415 12.6729689,7.1415" id="Fill-15"></path>
                <path d="M14.6641066,7.1415 L15.1683852,7.1415 C15.5599098,7.1415 15.5599098,6.56797059 15.1683852,6.56797059 L14.6641066,6.56797059 C14.272582,6.56797059 14.272582,7.1415 14.6641066,7.1415" id="Fill-17"></path>
                <path d="M16.6552443,7.1415 L17.159523,7.1415 C17.5510475,7.1415 17.5510475,6.56797059 17.159523,6.56797059 L16.6552443,6.56797059 C16.2634082,6.56797059 16.2634082,7.1415 16.6552443,7.1415" id="Fill-19"></path>
                <path d="M12.6729689,8.48785294 L13.1772475,8.48785294 C13.5690836,8.48785294 13.5690836,7.91432353 13.1772475,7.91432353 L12.6729689,7.91432353 C12.2814443,7.91432353 12.2814443,8.48785294 12.6729689,8.48785294" id="Fill-21"></path>
                <path d="M14.6641066,8.48785294 L15.1683852,8.48785294 C15.5599098,8.48785294 15.5599098,7.91432353 15.1683852,7.91432353 L14.6641066,7.91432353 C14.272582,7.91432353 14.272582,8.48785294 14.6641066,8.48785294" id="Fill-23"></path>
                <path d="M8.46288033,2.94758824 C8.46038852,2.43052941 8.64384754,1.91141176 9.02976557,1.49494118 C9.26524098,1.25552941 9.53684754,1.06817647 9.83524098,0.959647059 C10.6282574,0.643176471 11.5542738,0.772294118 12.1865689,1.35141176 L11.6414869,1.86641176 C11.6131426,1.89288235 11.6128311,1.92788235 11.6218639,1.95405882 C11.6305852,1.98023529 11.6583066,2.00611765 11.6863393,1.99729412 L13.584782,2.24552941 C13.6682574,2.25347059 13.743323,2.18229412 13.7352246,2.10376471 L13.4720279,0.310823529 C13.4633066,0.284647059 13.4539623,0.258470588 13.4265525,0.249941176 C13.3988311,0.241411765 13.3617656,0.242 13.3334213,0.268764706 L12.7883393,0.783470588 C11.8261918,-0.107411765 10.3619459,-0.229764706 9.21229016,0.371411765 C8.86655246,0.559352941 8.54760164,0.808764706 8.28347049,1.12729412 C7.84958525,1.64082353 7.62750328,2.26552941 7.61940492,2.87905882 C7.61847049,2.93141176 7.66456885,2.97464706 7.71066721,2.98317647 L8.3314377,3.05435294 C8.39622459,3.06229412 8.46163443,3.01758824 8.46288033,2.94758824" id="Fill-25"></path>
                <path d="M6.02947869,3.19388235 C7.96685574,3.19388235 9.53606885,4.67741176 9.53606885,6.50623529 C9.53606885,8.33417647 7.96685574,9.81682353 6.02947869,9.81682353 C4.09210164,9.81682353 2.52382295,8.33388235 2.52382295,6.50623529 C2.5232,4.67741176 4.09179016,3.19388235 6.02947869,3.19388235" id="Fill-28"></path>
                <path d="M8.76037049,9.61638235 C8.03494426,10.2299118 7.07840328,10.6046176 6.0293541,10.6046176 C4.98061639,10.6046176 4.02376393,10.2299118 3.29927213,9.61638235 C1.35161639,10.5937353 0.014452459,12.5819706 0.000124590164,14.8802059 L12.0604525,14.8802059 C12.0455016,12.5819706 10.7074033,10.5937353 8.76037049,9.61638235" id="Fill-30"></path>
            </g>
        </g>
    </g>
</svg>