<?xml version="1.0" encoding="UTF-8"?>
<svg width="57px" height="57px" viewBox="0 0 57 57" version="1.1" xmlns="http://www.w3.org/2000/svg" xmlns:xlink="http://www.w3.org/1999/xlink">
    <!-- Generator: Sketch 51.3 (57544) - http://www.bohemiancoding.com/sketch -->
    <title>pop_up_alerta</title>
    <desc>Created with Sketch.</desc>
    <defs></defs>
    <g id="Page-1" stroke="none" stroke-width="1" fill="none" fill-rule="evenodd">
        <g id="9" transform="translate(-1149.000000, -549.000000)" fill="#008894">
            <g id="pop_up_alerta" transform="translate(1149.000000, 549.000000)">
                <g id="Shape">
                    <path d="M53.18005,14.1873 C50.63405,9.82585 47.18365,6.3707 42.80415,3.82185 C38.4446,1.27205 33.6756,0 28.50475,0 C23.332,0 18.563,1.27205 14.19965,3.8209 C9.8268,6.365 6.3745,9.82585 3.8247,14.1873 C1.27395,18.56205 0,23.32155 0,28.4962 C0,33.66515 1.27395,38.4389 3.8247,42.8051 C6.3745,47.1751 9.82585,50.62645 14.1949,53.17625 C18.563,55.72605 23.33105,57 28.5038,57 C33.67465,57 38.44365,55.7251 42.80415,53.17625 C47.1789,50.62645 50.63405,47.1751 53.18005,42.8051 C55.72795,38.4389 57,33.6661 57,28.4962 C57,23.32155 55.72795,18.5535 53.18005,14.1873 Z M33.25285,46.27165 C33.25285,46.61935 33.13885,46.9091 32.9118,47.14565 C32.7009,47.3841 32.42255,47.49525 32.1024,47.49525 L24.9831,47.49525 C24.6563,47.49525 24.37035,47.3727 24.13,47.1257 C23.8792,46.873 23.75285,46.5918 23.75285,46.27165 L23.75285,39.2198 C23.75285,38.9006 23.88015,38.61845 24.13,38.3686 C24.3675,38.1197 24.65725,37.9943 24.9774,37.9943 L32.10335,37.9943 C32.4235,37.9943 32.70185,38.1197 32.91275,38.34675 C33.1398,38.5852 33.24905,38.87875 33.24905,39.2198 L33.24905,46.27165 L33.25285,46.27165 Z M33.18255,33.5084 C33.1588,33.7554 33.02105,33.9739 32.79495,34.1544 C32.55935,34.34345 32.26295,34.43655 31.91525,34.43655 L25.0496,34.43655 C24.70475,34.43655 24.4093,34.34345 24.16515,34.1544 C23.91245,33.97485 23.78705,33.7554 23.78705,33.5084 L23.161,10.46045 C23.161,10.16785 23.27785,9.93985 23.53245,9.79355 C23.77755,9.59595 24.07775,9.4962 24.4245,9.4962 L32.585,9.4962 C32.9327,9.4962 33.2234,9.59405 33.47705,9.79355 C33.73165,9.93985 33.8466,10.1688 33.8466,10.46045 L33.18255,33.5084 Z" fill-rule="nonzero"></path>
                </g>
            </g>
        </g>
    </g>
</svg>