<?xml version="1.0" encoding="UTF-8"?>
<svg width="12px" height="17px" viewBox="0 0 12 17" version="1.1" xmlns="http://www.w3.org/2000/svg" xmlns:xlink="http://www.w3.org/1999/xlink">
    <!-- Generator: Sketch 51.3 (57544) - http://www.bohemiancoding.com/sketch -->
    <title>revision_verde</title>
    <desc>Created with Sketch.</desc>
    <defs></defs>
    <g id="Page-1" stroke="none" stroke-width="1" fill="none" fill-rule="evenodd">
        <g id="2" transform="translate(-1681.000000, -1234.000000)" fill="#008894">
            <g id="revision_verde" transform="translate(1681.000000, 1234.000000)">
                <g id="revision">
                    <path d="M10.8763636,1.15709677 L8.80909091,1.15709677 C8.69283822,0.814132252 8.37311864,0.582960721 8.01272727,0.581290323 L7.14,0.581290323 C6.87604756,0.218147894 6.45554821,0.00347460508 6.00818182,0.00347460508 C5.56081543,0.00347460508 5.14031608,0.218147894 4.87636364,0.581290323 L3.99272727,0.581290323 C3.63233591,0.582960721 3.31261632,0.814132252 3.19636364,1.15709677 L1.12909091,1.15709677 C0.507635155,1.15708948 0.00300220167,1.66198457 0,2.28677419 L0,15.5467742 C7.63664872e-17,16.1737065 0.505511219,16.6819355 1.12909091,16.6819355 L10.8763636,16.6819355 C11.4978121,16.6789171 12.0000073,16.1715711 12,15.5467742 L12,2.28677419 C12,1.65984192 11.4944888,1.1516129 10.8709091,1.1516129 L10.8763636,1.15709677 Z M3.19636364,2.84612903 C3.31261632,3.18909355 3.63233591,3.42026509 3.99272727,3.42193548 L8.00727273,3.42193548 C8.36766409,3.42026509 8.68738368,3.18909355 8.80363636,2.84612903 L10.3145455,2.84612903 L10.3145455,14.9874194 L1.68545455,14.9874194 L1.68545455,2.84612903 L3.19636364,2.84612903 Z M3.99272727,1.11870968 L5.01272727,1.11870968 C5.10988284,1.11926692 5.19968713,1.06677441 5.24727273,0.981612903 C5.40100705,0.707500399 5.68972497,0.537937548 6.00272727,0.537937548 C6.31572958,0.537937548 6.6044475,0.707500399 6.75818182,0.981612903 C6.80576741,1.06677441 6.8955717,1.11926692 6.99272727,1.11870968 L8.01272727,1.11870968 C8.18142516,1.11870968 8.31818182,1.25620159 8.31818182,1.42580645 L8.31818182,2.57741935 C8.31818182,2.74702422 8.18142516,2.88451613 8.01272727,2.88451613 L3.99272727,2.88451613 C3.91171569,2.88451613 3.83402213,2.85216138 3.77673829,2.79456957 C3.71945445,2.73697775 3.68727273,2.65886648 3.68727273,2.57741935 L3.68727273,1.42580645 C3.68727273,1.34435932 3.71945445,1.26624806 3.77673829,1.20865624 C3.83402213,1.15106442 3.91171569,1.11870968 3.99272727,1.11870968 Z" id="Shape" fill-rule="nonzero"></path>
                    <path d="M6,2.27032258 C6.14761065,2.27032258 6.26727273,2.15001716 6.26727273,2.0016129 L6.26727273,1.42580645 C6.26727273,1.27437354 6.14516857,1.1516129 5.99454545,1.1516129 C5.84392234,1.1516129 5.72181818,1.27437354 5.72181818,1.42580645 L5.72181818,2.0016129 C5.72181818,2.07287914 5.74997719,2.1412265 5.80010055,2.19161934 C5.85022391,2.24201218 5.91820577,2.27032258 5.98909091,2.27032258 L6,2.27032258 Z" id="Shape" fill-rule="nonzero"></path>
                    <path d="M6.28909091,6.01580645 L8.00727273,6.01580645 C8.15789584,6.01580645 8.28,5.89304582 8.28,5.7416129 C8.28,5.59017999 8.15789584,5.46741935 8.00727273,5.46741935 L6.28909091,5.46741935 C6.1384678,5.46741935 6.01636364,5.59017999 6.01636364,5.7416129 C6.01636364,5.89304582 6.1384678,6.01580645 6.28909091,6.01580645 Z" id="Shape" fill-rule="nonzero"></path>
                    <path d="M6.28909091,7.17290323 L9.15818182,7.17290323 C9.30880493,7.17290323 9.43090909,7.05014259 9.43090909,6.89870968 C9.43090909,6.74727676 9.30880493,6.62451613 9.15818182,6.62451613 L6.28909091,6.62451613 C6.1384678,6.62451613 6.01636364,6.74727676 6.01636364,6.89870968 C6.01636364,7.05014259 6.1384678,7.17290323 6.28909091,7.17290323 Z" id="Shape" fill-rule="nonzero"></path>
                    <path d="M3.51818182,7.11258065 C3.56845287,7.16416417 3.63726017,7.19323272 3.70909091,7.19323272 C3.78092165,7.19323272 3.84972895,7.16416417 3.9,7.11258065 L5.33454545,5.67032258 C5.43998163,5.56431954 5.43998162,5.39245466 5.33454545,5.28645162 C5.22910927,5.18044858 5.05816345,5.18044858 4.95272727,5.28645161 L3.70909091,6.52032258 L3.03818182,5.84580645 C2.93274564,5.73980341 2.76179982,5.73980341 2.65636364,5.84580645 C2.55092746,5.95180949 2.55092746,6.12367438 2.65636364,6.22967742 L3.51818182,7.11258065 Z" id="Shape" fill-rule="nonzero"></path>
                    <path d="M6.28909091,8.90032258 L8.00727273,8.90032258 C8.15789584,8.90032258 8.28,8.77756195 8.28,8.62612903 C8.28,8.47469612 8.15789584,8.35193548 8.00727273,8.35193548 L6.28909091,8.35193548 C6.1384678,8.35193548 6.01636364,8.47469612 6.01636364,8.62612903 C6.01636364,8.77756195 6.1384678,8.90032258 6.28909091,8.90032258 Z" id="Shape" fill-rule="nonzero"></path>
                    <path d="M6.28909091,10.0519355 L9.15818182,10.0519355 C9.30880493,10.0519355 9.43090909,9.92917485 9.43090909,9.77774194 C9.43090909,9.62630902 9.30880493,9.50354839 9.15818182,9.50354839 L6.28909091,9.50354839 C6.1384678,9.50354839 6.01636364,9.62630902 6.01636364,9.77774194 C6.01636364,9.92917485 6.1384678,10.0519355 6.28909091,10.0519355 Z" id="Shape" fill-rule="nonzero"></path>
                    <path d="M3.51818182,9.97516129 C3.56845287,10.0267448 3.63726017,10.0558134 3.70909091,10.0558134 C3.78092165,10.0558134 3.84972895,10.0267448 3.9,9.97516129 L5.33454545,8.53290323 C5.43998163,8.42690018 5.43998162,8.2550353 5.33454545,8.14903227 C5.22910927,8.04302923 5.05816345,8.04302922 4.95272727,8.14903226 L3.70909091,9.39935484 L3.03818182,8.72483871 C2.96997657,8.65626677 2.87056525,8.62948637 2.77739515,8.65458545 C2.68422505,8.67968452 2.61145091,8.75284991 2.58648606,8.84652093 C2.56152121,8.94019195 2.58815839,9.04013773 2.65636364,9.10870968 L3.51818182,9.97516129 Z" id="Shape" fill-rule="nonzero"></path>
                    <path d="M6.28909091,11.7848387 L8.00727273,11.7848387 C8.15789584,11.7848387 8.28,11.6620781 8.28,11.5106452 C8.28,11.3592122 8.15789584,11.2364516 8.00727273,11.2364516 L6.28909091,11.2364516 C6.1384678,11.2364516 6.01636364,11.3592122 6.01636364,11.5106452 C6.01636364,11.6620781 6.1384678,11.7848387 6.28909091,11.7848387 Z" id="Shape" fill-rule="nonzero"></path>
                    <path d="M6.28909091,12.9364516 L9.15818182,12.9364516 C9.30880493,12.9364516 9.43090909,12.813691 9.43090909,12.6622581 C9.43090909,12.5108251 9.30880493,12.3880645 9.15818182,12.3880645 L6.28909091,12.3880645 C6.1384678,12.3880645 6.01636364,12.5108251 6.01636364,12.6622581 C6.01636364,12.813691 6.1384678,12.9364516 6.28909091,12.9364516 Z" id="Shape" fill-rule="nonzero"></path>
                    <path d="M3.51818182,12.8541935 C3.56845287,12.9057771 3.63726017,12.9348456 3.70909091,12.9348456 C3.78092165,12.9348456 3.84972895,12.9057771 3.9,12.8541935 L5.33454545,11.4119355 C5.4027507,11.3433635 5.42938789,11.2434178 5.40442303,11.1497467 C5.37945818,11.0560757 5.30668404,10.9829103 5.21351394,10.9578113 C5.12034384,10.9327122 5.02093252,10.9594926 4.95272727,11.0280645 L3.70909091,12.283871 L3.03818182,11.6093548 C2.96997657,11.5407829 2.87056525,11.5140025 2.77739515,11.5391016 C2.68422505,11.5642006 2.61145091,11.637366 2.58648606,11.7310371 C2.56152121,11.8247081 2.58815839,11.9246539 2.65636364,11.9932258 L3.51818182,12.8541935 Z" id="Shape" fill-rule="nonzero"></path>
                </g>
            </g>
        </g>
    </g>
</svg>