<?xml version="1.0" encoding="UTF-8"?>
<svg width="19px" height="21px" viewBox="0 0 19 21" version="1.1" xmlns="http://www.w3.org/2000/svg" xmlns:xlink="http://www.w3.org/1999/xlink">
    <!-- Generator: Sketch 51.3 (57544) - http://www.bohemiancoding.com/sketch -->
    <title>Fill 1</title>
    <desc>Created with Sketch.</desc>
    <defs>
        <path d="M0,5.13022222 L0,5.25233333 C0.0126927523,6.37466667 0.375705467,7.48611111 1.10003853,8.34633333 L5.50019265,14 L9.90034677,8.34633333 C11.5419427,6.398 11.3244736,3.15466667 9.38925195,1.43266667 C8.3154451,0.476777778 6.90739578,0 5.50019265,0 C4.09214333,0 2.6849402,0.476777778 1.61028717,1.43266667 C0.560173467,2.36677778 0.0160774862,3.74966667 0,5.13022222 Z" id="path-1"></path>
        <path d="M4,5.49962509 C4,6.32816796 4.67125,7 5.5,7 C6.32875,7 7,6.32816796 7,5.49962509 C7,4.67183204 6.32875,4 5.5,4 C4.67125,4 4,4.67183204 4,5.49962509 Z" id="path-3"></path>
    </defs>
    <g id="Page-1" stroke="none" stroke-width="1" fill="none" fill-rule="evenodd">
        <g id="3" transform="translate(-602.000000, -545.000000)">
            <rect fill="#F2F2F2" x="0" y="0" width="2353" height="1323"></rect>
            <polygon id="Fill-1" fill="#1A1A1A" points="0 1323 2353 1323 2353 0 0 0"></polygon>
            <g id="Page-1" transform="translate(543.000000, 91.000000)">
                <polygon id="Fill-1" fill="#FFFFFF" points="0 1183 1775 1183 1775 0 0 0"></polygon>
                <path d="M0,1185 L1775,1185 L1775,0 L0,0 L0,1185 Z M1.57079646,1183.96347 L1773.42606,1183.96347 L1773.42606,1.0344647 L1.57079646,1.0344647 L1.57079646,1183.96347 Z" id="Fill-2"></path>
            </g>
            <g id="Group-18" transform="translate(560.000000, 367.000000)">
                <g id="Group-22" transform="translate(0.000000, 34.000000)">
                    <g id="Group-11">
                        <g id="Group-10">
                            <g id="Group-9">
                                <g id="Group" transform="translate(1.000000, 0.000000)" font-family="Roboto-Bold, Roboto" font-size="16" font-weight="bold">
                                    <text id="#1-·-Nombre-del-clie">
                                        <tspan x="13" y="120" fill="#424242">#1 · Nombre del cliente lorem ese una esti unopli  </tspan>
                                        <tspan x="13" y="141" fill="#424242">        a dos renglones.</tspan>
                                        <tspan x="13" y="162" fill="#424242">      </tspan>
                                        <tspan x="36.90625" y="162" font-family="Roboto-Regular, Roboto" font-weight="normal" fill="#424242">       </tspan>
                                        <tspan x="64.6328125" y="162" font-family="Roboto-Regular, Roboto" font-size="14" font-weight="normal" fill="#424242">Zona CDMX Norte</tspan>
                                        <tspan x="13" y="183" font-family="Roboto-Regular, Roboto" font-size="14" font-weight="normal" fill="#424242">         Dirección completa delegación, dos por que es larga </tspan>
                                        <tspan x="13" y="202" font-family="Roboto-Regular, Roboto" font-size="14" font-weight="normal" fill="#424242">         calle y número.</tspan>
                                        <tspan x="13" y="221" font-family="Roboto-Regular, Roboto" font-weight="normal" fill="#424242">              </tspan>
                                        <tspan x="68.453125" y="221" font-family="Roboto-Regular, Roboto" font-size="14" font-weight="normal" fill="#424242">TEE: 20 min · TET: 45 min</tspan>
                                        <tspan x="13" y="242" font-family="Roboto-Regular, Roboto" font-size="14" font-weight="normal" fill="#424242">         </tspan>
                                        <tspan x="44.1923828" y="242" font-family="Roboto-Regular, Roboto" font-size="14" font-weight="normal" fill="#008894">Horario Cliente: 10:00 - 11:00 hrs · 13:00 - 16:00 hrs</tspan>
                                        <tspan x="361.496094" y="242" font-family="Roboto-Medium, Roboto" font-size="14" font-weight="400" fill="#008894"></tspan>
                                        <tspan x="13" y="261" font-family="Roboto-Regular, Roboto" font-size="14" font-weight="normal" fill="#424242">         </tspan>
                                        <tspan x="44.1923828" y="261" font-family="Roboto-Light, Roboto" font-size="14" font-weight="300" fill="#424242">2 Eventos:         ·  </tspan>
                                        <tspan x="147.914062" y="261" font-family="Roboto-Regular, Roboto" font-size="14" font-weight="normal" fill="#424242"></tspan>
                                        <tspan x="13" y="280" font-family="Roboto-Regular, Roboto" font-size="14" font-weight="normal" fill="#424242">         </tspan>
                                        <tspan x="44.1923828" y="280" font-family="Roboto-Light, Roboto" font-size="14" font-weight="300" fill="#424242">Monto: $ 100, 000 USD</tspan>
                                    </text>
                                </g>
                                <g id="Group-6" transform="translate(46.000000, 148.000000)">
                                    <mask id="mask-2" fill="white">
                                        <use xlink:href="#path-1"></use>
                                    </mask>
                                    <g id="Clip-2"></g>
                                    <polygon id="Fill-1" fill="#008894" mask="url(#mask-2)" points="-4 17 15 17 15 -4 -4 -4"></polygon>
                                    <mask id="mask-4" fill="white">
                                        <use xlink:href="#path-3"></use>
                                    </mask>
                                    <g id="Clip-5"></g>
                                    <polygon id="Fill-4" fill="#FFFFFF" mask="url(#mask-4)" points="0 11 12 11 12 0 0 0"></polygon>
                                </g>
                            </g>
                        </g>
                    </g>
                </g>
            </g>
        </g>
    </g>
</svg>